<svg xmlns="http://www.w3.org/2000/svg" viewBox="0 0 60 60"><defs><style>.cls-1{fill:#ffa742;}.cls-2{fill:none;}.cls-3{fill:#fff6e6;}.cls-4{fill:#ffebcc;}.cls-5{fill:#ffc670;}.cls-6{fill:#d8e3f0;}.cls-7{fill:#edf4ff;}.cls-8{fill:#3d3d63;}</style></defs><title>Air Tickets</title><g id="图层_2" data-name="图层 2"><g id="Grid"><g id="Air_Tickets" data-name="Air Tickets"><path class="cls-1" d="M30.15,22.73a1,1,0,0,0-.78-.71L12.11,18.35a1.67,1.67,0,0,0-1.29.24,1.7,1.7,0,0,0-.75,1.08L8.84,25.48a1,1,0,0,0,1,1.25H26.49a1.06,1.06,0,0,0,.73-.3l2.67-2.68A1.05,1.05,0,0,0,30.15,22.73Z"/><rect class="cls-2" width="60" height="60"/><path class="cls-3" d="M48.45,24.67H14.76a1,1,0,0,0-1,1v22a1,1,0,0,0,1,1H48.45a2.41,2.41,0,0,0,2.4-2.41V27.07A2.4,2.4,0,0,0,48.45,24.67Z"/><path class="cls-4" d="M50.85,46.32V27.07a2.43,2.43,0,0,0-.36-1.25c-2.41,4.47-5.66,9.4-9.46,12.4-8.31,6.53-26.27,3.87-26.27,3.87l-1,1.4v4.2a1,1,0,0,0,1,1H48.45A2.41,2.41,0,0,0,50.85,46.32Z"/><polygon class="cls-5" points="5 33.03 7.75 36.7 5 40.36 7.75 44.03 5 47.69 14.76 47.69 14.76 25.7 5 25.7 7.75 29.36 5 33.03"/><path class="cls-1" d="M14.76,47.69V42.35a20.65,20.65,0,0,1-9.31-2.59l-.45.6L7.75,44,5,47.69Z"/><polygon class="cls-6" points="39.61 36.44 30.86 27.69 32.32 26.23 38.64 28.66 41.07 34.98 39.61 36.44"/><path class="cls-7" d="M35,33.25h0a.8.8,0,0,1-1-1h0a12.07,12.07,0,0,1,3.16-5.59L49.89,14A3.39,3.39,0,0,1,52,13h0a2.06,2.06,0,0,1,2.23,2.24v.07a3.37,3.37,0,0,1-1,2.1L40.61,30.09A12,12,0,0,1,35,33.25Z"/><path class="cls-6" d="M52.78,13.11a2.23,2.23,0,0,1,.07.82V14a3.77,3.77,0,0,1-1.08,2.2L38.33,29.62A13.4,13.4,0,0,1,34,32.51a.81.81,0,0,0,1,.74h0a12,12,0,0,0,5.58-3.16L53.26,17.44a3.37,3.37,0,0,0,1-2.1v-.07A2.07,2.07,0,0,0,52.78,13.11Z"/><path class="cls-2" d="M35,33.25h0a.8.8,0,0,1-1-1h0a12.07,12.07,0,0,1,3.16-5.59L49.89,14A3.39,3.39,0,0,1,52,13h0a2.06,2.06,0,0,1,2.23,2.24v.07a3.37,3.37,0,0,1-1,2.1L40.61,30.09A12,12,0,0,1,35,33.25Z"/><polygon class="cls-6" points="52.74 36.06 44.82 25.88 49.91 20.79 55 33.8 52.74 36.06"/><polygon class="cls-6" points="31.25 14.57 41.43 22.49 46.52 17.4 33.51 12.31 31.25 14.57"/><path class="cls-8" d="M14.76,37.45a1,1,0,0,0-1,1v3.58a1,1,0,0,0,2.06,0V38.48A1,1,0,0,0,14.76,37.45Z"/><path class="cls-8" d="M15.79,31.33a1,1,0,0,0-2.06,0v3.58a1,1,0,0,0,2.06,0Z"/><path class="cls-8" d="M21.52,32.09h4.24a1,1,0,0,0,0-2.06H21.52a1,1,0,1,0,0,2.06Z"/><path class="cls-8" d="M35.93,38.36a1,1,0,0,0-1-1H21.52a1,1,0,1,0,0,2.06H34.9A1,1,0,0,0,35.93,38.36Z"/><path class="cls-8" d="M21.52,41.3a1,1,0,1,0,0,2.06h10a1,1,0,0,0,0-2.06Z"/><path class="cls-8" d="M56,33.42,51.12,21,54,18.17a4.49,4.49,0,0,0,1.29-2.8,3,3,0,0,0-.88-2.46v0A3.1,3.1,0,0,0,51.94,12a4.51,4.51,0,0,0-2.78,1.29l-2.9,2.9L33.89,11.35a1,1,0,0,0-1.11.23l-2.26,2.26a1,1,0,0,0-.3.79,1.06,1.06,0,0,0,.3.67.39.39,0,0,0,.1.08l2.47,1.92-.31.31a1,1,0,0,0,1.46,1.46l.49-.49,1.75,1.36-.32.32a1,1,0,0,0,1.46,1.46l.5-.5,1.75,1.36L36.49,26l-.53.57-3.27-1.26a1,1,0,0,0-1.1.24L30.14,27a1,1,0,0,0,0,1.46l3.07,3.07c-.05.18-.11.36-.15.54a1.83,1.83,0,0,0,2.22,2.22l.53-.15,3.08,3.07a1,1,0,0,0,1.45,0l1.46-1.46a1,1,0,0,0,.23-1.1l-1.25-3.27c.19-.17.38-.34.56-.52l3.38-3.39,1.37,1.76-.5.49a1,1,0,0,0,0,1.46,1,1,0,0,0,1.46,0l.31-.31,1.37,1.75-.49.49a1,1,0,0,0,1.46,1.46l.3-.31,1.92,2.47.09.1a1.09,1.09,0,0,0,.66.3,1,1,0,0,0,.8-.3l2.26-2.27A1,1,0,0,0,56,33.42ZM34,29.4l-1.71-1.71.26-.25,2.1.8A13.2,13.2,0,0,0,34,29.4ZM32.8,14.47l1-1,10.91,4.27-3.33,3.33ZM39.61,35l-1.7-1.7c.39-.2.78-.42,1.15-.65l.81,2.1Zm.27-5.62a11.07,11.07,0,0,1-4.72,2.79A11,11,0,0,1,38,27.42L50.62,14.75a2.42,2.42,0,0,1,1.5-.7,1,1,0,0,1,.81.3h0a1,1,0,0,1,.28.88,2.33,2.33,0,0,1-.69,1.47ZM52.83,34.5,46.19,26l3.34-3.33,4.26,10.91Z"/><path class="cls-8" d="M21.52,32.09h4.24a1,1,0,0,0,0-2.06H21.52a1,1,0,1,0,0,2.06Z"/><path class="cls-8" d="M20.49,38.36a1,1,0,0,0,1,1H34.89a1,1,0,1,0,0-2.06H21.52A1,1,0,0,0,20.49,38.36Z"/><path class="cls-8" d="M21.52,41.3a1,1,0,1,0,0,2.06h10a1,1,0,1,0,0-2.06Z"/><path class="cls-8" d="M49.82,39.56a1,1,0,0,0-1,1v5.73a.35.35,0,0,1-.35.34H7.06l1.51-2a1,1,0,0,0,0-1.24l-2.28-3,2.28-3a1,1,0,0,0,0-1.23L6.29,33,8.57,30a1,1,0,0,0,0-1.23l-1.51-2H24.9a1,1,0,1,0,0-2.06H11.09l.9-4.23L29,24a1,1,0,0,0,.43-2l-17.3-3.68a1.72,1.72,0,0,0-2,1.32L9,24.67H5a1,1,0,0,0-.83,1.65l2.29,3-2.29,3a1.05,1.05,0,0,0,0,1.24L6.46,36.7l-2.29,3a1.05,1.05,0,0,0,0,1.24L6.46,44l-2.29,3a1,1,0,0,0-.09,1.07,1,1,0,0,0,.92.58H48.44a2.41,2.41,0,0,0,2.41-2.41V40.59A1,1,0,0,0,49.82,39.56Z"/></g></g></g></svg>