<?xml version="1.0" encoding="UTF-8"?>
<svg width="54px" height="38px" viewBox="0 0 54 38" version="1.1" xmlns="http://www.w3.org/2000/svg" xmlns:xlink="http://www.w3.org/1999/xlink">
    <!-- Generator: sketchtool 50.2 (55047) - http://www.bohemiancoding.com/sketch -->
    <title>EBD97195-F8C1-4610-9430-4D1A94191596</title>
    <desc>Created with sketchtool.</desc>
    <defs></defs>
    <g id="How-to-apply" stroke="none" stroke-width="1" fill="none" fill-rule="evenodd">
        <g transform="translate(-871.000000, -871.000000)" id="Group-6">
            <g transform="translate(860.000000, 860.000000)">
                <g id="Air-Tickets" transform="translate(8.000000, 0.000000)">
                    <path d="M30.15,22.73 C30.0460959,22.3643086 29.743822,22.0891618 29.37,22.02 L12.11,18.35 C11.6652652,18.2506464 11.1992454,18.3373478 10.82,18.59 C10.4352618,18.8348324 10.1650229,19.2239765 10.07,19.67 L8.84,25.48 C8.76109322,25.7849429 8.83047511,26.1092404 9.0272456,26.3552035 C9.22401608,26.6011666 9.5251737,26.7400435 9.84,26.73 L26.49,26.73 C26.762878,26.7276941 27.0243544,26.620238 27.22,26.43 L29.89,23.75 C30.1531383,23.4811298 30.2523215,23.0920266 30.15,22.73 Z" id="Shape" fill="#FFA742" fill-rule="nonzero"></path>
                    <rect id="Rectangle-path" x="0" y="0" width="60" height="60"></rect>
                    <path d="M48.45,24.67 L14.76,24.67 C14.2077153,24.67 13.76,25.1177153 13.76,25.67 L13.76,47.67 C13.76,48.2222847 14.2077153,48.67 14.76,48.67 L48.45,48.67 C49.7770993,48.6644933 50.8500114,47.5871108 50.85,46.26 L50.85,27.07 C50.85,25.7445166 49.7754834,24.67 48.45,24.67 Z" id="Shape" fill="#FFF6E6" fill-rule="nonzero"></path>
                    <path d="M50.85,46.32 L50.85,27.07 C50.8458254,26.6283602 50.7213658,26.1962088 50.49,25.82 C48.08,30.29 44.83,35.22 41.03,38.22 C32.72,44.75 14.76,42.09 14.76,42.09 L13.76,43.49 L13.76,47.69 C13.76,48.2422847 14.2077153,48.69 14.76,48.69 L48.45,48.69 C49.761647,48.6847379 50.8282403,47.631477 50.85,46.32 Z" id="Shape" fill="#FFEBCC" fill-rule="nonzero"></path>
                    <polygon id="Shape" fill="#FFC670" fill-rule="nonzero" points="5 33.03 7.75 36.7 5 40.36 7.75 44.03 5 47.69 14.76 47.69 14.76 25.7 5 25.7 7.75 29.36"></polygon>
                    <path d="M14.76,47.69 L14.76,42.35 C11.4954969,42.2351698 8.30480371,41.3475334 5.45,39.76 L5,40.36 L7.75,44 L5,47.69 L14.76,47.69 Z" id="Shape" fill="#FFA742" fill-rule="nonzero"></path>
                    <polygon id="Shape" fill="#D8E3F0" fill-rule="nonzero" points="39.61 36.44 30.86 27.69 32.32 26.23 38.64 28.66 41.07 34.98"></polygon>
                    <path d="M35,33.25 C34.7167378,33.3372209 34.4084666,33.2606872 34.1988897,33.0511103 C33.9893128,32.8415334 33.9127791,32.5332622 34,32.25 C34.5292629,30.1355174 35.6212421,28.20382 37.16,26.66 L49.89,14 C50.4527226,13.4273195 51.200439,13.0729515 52,13 C52.6078968,12.9471045 53.2079633,13.1664315 53.6384691,13.5988678 C54.0689749,14.0313041 54.2856149,14.632346 54.23,15.24 L54.23,15.31 C54.1564515,16.1064943 53.8019918,16.8508596 53.23,17.41 L40.61,30.09 C39.0627835,31.6347201 37.1229501,32.7273892 35,33.25 Z" id="Shape" fill="#EDF4FF" fill-rule="nonzero"></path>
                    <path d="M52.78,13.11 C52.854005,13.3766233 52.8777424,13.654691 52.85,13.93 L52.85,14 C52.7450608,14.8331476 52.3649675,15.6074118 51.77,16.2 L38.33,29.62 C37.0894703,30.8571318 35.6183805,31.8389908 34,32.51 C34.0139614,32.7498511 34.1336797,32.9711275 34.3268084,33.1140427 C34.5199371,33.2569579 34.7665445,33.3067626 35,33.25 C37.1122166,32.7223508 39.0410929,31.6300123 40.58,30.09 L53.26,17.44 C53.8319918,16.8808596 54.1864515,16.1364943 54.26,15.34 L54.26,15.27 C54.3425451,14.2898074 53.7238849,13.3868979 52.78,13.11 Z" id="Shape" fill="#D8E3F0" fill-rule="nonzero"></path>
                    <path d="M35,33.25 C34.7167378,33.3372209 34.4084666,33.2606872 34.1988897,33.0511103 C33.9893128,32.8415334 33.9127791,32.5332622 34,32.25 C34.5292629,30.1355174 35.6212421,28.20382 37.16,26.66 L49.89,14 C50.4527226,13.4273195 51.200439,13.0729515 52,13 C52.6078968,12.9471045 53.2079633,13.1664315 53.6384691,13.5988678 C54.0689749,14.0313041 54.2856149,14.632346 54.23,15.24 L54.23,15.31 C54.1564515,16.1064943 53.8019918,16.8508596 53.23,17.41 L40.61,30.09 C39.0627835,31.6347201 37.1229501,32.7273892 35,33.25 Z" id="Shape"></path>
                    <polygon id="Shape" fill="#D8E3F0" fill-rule="nonzero" points="52.74 36.06 44.82 25.88 49.91 20.79 55 33.8"></polygon>
                    <polygon id="Shape" fill="#D8E3F0" fill-rule="nonzero" points="31.25 14.57 41.43 22.49 46.52 17.4 33.51 12.31"></polygon>
                    <path d="M14.76,37.45 C14.2077153,37.45 13.76,37.8977153 13.76,38.45 L13.76,42.03 C13.76,42.5988533 14.2211467,43.06 14.79,43.06 C15.3588533,43.06 15.82,42.5988533 15.82,42.03 L15.82,38.48 C15.8289531,38.1988824 15.7191068,37.926991 15.5173919,37.730985 C15.315677,37.534979 15.0407448,37.4329819 14.76,37.45 Z" id="Shape" fill="#3D3D63" fill-rule="nonzero"></path>
                    <path d="M15.79,31.33 C15.79,30.7611467 15.3288533,30.3 14.76,30.3 C14.1911467,30.3 13.73,30.7611467 13.73,31.33 L13.73,34.91 C13.73,35.4788533 14.1911467,35.94 14.76,35.94 C15.3288533,35.94 15.79,35.4788533 15.79,34.91 L15.79,31.33 Z" id="Shape" fill="#3D3D63" fill-rule="nonzero"></path>
                    <path d="M21.52,32.09 L25.76,32.09 C26.3288533,32.09 26.79,31.6288533 26.79,31.06 C26.79,30.4911467 26.3288533,30.03 25.76,30.03 L21.52,30.03 C20.9511467,30.03 20.49,30.4911467 20.49,31.06 C20.49,31.6288533 20.9511467,32.09 21.52,32.09 Z" id="Shape" fill="#3D3D63" fill-rule="nonzero"></path>
                    <path d="M35.93,38.36 C35.93,37.8077153 35.4822847,37.36 34.93,37.36 L21.52,37.36 C20.9511467,37.36 20.49,37.8211467 20.49,38.39 C20.49,38.9588533 20.9511467,39.42 21.52,39.42 L34.9,39.42 C35.1811176,39.4289531 35.453009,39.3191068 35.649015,39.1173919 C35.845021,38.915677 35.9470181,38.6407448 35.93,38.36 Z" id="Shape" fill="#3D3D63" fill-rule="nonzero"></path>
                    <path d="M21.52,41.3 C20.9511467,41.3 20.49,41.7611467 20.49,42.33 C20.49,42.8988533 20.9511467,43.36 21.52,43.36 L31.52,43.36 C32.0888533,43.36 32.55,42.8988533 32.55,42.33 C32.55,41.7611467 32.0888533,41.3 31.52,41.3 L21.52,41.3 Z" id="Shape" fill="#3D3D63" fill-rule="nonzero"></path>
                    <path d="M56,33.42 L51.12,21 L54,18.17 C54.7469829,17.4181648 55.2039355,16.4263297 55.29,15.37 C55.387884,14.4586223 55.0637437,13.5525028 54.41,12.91 C53.7627235,12.2548136 52.8576338,11.9213595 51.94,12 C50.8911628,12.0923118 49.9076775,12.5486773 49.16,13.29 L46.26,16.19 L33.89,11.35 C33.5080819,11.189298 33.0666174,11.2807727 32.78,11.58 L30.52,13.84 C30.3081825,14.0460696 30.1983577,14.3352748 30.22,14.63 C30.2370052,14.881937 30.3433893,15.1195282 30.52,15.3 C30.5486975,15.3319946 30.5824863,15.3590256 30.62,15.38 L33.09,17.3 L32.78,17.61 C32.3768322,18.0131679 32.3768322,18.6668321 32.78,19.07 C33.1831679,19.4731678 33.8368321,19.4731678 34.24,19.07 L34.73,18.58 L36.48,19.94 L36.16,20.26 C35.7568322,20.6631679 35.7568322,21.3168321 36.16,21.72 C36.5631679,22.1231678 37.2168321,22.1231678 37.62,21.72 L38.12,21.22 L39.87,22.58 L36.49,26 L35.96,26.57 L32.69,25.31 C32.3088504,25.1563826 31.8725235,25.2515812 31.59,25.55 L30.14,27 C29.9380497,27.1890717 29.8234471,27.4533557 29.8234471,27.73 C29.8234471,28.0066443 29.9380497,28.2709283 30.14,28.46 L33.21,31.53 C33.16,31.71 33.1,31.89 33.06,32.07 C32.9036258,32.6939045 33.0862756,33.3540984 33.5410886,33.8089114 C33.9959016,34.2637244 34.6560955,34.4463742 35.28,34.29 L35.81,34.14 L38.89,37.21 C39.078794,37.4087308 39.3408885,37.5212511 39.615,37.5212511 C39.8891115,37.5212511 40.151206,37.4087308 40.34,37.21 L41.8,35.75 C42.0949276,35.4651596 42.1860943,35.029145 42.03,34.65 L40.78,31.38 C40.97,31.21 41.16,31.04 41.34,30.86 L44.72,27.47 L46.09,29.23 L45.59,29.72 C45.3880497,29.9090717 45.2734471,30.1733557 45.2734471,30.45 C45.2734471,30.7266443 45.3880497,30.9909283 45.59,31.18 C45.7790717,31.3819503 46.0433557,31.4965529 46.32,31.4965529 C46.5966443,31.4965529 46.8609283,31.3819503 47.05,31.18 L47.36,30.87 L48.73,32.62 L48.24,33.11 C47.9791961,33.3708039 47.8773406,33.7509338 47.9728015,34.1071985 C48.0682623,34.4634633 48.3465367,34.7417377 48.7028015,34.8371985 C49.0590662,34.9326594 49.4391961,34.8308039 49.7,34.57 L50,34.26 L51.92,36.73 L52.01,36.83 C52.1893253,37.0023773 52.4222142,37.1082358 52.67,37.13 C52.9681147,37.1546874 53.2616259,37.0446207 53.47,36.83 L55.73,34.56 C56.0564719,34.2780164 56.1653144,33.8184593 56,33.42 Z M34,29.4 L32.29,27.69 L32.55,27.44 L34.65,28.24 C34.4139832,28.6155013 34.1970413,29.002659 34,29.4 Z M32.8,14.47 L33.8,13.47 L44.71,17.74 L41.38,21.07 L32.8,14.47 Z M39.61,35 L37.91,33.3 C38.3,33.1 38.69,32.88 39.06,32.65 L39.87,34.75 L39.61,35 Z M39.88,29.38 C38.5655155,30.6910836 36.9423976,31.6505114 35.16,32.17 C35.6863883,30.3705081 36.6639951,28.7354264 38,27.42 L50.62,14.75 C51.0221745,14.3476029 51.5532624,14.0997619 52.12,14.05 C52.4214932,14.0222217 52.7193379,14.1325345 52.93,14.35 C53.1612971,14.5800948 53.2658068,14.908554 53.21,15.23 C53.1637179,15.7868882 52.9188348,16.3085957 52.52,16.7 L39.88,29.38 Z M52.83,34.5 L46.19,26 L49.53,22.67 L53.79,33.58 L52.83,34.5 Z" id="Shape" fill="#3D3D63" fill-rule="nonzero"></path>
                    <path d="M21.52,32.09 L25.76,32.09 C26.3288533,32.09 26.79,31.6288533 26.79,31.06 C26.79,30.4911467 26.3288533,30.03 25.76,30.03 L21.52,30.03 C20.9511467,30.03 20.49,30.4911467 20.49,31.06 C20.49,31.6288533 20.9511467,32.09 21.52,32.09 Z" id="Shape" fill="#3D3D63" fill-rule="nonzero"></path>
                    <path d="M20.49,38.36 C20.49,38.9122847 20.9377153,39.36 21.49,39.36 L34.89,39.36 C35.4588533,39.36 35.92,38.8988533 35.92,38.33 C35.92,37.7611467 35.4588533,37.3 34.89,37.3 L21.52,37.3 C21.2388824,37.2910469 20.966991,37.4008932 20.770985,37.6026081 C20.574979,37.804323 20.4729819,38.0792552 20.49,38.36 Z" id="Shape" fill="#3D3D63" fill-rule="nonzero"></path>
                    <path d="M21.52,41.3 C20.9511467,41.3 20.49,41.7611467 20.49,42.33 C20.49,42.8988533 20.9511467,43.36 21.52,43.36 L31.52,43.36 C32.0888533,43.36 32.55,42.8988533 32.55,42.33 C32.55,41.7611467 32.0888533,41.3 31.52,41.3 L21.52,41.3 Z" id="Shape" fill="#3D3D63" fill-rule="nonzero"></path>
                    <path d="M49.82,39.56 C49.2677153,39.56 48.82,40.0077153 48.82,40.56 L48.82,46.29 C48.8145868,46.4793835 48.6594608,46.6300773 48.47,46.63 L7.06,46.63 L8.57,44.63 C8.85719759,44.2665552 8.85719759,43.7534448 8.57,43.39 L6.29,40.39 L8.57,37.39 C8.85196386,37.0284778 8.85196386,36.5215222 8.57,36.16 L6.29,33 L8.57,30 C8.85196386,29.6384778 8.85196386,29.1315222 8.57,28.77 L7.06,26.77 L24.9,26.77 C25.4688533,26.77 25.93,26.3088533 25.93,25.74 C25.93,25.1711467 25.4688533,24.71 24.9,24.71 L11.09,24.71 L11.99,20.48 L29,24 C29.3572656,24.0768121 29.7283714,23.9571905 29.9735254,23.6861955 C30.2186794,23.4152004 30.300637,23.0340026 30.1885254,22.6861955 C30.0764138,22.3383883 29.7872656,22.0768121 29.43,22 L12.13,18.32 C11.2160778,18.1468061 10.3300569,18.7315798 10.13,19.64 L9,24.67 L5,24.67 C4.5969574,24.6407783 4.21593924,24.8570042 4.03434537,25.218004 C3.85275149,25.5790039 3.90627671,26.0138182 4.17,26.32 L6.46,29.32 L4.17,32.32 C3.89987708,32.6892004 3.89987708,33.1907996 4.17,33.56 L6.46,36.7 L4.17,39.7 C3.89987708,40.0692004 3.89987708,40.5707996 4.17,40.94 L6.46,44 L4.17,47 C3.93481465,47.3089477 3.89972647,47.7261072 4.08,48.07 C4.24553835,48.4277706 4.60581896,48.654904 5,48.65 L48.44,48.65 C49.7710062,48.65 50.85,47.5710062 50.85,46.24 L50.85,40.59 C50.8584017,40.3143372 50.7525845,40.0474427 50.5575709,39.8524291 C50.3625573,39.6574155 50.0956628,39.5515983 49.82,39.56 Z" id="Shape" fill="#3D3D63" fill-rule="nonzero"></path>
                </g>
            </g>
        </g>
    </g>
</svg>