<?xml version="1.0" encoding="UTF-8"?>
<svg width="54px" height="46px" viewBox="0 0 54 46" version="1.1" xmlns="http://www.w3.org/2000/svg" xmlns:xlink="http://www.w3.org/1999/xlink">
    <!-- Generator: sketchtool 50.2 (55047) - http://www.bohemiancoding.com/sketch -->
    <title>77B7B797-A85F-4B6F-B7C4-9EA84862183D</title>
    <desc>Created with sketchtool.</desc>
    <defs></defs>
    <g id="Other-Services" stroke="none" stroke-width="1" fill="none" fill-rule="evenodd">
        <g transform="translate(-513.000000, -503.000000)" id="Group-12">
            <g transform="translate(510.000000, 496.000000)">
                <g id="Airplane">
                    <rect id="Rectangle-path" x="0" y="0" width="60" height="60"></rect>
                    <path d="M49.35,29.83 C48.0576537,29.83 47.01,30.8776537 47.01,32.17 C47.01,33.4623463 48.0576537,34.51 49.35,34.51 C50.6423463,34.51 51.69,33.4623463 51.69,32.17 C51.69,30.8776537 50.6423463,29.83 49.35,29.83 Z" id="Shape" fill="#D8E3F0" fill-rule="nonzero"></path>
                    <path d="M10.65,29.83 C9.35896981,29.8355173 8.31633522,30.8856014 8.32000948,32.1766382 C8.32368374,33.4676749 9.37227842,34.5118075 10.6633191,34.5099763 C11.9543598,34.508145 12.9999882,33.461042 13,32.17 C13.0000057,31.5476569 12.7520984,30.9509483 12.3110981,30.5118245 C11.8700978,30.0727008 11.2723374,29.8273404 10.65,29.83 Z" id="Shape" fill="#D8E3F0" fill-rule="nonzero"></path>
                    <path d="M30,8.57 C29.0477872,8.56906879 28.2469326,9.28380996 28.14,10.23 L27.14,18.43 C29.0280571,17.9901732 30.9919429,17.9901732 32.88,18.43 L31.88,10.23 C31.7722687,9.27616106 30.9598382,8.55880225 30,8.57 Z" id="Shape" fill="#D8E3F0" fill-rule="nonzero"></path>
                    <path d="M22.3,13.17 C22.5322792,13.6350659 22.9690082,13.9644632 23.48,14.06 L27.57,14.8 L28,11.2399965 L23.49,11.24 C23.0274759,11.238946 22.5976179,11.4782622 22.3548683,11.8719654 C22.1121186,12.2656686 22.0913408,12.7572156 22.3,13.17 Z" id="Shape" fill="#EDF4FF" fill-rule="nonzero"></path>
                    <path d="M36.52,14.06 C37.0309918,13.9644632 37.4677208,13.6350659 37.7,13.17 C37.9086592,12.7572156 37.8878814,12.2656686 37.6451317,11.8719654 C37.4023821,11.4782622 36.9725241,11.238946 36.51,11.24 L32,11.2399965 L32.44,14.8 L36.52,14.06 Z" id="Shape" fill="#EDF4FF" fill-rule="nonzero"></path>
                    <path d="M54.29,26.76 L41.14,26.76 C40.14,21.59 35.57,18.1 30,18.1 C24.43,18.1 19.81,21.59 18.86,26.76 L5.71,26.76 C4.99064455,26.7930519 4.41763263,27.3736772 4.39407786,28.0934062 C4.37052309,28.8131352 4.90434495,29.4299841 5.62,29.51 L18.78,30.29 C19.52,35.92 24.26,40.76 30,40.76 C35.74,40.76 40.47,35.93 41.22,30.3 L49.35,29.83 L54.35,29.51 C55.065655,29.4299841 55.5994769,28.8131352 55.5759221,28.0934062 C55.5523674,27.3736772 54.9793554,26.7930519 54.26,26.76 L54.29,26.76 Z" id="Shape" fill="#EDF4FF" fill-rule="nonzero"></path>
                    <path d="M30,36.51 C25.0614601,36.3574034 20.6517219,33.3760623 18.67,28.85 C18.67,35.07 23.77,40.76 30,40.76 C36.23,40.76 41.28,35.07 41.33,28.85 C39.3482781,33.3760623 34.9385399,36.3574034 30,36.51 Z" id="Shape" fill="#D8E3F0" fill-rule="nonzero"></path>
                    <path d="M20.67,45.1 C19.7622428,45.0958083 18.8645696,45.290361 18.04,45.67 C16.0487382,42.4040908 12.4950635,40.4167637 8.67,40.43 C8.11771525,40.43 7.67,40.8777153 7.67,41.43 L7.67,45.43 C7.67,49.2959932 10.8040068,52.43 14.67,52.43 L26,52.43 C26.5522847,52.43 27,51.9822847 27,51.43 C26.9944938,47.9363208 24.1636792,45.1055062 20.67,45.1 Z" id="Shape" fill="#96DDFF" fill-rule="nonzero"></path>
                    <path d="M51.33,40.43 C47.5191752,40.4307455 43.9838603,42.4162814 42,45.67 C41.1754304,45.290361 40.2777572,45.0958083 39.37,45.1 C36.2618006,45.1044292 33.6151521,47.361491 33.12,50.43 L32.82,50.43 C32.2677153,50.43 31.82,50.8777153 31.82,51.43 C31.82,51.9822847 32.2677153,52.43 32.82,52.43 L45.33,52.43 C49.1959932,52.43 52.33,49.2959932 52.33,45.43 L52.33,41.43 C52.33,40.8777153 51.8822847,40.43 51.33,40.43 Z" id="Shape" fill="#96DDFF" fill-rule="nonzero"></path>
                    <path d="M24.52,29.43 L35.52,29.43 C35.9648622,29.427331 36.3831427,29.2177738 36.6516301,28.863057 C36.9201174,28.5083402 37.0082253,28.0488733 36.89,27.62 C36.6181458,26.6598253 36.1480369,25.7672998 35.51,25 C35.2321463,24.6680351 34.8228791,24.474364 34.39,24.47 L25.61,24.47 C25.1771209,24.474364 24.7678537,24.6680351 24.49,25 C23.8625502,25.7796607 23.4060112,26.6825176 23.15,27.65 C23.0427568,28.0747156 23.1360911,28.5251556 23.4032668,28.872289 C23.6704425,29.2194224 24.0819829,29.424951 24.52,29.43 Z" id="Shape" fill="#96DDFF" fill-rule="nonzero"></path>
                    <path d="M54.29,25.76 L41.94,25.76 C40.8716833,21.7804261 37.7608809,18.6734359 33.78,17.61 L33.53,15.61 L36.7,15 C37.5203624,14.8494145 38.2232247,14.3241174 38.6,13.58 C38.9593831,12.8556474 38.9193276,11.9970816 38.4940647,11.3093358 C38.0688017,10.6215899 37.3186027,10.2021366 36.51,10.2 L32.87,10.2 L32.87,10.07 C32.698619,8.62590938 31.4742246,7.53823069 30.02,7.53823069 C28.5657754,7.53823069 27.341381,8.62590938 27.17,10.07 L27.17,10.21 L23.49,10.21 C22.6813973,10.2121366 21.9311983,10.6315899 21.5059353,11.3193358 C21.0806724,12.0070816 21.0406169,12.8656474 21.4,13.59 C21.779151,14.3302781 22.4816232,14.8515864 23.3,15 L26.47,15.58 L26.22,17.58 C22.2391191,18.6434359 19.1283167,21.7504261 18.06,25.73 L5.71,25.73 C4.44829569,25.7616346 3.43067659,26.7726598 3.39084063,28.0341318 C3.35100467,29.2956038 4.30280559,30.3688212 5.56,30.48 L7.7,30.61 C7.44735644,31.0806353 7.31347771,31.6058519 7.31,32.14 C7.31,33.9846311 8.80536894,35.48 10.65,35.48 C12.4946311,35.48 13.99,33.9846311 13.99,32.14 C13.9814247,31.7493806 13.903549,31.3633879 13.76,31 L17.91,31.25 C19,37.15 24.12,41.76 30,41.76 C35.88,41.76 41,37.16 42.09,31.25 L46.23,31 C46.0873547,31.3740823 46.0095723,31.7697581 46,32.17 C46,34.0146311 47.4953689,35.51 49.34,35.51 C51.1846311,35.51 52.68,34.0146311 52.68,32.17 C52.6765223,31.6358519 52.5426436,31.1106353 52.29,30.64 L54.43,30.51 C55.6871944,30.3988212 56.6389953,29.3256038 56.5991594,28.0641318 C56.5593234,26.8026598 55.5417043,25.7916346 54.28,25.76 L54.29,25.76 Z M10.65,33.51 C9.91126529,33.5044869 9.31634796,32.9021292 9.32001652,32.1633831 C9.32368508,31.4246369 9.92455545,30.8282174 10.6633085,30.8300414 C11.4020615,30.8318654 11.9999794,31.4312447 12,32.17 C12.0000099,32.5271295 11.8574599,32.869488 11.6039942,33.1210762 C11.3505285,33.3726644 11.0071196,33.5126651 10.65,33.51 Z M49.35,33.51 C48.6099384,33.51 48.01,32.9100616 48.01,32.17 C48.01,31.4299384 48.6099384,30.83 49.35,30.83 C50.0900616,30.83 50.69,31.4299384 50.69,32.17 C50.69,32.9100616 50.0900616,33.51 49.35,33.51 Z M36.51,12.24 C36.6259121,12.2367681 36.7339368,12.2984964 36.79,12.4 C36.8489488,12.5021024 36.8489488,12.6278976 36.79,12.73 C36.6966382,12.9119031 36.5219828,13.0382495 36.32,13.07 L33.27,13.63 L33.1,12.24 L36.51,12.24 Z M23.66,13.07 C23.4580172,13.0382495 23.2833618,12.9119031 23.19,12.73 C23.1310512,12.6278976 23.1310512,12.5021024 23.19,12.4 C23.2460632,12.2984964 23.3540879,12.2367681 23.47,12.24 L26.86,12.24 L26.69,13.63 L23.66,13.07 Z M29.13,10.34 C29.1953811,9.91001585 29.5650735,9.59228757 30,9.59228757 C30.4349265,9.59228757 30.8046189,9.91001585 30.87,10.34 L31.72,17.2 C30.5780248,17.0533084 29.4219752,17.0533084 28.28,17.2 L29.13,10.34 Z M5.68,28.51 C5.48350446,28.4993633 5.32971232,28.336783 5.33,28.14 C5.33,27.9301318 5.5001318,27.76 5.71,27.76 L17.71,27.76 C17.71,28.09 17.71,28.42 17.71,28.76 C17.71,28.92 17.71,29.07 17.71,29.22 L5.68,28.51 Z M30,39.76 C24.5,39.76 19.67,34.62 19.67,28.76 C19.67,23.25 24.11,19.1 30,19.1 C35.89,19.1 40.33,23.25 40.33,28.76 C40.33,34.62 35.5,39.76 30,39.76 Z M54.32,28.51 L42.32,29.23 C42.32,29.08 42.32,28.92 42.32,28.76 C42.32,28.42 42.32,28.09 42.32,27.76 L54.32,27.76 C54.4207823,27.76 54.5174368,27.8000356 54.5887006,27.8712994 C54.6599644,27.9425632 54.7,28.0392177 54.7,28.14 C54.7000365,28.2398875 54.6596847,28.3355463 54.5881182,28.4052295 C54.5165516,28.4749127 54.4198511,28.5126997 54.32,28.51 Z" id="Shape" fill="#3D3D63" fill-rule="nonzero"></path>
                    <path d="M34.39,23.44 L25.61,23.44 C24.8737705,23.4373846 24.1770741,23.772831 23.72,24.35 C23.0006225,25.2300605 22.4757751,26.2524903 22.18,27.35 C21.983416,28.0882097 22.142427,28.8758689 22.61,29.48 C23.0632457,30.076471 23.7708759,30.4247288 24.52,30.42 L35.52,30.42 C36.2691241,30.4247288 36.9767543,30.076471 37.43,29.48 C37.897573,28.8758689 38.056584,28.0882097 37.86,27.35 C37.5642249,26.2524903 37.0393775,25.2300605 36.32,24.35 C35.8542979,23.7616353 35.1402165,23.4249441 34.39,23.44 Z M31.39,25.44 L31.39,28.44 L28.64,28.44 L28.64,25.44 L31.39,25.44 Z M24.22,28.27 C24.1312131,28.1567758 24.1049406,28.0066473 24.15,27.87 C24.3717133,27.0417508 24.7633477,26.2686986 25.3,25.6 C25.385389,25.5006978 25.5090574,25.4425009 25.64,25.44 L26.64,25.44 L26.64,28.44 L24.52,28.44 C24.3895681,28.4376578 24.2676295,28.3748409 24.19,28.27 L24.22,28.27 Z M35.84,28.27 C35.7603256,28.3710788 35.6387048,28.4300464 35.51,28.43 L33.36,28.43 L33.36,25.43 L34.36,25.43 C34.4909426,25.4325009 34.614611,25.4906978 34.7,25.59 C35.2388844,26.2610069 35.63069,27.0378042 35.85,27.87 C35.9054845,28.0014708 35.8904196,28.1521196 35.81,28.27 L35.84,28.27 Z" id="Shape" fill="#3D3D63" fill-rule="nonzero"></path>
                    <path d="M51.33,40.43 C47.5191752,40.4307455 43.9838603,42.4162814 42,45.67 C41.1754304,45.290361 40.2777572,45.0958083 39.37,45.1 C36.2618006,45.1044292 33.6151521,47.361491 33.12,50.43 L32.82,50.43 C32.2677153,50.43 31.82,50.8777153 31.82,51.43 C31.82,51.9822847 32.2677153,52.43 32.82,52.43 L34,52.43 C34.5522847,52.43 35,51.9822847 35,51.43 C35.0045634,49.8224162 35.8973714,48.3490407 37.3202754,47.6009159 C38.7431794,46.8527911 40.463064,46.9524829 41.79,47.86 C42.3221736,48.2281939 42.7661486,48.709736 43.09,49.27 C43.269341,49.5806342 43.6013152,49.771424 43.96,49.77 C44.1360862,49.7681713 44.3085672,49.7198766 44.46,49.63 C44.9325074,49.3519888 45.0930821,48.7453732 44.82,48.27 C44.501258,47.7245267 44.1036261,47.2291718 43.64,46.8 C45.2527086,44.0885077 48.1751601,42.4277647 51.33,42.43 C51.8822847,42.43 52.33,41.9822847 52.33,41.43 C52.33,40.8777153 51.8822847,40.43 51.33,40.43 Z" id="Shape" fill="#3D3D63" fill-rule="nonzero"></path>
                    <path d="M28.67,50.43 L26.91,50.43 C26.4193316,47.3630437 23.7759539,45.1051586 20.67,45.1 C19.7622428,45.0958083 18.8645696,45.290361 18.04,45.67 C16.0487382,42.4040908 12.4950635,40.4167637 8.67,40.43 C8.11771525,40.43 7.67,40.8777153 7.67,41.43 C7.67,41.9822847 8.11771525,42.43 8.67,42.43 C11.8248399,42.4277647 14.7472914,44.0885077 16.36,46.8 C15.8963739,47.2291718 15.498742,47.7245267 15.18,48.27 C14.9069179,48.7453732 15.0674926,49.3519888 15.54,49.63 C15.6914328,49.7198766 15.8639138,49.7681713 16.04,49.77 C16.3986848,49.771424 16.730659,49.5806342 16.91,49.27 C17.2338514,48.709736 17.6778264,48.2281939 18.21,47.86 C19.3868539,47.0536086 20.885396,46.878652 22.2163606,47.3922524 C23.5473251,47.9058528 24.5398944,49.0420943 24.87,50.43 L24.67,50.43 C24.1177153,50.43 23.67,50.8777153 23.67,51.43 C23.67,51.9822847 24.1177153,52.43 24.67,52.43 L28.67,52.43 C29.2222847,52.43 29.67,51.9822847 29.67,51.43 C29.67,50.8777153 29.2222847,50.43 28.67,50.43 Z" id="Shape" fill="#3D3D63" fill-rule="nonzero"></path>
                </g>
            </g>
        </g>
    </g>
</svg>