<svg xmlns="http://www.w3.org/2000/svg" viewBox="0 0 60 60"><defs><style>.cls-1{fill:#ffdead;}.cls-2{fill:none;}.cls-3{fill:#96ddff;}.cls-4{fill:#79deb4;}.cls-5{fill:#fcfeff;}.cls-6{fill:#fff6e6;}.cls-7{fill:#ffa742;}.cls-8{fill:#3d3d63;}</style></defs><title>Analysis</title><g id="图层_2" data-name="图层 2"><g id="Graphics"><g id="Analysis"><path class="cls-1" d="M47.71,9.37H12.33A2.3,2.3,0,0,0,10,11.66V53.58a2.3,2.3,0,0,0,2.29,2.3H33.69a1,1,0,0,0,.78-1.59,13.57,13.57,0,0,1-2.28-4.48,1,1,0,0,0-.3-.46l-.24-.23a4.47,4.47,0,0,1-1.32-3.18,15,15,0,0,1,7.49-13,4.44,4.44,0,0,1,3.4-.45l.34.1a1.06,1.06,0,0,0,.56,0,13.35,13.35,0,0,1,6.64.08A1,1,0,0,0,50,31.78V11.66A2.3,2.3,0,0,0,47.71,9.37Z"/><rect class="cls-2" width="60" height="60"/><path class="cls-3" d="M33.29,9v-2a2,2,0,0,0-2-2H28.71a2,2,0,0,0-2,2V9H23.47V13h13.1V9Z"/><circle class="cls-4" cx="45.3" cy="45.94" r="9.17"/><path class="cls-5" d="M34.83,45.94H45.3l-5.24-9.08A10.46,10.46,0,0,0,34.83,45.94Z"/><path class="cls-6" d="M44.43,15.92H15.61a1,1,0,0,0-1,1V51a1,1,0,0,0,1,1H31.54a1,1,0,0,0,.8-.42,1,1,0,0,0,.12-.9c-.09-.27-.19-.54-.27-.82a1,1,0,0,0-.3-.46l-.24-.23a4.47,4.47,0,0,1-1.32-3.18,15,15,0,0,1,7.49-13,4.44,4.44,0,0,1,3.4-.45l.34.1a1.06,1.06,0,0,0,.56,0,12.77,12.77,0,0,1,2.37-.33,1,1,0,0,0,.92-1V16.9A1,1,0,0,0,44.43,15.92Z"/><circle class="cls-7" cx="15.61" cy="23.62" r="7.86"/><path class="cls-8" d="M34,53.91H12.33a.32.32,0,0,1-.32-.33V31.68a8.48,8.48,0,0,0,2.62.72V51a1,1,0,0,0,1,1H27.89a1,1,0,0,0,0-2H16.59V32.4a8.83,8.83,0,0,0,5.74-14.52H43.45V31.31a1,1,0,0,0,2,0V16.9a1,1,0,0,0-1-1H20A8.73,8.73,0,0,0,12,15.55V11.66a.32.32,0,0,1,.32-.33H22.49V13a1,1,0,0,0,1,1h13.1a1,1,0,0,0,1-1V11.33H47.71a.32.32,0,0,1,.32.33V32.25a1,1,0,0,0,2,0V11.66a2.3,2.3,0,0,0-2.29-2.29H37.55V9a1,1,0,0,0-1-1H34.28v-1a3,3,0,0,0-3-2.95H28.71a3,3,0,0,0-2.95,3v1H23.47a1,1,0,0,0-1,1v.33H12.33A2.3,2.3,0,0,0,10,11.66v5.09a8.84,8.84,0,0,0,0,13.73v23.1a2.3,2.3,0,0,0,2.29,2.3H34a1,1,0,0,0,0-2ZM28.71,6.09h2.62a1,1,0,0,1,1,1v1H27.73v-1A1,1,0,0,1,28.71,6.09ZM24.45,10H35.59v2H24.45ZM8.73,23.62a6.88,6.88,0,1,1,6.9,6.87h0A6.89,6.89,0,0,1,8.73,23.62Z"/><path class="cls-8" d="M45.3,35.79a10.23,10.23,0,0,0-4.19.92l-.2-.34A1,1,0,0,0,39.57,36a11.51,11.51,0,0,0-5.72,9.93,1,1,0,0,0,1,1h.37A10.15,10.15,0,1,0,45.3,35.79Zm-5.57,2.46L43.6,45H35.87A9.54,9.54,0,0,1,39.73,38.25ZM45.3,54.13a8.19,8.19,0,0,1-8.12-7.21H45.3a1,1,0,0,0,.85-1.47l-4.06-7A8.19,8.19,0,1,1,45.3,54.13Z"/><path class="cls-8" d="M24.33,34.49a1,1,0,0,0-1.39,0L20,37.39a1,1,0,0,0,0,1.39.94.94,0,0,0,.69.29,1,1,0,0,0,.7-.29l2.2-2.2,2,2a1,1,0,0,0,1.39,0l3.77-3.78,1.72,1.72a1,1,0,0,0,1.39,0L40,30.47a1,1,0,0,0,0-1.39,1,1,0,0,0-1.39,0l-5.38,5.39-1.72-1.72a1,1,0,0,0-1.39,0l-3.78,3.78Z"/><path class="cls-8" d="M12.93,24.56a2.59,2.59,0,0,0,2,.26l1.9-.51a.63.63,0,0,1,.5.07.59.59,0,0,1,.3.39.66.66,0,0,1-.46.81l-2.85.76a1,1,0,0,0,.26,1.93c.08,0,1.2-.29,1.2-.29l.09.32a1,1,0,0,0,.94.73.78.78,0,0,0,.26,0,1,1,0,0,0,.69-1.2l-.08-.32h0a2.62,2.62,0,1,0-1.36-5.06l-1.89.51a.67.67,0,0,1-.5-.06.69.69,0,0,1-.31-.4.66.66,0,0,1,.47-.8l2.84-.77a1,1,0,0,0,.7-1.2A1,1,0,0,0,16.4,19l-.94.26-.09-.32a1,1,0,0,0-1.9.51l.09.32h0a2.62,2.62,0,0,0-.63,4.8Z"/><path class="cls-8" d="M39.33,21H27.54a1,1,0,1,0,0,2H39.33a1,1,0,1,0,0-2Z"/><path class="cls-8" d="M39.33,24.27H32.12a1,1,0,0,0,0,2h7.21a1,1,0,0,0,0-2Z"/></g></g></g></svg>