<?xml version="1.0" encoding="UTF-8"?>
<svg width="22px" height="22px" viewBox="0 0 22 22" version="1.1" xmlns="http://www.w3.org/2000/svg" xmlns:xlink="http://www.w3.org/1999/xlink">
    <!-- Generator: sketchtool 50.2 (55047) - http://www.bohemiancoding.com/sketch -->
    <title>EBF90DEA-79CB-4F91-A0BC-0FBF8417359B</title>
    <desc>Created with sketchtool.</desc>
    <defs></defs>
    <g id="Apply" stroke="none" stroke-width="1" fill="none" fill-rule="evenodd">
        <g id="Apply-/-Step-3" transform="translate(-761.000000, -699.000000)" fill="#2BC47D" fill-rule="nonzero">
            <g id="Group-13" transform="translate(729.000000, 439.000000)">
                <path d="M53.7892936,277.299438 L49.4676118,281.627964 C49.4368125,281.683696 49.4089465,281.740895 49.3615253,281.788805 C49.2163285,281.934001 49.0241995,281.998044 48.833537,281.9912 C48.6428746,281.998044 48.4507455,281.934001 48.3055488,281.788805 C48.2586165,281.740895 48.2307504,281.683696 48.1994622,281.627964 L46.829626,280.255683 C46.552921,279.978978 46.552921,279.529699 46.829626,279.251528 C47.106331,278.975312 47.5546321,278.975312 47.8313371,279.251528 L48.8330482,280.255683 L52.7866047,276.295282 C53.0633097,276.019066 53.5116109,276.019066 53.7883158,276.295282 C54.0659985,276.572476 54.0659985,277.021755 53.7892936,277.299438 Z M44.0283549,272.353948 C45.2847714,272.850159 46.3945246,273.630408 47.290638,274.61012 C46.9102909,274.933268 46.5617209,275.290149 46.2732828,275.698851 C44.9303349,274.17844 42.9880225,273.200684 40.7998044,273.200684 C36.74945,273.200684 33.4666341,276.4835 33.4666341,280.533366 L33.4666341,282 L32,282 L32,280.533366 C32,276.81496 34.3099487,273.641652 37.571254,272.353948 C35.5604987,271.222195 34.1999511,269.07211 34.1999511,266.600342 C34.1999511,262.956245 37.1547299,260 40.7998044,260 C44.444879,260 47.3996578,262.956245 47.3996578,266.600342 C47.3996578,269.07211 46.0391102,271.221706 44.0283549,272.353948 Z M40.7998044,261.467612 C37.9648008,261.467612 35.6665852,263.765827 35.6665852,266.600342 C35.6665852,269.435346 37.9648008,271.73405 40.7998044,271.73405 C43.6348081,271.73405 45.9330237,269.435346 45.9330237,266.600342 C45.9330237,263.765827 43.6348081,261.467612 40.7998044,261.467612 Z" id="applicants-ico"></path>
            </g>
        </g>
    </g>
</svg>