<?xml version="1.0" encoding="UTF-8"?>
<svg width="47px" height="50px" viewBox="0 0 47 50" version="1.1" xmlns="http://www.w3.org/2000/svg" xmlns:xlink="http://www.w3.org/1999/xlink">
    <!-- Generator: sketchtool 50.2 (55047) - http://www.bohemiancoding.com/sketch -->
    <title>F0E4FB6B-C7BD-4C51-932D-70E248F94A3B</title>
    <desc>Created with sketchtool.</desc>
    <defs></defs>
    <g id="How-to-apply" stroke="none" stroke-width="1" fill="none" fill-rule="evenodd">
        <g transform="translate(-90.000000, -1296.000000)" id="Awards">
            <g transform="translate(81.000000, 1289.000000)">
                <rect id="Rectangle-path" x="0" y="0" width="60" height="60"></rect>
                <rect id="Rectangle-path" fill="#D8E3F0" fill-rule="nonzero" x="10.19" y="8.56" width="36.03" height="42.52" rx="1.33"></rect>
                <rect id="Rectangle-path" fill="#EDF4FF" fill-rule="nonzero" x="14.91" y="13.29" width="26.58" height="33.07"></rect>
                <polygon id="Shape" fill="#F65855" fill-rule="nonzero" points="46.13 38.8 41.76 41.31 37.4 38.8 29.34 52.75 33.2 52.27 34.7 55.85 41.76 43.63 48.82 55.85 50.33 52.27 54.19 52.75"></polygon>
                <circle id="Oval" fill="#FFC670" fill-rule="nonzero" cx="41.76" cy="39.11" r="8.76"></circle>
                <path d="M42.58,30.39 C45.5416606,31.7044784 47.2714973,34.8245948 46.8173131,38.032866 C46.3631288,41.2411371 43.8352132,43.7584977 40.6250698,44.1992543 C37.4149264,44.640011 34.302075,42.8971346 33,39.93 C33.4321328,44.5357825 37.3710566,48.0116683 41.9948179,47.8674371 C46.6185791,47.7232058 50.3332058,44.0085791 50.4774371,39.3848179 C50.6216683,34.7610566 47.1457825,30.8221328 42.54,30.39 L42.58,30.39 Z" id="Shape" fill="#FFB75E" fill-rule="nonzero"></path>
                <circle id="Oval" cx="41.76" cy="39.11" r="8.76"></circle>
                <polygon id="Shape" fill="#FFDEAD" fill-rule="nonzero" points="41.76 34.56 43.52 36.84 46.23 37.81 44.61 40.19 44.53 43.07 41.76 42.26 39 43.07 38.91 40.19 37.29 37.81 40 36.84"></polygon>
                <path d="M23.7,18.3 L32.71,18.3" id="Shape"></path>
                <path d="M19.79,36.67 L24.9,36.67" id="Shape"></path>
                <path d="M19.79,41.09 L29.04,41.09" id="Shape"></path>
                <path d="M55.05,52.25 L50.24,43.93 C52.7683454,39.5040611 51.4608725,33.8775691 47.24,31.02 L47.24,9.9 C47.24,8.60765369 46.1923463,7.56 44.9,7.56 L11.52,7.56 C10.9003091,7.55999429 10.3061439,7.80684797 9.86889556,8.24597293 C9.4316472,8.6850979 9.18734038,9.28031477 9.19,9.9 L9.19,49.75 C9.19,51.0368235 10.2331765,52.08 11.52,52.08 L28.57,52.08 L28.47,52.25 C28.2673302,52.5742708 28.2673302,52.9857292 28.47,53.31 C28.6866798,53.6418833 29.0789244,53.8144709 29.47,53.75 L32.58,53.35 L33.79,56.24 C33.93748,56.5902194 34.2707169,56.8265851 34.65,56.85 L34.71,56.85 C35.0686848,56.851424 35.400659,56.6606342 35.58,56.35 L40,48.71 C40.5839334,48.818033 41.1761789,48.8749153 41.77,48.88 C42.3671058,48.8743916 42.962627,48.8175159 43.55,48.71 L48,56.35 C48.179341,56.6606342 48.5113152,56.851424 48.87,56.85 L48.93,56.85 C49.3092831,56.8265851 49.64252,56.5902194 49.79,56.24 L51,53.35 L54.11,53.75 C54.4907048,53.8037157 54.8684932,53.6344111 55.0817619,53.314508 C55.2950307,52.9946049 55.3060087,52.5807599 55.11,52.25 L55.05,52.25 Z M11.52,50.08 C11.337746,50.08 11.19,49.932254 11.19,49.75 L11.19,9.9 C11.1899204,9.71606011 11.3361397,9.56540998 11.52,9.56 L44.88,9.56 C45.0677768,9.56 45.22,9.71222319 45.22,9.9 L45.22,30 C44.3450006,29.6633511 43.425072,29.4577993 42.49,29.39 L42.49,13.29 C42.49,12.7377153 42.0422847,12.29 41.49,12.29 L14.91,12.29 C14.3577153,12.29 13.91,12.7377153 13.91,13.29 L13.91,46.35 C13.91,46.9022847 14.3577153,47.35 14.91,47.35 L31.3,47.35 L29.72,50.08 L11.52,50.08 Z M32,39.11 C32.001145,40.800523 32.4422716,42.4616403 33.28,43.93 L32.45,45.35 L15.91,45.35 L15.91,14.29 L40.49,14.29 L40.49,29.44 C35.6393359,30.0854353 32.0122856,34.2165985 32,39.11 Z M34.84,53.61 L34.12,51.88 C33.9498588,51.4862182 33.547521,51.2448155 33.12,51.28 L31.26,51.51 L34.62,45.69 C35.5585944,46.7338796 36.7115363,47.5627698 38,48.12 L34.84,53.61 Z M34,39.11 C34.0055212,34.8255764 37.4822325,31.3563233 41.7666581,31.3600029 C46.0510836,31.3636825 49.5218309,34.8389023 49.5199928,39.123329 C49.5181548,43.4077558 46.0444271,46.8799964 41.76,46.88 C37.4726533,46.8744822 33.9999964,43.3973503 34,39.11 Z M50.45,51.28 C50.0050171,51.2217316 49.5757139,51.4670477 49.4,51.88 L48.68,53.61 L45.51,48.12 C46.8379623,47.5766626 48.0296382,46.7469283 49,45.69 L52.36,51.51 L50.45,51.28 Z" id="Shape" fill="#3D3D63" fill-rule="nonzero"></path>
                <path d="M46.57,36.87 L44.14,36 L42.55,34 C42.3600891,33.7671044 42.0755104,33.6319612 41.775,33.6319612 C41.4744896,33.6319612 41.1899109,33.7671044 41,34 L39.41,36 L37,36.87 C36.7105221,36.9748934 36.4855033,37.2072899 36.39,37.5 C36.2937023,37.7929888 36.3379825,38.1140202 36.51,38.37 L37.97,40.51 L38,43.1 C38.0085697,43.4094455 38.1599702,43.6974758 38.41,43.88 C38.6610371,44.0622339 38.9824317,44.1176468 39.28,44.03 L41.76,43.3 L44.25,44.03 C44.3427066,44.0452958 44.4372934,44.0452958 44.53,44.03 C44.7384089,44.0286539 44.9411896,43.9622258 45.11,43.84 C45.363811,43.6595771 45.5190841,43.3712126 45.53,43.06 L45.6,40.47 L47.06,38.33 C47.235406,38.0756544 47.2833929,37.7545109 47.19,37.46 C47.0821869,37.1803624 46.8546369,36.9638228 46.57,36.87 Z M43.79,39.63 C43.6807722,39.7859305 43.6183257,39.9698009 43.61,40.16 L43.61,41.75 L42,41.3 C41.8171429,41.2466667 41.6228571,41.2466667 41.44,41.3 L40,41.75 L39.95,40.16 C39.9416743,39.9698009 39.8792278,39.7859305 39.77,39.63 L38.88,38.31 L40.37,37.78 C40.5497218,37.7124342 40.7084075,37.5985944 40.83,37.45 L41.83,36.19 L42.83,37.45 C42.9515925,37.5985944 43.1102782,37.7124342 43.29,37.78 L44.78,38.31 L43.79,39.63 Z" id="Shape" fill="#3D3D63" fill-rule="nonzero"></path>
                <path d="M32.71,17.3 L23.71,17.3 C23.1577153,17.3 22.71,17.7477153 22.71,18.3 C22.71,18.8522847 23.1577153,19.3 23.71,19.3 L32.71,19.3 C33.2622847,19.3 33.71,18.8522847 33.71,18.3 C33.71,17.7477153 33.2622847,17.3 32.71,17.3 Z" id="Shape" fill="#3D3D63" fill-rule="nonzero"></path>
                <path d="M19.79,37.67 L24.9,37.67 C25.4522847,37.67 25.9,37.2222847 25.9,36.67 C25.9,36.1177153 25.4522847,35.67 24.9,35.67 L19.79,35.67 C19.2377153,35.67 18.79,36.1177153 18.79,36.67 C18.79,37.2222847 19.2377153,37.67 19.79,37.67 Z" id="Shape" fill="#3D3D63" fill-rule="nonzero"></path>
                <path d="M29,40.09 L19.79,40.09 C19.2377153,40.09 18.79,40.5377153 18.79,41.09 C18.79,41.6422847 19.2377153,42.09 19.79,42.09 L29,42.09 C29.5522847,42.09 30,41.6422847 30,41.09 C30,40.5377153 29.5522847,40.09 29,40.09 Z" id="Shape" fill="#3D3D63" fill-rule="nonzero"></path>
            </g>
        </g>
    </g>
</svg>