<svg xmlns="http://www.w3.org/2000/svg" viewBox="0 0 60 60"><defs><style>.cls-1{fill:none;}.cls-2{fill:#ffc670;}.cls-3{fill:#ffa742;}.cls-4{fill:#fcfeff;}.cls-5{fill:#f6716f;}.cls-6{fill:#f0504d;}.cls-7{fill:#3d3d63;}</style></defs><title>Briefcase</title><g id="图层_2" data-name="图层 2"><g id="Graphics"><g id="Briefcase"><rect class="cls-1" width="60" height="60"/><path class="cls-2" d="M53.33,21.58A1.32,1.32,0,0,0,52,20.25H8a1.32,1.32,0,0,0-1.33,1.33V28a5.29,5.29,0,0,0,.66,2.53h0V46.91A2.67,2.67,0,0,0,10,49.58H50a2.67,2.67,0,0,0,2.67-2.67V30.52h0A5.29,5.29,0,0,0,53.33,28Z"/><path class="cls-2" d="M35.33,9.58H24.67A8.67,8.67,0,0,0,16,18.25v2h4v-2a4.67,4.67,0,0,1,4.67-4.67H35.33A4.67,4.67,0,0,1,40,18.25v2h4v-2A8.67,8.67,0,0,0,35.33,9.58Z"/><path class="cls-3" d="M50,45.75H10a2.68,2.68,0,0,1-2.67-2.67v3.83A2.67,2.67,0,0,0,10,49.58H50a2.67,2.67,0,0,0,2.67-2.67V43.08A2.68,2.68,0,0,1,50,45.75Z"/><path class="cls-3" d="M48,29.49H12a5.33,5.33,0,0,1-5.33-5.34v7.4A5.33,5.33,0,0,0,12,36.88H48a5.33,5.33,0,0,0,5.33-5.33v-7.4A5.33,5.33,0,0,1,48,29.49Z"/><path class="cls-3" d="M20,18.25a4.63,4.63,0,0,1,.28-1.55c-1.4-.12-2.75-.27-4-.44a8.67,8.67,0,0,0-.24,2v2h4Z"/><path class="cls-3" d="M40,20.25h4v-2a8.67,8.67,0,0,0-.24-2c-1.29.17-2.64.32-4,.44A4.63,4.63,0,0,1,40,18.25Z"/><polygon class="cls-4" points="33.73 29.72 25.97 34.2 25.5 41.14 34.16 36.14 33.73 29.72"/><polygon class="cls-4" points="34.59 42.56 25.04 48.07 24.75 52.34 26.41 53.94 35.02 48.97 34.59 42.56"/><polygon class="cls-5" points="26.41 53.94 30 57.43 35.25 52.34 35.02 48.97 26.41 53.94"/><polygon class="cls-5" points="34.16 36.14 25.5 41.14 25.04 48.07 34.59 42.56 34.16 36.14"/><path class="cls-5" d="M34.31,18.35H25.69a2,2,0,0,0-2,2.33l.76,4.55a1.33,1.33,0,0,0,1.32,1.12h.7L26,34.2l7.76-4.48-.23-3.37h.7a1.33,1.33,0,0,0,1.32-1.12l.76-4.55A2,2,0,0,0,34.31,18.35Z"/><path class="cls-6" d="M30,23.38a53.09,53.09,0,0,1-5.88-.32l.36,2.17a1.33,1.33,0,0,0,1.32,1.12h8.4a1.33,1.33,0,0,0,1.32-1.12l.36-2.17A53.09,53.09,0,0,1,30,23.38Z"/><path class="cls-2" d="M18.67,31.58h-4a.67.67,0,0,0-.67.67v3.33a2.67,2.67,0,1,0,5.33,0V32.25A.67.67,0,0,0,18.67,31.58Z"/><path class="cls-2" d="M45.33,31.58h-4a.67.67,0,0,0-.66.67v3.33a2.67,2.67,0,1,0,5.33,0V32.25A.67.67,0,0,0,45.33,31.58Z"/><path class="cls-7" d="M55.33,48.58H53.25a3.59,3.59,0,0,0,.42-1.67V30.8A6.32,6.32,0,0,0,54.33,28V21.58A2.33,2.33,0,0,0,52,19.25H45v-1a9.68,9.68,0,0,0-9.67-9.67H24.67A9.68,9.68,0,0,0,15,18.25v1H8a2.33,2.33,0,0,0-2.33,2.33V28a6.32,6.32,0,0,0,.66,2.81V46.91a3.59,3.59,0,0,0,.42,1.67H4.67a1,1,0,0,0,0,2h19.2l-.12,1.7a1,1,0,0,0,.31.79l5.24,5.08a1,1,0,0,0,1.4,0l5.24-5.08a1,1,0,0,0,.31-.79l-.12-1.7h19.2a1,1,0,0,0,0-2ZM17,18.25a7.68,7.68,0,0,1,7.67-7.67H35.33A7.68,7.68,0,0,1,43,18.25v1H41v-1a5.67,5.67,0,0,0-5.67-5.67H24.67A5.67,5.67,0,0,0,19,18.25v1H17Zm22,0v1H37.08a2.85,2.85,0,0,0-.49-.84,3,3,0,0,0-2.28-1.06H25.69a3,3,0,0,0-2.28,1.06,2.85,2.85,0,0,0-.49.84H21v-1a3.67,3.67,0,0,1,3.67-3.67H35.33A3.67,3.67,0,0,1,39,18.25ZM24,48.58H10a1.67,1.67,0,0,1-1.67-1.67V33.14A6.3,6.3,0,0,0,12,34.32h1v1.26a3.67,3.67,0,1,0,7.33,0V34.32H25Zm-9-13v-3h3.33v3a1.67,1.67,0,1,1-3.33,0Zm10.1-3.26H20.33v-.07a1.66,1.66,0,0,0-1.66-1.67h-4A1.67,1.67,0,0,0,13,32.25v.07H12A4.33,4.33,0,0,1,7.67,28V21.58A.33.33,0,0,1,8,21.25H22.8l.7,4.15a2.31,2.31,0,0,0,1.93,1.92ZM25.78,52,26,48.67l7.7-4.44L34,48.42l-7.42,4.29ZM32.84,31.4l.28,4.19-6.49,3.75.3-4.54Zm-5.74,1,.34-5h5.12l.13,1.82Zm6.17,5.41.28,4.2-7.39,4.26.31-4.53ZM30,56l-1.95-1.88,6.08-3.51.09,1.3Zm4.2-30.69H25.8a.33.33,0,0,1-.33-.28l-.76-4.56a1,1,0,0,1,.22-.81,1,1,0,0,1,.76-.35h8.62a1,1,0,0,1,.76.35,1,1,0,0,1,.22.81l-.76,4.56A.33.33,0,0,1,34.2,25.35Zm.37,2A2.31,2.31,0,0,0,36.5,25.4l.7-4.15H52a.33.33,0,0,1,.33.33V28A4.33,4.33,0,0,1,48,32.32H47v-.07a1.67,1.67,0,0,0-1.67-1.67h-4a1.66,1.66,0,0,0-1.66,1.67v.07H34.9ZM45,32.58v3a1.67,1.67,0,1,1-3.33,0v-3Zm-9,16L35,34.32h4.63v1.26a3.67,3.67,0,1,0,7.33,0V34.32h1a6.3,6.3,0,0,0,3.67-1.18V46.91A1.67,1.67,0,0,1,50,48.58Z"/></g></g></g></svg>