<?xml version="1.0" encoding="UTF-8"?>
<svg width="23px" height="22px" viewBox="0 0 23 22" version="1.1" xmlns="http://www.w3.org/2000/svg" xmlns:xlink="http://www.w3.org/1999/xlink">
    <!-- Generator: sketchtool 50.2 (55047) - http://www.bohemiancoding.com/sketch -->
    <title>74BAFCF8-72AD-48CA-8236-DD84F6A7D3F9</title>
    <desc>Created with sketchtool.</desc>
    <defs></defs>
    <g id="Contact-us" stroke="none" stroke-width="1" fill="none" fill-rule="evenodd">
        <g id="Contact" transform="translate(-184.000000, -924.000000)" fill="#2BC47D">
            <g id="Group-7" transform="translate(183.000000, 757.000000)">
                <g id="Group-5">
                    <path d="M22.390674,169.457295 L20.3495177,167.421813 C19.7863912,166.859396 18.8721972,166.859396 18.3083614,167.421813 L15.246627,171.492778 C14.7792462,172.181438 14.6835005,172.965843 15.246627,173.52826 L16.4962856,174.774373 C15.5700347,176.015521 14.4579662,177.368726 13.20618,178.616966 C11.7905622,180.028329 10.2160775,181.311321 8.80045977,182.365233 L7.59264562,181.161674 C7.02951911,180.599257 6.242986,180.694293 5.55148934,181.161674 L1.4691768,184.214898 C0.784772419,184.686534 0.905341066,185.687963 1.4691768,186.25038 L3.51033307,188.285154 C4.63800454,189.409988 6.10397744,189.049701 7.59264562,188.285154 C7.59264562,188.285154 12.0983669,185.763141 15.9558544,181.916292 C19.5842614,178.297814 22.390674,173.52826 22.390674,173.52826 C22.9757865,171.923279 23.5183454,170.581421 22.390674,169.457295" id="call"></path>
                </g>
            </g>
        </g>
    </g>
</svg>