<svg xmlns="http://www.w3.org/2000/svg" viewBox="0 0 60 60"><defs><style>.cls-1{fill:none;}.cls-2{fill:#edf4ff;}.cls-3{fill:#96ddff;}.cls-4{fill:#69baf9;}.cls-5{fill:#79deb4;}.cls-6{fill:#62cca1;}.cls-7{fill:#f6716f;}.cls-8{fill:#3d3d63;}</style></defs><title>Challenge</title><g id="图层_2" data-name="图层 2"><g id="Graphics"><g id="Challenge"><rect class="cls-1" width="60" height="60"/><circle class="cls-2" cx="29.89" cy="26.85" r="18.34"/><path class="cls-3" d="M55.88,50.44l-12-17a.65.65,0,0,0-1.08,0l-4.36,6.18,7.66,10.87a.67.67,0,0,1-.55,1.05h9.8A.67.67,0,0,0,55.88,50.44Z"/><path class="cls-2" d="M48.7,41.62l-1.81,1.81L44,40.55a1.05,1.05,0,0,0-.75-.32,1.09,1.09,0,0,0-.75.32l-1.56,1.56-1.73-2.46,4-5.74Z"/><path class="cls-3" d="M21.47,39.42l-4.25-6a.65.65,0,0,0-1.08,0l-12,17a.67.67,0,0,0,.55,1.05h9.58a.66.66,0,0,1-.54-1.05Z"/><path class="cls-2" d="M11.3,41.62l1.81,1.81L16,40.55a1.05,1.05,0,0,1,.75-.32,1.09,1.09,0,0,1,.75.32l1.56,1.56,1.73-2.46-4.05-5.74Z"/><path class="cls-4" d="M55.88,50.44l-3.23-4.58a38.5,38.5,0,0,1-8.38,2l1.81,2.56a.67.67,0,0,1-.55,1.05h9.8A.67.67,0,0,0,55.88,50.44Z"/><path class="cls-4" d="M15.53,47.85a38.11,38.11,0,0,1-8.18-2L4.12,50.44a.67.67,0,0,0,.55,1.05h9.58a.66.66,0,0,1-.54-1.05Z"/><path class="cls-5" d="M29.35,28.24,13.71,50.44a.66.66,0,0,0,.54,1.05H45.53a.67.67,0,0,0,.55-1.05L30.44,28.24A.66.66,0,0,0,29.35,28.24Z"/><path class="cls-6" d="M42.89,45.91a66.06,66.06,0,0,1-13,1.26,66.21,66.21,0,0,1-13-1.26l-3.18,4.53a.66.66,0,0,0,.54,1.05H45.53a.67.67,0,0,0,.55-1.05Z"/><path class="cls-2" d="M36.85,37.35l-3.22,3.22L30,36.94l-3.47,3.47L23.15,37l6.2-8.79a.66.66,0,0,1,1.09,0Z"/><polygon class="cls-7" points="29.89 23.64 37.21 23.64 35.22 20.98 37.21 18.32 29.89 18.32 29.89 23.64"/><path class="cls-8" d="M56.67,49.88,46.89,36a19.31,19.31,0,1,0-33.9.18L3.33,49.88a1.63,1.63,0,0,0,1.34,2.58H55.33a1.63,1.63,0,0,0,1.34-2.58Zm-40-15.57,3.6,5.11-1.6,2.27-1.3-1.3a1,1,0,0,0-.69-.29h0a1,1,0,0,0-.69.29L13.36,43,11.7,41.37Zm18.58-15-.82,1.1a1,1,0,0,0,0,1.17l.82,1.1H30.87V19.3Zm-5.37,9.86,5.69,8.08-1.95,1.95-2.94-2.94a1,1,0,0,0-1.38,0L26.53,39l-2.11-2.11Zm-6.61,9.38,2.56,2.56a1,1,0,0,0,1.38,0L30,38.32l2.94,2.94a1,1,0,0,0,1.38,0l2.4-2.41,8.22,11.66H14.85Zm16.33,1,3.71-5.26,5,7.06L46.64,43,44,40.39a1,1,0,0,0-.69-.29h0a1,1,0,0,0-.69.29L41.2,41.82ZM12.53,26.85a17.36,17.36,0,1,1,33.09,7.34l-1-1.37a1.7,1.7,0,0,0-2.68,0l-3.56,5.05L31.23,27.67a1.45,1.45,0,0,0-.36-.34V24.62h6.34A1,1,0,0,0,38,23.06L36.43,21,38,18.91a1,1,0,0,0-.78-1.56H29.89a1,1,0,0,0-1,1v9a1.33,1.33,0,0,0-.37.34h0l-7.08,10L18,32.82a1.7,1.7,0,0,0-2.68,0l-1.09,1.54A17.37,17.37,0,0,1,12.53,26.85ZM10.57,43l2.1,2.1a1,1,0,0,0,1.38,0l2.64-2.63.85.85-4.63,6.57a1.65,1.65,0,0,0-.26.63H5.26Zm36.56,7.52a1.63,1.63,0,0,0-.25-.63l-4.54-6.44,1-1L46,45.09a1,1,0,0,0,1.38,0l2.1-2.1,5.31,7.52Z"/></g></g></g></svg>