<svg xmlns="http://www.w3.org/2000/svg" viewBox="0 0 60 60"><defs><style>.cls-1{fill:none;}.cls-2{fill:#ffdead;}.cls-3{fill:#fff3db;}.cls-4{fill:#f2c182;}.cls-5{fill:#69baf9;}.cls-6{fill:#f7fbff;}.cls-7{fill:#d8e3f0;}.cls-8{fill:#599ed4;}.cls-9{fill:#3d3d63;}</style></defs><title>Comment</title><g id="图层_2" data-name="图层 2"><g id="Icons"><g id="Comment"><rect class="cls-1" width="60" height="60"/><path class="cls-2" d="M6.67,17.1V43.42a1.7,1.7,0,0,0,1.69,1.7H23.18v5.3l9.41-5.3H47.41a1.7,1.7,0,0,0,1.7-1.7V17.1a1.7,1.7,0,0,0-1.7-1.7h-39A1.7,1.7,0,0,0,6.67,17.1Z"/><path class="cls-3" d="M47.41,15.4h-39a1.7,1.7,0,0,0-1.69,1.7v2.35a1.7,1.7,0,0,1,1.69-1.7H47.41a1.7,1.7,0,0,1,1.7,1.7V17.1A1.7,1.7,0,0,0,47.41,15.4Z"/><path class="cls-4" d="M32.59,45.12H47.41a1.7,1.7,0,0,0,1.7-1.7V21.26s-3.5,23-42.44,18.44v3.72a1.7,1.7,0,0,0,1.69,1.7H23.19v5.3Z"/><polygon class="cls-5" points="36.27 37.05 42.24 34.99 34.52 30.53 36.27 37.05"/><path class="cls-5" d="M52.26,8.73h0a3.6,3.6,0,0,0-4.93,1.32l-1.17,2,6.25,3.61,1.17-2A3.62,3.62,0,0,0,52.26,8.73Z"/><rect class="cls-6" x="39.38" y="12.41" width="8.91" height="21.8" transform="translate(17.53 -18.79) rotate(30)"/><path class="cls-7" d="M45.42,11.65l-.31.54,3.47,2a2,2,0,0,1,.73,2.73l-8.2,14.2a2,2,0,0,1-2.74.74l-3.46-2-.39.67,5.2,3h0L42.24,35,53.14,16.1Z"/><polygon class="cls-8" points="36.12 36.48 36.12 36.48 36.27 37.05 42.24 34.99 39.61 33.47 36.12 36.48"/><path class="cls-8" d="M52.26,8.73h0c-.06,0-.13-.05-.19-.09A3.61,3.61,0,0,1,52,12l-1.17,2-4.32-2.49-.3.51,6.25,3.61,1.17-2A3.62,3.62,0,0,0,52.26,8.73Z"/><path class="cls-9" d="M15.43,24.47H28.8a1,1,0,0,0,0-2H15.43a1,1,0,0,0,0,2Z"/><path class="cls-9" d="M15.43,31.26H28.8a1,1,0,0,0,0-2H15.43a1,1,0,1,0,0,2Z"/><path class="cls-9" d="M56.37,20.94A5.85,5.85,0,0,0,55,13.47a4.61,4.61,0,0,0-8.36-3.76l-.69,1.18a1,1,0,0,0-1.22.42L42.93,14.4H8.21a2.71,2.71,0,0,0-2.7,2.7V43.42a2.71,2.71,0,0,0,2.7,2.7H22v4.3a1,1,0,0,0,.5.87,1,1,0,0,0,.5.13,1,1,0,0,0,.49-.13l9.18-5.17H47.26a2.7,2.7,0,0,0,2.7-2.7V24.05l4.21-7.29a1,1,0,0,0-.25-1.26l.1-.19a3.83,3.83,0,0,1,.62,4.63l-3.11,5.38a3.34,3.34,0,0,0,1.22,4.56,1,1,0,0,0,1-1.73,1.34,1.34,0,0,1-.49-1.83ZM48,43.42a.7.7,0,0,1-.7.7H32.44a1,1,0,0,0-.49.13L24,48.71V45.12a1,1,0,0,0-1-1H8.21a.71.71,0,0,1-.7-.7V17.1a.71.71,0,0,1,.7-.7H41.77l-8,13.79a1.07,1.07,0,0,0-.11.72l1.19,5.14H15.43a1,1,0,0,0,0,2H36.12l.13,0a1.23,1.23,0,0,0,.19,0l6.25-1.91a1,1,0,0,0,.57-.45L48,27.51ZM36.88,35.78l-.71-3.08,3.74,2.16Zm5.15-2-6-3.46L46,13.17l6,3.46ZM52.87,13.32l-.67,1.15-4.52-2.61.67-1.15a2.61,2.61,0,1,1,4.52,2.61Z"/></g></g></g></svg>