<svg xmlns="http://www.w3.org/2000/svg" viewBox="0 0 60 60"><defs><style>.cls-1{fill:none;}.cls-2{fill:#ffdead;}.cls-3{fill:#ffc670;}.cls-4{fill:#96ddff;}.cls-5{fill:#69baf9;}.cls-6{fill:#fff6e6;}.cls-7{fill:#ff9a42;}.cls-8{fill:#3d3d63;}</style></defs><title>Cooperation</title><g id="图层_2" data-name="图层 2"><g id="Graphics"><g id="Cooperation"><rect class="cls-1" width="60" height="60"/><path class="cls-2" d="M33.09,19.11h0a7.79,7.79,0,0,0,6.48-2.22l.32-.32L50.42,27.1l-1.24,1.24a8.25,8.25,0,0,0-2.26,4.24h0a8.28,8.28,0,0,1-2.25,4.24L34.24,47.24l-9.72-9.72-4.19-4.18-2.87-2.87,9.15-9.15A7.75,7.75,0,0,1,33.09,19.11Z"/><path class="cls-3" d="M46.58,33.81c.75-2.5-7.76-5.89-7.76-5.89l-6-1.84L32,28.33l4.79,4.86L40,39.13l2,.37,2.69-2.68A8.3,8.3,0,0,0,46.58,33.81Z"/><path class="cls-1" d="M33.09,19.11h0a7.79,7.79,0,0,0,6.48-2.22l.32-.32L50.42,27.1l-1.24,1.24a8.25,8.25,0,0,0-2.26,4.24h0a8.28,8.28,0,0,1-2.25,4.24L34.24,47.24l-9.72-9.72-4.19-4.18-2.87-2.87,9.15-9.15A7.75,7.75,0,0,1,33.09,19.11Z"/><rect class="cls-4" x="9.52" y="9.41" width="6.31" height="20.5" rx="2" ry="2" transform="translate(17.61 -3.2) rotate(45)"/><path class="cls-5" d="M6.66,21.21l4.46,4.46-2,2a2,2,0,0,1-2.83,0L4.61,26.09a2,2,0,0,1,0-2.83Z"/><rect class="cls-1" x="9.52" y="9.41" width="6.31" height="20.5" rx="2" ry="2" transform="translate(17.61 -3.2) rotate(45)"/><path class="cls-6" d="M31.06,24.73l-3.79,3.78-3.92-3.92L27.94,20l-4-.5a3,3,0,0,1-1.75-.86l-2.06-2.06L9.58,27.1l3.28,3.28a4.15,4.15,0,0,1,1.08,1.87h0A10.55,10.55,0,0,0,16.67,37l9.06,9.07,9.14-9.14,4.19-4.19Z"/><rect class="cls-3" x="44.18" y="9.41" width="6.31" height="20.5" rx="2" ry="2" transform="translate(94.7 0.1) rotate(135)"/><path class="cls-7" d="M53.34,21.21l-4.46,4.46,2,2a2,2,0,0,0,2.83,0l1.63-1.63a2,2,0,0,0,0-2.83Z"/><rect class="cls-1" x="44.18" y="9.41" width="6.31" height="20.5" rx="2" ry="2" transform="translate(94.7 0.1) rotate(135)"/><path class="cls-6" d="M33.73,27.4,43.88,37.54a2.35,2.35,0,0,1,0,3.33h0a2.37,2.37,0,0,1-3.34,0L30.4,30.73"/><path class="cls-6" d="M30.4,30.73,43.17,43.5a2.35,2.35,0,0,1,0,3.33h0a2.35,2.35,0,0,1-3.33,0L27.07,34.06"/><path class="cls-6" d="M27.07,34.06,37.21,44.2a2.37,2.37,0,0,1,0,3.34h0a2.35,2.35,0,0,1-3.33,0L23.74,37.39"/><path class="cls-6" d="M23.74,37.39,31.33,45a2.35,2.35,0,0,1,0,3.33h0a2.35,2.35,0,0,1-3.33,0l-7.59-7.6"/><circle class="cls-2" cx="18.93" cy="39.24" r="2.36"/><circle class="cls-2" cx="22.26" cy="42.57" r="2.36"/><circle class="cls-2" cx="25.59" cy="45.9" r="2.36"/><path class="cls-2" d="M39.23,27.94a12.64,12.64,0,0,1-5.87-1.6,3.77,3.77,0,0,0-4.51.59l-3.31,3.31a2.76,2.76,0,0,1-3.92,0h0a2.76,2.76,0,0,1,0-3.92l5.21-5.22"/><path class="cls-8" d="M56.08,22.58,44.41,10.91a3,3,0,0,0-4.2,0l-1.63,1.63a3,3,0,0,0-.13,4.05,6.84,6.84,0,0,1-5.24,1.55,8.83,8.83,0,0,0-5.08.91l-.07,0-4-.51a2,2,0,0,1-1.18-.58l-1.33-1.33a3,3,0,0,0-.11-4.07l-1.63-1.63a3,3,0,0,0-4.2,0L3.92,22.58a3,3,0,0,0,0,4.2l1.63,1.63h0a3,3,0,0,0,4.07.11l2.56,2.55A3.31,3.31,0,0,1,13,32.5a11.52,11.52,0,0,0,3,5.17l0,0a3.32,3.32,0,0,0,2.93,4.88h0a3.31,3.31,0,0,0,3.33,3.33h0a3.37,3.37,0,0,0,1,2.36,3.3,3.3,0,0,0,3.91.57l.18.18a3.31,3.31,0,0,0,5.46-1.2l.41.41a3.32,3.32,0,0,0,4.71,0A3.15,3.15,0,0,0,38.66,47l.49.49a3.33,3.33,0,0,0,4.71-4.71l-.49-.49a3.15,3.15,0,0,0,1.19-.76,3.3,3.3,0,0,0,1-2.35,3.25,3.25,0,0,0-.38-1.51l.19-.2a9.1,9.1,0,0,0,2.53-4.73,7.16,7.16,0,0,1,2-3.74l.51-.51a3,3,0,0,0,4.07-.11h0l1.63-1.63A3,3,0,0,0,56.08,22.58ZM6.93,27,5.3,25.41A1,1,0,0,1,5.3,24L17,12.29a1,1,0,0,1,1.45,0L20,13.92a1,1,0,0,1,0,1.45L8.38,27A1,1,0,0,1,6.93,27ZM18,40.22a1.39,1.39,0,0,1,0-2,1.39,1.39,0,0,1,1.95,0,1.38,1.38,0,0,1-1.95,2Zm3.33,3.33a1.38,1.38,0,0,1,1-2.36,1.35,1.35,0,0,1,1,.4,1.4,1.4,0,0,1,0,2h0A1.41,1.41,0,0,1,21.28,43.55Zm3.33,3.33a1.38,1.38,0,0,1,0-2h0a1.41,1.41,0,0,1,1-.4,1.38,1.38,0,1,1-1,2.36Zm18.58-6.69a1.43,1.43,0,0,1-2,0h0L31.09,30a1,1,0,1,0-1.38,1.38L42.48,44.19a1.39,1.39,0,0,1,.41,1,1.36,1.36,0,0,1-.41,1,1.39,1.39,0,0,1-1.95,0L27.76,33.37a1,1,0,0,0-1.38,1.38L36.53,44.89a1.39,1.39,0,0,1-2,2L24.43,36.7a1,1,0,0,0-1.38,1.38l7.6,7.6a1.38,1.38,0,1,1-2,2l-.18-.18a3.3,3.3,0,0,0-2.93-4.87,3.26,3.26,0,0,0-3.33-3.3,3.31,3.31,0,0,0-4.87-3l0,0A9.56,9.56,0,0,1,14.88,32a5,5,0,0,0-1.33-2.3L11,27.16,20.16,18l1.32,1.32a4,4,0,0,0,2.31,1.13l2.06.26-4.92,4.92a3.75,3.75,0,1,0,5.3,5.3l3.31-3.31a2.77,2.77,0,0,1,2.27-.77L43.19,38.23a1.38,1.38,0,0,1,.4,1A1.39,1.39,0,0,1,43.19,40.19ZM46,32.39a7.27,7.27,0,0,1-2,3.74l-.07.07L36.2,28.49a13.24,13.24,0,0,0,3,.42.93.93,0,0,0,1-.95,1,1,0,0,0-1-1,11.79,11.79,0,0,1-5.41-1.48,4.76,4.76,0,0,0-5.67.75l-3.31,3.31A1.8,1.8,0,1,1,22.31,27l5-5A6.86,6.86,0,0,1,33,20.07,8.78,8.78,0,0,0,39.81,18L49,27.16l-.5.49A9.15,9.15,0,0,0,46,32.39Zm8.73-7L53.07,27a1,1,0,0,1-1.45,0L40,15.37a1,1,0,0,1,0-1.45l1.63-1.63a1,1,0,0,1,1.45,0L54.7,24A1,1,0,0,1,54.7,25.41Z"/></g></g></g></svg>