<svg height="45" viewBox="0 0 54 45" width="54" xmlns="http://www.w3.org/2000/svg"><g fill="none" fill-rule="evenodd" transform="translate(-5 -11)"><path d="m0 0h60v60h-60z"/><g fill-rule="nonzero"><path d="m12 50.44h33.33" fill="#fff"/><path d="m8 12.74h41.33c1.1045695 0 2 .8954305 2 2v25.34c0 .7345387-.5954613 1.33-1.33 1.33h-42.67c-.73453872 0-1.33-.5954613-1.33-1.33v-25.34c0-1.1045695.8954305-2 2-2z" fill="#fcfeff"/><path d="m51.33 14.74v25.33c.0026652.3544674-.1362819.6953328-.3859947.9469232-.2497129.2515903-.5895279.3930868-.9440053.3930768h-22.2l10.44-28.67h11.09c1.1045695 0 2 .8954305 2 2z" fill="#edf4ff"/><path d="m42 50.44h-26.67c.0055112-1.8407246 1.4992671-3.3300083 3.34-3.33h20c1.8391082 0 3.33 1.4908918 3.33 3.33z" fill="#fff"/><path d="m35.07 41.41h-12.8l-1.6 5.7h16z" fill="#c3cfde"/><path d="m51.33 14.74v4h-45.33v-4c0-1.1045695.8954305-2 2-2h41.33c1.1045695 0 2 .8954305 2 2z" fill="#96ddff"/><path d="m49.33 12.74h-11.09l-2.18 6h15.27v-4c0-1.1045695-.8954305-2-2-2z" fill="#69baf9"/><path d="m42 50.44h-26.67c.0055112-1.8407246 1.4992671-3.3300083 3.34-3.33h20c1.8391082 0 3.33 1.4908918 3.33 3.33z" fill="#edf4ff"/><path d="m45.83 52.92c.5024223.0006274 1.0040675-.0395042 1.5-.12.5295505-.0931924 1.0608922.1545008 1.33.62.1714496.2980554.4547979.5153281.78713.6035744.332332.0882464.6861422.0401627.98287-.1335744l2.11-1.22c.6066244-.3638162.8110295-1.1458879.46-1.76-.2687292-.4674687-.2209876-1.0523041.12-1.47.6371101-.7836697 1.1436175-1.6649926 1.5-2.61.195157-.5119025.6923558-.8447049 1.24-.83.7179702 0 1.3-.5820298 1.3-1.3v-2.44c0-.7179702-.5820298-1.3-1.3-1.3-.53926.000432-1.0218862-.3346143-1.21-.84-.358567-.9439743-.8648823-1.8249629-1.5-2.61-.3517547-.4068271-.4116849-.9901483-.15-1.46.35523-.6245654.1410789-1.4187089-.48-1.78l-2.11-1.22c-.2979454-.1729159-.652675-.2194794-.9851534-.1293157-.3324784.0901636-.6150825.3095633-.7848466.6093157-.2683148.4670892-.7986139.7182835-1.33.63-.9924909-.1733101-2.0075091-.1733101-3 0-.5246817.0794331-1.0444781-.1705454-1.31-.63-.3573922-.619805-1.1484368-.8343255-1.77-.48l-2.11 1.22c-.6210789.3612911-.83523 1.1554346-.48 1.78.2699697.463713.2220619 1.046591-.12 1.46-.6421866.7836691-1.155296 1.6647318-1.52 2.61-.1734518.5177336-.6540721.8701884-1.2.88-.7179702 0-1.3.5820298-1.3 1.3v2.4c0 .7179702.5820298 1.3 1.3 1.3.5367272-.0019969 1.0186113.3285517 1.21.83.3563825.9450074.8628899 1.8263303 1.5 2.61.3409876.4176959.3887292 1.0025313.12 1.47-.3543255.6215632-.139805 1.4126078.48 1.77l2.11 1.22c.297603.1769488.6538448.2268371.9886063.138445.3347614-.088392.6199382-.3076437.7913937-.608445.2691078-.4654992.8004495-.7131924 1.33-.62.4962052.0771473.9978488.1139345 1.5.11z" fill="#79deb4"/><path d="m57.16 42.25v2.44c0 .7179702-.5820298 1.3-1.3 1.3-.5383569.0024433-1.0195081.3364656-1.21.84-.358567.9439743-.8648823 1.8249629-1.5 2.61-.1865287.2327219-.2887472.5217537-.29.82-.0029046.2248627.0558931.4462185.17.64.35523.6245654.1410789 1.4187089-.48 1.78l-2.11 1.22c-.2979454.1729159-.652675.2194794-.9851534.1293157-.3324784-.0901636-.6150825-.3095633-.7848466-.6093157-.2683148-.4670892-.7986139-.7182835-1.33-.63-.9924909.1733101-2.0075091.1733101-3 0-.5313861-.0882835-1.0616852.1629108-1.33.63-.3573922.619805-1.1484368.8343255-1.77.48l-2.11-1.22c-.6210789-.3612911-.83523-1.1554346-.48-1.78.0654877-.1118042.1127466-.2333269.14-.36l14.1-14.13c-.0902709.3871506.0059489.7942346.26 1.1.6351177.7850371 1.141433 1.6660257 1.5 2.61.1904919.5035344.6716431.8375567 1.21.84.714083-.0000211 1.2945071.5759381 1.3 1.29z" fill="#62cca1"/><circle cx="45.83" cy="43.48" fill="#fcfeff" r="3.54"/><circle cx="9.33" cy="15.74" fill="#3d3d63" r="1"/><circle cx="16" cy="15.74" fill="#3d3d63" r="1"/><circle cx="12.67" cy="15.74" fill="#3d3d63" r="1"/><path d="m20 30.25 3-3c.3921222-.3921222.3921222-1.0278778 0-1.42s-1.0278778-.3921222-1.42 0l-3.72 3.73c-.3877236.3900375-.3877236 1.0199625 0 1.41l3.72 3.73c.1877666.1893127.4433625.2957983.71.2957983s.5222334-.1064856.71-.2957983c.3877236-.3900375.3877236-1.0199625 0-1.41z" fill="#3d3d63"/><path d="m34.32 34.68c.3900375.3877236 1.0199625.3877236 1.41 0l3.73-3.68c.3877236-.3900375.3877236-1.0199625 0-1.41l-3.73-3.73c-.3921222-.3893607-1.0256392-.3871221-1.415.005-.3893607.3921222-.3871221 1.0256392.005 1.415l3 3-3 3c-.3811429.3888435-.3811429 1.0111565 0 1.4z" fill="#3d3d63"/><path d="m31 26.15c-.2305237-.133545-.5048063-.1695837-.7620037-.1001217-.2571973.0694621-.4760451.238682-.6079963.4701217l-3.69 6.48c-.1970594.3099891-.2083077.703062-.0292979 1.0238128.1790099.3207509.5194594.5175425.886748.5125711s.702287-.2109055.8725499-.5363839l3.73-6.45c.1410312-.2368214.1780589-.521353.1023363-.7863818-.0757225-.2650288-.2574797-.4870504-.5023363-.6136182z" fill="#3d3d63"/><path d="m55.86 40c-.1207864-.0009231-.2283518-.0766173-.27-.19-.3979145-1.0467369-.9618001-2.0225629-1.67-2.89-.0686869-.0992775-.0686869-.2307225 0-.33.6341749-1.0991723.2582841-2.5042881-.84-3.14l-.75-.45v-18.26c0-1.6568542-1.3431458-3-3-3h-41.33c-1.65685425 0-3 1.3431458-3 3v25.34c.00547789 1.2845476 1.04545239 2.3245221 2.33 2.33h13.67l-1 3.7h-1.33c-2.0050717.0013635-3.7469353 1.3791322-4.21 3.33h-2.46c-.5522847 0-1 .4477153-1 1s.4477153 1 1 1h25.47c-.0169428.2389217.0067256.478987.07.71.1515014.5927282.5378332 1.098209 1.07 1.4l2.11 1.22c.5290929.3037346 1.1571833.3848173 1.7460655.2254066.5888821-.1594108 1.0903049-.5462535 1.3939345-1.0754066.066219-.1042529.1880043-.1592527.31-.14 1.0985115.1900004 2.2214885.1900004 3.32 0 .1245998-.0201957.2485132.0397624.31.15.4148471.7102999 1.1774435 1.1449798 2 1.14.4031734.0039048.8001119-.0996444 1.15-.3l2.11-1.22c.5291186-.3052742.9143374-.8092987 1.07-1.4.1608777-.5873005.0779494-1.2146709-.23-1.74-.0704211-.1023941-.0704211-.2376059 0-.34.7060017-.8652751 1.2697256-1.8374455 1.67-2.88.0391175-.1153007.1482626-.1921065.27-.19 1.2679792-.0054773 2.2945227-1.0320208 2.3-2.3v-2.44c-.0216423-1.2468648-1.032993-2.2493439-2.28-2.26zm-48.86-25.26c0-.5522847.44771525-1 1-1h41.33c.5522847 0 1 .4477153 1 1v3h-43.33zm.33 25.67c-.08752144 0-.17145823-.0347678-.23334524-.0966548-.061887-.061887-.09665476-.1458238-.09665476-.2333452v-20.34h43.33v12.26c-.9714029-.2579926-1.9974962.1475779-2.53 1-.0637132.1009477-.182775.1525411-.3.13-1.0993424-.1800608-2.2206576-.1800608-3.32 0-.1175435.0256137-.2383109-.0267188-.3-.13-.3034016-.5294939-.8055975-.9159855-1.3951265-1.0736939-.5895289-.1577083-1.2176213-.0735869-1.7448735.2336939l-2.11 1.22c-.5307971.2986081-.9171251.8004734-1.07 1.39-.1599121.5895486-.0808594 1.218377.22 1.75.0750439.097201.0750439.232799 0 .33-.7081999.8674371-1.2720855 1.8432631-1.67 2.89-.0416482.1133827-.1492136.1890769-.27.19-.4897918.0006997-.9664556.1584193-1.36.45zm26.67 5.7h-12l1-3.7h10.5v2.29c.0063997.5123168.1822111 1.0081049.5 1.41zm-15.32 2h17.8c.2285711.4610319.4892112.9054567.78 1.33h-20.69c.3853098-.8108869 1.2022259-1.3282672 2.1-1.33zm37.48-3.41c0 .1656854-.1343146.3-.3.3-.9534188.0023688-1.8074315.5902473-2.15 1.48-.3196461.8431131-.7720209 1.629705-1.34 2.33-.5994406.7404468-.6828348 1.7729463-.21 2.6.0325542.0697205.0325542.1502795 0 .22-.0176198.0803172-.0685073.1493787-.14.19l-2.08 1.18c-.0701635.0390269-.1530427.0483015-.2300973.0257489-.0770545-.0225525-.141854-.0750501-.1799027-.1457489-.4840092-.8249804-1.4263826-1.2663452-2.37-1.11-.8803259.1499621-1.7796741.1499621-2.66 0-.9458444-.1544447-1.8888203.291181-2.37 1.12-.0861895.1391643-.2657259.1873326-.41.11l-2.11-1.22c-.0714927-.0406213-.1223802-.1096828-.14-.19-.0325542-.0697205-.0325542-.1502795 0-.22.467137-.8283154.3840191-1.8573934-.21-2.6-.573097-.6985119-1.0290246-1.485409-1.35-2.33-.3431597-.8659398-1.1785523-1.4360656-2.11-1.44-.1656854 0-.3-.1343146-.3-.3v-2.44c-.0028236-.0803973.0278758-.1583551.0847603-.2152397.0568846-.0568845.1348424-.0875839.2152397-.0847603.9506463-.0036648 1.8010785-.5918142 2.14-1.48.3186932-.845675.7748274-1.6329289 1.35-2.33.5940191-.7426066.677137-1.7716846.21-2.6-.0329414-.0731282-.0329414-.1568718 0-.23.0164621-.0783558.0681074-.1447569.14-.18l2.11-1.22c.0490695-.0136421.1009305-.0136421.15 0 .1016742.0012834.1957776.0539814.25.14.4831915.8266262 1.4245725 1.2714982 2.37 1.12.8803259-.1499621 1.7796741-.1499621 2.66 0 .9516521.128515 1.8846753-.3399817 2.35-1.18.0394921-.0666256.1039943-.1146858.1791324-.1334703.0751382-.0187845.1546684-.0067325.2208676.0334703l2.11 1.22c.0718926.0352431.1235379.1016442.14.18.0329414.0731282.0329414.1568718 0 .23-.4711111.8239639-.3877003 1.8526965.21 2.59.5681905.7038268 1.0205345 1.4937409 1.34 2.34.3226982.9048057 1.1696431 1.5171508 2.13 1.54.0803973-.0028236.1583551.0278758.2152397.0847603.0568845.0568846.0875839.1348424.0847603.2152397z" fill="#3d3d63"/><path d="m45.83 38.94c-2.5073728 0-4.54 2.0326272-4.54 4.54s2.0326272 4.54 4.54 4.54 4.54-2.0326272 4.54-4.54-2.0326272-4.54-4.54-4.54zm0 7.08c-1.4028033 0-2.54-1.1371967-2.54-2.54s1.1371967-2.54 2.54-2.54 2.54 1.1371967 2.54 2.54c-.0109845 1.3949865-1.1449702 2.5200432-2.54 2.52z" fill="#3d3d63"/></g></g></svg>