<?xml version="1.0" encoding="UTF-8"?>
<svg width="46px" height="46px" viewBox="0 0 46 46" version="1.1" xmlns="http://www.w3.org/2000/svg" xmlns:xlink="http://www.w3.org/1999/xlink">
    <!-- Generator: sketchtool 50.2 (55047) - http://www.bohemiancoding.com/sketch -->
    <title>D085B7C0-016B-4888-A36A-03F0295A6DDB</title>
    <desc>Created with sketchtool.</desc>
    <defs></defs>
    <g id="Symbols" stroke="none" stroke-width="1" fill="none" fill-rule="evenodd">
        <g id="visa-steps-/-step-2">
            <g id="Development" transform="translate(0.000000, 1.000000)">
                <rect id="Rectangle-path" x="0" y="0" width="45" height="45"></rect>
                <path d="M9,37.83 L33.9975,37.83" id="Shape" fill="#FFFFFF" fill-rule="nonzero"></path>
                <path d="M6,9.555 L36.9975,9.555 C37.8259271,9.555 38.4975,10.2265729 38.4975,11.055 L38.4975,30.06 C38.4975,30.610904 38.050904,31.0575 37.5,31.0575 L5.4975,31.0575 C4.94659596,31.0575 4.5,30.610904 4.5,30.06 L4.5,11.055 C4.5,10.2265729 5.17157288,9.555 6,9.555 Z" id="Shape" fill="#FCFEFF" fill-rule="nonzero"></path>
                <path d="M38.4975,11.055 L38.4975,30.0525 C38.4994989,30.3183505 38.3952886,30.5739996 38.208004,30.7626924 C38.0207193,30.9513852 37.765858,31.0575075 37.5,31.0575 L20.85,31.0575 L28.68,9.555 L36.9975,9.555 C37.8259271,9.555 38.4975,10.2265729 38.4975,11.055 Z" id="Shape" fill="#EDF4FF" fill-rule="nonzero"></path>
                <path d="M31.5,37.83 L11.4975,37.83 C11.5016334,36.4494565 12.6219503,35.3324938 14.0025,35.3325 L29.0025,35.3325 C30.3818312,35.3325 31.5,36.4506688 31.5,37.83 Z" id="Shape" fill="#FFFFFF" fill-rule="nonzero"></path>
                <polygon id="Shape" fill="#C3CFDE" fill-rule="nonzero" points="26.3025 31.0575 16.7025 31.0575 15.5025 35.3325 27.5025 35.3325"></polygon>
                <path d="M38.4975,11.055 L38.4975,14.055 L4.5,14.055 L4.5,11.055 C4.5,10.2265729 5.17157288,9.555 6,9.555 L36.9975,9.555 C37.8259271,9.555 38.4975,10.2265729 38.4975,11.055 Z" id="Shape" fill="#96DDFF" fill-rule="nonzero"></path>
                <path d="M36.9975,9.555 L28.68,9.555 L27.045,14.055 L38.4975,14.055 L38.4975,11.055 C38.4975,10.2265729 37.8259271,9.555 36.9975,9.555 Z" id="Shape" fill="#69BAF9" fill-rule="nonzero"></path>
                <path d="M31.5,37.83 L11.4975,37.83 C11.5016334,36.4494565 12.6219503,35.3324938 14.0025,35.3325 L29.0025,35.3325 C30.3818312,35.3325 31.5,36.4506688 31.5,37.83 Z" id="Shape" fill="#EDF4FF" fill-rule="nonzero"></path>
                <path d="M34.3725,39.69 C34.7493167,39.6904705 35.1255507,39.6603718 35.4975,39.6 C35.8946629,39.5301057 36.2931691,39.7158756 36.495,40.065 C36.6235872,40.2885416 36.8360984,40.451496 37.0853475,40.5176808 C37.3345965,40.5838656 37.5999541,40.5478028 37.8225,40.4175 L39.405,39.5025 C39.8599683,39.2296379 40.0132722,38.6430841 39.75,38.1825 C39.5484531,37.8318985 39.5842593,37.3932719 39.84,37.08 C40.3178325,36.4922478 40.6977131,35.8312555 40.965,35.1225 C41.1113677,34.7385732 41.4842669,34.4889713 41.895,34.5 C42.4334776,34.5 42.87,34.0634776 42.87,33.525 L42.87,31.695 C42.87,31.1565224 42.4334776,30.72 41.895,30.72 C41.490555,30.720324 41.1285854,30.4690393 40.9875,30.09 C40.7185748,29.3820193 40.3388383,28.7212778 39.8625,28.1325 C39.598684,27.8273797 39.5537363,27.3898888 39.75,27.0375 C40.0164225,26.569076 39.8558092,25.9734683 39.39,25.7025 L37.8075,24.7875 C37.584041,24.657813 37.3179937,24.6228905 37.0686349,24.6905132 C36.8192761,24.7581359 36.6073231,24.9226857 36.48,25.1475 C36.2787639,25.4978169 35.8810395,25.6862126 35.4825,25.62 C34.7381318,25.4900175 33.9768682,25.4900175 33.2325,25.62 C32.8389888,25.6795748 32.4491414,25.492091 32.25,25.1475 C31.9819558,24.6826463 31.3886724,24.5217559 30.9225,24.7875 L29.34,25.7025 C28.8741908,25.9734683 28.7135775,26.569076 28.98,27.0375 C29.1824772,27.3852848 29.1465464,27.8224432 28.89,28.1325 C28.40836,28.7202518 28.023528,29.3810489 27.75,30.09 C27.6199111,30.4783002 27.259446,30.7426413 26.85,30.75 C26.3115224,30.75 25.875,31.1865224 25.875,31.725 L25.875,33.525 C25.875,34.0634776 26.3115224,34.5 26.85,34.5 C27.2525454,34.4985023 27.6139585,34.7464137 27.7575,35.1225 C28.0247869,35.8312555 28.4046675,36.4922478 28.8825,37.08 C29.1382407,37.3932719 29.1740469,37.8318985 28.9725,38.1825 C28.7067559,38.6486724 28.8676463,39.2419558 29.3325,39.51 L30.915,40.425 C31.1382022,40.5577116 31.4053836,40.5951278 31.6564547,40.5288338 C31.9075258,40.4625397 32.1214084,40.298101 32.25,40.0725 C32.4518309,39.7233756 32.8503371,39.5376057 33.2475,39.6075 C33.6196539,39.6653605 33.9958866,39.6929509 34.3725,39.69 Z" id="Shape" fill="#79DEB4" fill-rule="nonzero"></path>
                <path d="M42.87,31.6875 L42.87,33.5175 C42.87,34.0559776 42.4334776,34.4925 41.895,34.4925 C41.4912324,34.4943324 41.1303689,34.7448492 40.9875,35.1225 C40.7185748,35.8304807 40.3388383,36.4912222 39.8625,37.08 C39.7226035,37.2545415 39.6459396,37.4713152 39.645,37.695 C39.6428216,37.863647 39.6869198,38.0296639 39.7725,38.175 C40.0389225,38.643424 39.8783092,39.2390317 39.4125,39.51 L37.83,40.425 C37.606541,40.554687 37.3404937,40.5896095 37.0911349,40.5219868 C36.8417761,40.4543641 36.6298231,40.2898143 36.5025,40.065 C36.3012639,39.7146831 35.9035395,39.5262874 35.505,39.5925 C34.7606318,39.7224825 33.9993682,39.7224825 33.255,39.5925 C32.8564605,39.5262874 32.4587361,39.7146831 32.2575,40.065 C31.9894558,40.5298537 31.3961724,40.6907441 30.93,40.425 L29.3475,39.51 C28.8816908,39.2390317 28.7210775,38.643424 28.9875,38.175 C29.0366158,38.0911469 29.0720599,38.0000048 29.0925,37.905 L39.6675,27.3075 C39.5997968,27.5978629 39.6719617,27.903176 39.8625,28.1325 C40.3388383,28.7212778 40.7185748,29.3820193 40.9875,30.09 C41.1303689,30.4676508 41.4912324,30.7181676 41.895,30.72 C42.4305622,30.7199842 42.8658803,31.1519536 42.87,31.6875 Z" id="Shape" fill="#62CCA1" fill-rule="nonzero"></path>
                <circle id="Oval" fill="#FCFEFF" fill-rule="nonzero" cx="34.3725" cy="32.61" r="2.655"></circle>
                <circle id="Oval" fill="#3D3D63" fill-rule="nonzero" cx="6.9975" cy="11.805" r="1"></circle>
                <circle id="Oval" fill="#3D3D63" fill-rule="nonzero" cx="12" cy="11.805" r="1"></circle>
                <circle id="Oval" fill="#3D3D63" fill-rule="nonzero" cx="9.5025" cy="11.805" r="1"></circle>
                <path d="M15,22.6875 L17.25,20.4375 C17.5440916,20.1434084 17.5440916,19.6665916 17.25,19.3725 C16.9559084,19.0784084 16.4790916,19.0784084 16.185,19.3725 L13.395,22.17 C13.1042073,22.4625281 13.1042073,22.9349719 13.395,23.2275 L16.185,26.025 C16.3258249,26.1669845 16.5175218,26.2468487 16.7175,26.2468487 C16.9174782,26.2468487 17.1091751,26.1669845 17.25,26.025 C17.5407927,25.7324719 17.5407927,25.2600281 17.25,24.9675 L15,22.6875 Z" id="Shape" fill="#3D3D63" fill-rule="nonzero"></path>
                <path d="M25.74,26.01 C26.0325281,26.3007927 26.5049719,26.3007927 26.7975,26.01 L29.595,23.25 C29.8857927,22.9574719 29.8857927,22.4850281 29.595,22.1925 L26.7975,19.395 C26.5034084,19.1029795 26.0282706,19.1046584 25.73625,19.39875 C25.4442295,19.6928416 25.4459084,20.1679794 25.74,20.46 L27.99,22.71 L25.74,24.96 C25.4541428,25.2516326 25.4541428,25.7183674 25.74,26.01 Z" id="Shape" fill="#3D3D63" fill-rule="nonzero"></path>
                <path d="M23.25,19.6125 C23.0771072,19.5123412 22.8713953,19.4853122 22.6784973,19.5374088 C22.4855992,19.5895053 22.3214634,19.7164202 22.2225,19.89 L19.455,24.75 C19.3072055,24.9824918 19.2987692,25.2772965 19.4330266,25.5178596 C19.567284,25.7584227 19.8226211,25.9060165 20.0980876,25.9022879 C20.373554,25.8985594 20.6248029,25.7441088 20.7525,25.5 L23.55,20.6625 C23.6557734,20.4848839 23.6835441,20.2714853 23.6267523,20.0727136 C23.5699604,19.873942 23.4336425,19.7074258 23.25,19.6125 Z" id="Shape" fill="#3D3D63" fill-rule="nonzero"></path>
                <path d="M41.895,30 C41.8044102,29.9993077 41.7237361,29.942537 41.6925,29.8575 C41.3940641,29.0724473 40.9711499,28.3405778 40.44,27.69 C40.3884848,27.6155419 40.3884848,27.5169581 40.44,27.4425 C40.9156312,26.6181208 40.6337131,25.5642839 39.81,25.0875 L39.2475,24.75 L39.2475,11.055 C39.2475,9.81235931 38.2401407,8.805 36.9975,8.805 L6,8.805 C4.75735931,8.805 3.75,9.81235931 3.75,11.055 L3.75,30.06 C3.75410842,31.0234107 4.53408929,31.8033916 5.4975,31.8075 L15.75,31.8075 L15,34.5825 L14.0025,34.5825 C12.4986963,34.5835226 11.1922985,35.6168491 10.845,37.08 L9,37.08 C8.58578644,37.08 8.25,37.4157864 8.25,37.83 C8.25,38.2442136 8.58578644,38.58 9,38.58 L28.1025,38.58 C28.0897929,38.7591913 28.1075442,38.9392403 28.155,39.1125 C28.268626,39.5570461 28.5583749,39.9361567 28.9575,40.1625 L30.54,41.0775 C30.9368196,41.305301 31.4078875,41.366113 31.8495491,41.2465549 C32.2912107,41.1269968 32.6672778,40.8368648 32.895,40.44 C32.9446643,40.3618104 33.0360032,40.3205605 33.1275,40.335 C33.9513836,40.4775003 34.7936164,40.4775003 35.6175,40.335 C35.7109498,40.3198532 35.8038849,40.3648218 35.85,40.4475 C36.1611353,40.9802249 36.7330826,41.3062348 37.35,41.3025 C37.6523801,41.3054286 37.9500839,41.2277667 38.2125,41.0775 L39.795,40.1625 C40.191839,39.9335444 40.480753,39.555526 40.5975,39.1125 C40.7181583,38.6720246 40.6559621,38.2014968 40.425,37.8075 C40.3721841,37.7307045 40.3721841,37.6292955 40.425,37.5525 C40.9545013,36.9035437 41.3772942,36.1744158 41.6775,35.3925 C41.7068381,35.3060245 41.7886969,35.2484201 41.88,35.25 C42.8309844,35.245892 43.600892,34.4759844 43.605,33.525 L43.605,31.695 C43.5887682,30.7598514 42.8302553,30.0079921 41.895,30 Z M5.25,11.055 C5.25,10.6407864 5.58578644,10.305 6,10.305 L36.9975,10.305 C37.4117136,10.305 37.7475,10.6407864 37.7475,11.055 L37.7475,13.305 L5.25,13.305 L5.25,11.055 Z M5.4975,30.3075 C5.43185892,30.3075 5.36890633,30.2814242 5.32249107,30.2350089 C5.27607582,30.1885937 5.25,30.1256411 5.25,30.06 L5.25,14.805 L37.7475,14.805 L37.7475,24 C37.0189478,23.8065055 36.2493778,24.1106834 35.85,24.75 C35.8022151,24.8257108 35.7129187,24.8644059 35.625,24.8475 C34.8004932,24.7124544 33.9595068,24.7124544 33.135,24.8475 C33.0468423,24.8667103 32.9562668,24.8274609 32.91,24.75 C32.6824488,24.3528796 32.3058019,24.0630109 31.8636551,23.9447296 C31.4215084,23.8264483 30.9504391,23.8895394 30.555,24.12 L28.9725,25.035 C28.5744022,25.2589561 28.2846562,25.635355 28.17,26.0775 C28.0500659,26.5196614 28.1093555,26.9912827 28.335,27.39 C28.3912829,27.4629007 28.3912829,27.5645993 28.335,27.6375 C27.8038501,28.2880778 27.3809359,29.0199473 27.0825,29.805 C27.0512639,29.890037 26.9705898,29.9468077 26.88,29.9475 C26.5126561,29.9480248 26.1551583,30.0663145 25.86,30.285 L5.4975,30.3075 Z M25.5,34.5825 L16.5,34.5825 L17.25,31.8075 L25.125,31.8075 L25.125,33.525 C25.1297998,33.9092376 25.2616583,34.2810787 25.5,34.5825 Z M14.01,36.0825 L27.36,36.0825 C27.5314283,36.4282739 27.7269084,36.7615925 27.945,37.08 L12.4275,37.08 C12.7164824,36.4718348 13.3291695,36.0837996 14.0025,36.0825 L14.01,36.0825 Z M42.12,33.525 C42.12,33.6492641 42.0192641,33.75 41.895,33.75 C41.1799359,33.7517766 40.5394264,34.1926855 40.2825,34.86 C40.0427654,35.4923348 39.7034843,36.0822788 39.2775,36.6075 C38.8279195,37.1628351 38.7653739,37.9372098 39.12,38.5575 C39.1444156,38.6097904 39.1444156,38.6702096 39.12,38.7225 C39.1067852,38.7827379 39.0686196,38.834534 39.015,38.865 L37.455,39.75 C37.4023773,39.7792702 37.340218,39.7862261 37.2824271,39.7693117 C37.2246361,39.7523973 37.1760365,39.7130241 37.1475,39.66 C36.7844931,39.0412647 36.077713,38.7102411 35.37,38.8275 C34.7097556,38.9399716 34.0352444,38.9399716 33.375,38.8275 C32.6656167,38.7116665 31.9583848,39.0458858 31.5975,39.6675 C31.5328579,39.7718732 31.3982055,39.8079995 31.29,39.75 L29.7075,38.835 C29.6538804,38.804534 29.6157148,38.7527379 29.6025,38.6925 C29.5780844,38.6402096 29.5780844,38.5797904 29.6025,38.5275 C29.9528527,37.9062635 29.8905144,37.1344549 29.445,36.5775 C29.0151772,36.0536161 28.6732316,35.4634432 28.4325,34.83 C28.1751302,34.1805451 27.5485858,33.7529508 26.85,33.75 C26.7257359,33.75 26.625,33.6492641 26.625,33.525 L26.625,31.695 C26.6228823,31.634702 26.6459068,31.5762337 26.6885703,31.5335703 C26.7312337,31.4909068 26.789702,31.4678823 26.85,31.47 C27.5629847,31.4672514 28.2008089,31.0261394 28.455,30.36 C28.6940199,29.7257437 29.0361206,29.1353033 29.4675,28.6125 C29.9130144,28.0555451 29.9753527,27.2837365 29.625,26.6625 C29.6002939,26.6076539 29.6002939,26.5448461 29.625,26.49 C29.6373465,26.4312332 29.6760805,26.3814323 29.73,26.355 L31.3125,25.44 C31.3493021,25.4297684 31.3881979,25.4297684 31.425,25.44 C31.5012556,25.4409626 31.5718332,25.480486 31.6125,25.545 C31.9748937,26.1649697 32.6809293,26.4986237 33.39,26.385 C34.0502444,26.2725284 34.7247556,26.2725284 35.385,26.385 C36.098739,26.4813863 36.7985065,26.1300137 37.1475,25.5 C37.1771191,25.4500308 37.2254957,25.4139857 37.2818493,25.3998973 C37.3382029,25.3858089 37.3978506,25.3948479 37.4475,25.425 L39.03,26.34 C39.0839195,26.3664323 39.1226535,26.4162332 39.135,26.475 C39.1597061,26.5298461 39.1597061,26.5926539 39.135,26.6475 C38.7816667,27.2654729 38.8442247,28.0370224 39.2925,28.59 C39.7186429,29.1178701 40.0579009,29.7103057 40.2975,30.345 C40.5395236,31.0236042 41.1747323,31.4828631 41.895,31.5 C41.955298,31.4978823 42.0137663,31.5209068 42.0564297,31.5635703 C42.0990932,31.6062337 42.1221177,31.664702 42.12,31.725 L42.12,33.525 Z" id="Shape" fill="#3D3D63" fill-rule="nonzero"></path>
                <path d="M34.3725,29.205 C32.4919704,29.205 30.9675,30.7294704 30.9675,32.61 C30.9675,34.4905296 32.4919704,36.015 34.3725,36.015 C36.2530296,36.015 37.7775,34.4905296 37.7775,32.61 C37.7775,30.7294704 36.2530296,29.205 34.3725,29.205 Z M34.3725,34.515 C33.3203976,34.515 32.4675,33.6621024 32.4675,32.61 C32.4675,31.5578976 33.3203976,30.705 34.3725,30.705 C35.4246024,30.705 36.2775,31.5578976 36.2775,32.61 C36.2692616,33.6562399 35.4187723,34.5000324 34.3725,34.5 L34.3725,34.515 Z" id="Shape" fill="#3D3D63" fill-rule="nonzero"></path>
            </g>
        </g>
    </g>
</svg>