<?xml version="1.0" encoding="UTF-8"?>
<svg width="22px" height="22px" viewBox="0 0 22 22" version="1.1" xmlns="http://www.w3.org/2000/svg" xmlns:xlink="http://www.w3.org/1999/xlink">
    <!-- Generator: sketchtool 50.2 (55047) - http://www.bohemiancoding.com/sketch -->
    <title>C9F10831-614E-4D47-8A51-B37FE5223D25</title>
    <desc>Created with sketchtool.</desc>
    <defs></defs>
    <g id="Apply" stroke="none" stroke-width="1" fill="none" fill-rule="evenodd">
        <g id="Apply-/-Step-3" transform="translate(-760.000000, -737.000000)" fill="#2BC47D" fill-rule="nonzero">
            <g id="Group-13" transform="translate(729.000000, 439.000000)">
                <path d="M50.249198,320 L33.7498854,320 C32.231032,320 31,318.768968 31,317.250115 L31,300.750802 C31,299.231949 32.2314904,298 33.7498854,298 L50.249198,298 C51.767593,298 52.9990834,299.231949 52.9990834,300.750802 L52.9990834,317.250115 C52.9986251,318.769426 51.767593,320 50.249198,320 Z M51.6241407,300.75126 C51.6241407,299.991834 51.0086246,299.376318 50.249198,299.376318 L33.7498854,299.376318 C32.9904587,299.376318 32.3749427,299.991834 32.3749427,300.75126 L32.3749427,317.250573 C32.3749427,318.01 32.9904587,318.625974 33.7498854,318.625974 L50.249198,318.625974 C51.0086246,318.625974 51.6241407,318.01 51.6241407,317.250573 L51.6241407,300.75126 Z M46.8118412,314.501146 L37.1872422,314.501146 C36.8072997,314.501146 36.4997708,314.1927 36.4997708,313.813216 C36.4997708,313.433274 36.8072997,313.125286 37.1872422,313.125286 L46.8118412,313.125286 C47.1917837,313.125286 47.4993125,313.433274 47.4993125,313.813216 C47.4993125,314.1927 47.1913254,314.501146 46.8118412,314.501146 Z M46.8118412,310.375859 L37.1872422,310.375859 C36.8072997,310.375859 36.4997708,310.067414 36.4997708,309.688388 C36.4997708,309.308904 36.8072997,309.000917 37.1872422,309.000917 L46.8118412,309.000917 C47.1917837,309.000917 47.4993125,309.308445 47.4993125,309.688388 C47.4993125,310.067414 47.1913254,310.375859 46.8118412,310.375859 Z M46.8118412,306.25149 L37.1872422,306.25149 C36.8072997,306.25149 36.4997708,305.943961 36.4997708,305.56356 C36.4997708,305.183617 36.8072997,304.876547 37.1872422,304.876547 L46.8118412,304.876547 C47.1917837,304.876547 47.4993125,305.183617 47.4993125,305.56356 C47.4993125,305.943961 47.1913254,306.25149 46.8118412,306.25149 Z" id="doc-ico"></path>
            </g>
        </g>
    </g>
</svg>