<svg xmlns="http://www.w3.org/2000/svg" viewBox="0 0 60 60"><defs><style>.cls-1{fill:none;}.cls-2{fill:#d8e3f0;}.cls-3{fill:#edf4ff;}.cls-4{fill:#69baf9;}.cls-5{fill:#599ed4;}.cls-6{fill:#ffe3ba;}.cls-7{fill:#3d3d63;}</style></defs><title>Downvote</title><g id="图层_2" data-name="图层 2"><g id="Graphics"><g id="Downvote"><rect class="cls-1" width="60" height="60"/><circle class="cls-2" cx="13" cy="40.74" r="6.74"/><circle class="cls-3" cx="44.31" cy="45.12" r="9.43"/><rect class="cls-4" x="10.48" y="9.45" width="7.43" height="17.7" rx="1.79" ry="1.79"/><path class="cls-5" d="M10.48,23.63v1.73a1.79,1.79,0,0,0,1.79,1.78h3.85a1.79,1.79,0,0,0,1.79-1.79V23.62Z"/><rect class="cls-1" x="10.48" y="9.45" width="7.43" height="17.7" rx="1.79" ry="1.79"/><rect class="cls-6" x="6.87" y="12.48" width="3.61" height="11.63"/><path class="cls-6" d="M43.22,20.11H41.9a2.67,2.67,0,0,0,0-5.33H41a2.67,2.67,0,0,0,0-5.34H26.3a14.51,14.51,0,0,0-7.3,2,2.2,2.2,0,0,0-1.09,1.9v9.53a2.17,2.17,0,0,0,.65,1.56l5,6.58a14.27,14.27,0,0,1,2.14,8.84l-.06.68a1.09,1.09,0,0,0,1,1.19,5.07,5.07,0,0,0,5.49-4.61l.15-1.66A6.67,6.67,0,0,0,32,32.88a1.57,1.57,0,0,1,1.47-2.1H41.9a2.67,2.67,0,0,0,0-5.34h1.32a2.64,2.64,0,0,0,2.61-2.66h0A2.64,2.64,0,0,0,43.22,20.11Z"/><path class="cls-7" d="M49.52,36.09a10.43,10.43,0,1,0,3.82,14.25A10.43,10.43,0,0,0,49.52,36.09Zm2.09,13.25a8.43,8.43,0,1,1-3.09-11.52A8.44,8.44,0,0,1,51.61,49.34Z"/><path class="cls-7" d="M40.24,47.25a1,1,0,0,0-.05,2,3.13,3.13,0,0,1,2.6,1.51,1.06,1.06,0,0,0,.36.34,1,1,0,0,0,1.35-1.39A5.16,5.16,0,0,0,40.24,47.25Z"/><path class="cls-7" d="M43.89,40.2l-1,.26-.26-1a1,1,0,0,0-1.94.52L41,41l-1,.26a1,1,0,1,0,.52,1.93l1-.26.26,1a1,1,0,0,0,1.94-.52l-.27-1,1-.27a1,1,0,0,0,.7-1.22A1,1,0,0,0,43.89,40.2Z"/><path class="cls-7" d="M50,43.74,49,44l-.26-1a1,1,0,1,0-1.93.51l.26,1-1,.26a1,1,0,1,0,.51,1.93l1-.26.26,1a1,1,0,1,0,1.93-.52l-.26-1,1-.26A1,1,0,1,0,50,43.74Z"/><path class="cls-7" d="M14.19,11.88a1.19,1.19,0,1,0,1.19,1.19A1.19,1.19,0,0,0,14.19,11.88Z"/><path class="cls-7" d="M13,33a7.74,7.74,0,1,0,7.75,7.74A7.75,7.75,0,0,0,13,33Zm0,13.48a5.74,5.74,0,1,1,5.75-5.74A5.75,5.75,0,0,1,13,46.48Z"/><path class="cls-7" d="M15.79,41.25l-1.41-.85L15.23,39a1,1,0,0,0-.35-1.37,1,1,0,0,0-1.37.34l-.85,1.42-1.41-.85a1,1,0,0,0-1.38.34,1,1,0,0,0,.35,1.37l1.41.85-.85,1.42a1,1,0,0,0,.34,1.37h0a1,1,0,0,0,1.36-.35l.85-1.42,1.41.85h0a1,1,0,0,0,1-1.72Z"/><path class="cls-7" d="M33.48,31.78h8.36a3.67,3.67,0,0,0,3.67-3.67A3.59,3.59,0,0,0,44.84,26a3.64,3.64,0,0,0,0-6.48,3.67,3.67,0,0,0-1-5.17A3.66,3.66,0,0,0,41,8.44H26.3a15.49,15.49,0,0,0-7.53,2,2.79,2.79,0,0,0-2.65-2H12.26a2.8,2.8,0,0,0-2.79,2.79v.24H6.87a1,1,0,0,0,0,2h2.6v9.63H6.87a1,1,0,0,0,0,2H9.48v.25a2.79,2.79,0,0,0,2.79,2.78h3.85a2.78,2.78,0,0,0,2.62-1.85l4,5.23a13.37,13.37,0,0,1,2,8.22l-.06.68a2.11,2.11,0,0,0,1.91,2.28l.54,0a6.08,6.08,0,0,0,6-5.54l.14-1.66a7.42,7.42,0,0,0-.34-3A.56.56,0,0,1,33,32,.55.55,0,0,1,33.48,31.78ZM16.12,26.14H12.27a.78.78,0,0,1-.79-.78V11.24a.79.79,0,0,1,.79-.79h3.86a.79.79,0,0,1,.79.79v2.08h0v12A.79.79,0,0,1,16.12,26.14Zm15.26,4.73a2.57,2.57,0,0,0-.32,2.32,5.59,5.59,0,0,1,.24,2.15L31.16,37a4.08,4.08,0,0,1-1.44,2.77,4,4,0,0,1-3,.93.1.1,0,0,1-.1-.11l.06-.67a15.42,15.42,0,0,0-2.33-9.54l-5-6.58-.09-.1a1.21,1.21,0,0,1-.35-.85V13.32a1.23,1.23,0,0,1,.59-1,13.52,13.52,0,0,1,6.8-1.83H41a1.67,1.67,0,0,1,0,3.34H38.46a1,1,0,0,0-1,1h0a1,1,0,0,0,1,1H41.9a1.67,1.67,0,0,1,0,3.33H38.08a1,1,0,0,0,0,2h5.08a1.67,1.67,0,1,1,0,3.33H38.6a1,1,0,0,0,0,2h3.24a1.67,1.67,0,0,1,0,3.34H33.48A2.58,2.58,0,0,0,31.38,30.87Z"/></g></g></g></svg>