<?xml version="1.0" encoding="UTF-8"?>
<svg width="24px" height="18px" viewBox="0 0 24 18" version="1.1" xmlns="http://www.w3.org/2000/svg" xmlns:xlink="http://www.w3.org/1999/xlink">
    <!-- Generator: sketchtool 50.2 (55047) - http://www.bohemiancoding.com/sketch -->
    <title>216068DE-C47E-47F9-8976-9EFB69339950</title>
    <desc>Created with sketchtool.</desc>
    <defs></defs>
    <g id="Symbols" stroke="none" stroke-width="1" fill="none" fill-rule="evenodd">
        <g id="top-hotline" transform="translate(-1131.000000, -21.000000)" fill="#D53A4D">
            <g id="Group-27">
                <g id="Group-26" transform="translate(909.000000, 15.000000)">
                    <path d="M240.75,10.5 L239.25,10.5 C238.83525,10.5 238.5,10.836 238.5,11.25 L238.5,12.75 C238.5,13.16475 238.83525,13.5 239.25,13.5 L240.75,13.5 C241.16475,13.5 241.5,13.16475 241.5,12.75 L241.5,11.25 C241.5,10.836 241.16475,10.5 240.75,10.5 L240.75,10.5 Z M243,13.5 C243,14.328 242.328,15 241.5,15 L238.5,15 C237.672,15 237,14.328 237,13.5 L237,10.5 C237,9.672 237.672,9 238.5,9 L241.5,9 C242.328,9 243,9.672 243,10.5 L243,13.5 L243,13.5 Z M234.75,18 L225.75,18 C225.33525,18 225,17.66475 225,17.25 C225,16.836 225.33525,16.5 225.75,16.5 L234.75,16.5 C235.16475,16.5 235.5,16.836 235.5,17.25 C235.5,17.66475 235.16475,18 234.75,18 L234.75,18 Z M234.75,21 L225.75,21 C225.33525,21 225,20.66475 225,20.25 C225,19.83525 225.33525,19.5 225.75,19.5 L234.75,19.5 C235.16475,19.5 235.5,19.83525 235.5,20.25 C235.5,20.66475 235.16475,21 234.75,21 L234.75,21 Z M243,6 L225,6 C223.34325,6 222,7.34325 222,9 L222,21 C222,22.65675 223.34325,24 225,24 L243,24 C244.65675,24 246,22.65675 246,21 L246,9 C246,7.34325 244.65675,6 243,6 L243,6 Z" id="email-ico"></path>
                </g>
            </g>
        </g>
    </g>
</svg>