<?xml version="1.0" encoding="UTF-8"?>
<svg width="22px" height="17px" viewBox="0 0 22 17" version="1.1" xmlns="http://www.w3.org/2000/svg" xmlns:xlink="http://www.w3.org/1999/xlink">
    <!-- Generator: sketchtool 50.2 (55047) - http://www.bohemiancoding.com/sketch -->
    <title>DE83E4B6-EC96-46F8-846B-34803468482F</title>
    <desc>Created with sketchtool.</desc>
    <defs></defs>
    <g id="Contact-us" stroke="none" stroke-width="1" fill="none" fill-rule="evenodd">
        <g id="Contact" transform="translate(-184.000000, -994.000000)" fill="#2BC47D">
            <g id="Group-7" transform="translate(183.000000, 757.000000)">
                <g id="Group-5">
                    <path d="M12,247.25475 L9.72025,245.364812 L1.7665625,253.506875 L22.0313125,253.506875 L14.2240625,245.351062 L12,247.25475 L12,247.25475 Z M15.361875,244.486875 L22.92575,252.351187 C22.9690625,252.198562 23,252.040437 23,251.873375 L23,238.280125 L15.361875,244.486875 L15.361875,244.486875 Z M1,238.2485 L1,251.873375 C1,252.040437 1.0309375,252.198562 1.07425,252.351187 L8.6635625,244.512312 L1,238.2485 L1,238.2485 Z M22.3125,237 L1.6875,237 L12,245.263063 L22.3125,237 L22.3125,237 Z" id="email"></path>
                </g>
            </g>
        </g>
    </g>
</svg>