<svg xmlns="http://www.w3.org/2000/svg" viewBox="0 0 60 60"><defs><style>.cls-1{fill:none;}.cls-2{fill:#ffe3ba;}.cls-3{fill:#ffc670;}.cls-4{fill:#f6716f;}.cls-5{fill:#fff6e6;}.cls-6{fill:#3d3d63;}</style></defs><title>Find</title><g id="图层_2" data-name="图层 2"><g id="Graphics"><g id="Find"><rect class="cls-1" width="60" height="60"/><path class="cls-2" d="M12.67,9.72H44.54a2.8,2.8,0,0,1,2.8,2.8v35a2.8,2.8,0,0,1-2.8,2.8H15.46a2.8,2.8,0,0,1-2.8-2.8V9.72A0,0,0,0,1,12.67,9.72Z"/><path class="cls-3" d="M15.56,6.33A2.81,2.81,0,0,0,12.67,9V47.63a2.8,2.8,0,0,1,2.89-2.71h3.61V6.33Z"/><path class="cls-4" d="M50.11,45.38h0a2,2,0,0,1-2.83,0l-5.66-5.66L43,38.31l1.41-1.42,5.66,5.66A2,2,0,0,1,50.11,45.38Z"/><circle class="cls-5" cx="33" cy="28.27" r="10"/><path class="cls-6" d="M23.17,17.83h4.25a1,1,0,1,0,0-2H23.17a1,1,0,0,0,0,2Z"/><path class="cls-6" d="M38.42,41.33H35.58a1,1,0,0,0,0,2h2.84a1,1,0,0,0,0-2Z"/><path class="cls-6" d="M31.05,41.33H23.17a1,1,0,0,0,0,2h7.88a1,1,0,0,0,0-2Z"/><path class="cls-6" d="M50.82,41.84l-2.49-2.48V12.51a3.79,3.79,0,0,0-3.79-3.79H20.17V6.33a1,1,0,0,0-1-1H15.56A3.81,3.81,0,0,0,11.67,9v38.5a3.79,3.79,0,0,0,3.79,3.79H44.54a3.79,3.79,0,0,0,3.79-3.79v-.61a3,3,0,0,0,2.49-5.09ZM13.67,9a1.81,1.81,0,0,1,1.89-1.71h2.61v36.5H15.56a4,4,0,0,0-1.89.47ZM44.54,49.33H15.46a1.75,1.75,0,1,1,.1-3.5h3.61a1,1,0,0,0,1-1V10.72H44.54a1.79,1.79,0,0,1,1.79,1.79V37.36l-1.17-1.17a1,1,0,0,0-1.42,0l-.7.7L41.45,35.3A11,11,0,1,0,24.1,21.83h-.93a1,1,0,0,0-1,1,1,1,0,0,0,.79,1,10.94,10.94,0,0,0,1.62,11.54H23.17a1,1,0,0,0,0,2h3.61A11,11,0,0,0,40,36.72l1.59,1.59-.7.71a1,1,0,0,0,0,1.41l5.41,5.42v1.69A1.79,1.79,0,0,1,44.54,49.33ZM24,28.27a9,9,0,1,1,9,9A9,9,0,0,1,24,28.27Zm25.4,16.4a1,1,0,0,1-1.41,0l-5-5,1.41-1.41,4.95,4.95A1,1,0,0,1,49.4,44.67Z"/><path class="cls-6" d="M36,32.58a1,1,0,0,0-1-1H34V25.65h1.67V26a1,1,0,1,0,2,0v-1.3a1,1,0,0,0-1-1H29.33a1,1,0,0,0-1,1V26a1,1,0,1,0,2,0v-.3H32v5.93h-.95a1,1,0,1,0,0,2H35A1,1,0,0,0,36,32.58Z"/></g></g></g></svg>