<svg xmlns="http://www.w3.org/2000/svg" viewBox="0 0 60 60"><defs><style>.cls-1{fill:none;}.cls-2{fill:#d8e3f0;}.cls-3{fill:#96ddff;}.cls-4{fill:#69baf9;}.cls-5{fill:#edf4ff;}.cls-6{fill:#ffdead;}.cls-7{fill:#ffc670;}.cls-8{fill:#3d3d63;}</style></defs><title>Gaming</title><g id="图层_2" data-name="图层 2"><g id="Graphics"><g id="Gaming"><rect class="cls-1" width="60" height="60"/><path class="cls-2" d="M12.75,19a6.73,6.73,0,0,0-3.07,1.41A1.92,1.92,0,0,0,9,21.75l-.25,3.43,9.93-1.75-1.4-3.14a2,2,0,0,0-1.14-1.06A6.59,6.59,0,0,0,12.75,19Z"/><path class="cls-2" d="M35.8,14.89a6.59,6.59,0,0,1,3.37.27,2,2,0,0,1,1.13,1.07l1.41,3.14-9.93,1.75L32,17.69a1.92,1.92,0,0,1,.7-1.39A6.53,6.53,0,0,1,35.8,14.89Z"/><rect class="cls-3" x="15.29" y="22.44" width="22.14" height="12.64" transform="translate(-4.59 5.01) rotate(-10)"/><path class="cls-4" d="M26.69,30.63c-4.69.82-8.92.66-11.28-.26l1.15,6.54,21.8-3.85-1.15-6.54C35.3,28.2,31.38,29.8,26.69,30.63Z"/><path class="cls-3" d="M10.67,52h0A5.64,5.64,0,0,1,6,46l1.13-17.8,14.94,2.64-5,17.1A5.65,5.65,0,0,1,10.67,52Z"/><path class="cls-4" d="M11.64,46.59a7.67,7.67,0,0,1-5.41-3.9L6,46A5.64,5.64,0,0,0,10.67,52h0a5.65,5.65,0,0,0,6.4-4L18,44.82A7.66,7.66,0,0,1,11.64,46.59Z"/><circle class="cls-5" cx="14.62" cy="29.55" r="7.58"/><path class="cls-2" d="M15.28,33.28A7.57,7.57,0,0,1,7.07,29a7.71,7.71,0,0,0,.08,1.91,7.59,7.59,0,0,0,14.94-2.64,7.89,7.89,0,0,0-.58-1.82A7.57,7.57,0,0,1,15.28,33.28Z"/><circle class="cls-1" cx="14.62" cy="29.55" r="7.58"/><path class="cls-3" d="M49,45.18h0A5.66,5.66,0,0,0,51.39,38L44.23,21.69,31.1,29.28,41.67,43.64A5.65,5.65,0,0,0,49,45.18Z"/><circle class="cls-4" cx="34.4" cy="33.76" r="3.47"/><path class="cls-4" d="M46.3,40.47A7.65,7.65,0,0,0,50.05,35L51.39,38A5.66,5.66,0,0,1,49,45.18h0a5.65,5.65,0,0,1-7.37-1.54l-2-2.65A7.65,7.65,0,0,0,46.3,40.47Z"/><circle class="cls-5" cx="37.67" cy="25.48" r="7.58"/><path class="cls-2" d="M38.33,29.22a7.59,7.59,0,0,1-8.21-4.33,7.67,7.67,0,0,0,.08,1.91,7.58,7.58,0,1,0,14.93-2.63,7.29,7.29,0,0,0-.57-1.82A7.59,7.59,0,0,1,38.33,29.22Z"/><circle class="cls-4" cx="20.52" cy="36.21" r="3.47"/><circle class="cls-6" cx="43.98" cy="17.82" r="9.33"/><path class="cls-7" d="M48.72,9.79A9.16,9.16,0,0,1,36,22.59,9.33,9.33,0,1,0,48.72,9.79Z"/><path class="cls-8" d="M14.43,28a1,1,0,0,0,.81-1.16L15,25.61a1,1,0,1,0-2,.35l.22,1.24A1,1,0,0,0,14.43,28Z"/><path class="cls-8" d="M11.13,31.16l1.25-.22A1,1,0,1,0,12,29l-1.24.22a1,1,0,0,0,.34,2Z"/><path class="cls-8" d="M14.15,32.18l.22,1.24a1,1,0,0,0,1.15.81,1,1,0,0,0,.82-1.15l-.22-1.25A1,1,0,0,0,15,31,1,1,0,0,0,14.15,32.18Z"/><path class="cls-8" d="M17.36,30.06l1.24-.22a1,1,0,1,0-.35-2L17,28.09a1,1,0,1,0,.35,2Z"/><path class="cls-8" d="M35.08,24.91l-1.24.22A1,1,0,0,0,33,26.28a1,1,0,0,0,1.16.82l1.25-.22a1,1,0,0,0,.81-1.16A1,1,0,0,0,35.08,24.91Z"/><path class="cls-8" d="M38,27a1,1,0,0,0-.81,1.15l.22,1.25a1,1,0,0,0,1.15.81A1,1,0,0,0,39.39,29l-.22-1.24A1,1,0,0,0,38,27Z"/><path class="cls-8" d="M48.4,19.2a1,1,0,0,0-1.34.45,3,3,0,0,1-5.67-1.21,1,1,0,0,0-1-1,1,1,0,0,0-1,1,5,5,0,0,0,9.46,2A1,1,0,0,0,48.4,19.2Z"/><path class="cls-8" d="M41,15.55a1.32,1.32,0,0,0,1.58-1,1.34,1.34,0,0,0-1-1.59A1.35,1.35,0,0,0,40,14,1.34,1.34,0,0,0,41,15.55Z"/><path class="cls-8" d="M49.13,14.55a1.33,1.33,0,1,0,1,1.58A1.34,1.34,0,0,0,49.13,14.55Z"/><path class="cls-8" d="M54.7,19.48a10.33,10.33,0,0,0-19.92-5.39,7.67,7.67,0,0,0-2.61,1.4,3,3,0,0,0-1.07,2.1l-.19,2.69-.18.26-2.87.51c1.5-2.12,3.2-5.45,1.92-8.57C27.89,7.91,21,8,18.94,8.16a16,16,0,0,0-4.79,1c-1.8.71-3.08.81-4.15.31A1.83,1.83,0,0,1,9,7.92a1,1,0,1,0-2,.16,3.82,3.82,0,0,0,2.17,3.25,7.26,7.26,0,0,0,5.73-.27,13.84,13.84,0,0,1,4.19-.9c3.57-.25,7.75.43,8.85,3.08,1.35,3.29-2.18,7.37-3.09,8.34l-5.24.92-.26-.19-1.1-2.46a2.94,2.94,0,0,0-1.72-1.6,7.79,7.79,0,0,0-7.4,1.31,3,3,0,0,0-1.07,2.09l-.19,2.69a8.55,8.55,0,0,0-1.75,5.18c0,.08,0,.16,0,.25l0,.71-1,15.45a6.64,6.64,0,0,0,5.48,7,6.65,6.65,0,0,0,7.53-4.68l2.23-7.6a2.3,2.3,0,0,0,.26,0A4.47,4.47,0,0,0,25,36.4l5.31-.93a4.5,4.5,0,0,0,4.13,2.73,4.35,4.35,0,0,0,1.77-.37l4.69,6.37a6.65,6.65,0,0,0,11.44-6.61L47.8,27.14A10.34,10.34,0,0,0,54.7,19.48ZM33.1,17.73a1,1,0,0,1,.34-.69,4.93,4.93,0,0,1,.86-.57,11.3,11.3,0,0,0,0,1.16,8.28,8.28,0,0,0-1.21.66Zm-3.5,5a8.48,8.48,0,0,0,1.47,8.06A4.43,4.43,0,0,0,30,33.5l-5.31.93A4.49,4.49,0,0,0,22.8,32.3a8.49,8.49,0,0,0-1.39-8.09Zm-19.55-1a1,1,0,0,1,.34-.69,5.74,5.74,0,0,1,5.47-1,1,1,0,0,1,.56.53l.22.5A8.35,8.35,0,0,0,10,22.34Zm4.64,1.14a6.59,6.59,0,0,1,6.58,6.59,6.5,6.5,0,0,1-.39,2.21,2.85,2.85,0,0,0-.29,0,4.47,4.47,0,0,0-4.45,4.23,6.85,6.85,0,0,1-1.45.17,6.59,6.59,0,0,1,0-13.17Zm1.49,24.73a4.64,4.64,0,0,1-9.09-1.6l.73-11.43a8.55,8.55,0,0,0,6.87,3.47,8.75,8.75,0,0,0,1.78-.2,4.48,4.48,0,0,0,1.94,2.16Zm4.41-9a2.48,2.48,0,1,1,2.48-2.48A2.48,2.48,0,0,1,20.59,38.65ZM34.48,36.2A2.48,2.48,0,0,1,32,33.73a2.4,2.4,0,0,1,.51-1.49A8.55,8.55,0,0,0,36.92,34,2.46,2.46,0,0,1,34.48,36.2ZM31.16,25.45a6.59,6.59,0,0,1,3.38-5.74,10.34,10.34,0,0,0,7.9,7.73,11,11,0,0,0,1.5.2,6.58,6.58,0,0,1-12.78-2.19ZM50.55,38.39a4.65,4.65,0,0,1-8,4.62l-4.7-6.38A4.43,4.43,0,0,0,38.93,34a8.57,8.57,0,0,0,7-6Zm-7.69-12.9a8.34,8.34,0,1,1,9.88-6.42A8.34,8.34,0,0,1,42.86,25.49Z"/></g></g></g></svg>