<svg xmlns="http://www.w3.org/2000/svg" viewBox="0 0 60 60"><defs><style>.cls-1{fill:none;}.cls-2{fill:#96ddff;}.cls-3{fill:#69baf9;}.cls-4{fill:#edf4ff;}.cls-5{fill:#d8e3f0;}.cls-6{fill:#f6716f;}.cls-7{fill:#79deb4;}.cls-8{fill:#ffe3ba;}.cls-9{fill:#ffb038;}.cls-10{fill:#3d3d63;}</style></defs><title>Gifts</title><g id="图层_2" data-name="图层 2"><g id="Icons"><g id="Gifts"><rect class="cls-1" width="60" height="60"/><path class="cls-2" d="M51.16,20.44H50V12a2,2,0,0,0-2-2H12a2,2,0,0,0-2,2v8.44H8.62v5H10V48a2,2,0,0,0,2,2H29.71a6.3,6.3,0,0,1,3-7l3.23-1.86a1.35,1.35,0,0,0,.63-.83L38.26,34,36.9,33.6l1-3.6L50,33.25V25.44h1.16Z"/><path class="cls-3" d="M32.7,43l.83-.48C24.27,43.85,15.77,41.29,10,38.71V48a2,2,0,0,0,2,2H29.71A6.3,6.3,0,0,1,32.7,43Z"/><rect class="cls-4" x="20.02" y="8.67" width="5.33" height="42.67"/><path class="cls-5" d="M20,50.75h5.33v-8A42.46,42.46,0,0,1,20,42Z"/><path class="cls-6" d="M26.89,22.93a4.2,4.2,0,1,0-4.2-4.2,4.2,4.2,0,0,0-4.2-4.2h0a4.2,4.2,0,0,0,0,8.4,4.2,4.2,0,0,0,0,8.4h0a4.2,4.2,0,0,0,4.2-4.2,4.2,4.2,0,1,0,4.2-4.2Z"/><circle class="cls-7" cx="22.69" cy="22.93" r="3"/><path class="cls-8" d="M52.39,33.89,37.87,30l-1,3.6,1.36.36-1.7,6.37a1.35,1.35,0,0,1-.63.83L32.7,43a6.22,6.22,0,0,0-2.53,8.17,6.1,6.1,0,0,0,8.48,2.49l5.82-3.35a6.79,6.79,0,0,0,3.16-4.12l2.43-9.08,1.36.36Z"/><path class="cls-9" d="M47.16,44.21a4.92,4.92,0,0,0-4.92,4.92,4.8,4.8,0,0,0,.52,2.18l1.71-1a6.79,6.79,0,0,0,3.16-4.12l.51-1.9A4.53,4.53,0,0,0,47.16,44.21Z"/><path class="cls-9" d="M31,44.47a6.07,6.07,0,0,0,5.82,9.91A9,9,0,0,0,37,52.73,8.52,8.52,0,0,0,31,44.47Z"/><path class="cls-10" d="M52.65,32.93,51,32.48V26.6h.33a1,1,0,0,0,1-1V20.26a1,1,0,0,0-1-1H51V12a3,3,0,0,0-3-3H26.38V8.67a1,1,0,0,0-1-1H20a1,1,0,0,0-1,1V9H12a3,3,0,0,0-3,3v7.26H8.67a1,1,0,0,0-1,1V25.6a1,1,0,0,0,1,1H9V48a3,3,0,0,0,3,3h7v.33a1,1,0,0,0,1,1h5.34a1,1,0,0,0,1-1V51H29a6.17,6.17,0,0,0,.29.65,7.09,7.09,0,0,0,9.87,2.9L45,51.19a7.68,7.68,0,0,0,3.62-4.72l2.18-8.12.4.11a1,1,0,0,0,1.22-.71l1-3.6A1,1,0,0,0,52.65,32.93ZM50.33,21.26V24.6H31.4a5.25,5.25,0,0,0-1.47-1.67,5.25,5.25,0,0,0,1.47-1.67ZM26.38,11H48a1,1,0,0,1,1,1v7.26H32a4.78,4.78,0,0,0,.06-.53,5.2,5.2,0,0,0-5.2-5.2,4.2,4.2,0,0,0-.51.05Zm.51,4.53a3.2,3.2,0,0,1,0,6.4h-.35a4,4,0,0,0-2.85-2.86v-.34A3.2,3.2,0,0,1,26.89,15.53Zm-5.2,3.2v.34a4,4,0,0,0-2.86,2.86h-.34a3.2,3.2,0,1,1,3.2-3.2Zm1,2.2a2,2,0,1,1-2,2A2,2,0,0,1,22.69,20.93ZM21,9.67h3.34V14.2a5,5,0,0,0-1.69,1.49A5.25,5.25,0,0,0,21,14.23ZM11,12a1,1,0,0,1,1-1h7v2.58a4.89,4.89,0,0,0-.55-.05,5.21,5.21,0,0,0-5.21,5.2,4.78,4.78,0,0,0,.06.53H11ZM9.67,24.6V21.26H14a5.16,5.16,0,0,0,1.48,1.67A5.16,5.16,0,0,0,14,24.6ZM19,49H12a1,1,0,0,1-1-1V26.6h2.34a4.52,4.52,0,0,0-.06.53,5.21,5.21,0,0,0,5.21,5.2,4.89,4.89,0,0,0,.55,0Zm-.55-18.67a3.2,3.2,0,1,1,0-6.4h.34a4,4,0,0,0,2.86,2.86v.34A3.2,3.2,0,0,1,18.49,30.33Zm5.89,20H21V31.63a5.25,5.25,0,0,0,1.65-1.46,5.16,5.16,0,0,0,1.69,1.49Zm-.69-23.2v-.34a4,4,0,0,0,2.85-2.86h.35a3.2,3.2,0,1,1-3.2,3.2ZM28.53,49H26.38V32.28a4.2,4.2,0,0,0,.51,0,5.2,5.2,0,0,0,5.2-5.2A4.52,4.52,0,0,0,32,26.6H49V32L38.12,29a1,1,0,0,0-1.22.71l-1,3.6a1,1,0,0,0,.7,1.22l.4.11-1.45,5.4a.36.36,0,0,1-.16.22L32.2,42.15A7.29,7.29,0,0,0,28.53,49Zm7.4,4.47a4.86,4.86,0,0,1-1.77-.18,5,5,0,0,1-2.81-7.61,7.57,7.57,0,0,1,4.62,7C36,53,36,53.22,35.93,53.47ZM46.66,46A5.76,5.76,0,0,1,44,49.46l-.65.37a4.06,4.06,0,0,1-.08-.7,3.92,3.92,0,0,1,3.61-3.89Zm.73-2.73h-.23a5.93,5.93,0,0,0-5.92,5.92,5.77,5.77,0,0,0,.28,1.75l-3.37,1.94a1.63,1.63,0,0,0-.19.09c0-.06,0-.12,0-.18a9.66,9.66,0,0,0-5.13-8.59c.12-.08.23-.18.36-.25L36.42,42a2.3,2.3,0,0,0,1.1-1.43L39,35.19l9.87,2.64Zm3.33-6.95L38.13,32.89l.44-1.67L51.16,34.6Z"/></g></g></g></svg>