<?xml version="1.0" encoding="UTF-8"?>
<svg width="26px" height="24px" viewBox="0 0 26 24" version="1.1" xmlns="http://www.w3.org/2000/svg" xmlns:xlink="http://www.w3.org/1999/xlink">
    <!-- Generator: sketchtool 50.2 (55047) - http://www.bohemiancoding.com/sketch -->
    <title>D15F2081-9AA9-4B5E-BEE4-A3B3C601CB33</title>
    <desc>Created with sketchtool.</desc>
    <defs></defs>
    <g id="Mobile" stroke="none" stroke-width="1" fill="none" fill-rule="evenodd">
        <g id="mobile-menu" transform="translate(-339.000000, -18.000000)" fill="#5B6C94">
            <g id="Group-8">
                <path d="M363.7,28.6666667 L340.3,28.6666667 C339.5824,28.6666667 339,29.264 339,30 C339,30.7373333 339.5824,31.3333333 340.3,31.3333333 L363.7,31.3333333 C364.4176,31.3333333 365,30.7373333 365,30 C365,29.264 364.4176,28.6666667 363.7,28.6666667 Z M363.7,39.3333333 L340.3,39.3333333 C339.5824,39.3333333 339,39.9306667 339,40.6666667 C339,41.404 339.5824,42 340.3,42 L363.7,42 C364.4176,42 365,41.404 365,40.6666667 C365,39.9306667 364.4176,39.3333333 363.7,39.3333333 Z M340.3,20.6666667 L363.7,20.6666667 C364.4176,20.6666667 365,20.0706667 365,19.3333333 C365,18.5973333 364.4176,18 363.7,18 L340.3,18 C339.5824,18 339,18.5973333 339,19.3333333 C339,20.0706667 339.5824,20.6666667 340.3,20.6666667 Z" id="hamburger-copy"></path>
            </g>
        </g>
    </g>
</svg>