<svg xmlns="http://www.w3.org/2000/svg" viewBox="0 0 60 60"><defs><style>.cls-1{fill:none;}.cls-2{fill:#d8e3f0;}.cls-3{fill:#c3cfde;}.cls-4{fill:#edf4ff;}.cls-5{fill:#fff6e6;}.cls-6{fill:#ffebcc;}.cls-7{fill:#69baf9;}.cls-8{fill:#f6716f;}.cls-9{fill:#79deb4;}.cls-10{fill:#3d3d63;}</style></defs><title>Histogram</title><g id="图层_2" data-name="图层 2"><g id="Graphics"><g id="Histogram"><rect class="cls-1" width="60" height="60"/><rect class="cls-2" x="27.33" y="41.43" width="5.33" height="9.47"/><polygon class="cls-2" points="7.88 50.9 13.22 50.9 18.68 41.43 13.35 41.43 7.88 50.9"/><polygon class="cls-2" points="46.61 41.43 41.28 41.43 46.74 50.9 52.08 50.9 46.61 41.43"/><rect class="cls-3" x="27.33" y="41.43" width="5.33" height="3"/><polygon class="cls-3" points="11.62 44.43 16.95 44.43 18.68 41.43 13.35 41.43 11.62 44.43"/><polygon class="cls-3" points="46.61 41.43 41.28 41.43 43.01 44.43 48.34 44.43 46.61 41.43"/><rect class="cls-4" x="6.67" y="37.43" width="46.67" height="4"/><rect class="cls-5" x="9.33" y="13.43" width="41.33" height="24"/><path class="cls-6" d="M50.67,13.43H48.38c-3.2,8.05-10.86,17.9-29.2,17.9a60.83,60.83,0,0,1-9.85-.69v6.79H50.67Z"/><polygon class="cls-4" points="35.33 15.1 24.67 15.1 25.33 11.77 34.67 11.77 35.33 15.1"/><path class="cls-4" d="M32.67,11.77H27.33V11.1A2.68,2.68,0,0,1,30,8.43h0a2.68,2.68,0,0,1,2.67,2.67Z"/><rect class="cls-7" x="20.67" y="28.1" width="5.33" height="5.33"/><rect class="cls-7" x="31.33" y="22.77" width="5.33" height="10.67"/><rect class="cls-8" x="26" y="25.43" width="5.33" height="8"/><rect class="cls-8" x="36.67" y="20.1" width="5.33" height="13.33"/><circle class="cls-9" cx="48.67" cy="15.43" r="5.33"/><path class="cls-10" d="M45.33,32.43H43V20.1a1,1,0,0,0-1-1H36.67a1,1,0,0,0-1,1v1.67H31.33a1,1,0,0,0-1,1v1.66H26a1,1,0,0,0-1,1V27.1H20.67a1,1,0,0,0-1,1v4.33h-5a1,1,0,0,0,0,2H45.33a1,1,0,0,0,0-2Zm-13-8.66h3.34v8.66H32.33ZM27,26.43h3.33v6H27ZM21.67,29.1H25v3.33H21.67Zm16,3.33V21.1H41V32.43Z"/><path class="cls-10" d="M14.67,21.77h6a1,1,0,0,0,0-2h-6a1,1,0,1,0,0,2Z"/><path class="cls-10" d="M14.67,25.1h2.66a1,1,0,0,0,0-2H14.67a1,1,0,0,0,0,2Z"/><path class="cls-10" d="M47.58,17.17a1,1,0,0,0,.71.29,1,1,0,0,0,.7-.29l2.06-2.05a1,1,0,1,0-1.42-1.42l-1.34,1.35L48,14.73a1,1,0,0,0-1.42,0,1,1,0,0,0,0,1.41Z"/><path class="cls-10" d="M54.08,49.9H52.65l-4.31-7.47h5a1,1,0,0,0,1-1v-4a1,1,0,0,0-1-1H51.67V21a6.33,6.33,0,1,0-8.58-8.58H35.82l-.17-.86a1,1,0,0,0-1-.8h-1a3.64,3.64,0,0,0-7.26,0h-1a1,1,0,0,0-1,.8l-.17.86H9.33a1,1,0,0,0-1,1v23H6.67a1,1,0,0,0-1,1v4a1,1,0,0,0,1,1h4.95L7.31,49.9H5.92a1,1,0,0,0,0,2h9.34a1,1,0,1,0,0-2H15l4.31-7.47h7.07V49.9h-1a1,1,0,1,0,0,2h9.34a1,1,0,0,0,0-2h-1V42.43h7L45,49.9h-.27a1,1,0,0,0,0,2h9.34a1,1,0,0,0,0-2ZM48.67,11.1a4.34,4.34,0,1,1-4.34,4.33A4.33,4.33,0,0,1,48.67,11.1ZM30,9.43a1.67,1.67,0,0,1,1.63,1.34H28.37A1.67,1.67,0,0,1,30,9.43Zm3.85,3.34.26,1.33H25.89l.26-1.33ZM10.33,14.43H23.78l-.09.47a1,1,0,0,0,1,1.2H35.33a1,1,0,0,0,1-1.2l-.09-.47h6.2a6.64,6.64,0,0,0-.09,1,6.34,6.34,0,0,0,6.34,6.34,6.64,6.64,0,0,0,1-.09V36.43H10.33Zm-2.66,24H52.33v2H7.67Zm5,11.47h-3l4.31-7.47h3Zm19,0H28.33V42.43h3.34ZM43,42.43h3l4.31,7.47h-3Z"/></g></g></g></svg>