<svg xmlns="http://www.w3.org/2000/svg" width="18" height="18" viewBox="0 0 18 18">
    <g fill="#2BC47D" fill-rule="nonzero">
        <path d="M8.75 1c2.032 0 3.947.8 5.398 2.28a8.059 8.059 0 0 1 2.342 5.5v8.24H8.692C4.454 16.96 1.01 13.36 1.01 9c0-4.42 3.463-8 7.74-8zm0-1C3.932 0 .042 4.02.042 9c0 4.94 3.851 8.96 8.63 9h8.785V8.76C17.322 3.88 13.471 0 8.75 0z"/>
        <path d="M9.824 11.626h.819v.896H7.614v-.896h.82v-3.66h-.82v-.923h2.21v4.583zm.062-6.93V6.26H8.37V4.696h1.515z"/>
    </g>
</svg>
