<svg height="54" viewBox="0 0 50 54" width="50" xmlns="http://www.w3.org/2000/svg"><g fill="none" fill-rule="evenodd" transform="translate(-5 -3)"><path d="m0 0h60v60h-60z"/><g fill-rule="nonzero"><path d="m53.47 26.83v.53c-.029558 1.5508633-1.102078 2.8863767-2.61 3.25-1.7295934.4092401-3.1570746 1.6248645-3.836589 3.2671894-.6795144 1.6423248-.5282346 3.511164.406589 5.0228106.8076485 1.3223083.6316008 3.0213729-.43 4.15l-.74.74c-1.1166864 1.0729814-2.8150173 1.2616849-4.14.46-1.5141053-.9297836-3.3818504-1.0784233-5.0239551-.3998185-1.6421048.6786047-2.860033 2.1024082-3.2760449 3.8298185-.3636233 1.507922-1.6991367 2.580442-3.25 2.61h-1.1c-1.5508633-.029558-2.8863767-1.102078-3.25-2.61-.4160119-1.7274103-1.6339401-3.1512138-3.2760449-3.8298185-1.6421047-.6786048-3.5098498-.5299651-5.0239551.3998185-1.3249827.8016849-3.0233136.6129814-4.14-.46l-.78-.74c-1.0713272-1.1214662-1.2597248-2.8211401-.46-4.15.9348236-1.5116466 1.0861034-3.3804858.406589-5.0228106-.6795144-1.6423249-2.1069956-2.8579493-3.836589-3.2671894-1.50792202-.3636233-2.58044196-1.6991367-2.61-3.25 0-.18 0-.35 0-.53s0-.35 0-.53c.02955804-1.5508633 1.10207798-2.8863767 2.61-3.25 1.7295934-.4092401 3.1570746-1.6248645 3.836589-3.2671894.6795144-1.6423248.5282346-3.511164-.406589-5.0228106-.8032898-1.3280768-.6146342-3.0300786.46-4.15l.74-.74c1.1166864-1.07298141 2.8150173-1.26168485 4.14-.46 1.5119512.9564059 3.3931765 1.1222764 5.0491551.44519163 1.6559785-.67708475 2.8820888-2.11346055 3.2908449-3.85519163.3636233-1.50792202 1.6991367-2.58044196 3.25-2.61h1.06c1.5508633.02955804 2.8863767 1.10207798 3.25 2.61.4081422 1.732719 1.6254489 3.16301398 3.2706411 3.84289462 1.6451923.67988068 3.5170798.52620458 5.0293589-.41289462 1.3249827-.80168485 3.0233136-.61298141 4.14.46l.74.74c1.0746342 1.1199214 1.2632898 2.8219232.46 4.15-.9348236 1.5116466-1.0861034 3.3804858-.406589 5.0228106.6795144 1.6423249 2.1069956 2.8579493 3.836589 3.2671894 1.507922.3636233 2.580442 1.6991367 2.61 3.25.01.16.01.33.01.51z" fill="#ffefb0"/><path d="m45.21 26.83c0-8.72-7.34-14.63-16.18-14.08-7.6.47-13.77 5.57-14.21 13.17-.2784809 4.6130408 1.5624295 9.1011805 5 12.19 3.0396557 2.8003942 4.7510016 6.7572003 4.71 10.89h10.94c.0149544-4.1840072 1.7767541-8.1716198 4.86-11 3.116811-2.8773011 4.8865622-6.9281455 4.88-11.17z" fill="#ffc670"/><path d="m16.5 29.61c-.0224219-6.7009489 4.4024324-12.6039378 10.8406603-14.4620122 6.4382278-1.8580744 13.3279022.7795382 16.8793397 6.4620122-2.28-5.74-8.22-9.29-15.22-8.86-7.6.47-13.77 5.57-14.21 13.17-.2174262 3.6878586.9246245 7.327478 3.21 10.23-.9897346-2.0379533-1.5026873-4.274427-1.5-6.54z" fill="#ffe88a"/><path d="m30 40.52c-4.975198-.0089629-9.7080133-2.1496517-13-5.88.7717102 1.2894462 1.7285839 2.458584 2.84 3.47 3.0322662 2.8039467 4.7361396 6.7602753 4.69 10.89h10.94c.0149544-4.1840072 1.7767541-8.1716198 4.86-11 1.0627157-.9916525 1.9786002-2.1297738 2.72-3.38-3.2974883 3.7540533-8.0533684 5.9042214-13.05 5.9z" fill="#ff9a42"/><path d="m35 47.58c.3297795.7112963.5004133 1.485974.5 2.27.0000001 1.9542428-1.042576 3.7600377-2.735 4.7371591-1.6924239.9771214-3.7775761.9771214-5.47 0-1.692424-.9771214-2.7350001-2.7829163-2.735-4.7371591-.0004133-.784026.1702205-1.5587037.5-2.27z" fill="#edf4ff"/><path d="m30 53.17c-2.6021094.0037544-4.8452992-1.8293-5.36-4.38-.0717227.348812-.1085708.7038934-.11 1.06-.0000001 1.9542428 1.042576 3.7600377 2.735 4.7371591 1.6924239.9771214 3.7775761.9771214 5.47 0 1.692424-.9771214 2.7350001-2.7829163 2.735-4.7371591-.0014292-.3561066-.0382773-.711188-.11-1.06-.5147008 2.5507-2.7578906 4.3837544-5.36 4.38z" fill="#d8e3f0"/><rect fill="#d8e3f0" height="4.15" rx="1.92" transform="matrix(-1 0 0 -1 60.01 93.77)" width="19.35" x="20.33" y="44.81"/><path d="m34.4400223 28.49h2.63v2.63c0 1.2481635-1.0118365 2.26-2.26 2.26h-.36c-1.2481636 0-2.26-1.0118365-2.26-2.26v-.36c-.0026581-.599391.2329029-1.1752879.6548611-1.6009967.4219581-.4257089.9957478-.666357 1.5951389-.6690033z" fill="#ffdead" transform="matrix(-1 0 0 -1 69.260022 61.87)"/><path d="m25.17 28.49h.36c1.2481635 0 2.26 1.0118365 2.26 2.26v2.63h-2.62c-1.2481635 0-2.26-1.0118365-2.26-2.26v-.36c-.0026598-.60112.2342719-1.1785322.6583927-1.6045297.4241209-.4259975 1.0004814-.6654762 1.6016073-.6654703z" fill="#ffdead"/><path d="m46.21 27.83c-.0060939-4.4778303-1.8540422-8.755957-5.11-11.83-4.2568195-3.9299216-10.2868711-5.2903327-15.8186928-3.5687796-5.5318216 1.721553-9.724998 6.2635254-11.0000001 11.9150001-1.2750021 5.6514746.5618733 11.553858 4.8186929 15.4837795 1.5004738 1.3829308 2.660716 3.0942025 3.39 5h-.29c-1.6126715 0-2.92 1.3073285-2.92 2.92v.25c-.021873.7951881.2816257 1.5648796.8403336 2.1311375.5587078.566258 1.3242564.8800604 2.1196664.8688625h1.34c.4048601 3.23764 3.1571447 5.6671924 6.42 5.6671924s6.0151399-2.4295524 6.42-5.6671924h1.34c.7884944.000296 1.5435938-.3183033 2.0935589-.883336s.8480437-1.3284655.8264411-2.116664v-.3c0-1.6126715-1.3073285-2.92-2.92-2.92h-.25c.7718315-1.9396888 1.967682-3.6822138 3.5-5.1 3.297208-3.0611238 5.1796539-7.3509284 5.2-11.85zm-16.21 26.81c-2.1477897-.0010888-3.9911936-1.5295605-4.39-3.64h8.78c-.3988064 2.1104395-2.2422103 3.6389112-4.39 3.64zm7.76-7.82c.508102 0 .92.411898.92.92v.26c0 .508102-.411898.92-.92.92h-15.52c-.508102 0-.92-.411898-.92-.92v-.3c0-.508102.411898-.92.92-.92zm-11-13.44h-1.59c-.6936128-.0054404-1.2545596-.5663872-1.26-1.26v-.37c.0054404-.6936128.5663872-1.2545596 1.26-1.26h.37c.6936128.0054404 1.2545596.5663872 1.26 1.26zm2 11.44v-9.44h2.4v9.44zm6.57 0h-2.13v-9.44h1.63c1.8004483 0 3.26-1.4595517 3.26-3.26v-.37c0-1.8004483-1.4595517-3.26-3.26-3.26h-.37c-1.7981691.0054906-3.2545094 1.4618309-3.26 3.26v1.63h-2.4v-1.63c-.0054906-1.7981691-1.4618309-3.2545094-3.26-3.26h-.37c-1.8004483 0-3.26 1.4595517-3.26 3.26v.37c0 1.8004483 1.4595517 3.26 3.26 3.26h1.63v9.44h-2.14c-.8206006-2.4712297-2.2595148-4.6915637-4.18-6.45-3.2037724-2.8825858-4.919211-7.0681087-4.66-11.37.4876324-7.1309485 6.1421112-12.8195161 13.27-13.35 3.9178001-.2484615 7.7640225 1.1337511 10.6274729 3.8191827 2.8634503 2.6854316 4.4893551 6.4351479 4.4925271 10.3608173-.010267 3.9551862-1.6616336 7.7287038-4.56 10.42-1.944087 1.8056849-3.4139678 4.0620207-4.28 6.57zm-2.13-11.44v-1.63c.0054404-.6936128.5663872-1.2545596 1.26-1.26h.37c.6936128.0054404 1.2545596.5663872 1.26 1.26v.37c-.0054404.6936128-.5663872 1.2545596-1.26 1.26z" fill="#3d3d63"/><path d="m21.51 19.6c-1.2017768 1.1661685-2.1484106 2.5690935-2.78 4.12-.2071349.5080961.033831 1.0881994.54 1.3.1207927.0494071.2495402.0765118.38.08.4098038.0003967.7783727-.249279.93-.63.5235375-1.3054553 1.3137096-2.4873075 2.32-3.47.397645-.3838379.4088379-1.017355.025-1.415s-1.017355-.4088379-1.415-.025z" fill="#3d3d63"/><path d="m26.06 16.81c-.4755059.1588442-.9398725.349268-1.39.57-.4202253.2035143-.6436852.6707422-.5383458 1.1256169s.5114372.7763104.9783458.7743831c.1523698.0006236.3028673-.0335803.44-.1.3751824-.1864544.7627671-.3468343 1.16-.48.521642-.1797945.7990902-.7481157.62-1.27-.1797945-.521642-.7481157-.7990902-1.27-.62z" fill="#3d3d63"/><path d="m30 8.05c.5522847 0 1-.44771525 1-1v-2.69c0-.55228475-.4477153-1-1-1s-1 .44771525-1 1v2.69c0 .26521649.1053568.5195704.2928932.70710678s.4418903.29289322.7071068.29289322z" fill="#3d3d63"/><path d="m14.6 13.85c.3991459.3371653.990578.3102154 1.3574061-.0618532.3668281-.3720685.3853866-.9638233.0425939-1.3581468l-1.91-1.9c-.3967603-.3397768-.9881942-.3169323-1.3575632.0524368-.3693691.369369-.3922136.9608029-.0524368 1.3575632z" fill="#3d3d63"/><path d="m9.22 26.83h-2.69c-.55228475 0-1 .4477153-1 1s.44771525 1 1 1h2.69c.55228475 0 1-.4477153 1-1s-.44771525-1-1-1z" fill="#3d3d63"/><path d="m14.6 41.81-1.9 1.91c-.3397768.3967603-.3169323.9881942.0524368 1.3575632.369369.3693691.9608029.3922136 1.3575632.0524368l1.89-1.9c.2536586-.2536586.3527236-.623374.2598781-.9698781-.0928455-.346504-.363496-.6171545-.71-.71-.3465041-.0928455-.7162195.0062195-.9698781.2598781z" fill="#3d3d63"/><path d="m45.4 41.81c-.2464487-.2834965-.6309854-.4049658-.995568-.3144847-.3645825.0904811-.647705.3776482-.7330059.7434774-.0853008.3658292.0416104.7486044.3285739.9910073l1.91 1.9c.3967603.3397768.9881942.3169323 1.3575632-.0524368.3693691-.369369.3922136-.9608029.0524368-1.3575632z" fill="#3d3d63"/><path d="m53.47 26.83h-2.69c-.5522847 0-1 .4477153-1 1s.4477153 1 1 1h2.69c.5522847 0 1-.4477153 1-1s-.4477153-1-1-1z" fill="#3d3d63"/><path d="m45.89 10.53-1.89 1.9c-.3921222.3921222-.3921222 1.0278778 0 1.42s1.0278778.3921222 1.42 0l1.9-1.91c.3397768-.3967603.3169323-.9881942-.0524368-1.3575632-.369369-.3693691-.9608029-.3922136-1.3575632-.0524368z" fill="#3d3d63"/></g></g></svg>