<svg xmlns="http://www.w3.org/2000/svg" viewBox="0 0 60 60"><defs><style>.cls-1{fill:none;}.cls-2{fill:#ffefb0;}.cls-3{fill:#ffc670;}.cls-4{fill:#ffe88a;}.cls-5{fill:#ff9a42;}.cls-6{fill:#edf4ff;}.cls-7{fill:#d8e3f0;}.cls-8{fill:#ffdead;}.cls-9{fill:#3d3d63;}</style></defs><title>Inspiration</title><g id="图层_2" data-name="图层 2"><g id="Graphics"><g id="Inspiration"><rect class="cls-1" width="60" height="60"/><path class="cls-2" d="M53.47,26.83c0,.18,0,.35,0,.53a3.41,3.41,0,0,1-2.61,3.25,5.53,5.53,0,0,0-3.43,8.29A3.44,3.44,0,0,1,47,43.05l-.74.74a3.42,3.42,0,0,1-4.14.46,5.55,5.55,0,0,0-8.3,3.43,3.41,3.41,0,0,1-3.25,2.61H29.47a3.41,3.41,0,0,1-3.25-2.61,5.55,5.55,0,0,0-8.3-3.43,3.42,3.42,0,0,1-4.14-.46L13,43.05a3.44,3.44,0,0,1-.46-4.15,5.53,5.53,0,0,0-3.43-8.29,3.41,3.41,0,0,1-2.61-3.25c0-.18,0-.35,0-.53s0-.35,0-.53a3.41,3.41,0,0,1,2.61-3.25,5.53,5.53,0,0,0,3.43-8.29A3.43,3.43,0,0,1,13,10.61l.74-.74a3.42,3.42,0,0,1,4.14-.46A5.53,5.53,0,0,0,26.22,6a3.41,3.41,0,0,1,3.25-2.61h1.06A3.41,3.41,0,0,1,33.78,6a5.53,5.53,0,0,0,8.3,3.43,3.42,3.42,0,0,1,4.14.46l.74.74a3.43,3.43,0,0,1,.46,4.15,5.53,5.53,0,0,0,3.43,8.29,3.41,3.41,0,0,1,2.61,3.25C53.47,26.48,53.47,26.65,53.47,26.83Z"/><path class="cls-3" d="M45.21,26.83c0-8.72-7.34-14.63-16.18-14.08-7.6.47-13.77,5.57-14.21,13.17a15.16,15.16,0,0,0,5,12.19A14.61,14.61,0,0,1,24.53,49H35.47a15,15,0,0,1,4.86-11A15.17,15.17,0,0,0,45.21,26.83Z"/><path class="cls-4" d="M16.5,29.61a15,15,0,0,1,27.72-8C41.94,15.87,36,12.32,29,12.75c-7.6.47-13.77,5.57-14.21,13.17A15.1,15.1,0,0,0,18,36.15,14.93,14.93,0,0,1,16.5,29.61Z"/><path class="cls-5" d="M30,40.52a17.38,17.38,0,0,1-13-5.88,15.35,15.35,0,0,0,2.84,3.47A14.61,14.61,0,0,1,24.53,49H35.47a15,15,0,0,1,4.86-11,15.29,15.29,0,0,0,2.72-3.38A17.35,17.35,0,0,1,30,40.52Z"/><path class="cls-6" d="M35,47.58a5.39,5.39,0,0,1,.5,2.27,5.47,5.47,0,1,1-10.94,0,5.39,5.39,0,0,1,.5-2.27Z"/><path class="cls-7" d="M30,53.17a5.46,5.46,0,0,1-5.36-4.38,5.37,5.37,0,0,0-.11,1.06,5.47,5.47,0,1,0,10.94,0,5.37,5.37,0,0,0-.11-1.06A5.46,5.46,0,0,1,30,53.17Z"/><rect class="cls-7" x="20.32" y="44.82" width="19.35" height="4.15" rx="1.92" ry="1.92" transform="translate(60 93.78) rotate(180)"/><path class="cls-8" d="M34.47,28.49h2.63a0,0,0,0,1,0,0v2.63a2.26,2.26,0,0,1-2.26,2.26h-.36a2.26,2.26,0,0,1-2.26-2.26v-.36A2.26,2.26,0,0,1,34.47,28.49Z" transform="translate(69.29 61.87) rotate(180)"/><path class="cls-8" d="M25.17,28.49h.36a2.26,2.26,0,0,1,2.26,2.26v2.63a0,0,0,0,1,0,0H25.17a2.26,2.26,0,0,1-2.26-2.26v-.36A2.26,2.26,0,0,1,25.17,28.49Z"/><path class="cls-9" d="M46.21,27.83A16.3,16.3,0,0,0,41.1,16a16.2,16.2,0,1,0-22,23.83,13.23,13.23,0,0,1,3.39,5h-.29a2.92,2.92,0,0,0-2.92,2.92V48A2.92,2.92,0,0,0,22.24,51h1.34a6.47,6.47,0,0,0,12.84,0h1.34A2.92,2.92,0,0,0,40.68,48v-.3a2.92,2.92,0,0,0-2.92-2.92h-.25a14,14,0,0,1,3.5-5.1A16.27,16.27,0,0,0,46.21,27.83ZM30,54.64A4.47,4.47,0,0,1,25.61,51h8.78A4.47,4.47,0,0,1,30,54.64Zm7.76-7.82a.92.92,0,0,1,.92.92V48a.92.92,0,0,1-.92.92H22.24a.92.92,0,0,1-.92-.92v-.3a.92.92,0,0,1,.92-.92Zm-11-13.44H25.17a1.27,1.27,0,0,1-1.26-1.26v-.37a1.27,1.27,0,0,1,1.26-1.26h.37a1.27,1.27,0,0,1,1.26,1.26Zm2,11.44V35.38h2.4v9.44Zm6.57,0H33.2V35.38h1.63a3.26,3.26,0,0,0,3.26-3.26v-.37a3.26,3.26,0,0,0-3.26-3.26h-.37a3.27,3.27,0,0,0-3.26,3.26v1.63H28.8V31.75a3.27,3.27,0,0,0-3.26-3.26h-.37a3.26,3.26,0,0,0-3.26,3.26v.37a3.26,3.26,0,0,0,3.26,3.26H26.8v9.44H24.66a15.27,15.27,0,0,0-4.18-6.45A14.15,14.15,0,0,1,15.82,27,14.37,14.37,0,0,1,29.09,13.65,14.22,14.22,0,0,1,44.21,27.83a14.27,14.27,0,0,1-4.56,10.42A16.17,16.17,0,0,0,35.37,44.82ZM33.2,33.38V31.75a1.27,1.27,0,0,1,1.26-1.26h.37a1.27,1.27,0,0,1,1.26,1.26v.37a1.27,1.27,0,0,1-1.26,1.26Z"/><path class="cls-9" d="M21.51,19.6a12.1,12.1,0,0,0-2.78,4.12,1,1,0,0,0,.54,1.3,1.08,1.08,0,0,0,.38.08,1,1,0,0,0,.93-.63A10.11,10.11,0,0,1,22.9,21a1,1,0,0,0-1.39-1.44Z"/><path class="cls-9" d="M26.06,16.81a11.26,11.26,0,0,0-1.39.57,1,1,0,0,0,.44,1.9,1,1,0,0,0,.44-.1,9.12,9.12,0,0,1,1.16-.48,1,1,0,0,0,.62-1.27A1,1,0,0,0,26.06,16.81Z"/><path class="cls-9" d="M30,8.05a1,1,0,0,0,1-1V4.36a1,1,0,1,0-2,0V7.05A1,1,0,0,0,30,8.05Z"/><path class="cls-9" d="M14.6,13.85A1,1,0,0,0,16,12.43l-1.91-1.9a1,1,0,0,0-1.41,1.41Z"/><path class="cls-9" d="M9.22,26.83H6.53a1,1,0,0,0,0,2H9.22a1,1,0,0,0,0-2Z"/><path class="cls-9" d="M14.6,41.81l-1.9,1.91a1,1,0,0,0,1.41,1.41L16,43.23a1,1,0,1,0-1.42-1.42Z"/><path class="cls-9" d="M45.4,41.81A1,1,0,1,0,44,43.23l1.91,1.9a1,1,0,0,0,1.41-1.41Z"/><path class="cls-9" d="M53.47,26.83H50.78a1,1,0,0,0,0,2h2.69a1,1,0,0,0,0-2Z"/><path class="cls-9" d="M45.89,10.53,44,12.43a1,1,0,1,0,1.42,1.42l1.9-1.91a1,1,0,0,0-1.41-1.41Z"/></g></g></g></svg>