<svg xmlns="http://www.w3.org/2000/svg" viewBox="0 0 60 60"><defs><style>.cls-1{fill:none;}.cls-2{fill:#ffe3ba;}.cls-3{fill:#ffc670;}.cls-4{fill:#ffb038;}.cls-5{fill:#fff6e6;}.cls-6{fill:#f6716f;}.cls-7{fill:#f0504d;}.cls-8{fill:#fcfeff;}.cls-9{fill:#3d3d63;}</style></defs><title>Lady</title><g id="图层_2" data-name="图层 2"><g id="Graphics"><g id="Lady"><rect class="cls-1" width="60" height="60"/><path class="cls-2" d="M39.17,44.63h-.12a5.72,5.72,0,0,1-5.72-5.72V36.36H26.92v2.55a5.72,5.72,0,0,1-5.72,5.72h-.37a8,8,0,0,0-8,8v1.7H47.17v-1.7A8,8,0,0,0,39.17,44.63Z"/><path class="cls-3" d="M25.06,43.12a10.56,10.56,0,0,0,10-.08,5.68,5.68,0,0,1-1.77-4.13V36.36H26.92v1.31h0v1.24A5.68,5.68,0,0,1,25.06,43.12Z"/><path class="cls-3" d="M47.17,51h0a13.6,13.6,0,0,1-5.48,1.15H18.31A13.6,13.6,0,0,1,12.83,51h0v3.29H47.17V51Z"/><path class="cls-3" d="M30,6.33h0A14.93,14.93,0,0,1,44.93,21.27V36.85a2.24,2.24,0,0,1-2.24,2.24H17.31a2.24,2.24,0,0,1-2.24-2.24V21.27A14.93,14.93,0,0,1,30,6.33Z"/><path class="cls-4" d="M30,32.35a31,31,0,0,1-14.93-3.72v8.22a2.24,2.24,0,0,0,2.24,2.24H42.69a2.24,2.24,0,0,0,2.24-2.24V28.63A31,31,0,0,1,30,32.35Z"/><path class="cls-1" d="M30,6.33h0A14.93,14.93,0,0,1,44.93,21.27V36.85a2.24,2.24,0,0,1-2.24,2.24H17.31a2.24,2.24,0,0,1-2.24-2.24V21.27A14.93,14.93,0,0,1,30,6.33Z"/><path class="cls-5" d="M40.67,17.85v13A10.67,10.67,0,0,1,30,41.52h0A10.67,10.67,0,0,1,19.33,30.85V22.08a7.68,7.68,0,0,0,10.8-7v0a7.69,7.69,0,0,0,6.67,3.86,7.6,7.6,0,0,0,3.87-1.05Z"/><path class="cls-2" d="M37.39,18.85v12a10.67,10.67,0,0,1-9,10.53,11.11,11.11,0,0,0,1.64.14A10.67,10.67,0,0,0,40.67,30.85v-13h0A7.64,7.64,0,0,1,37.39,18.85Z"/><path class="cls-6" d="M39.05,44H38c0,4.31-3.49,6.8-7.8,6.8h-.46c-4.31,0-7.8-2.49-7.8-6.8H21a8,8,0,0,0-3.43.77v9.57h25V44.76A8,8,0,0,0,39.05,44Z"/><path class="cls-7" d="M42.48,51h0A13.6,13.6,0,0,1,37,52.19H23A13.6,13.6,0,0,1,17.52,51h0v3.29h25V51Z"/><path class="cls-6" d="M34.8,6.3h0a2.16,2.16,0,0,0,.35,3.34L39.2,12.3l1.6-1.6L38.14,6.64A2.17,2.17,0,0,0,34.8,6.3Z"/><path class="cls-6" d="M45.17,16.72h0a2.16,2.16,0,0,0-.34-3.34l-4-2.66-1.6,1.6,2.66,4.05A2.15,2.15,0,0,0,45.17,16.72Z"/><rect class="cls-8" x="37.68" y="9.61" width="4.59" height="3.82" transform="translate(3.56 31.64) rotate(-45)"/><path class="cls-9" d="M51.41,53.33H48.17v-.7a9,9,0,0,0-4.69-7.88,1,1,0,0,0-.58-.9A9,9,0,0,0,39.05,43H38a1,1,0,0,0-.71.3A4.8,4.8,0,0,1,35,41.36a12.48,12.48,0,0,0,2.07-1.27h5.59a3.25,3.25,0,0,0,3.24-3.24V21.27a16.26,16.26,0,0,0-.4-3.56c.12-.09.24-.18.35-.28a3.17,3.17,0,0,0-.5-4.89l-1.49-1a1,1,0,0,0-.24-1L41,7.84a1,1,0,0,0-1-.24L39,6.1a3.16,3.16,0,0,0-4.88-.51,2.23,2.23,0,0,0-.19.24A15.89,15.89,0,0,0,14.07,21.27V36.85a3.25,3.25,0,0,0,3.24,3.24H22.9a11.69,11.69,0,0,0,2.26,1.36,4.69,4.69,0,0,1-2.43,1.91A1,1,0,0,0,22,43H21a9,9,0,0,0-3.85.86,1,1,0,0,0-.58.91v.13a8.52,8.52,0,0,0-4.69,7.58v.86H8.59a1,1,0,0,0,0,2H51.41a1,1,0,0,0,0-2Zm-34.89,0h-2.8v-.86a6.6,6.6,0,0,1,2.8-5.38ZM44.28,14.22a1.11,1.11,0,0,1,.52.85,1.2,1.2,0,0,1-1.27,1.28,1.19,1.19,0,0,1-.86-.52l-1.14-1.74,1-1Zm-4-4.25,1.29,1.29L39.7,13.09,38.41,11.8Zm-3.79-3.3a1.21,1.21,0,0,1,.86.52l1.14,1.74-1,1L35.7,8.8A1.11,1.11,0,0,1,35.18,8,1.19,1.19,0,0,1,36.45,6.67ZM17.31,38.09a1.24,1.24,0,0,1-1.24-1.24V21.27A14,14,0,0,1,30,7.33a14.2,14.2,0,0,1,3.19.38,3.23,3.23,0,0,0,0,.44,3.13,3.13,0,0,0,1.41,2.32l1.47,1a1,1,0,0,0,.22,1.06L39,15.21a1,1,0,0,0,1,.23l1,1.48a3.12,3.12,0,0,0,2.32,1.41,1.5,1.5,0,0,0,.3,0,13.71,13.71,0,0,1,.31,2.94V36.85a1.24,1.24,0,0,1-1.24,1.24H39.14a11.64,11.64,0,0,0,2.53-7.24V18.34a1,1,0,0,0-.51-.86,1,1,0,0,0-1,0A6.68,6.68,0,0,1,31,15a1,1,0,0,0-1.87.52,6.69,6.69,0,0,1-9.39,6.12,1,1,0,0,0-1.41.91v8.27a11.64,11.64,0,0,0,2.53,7.24Zm3-7.24V24a8.83,8.83,0,0,0,2.11.26A8.68,8.68,0,0,0,30.78,18a8.72,8.72,0,0,0,6,2.42,8.49,8.49,0,0,0,2.87-.49v11a9.67,9.67,0,0,1-19.34,0Zm6.75,11.29a11.68,11.68,0,0,0,2.92.38,11.24,11.24,0,0,0,3.14-.45,6.78,6.78,0,0,0,3.76,3.2c-.65,3.11-3.67,4.52-6.67,4.52h-.46c-3,0-6-1.39-6.65-4.45A6.74,6.74,0,0,0,27.08,42.14Zm14.4,11.19h-23v-7.9A7,7,0,0,1,21,45H21c.49,4,3.94,6.8,8.74,6.8h.46C35,51.79,38.48,49,39,45h.08a7,7,0,0,1,2.43.44Zm4.69,0H43.48v-6.2a7,7,0,0,1,2.69,5.5Z"/><path class="cls-9" d="M34.44,34.37a1,1,0,0,0-1.84-.81,2.83,2.83,0,0,1-5.2,0,1,1,0,0,0-1.84.81,4.85,4.85,0,0,0,8.88,0Z"/><path class="cls-9" d="M26.56,26.65V25.49a1,1,0,0,0-2,0v1.16a1,1,0,0,0,2,0Z"/><path class="cls-9" d="M34.44,27.65a1,1,0,0,0,1-1V25.49a1,1,0,1,0-2,0v1.16A1,1,0,0,0,34.44,27.65Z"/></g></g></g></svg>