<?xml version="1.0" encoding="UTF-8"?>
<svg width="46px" height="46px" viewBox="0 0 46 46" version="1.1" xmlns="http://www.w3.org/2000/svg" xmlns:xlink="http://www.w3.org/1999/xlink">
    <!-- Generator: sketchtool 50.2 (55047) - http://www.bohemiancoding.com/sketch -->
    <title>81C97A53-DBF9-40BA-97D1-641C09758743</title>
    <desc>Created with sketchtool.</desc>
    <defs></defs>
    <g id="Symbols" stroke="none" stroke-width="1" fill="none" fill-rule="evenodd">
        <g id="visa-steps-/-step1">
            <g id="Lady" transform="translate(1.000000, 0.000000)">
                <rect id="Rectangle-path" x="0" y="0" width="45" height="45"></rect>
                <path d="M29.3775,33.4725 L29.2875,33.4725 C26.9181984,33.4725 24.9975,31.5518016 24.9975,29.1825 L24.9975,27.27 L20.19,27.27 L20.19,29.1825 C20.19,31.5518016 18.2693016,33.4725 15.9,33.4725 L15.6225,33.4725 C12.3087915,33.4725 9.6225,36.1587915 9.6225,39.4725 L9.6225,40.7475 L35.3775,40.7475 L35.3775,39.4725 C35.3775,36.1587915 32.6912085,33.4725 29.3775,33.4725 Z" id="Shape" fill="#FFE3BA" fill-rule="nonzero"></path>
                <path d="M18.795,32.34 C21.1466183,33.5800446 23.9635222,33.5575094 26.295,32.28 C25.4455574,31.4738553 24.9654375,30.3535755 24.9675,29.1825 L24.9675,27.27 L20.19,27.27 L20.19,28.2525 L20.19,29.1825 C20.1913602,30.3846885 19.684699,31.5314862 18.795,32.34 Z" id="Shape" fill="#FFC670" fill-rule="nonzero"></path>
                <path d="M35.3775,38.25 C34.0821555,38.8194676 32.6824948,39.1131921 31.2675,39.1125 L13.7325,39.1125 C12.3175052,39.1131921 10.9178445,38.8194676 9.6225,38.25 L9.6225,40.7175 L35.3775,40.7175 L35.3775,38.25 Z" id="Shape" fill="#FFC670" fill-rule="nonzero"></path>
                <path d="M22.5,4.7475 C25.4710616,4.74749933 28.3203267,5.92826203 30.420481,8.02982302 C32.5206353,10.131384 33.69949,12.9814391 33.6975,15.9525 L33.6975,27.6375 C33.6975,28.5653384 32.9453384,29.3175 32.0175,29.3175 L12.9825,29.3175 C12.0546616,29.3175 11.3025,28.5653384 11.3025,27.6375 L11.3025,15.9525 C11.30051,12.9814391 12.4793647,10.131384 14.579519,8.02982302 C16.6796733,5.92826203 19.5289384,4.74749933 22.5,4.7475 Z" id="Shape" fill="#FFC670" fill-rule="nonzero"></path>
                <path d="M22.5,24.2625 C18.5923456,24.2882867 14.7412257,23.328731 11.3025,21.4725 L11.3025,27.6375 C11.3025,28.5653384 12.0546616,29.3175 12.9825,29.3175 L32.0175,29.3175 C32.9453384,29.3175 33.6975,28.5653384 33.6975,27.6375 L33.6975,21.4725 C30.2587743,23.328731 26.4076544,24.2882867 22.5,24.2625 Z" id="Shape" fill="#FFB038" fill-rule="nonzero"></path>
                <path d="M22.5,4.7475 C25.4710616,4.74749933 28.3203267,5.92826203 30.420481,8.02982302 C32.5206353,10.131384 33.69949,12.9814391 33.6975,15.9525 L33.6975,27.6375 C33.6975,28.5653384 32.9453384,29.3175 32.0175,29.3175 L12.9825,29.3175 C12.0546616,29.3175 11.3025,28.5653384 11.3025,27.6375 L11.3025,15.9525 C11.30051,12.9814391 12.4793647,10.131384 14.579519,8.02982302 C16.6796733,5.92826203 19.5289384,4.74749933 22.5,4.7475 Z" id="Shape"></path>
                <path d="M30.5025,13.3875 L30.5025,23.1375 C30.5025,27.5571587 26.9196587,31.14 22.5,31.14 C18.0803413,31.14 14.4975,27.5571587 14.4975,23.1375 L14.4975,16.56 C16.27712,17.3512085 18.3360376,17.1895376 19.9703531,16.130259 C21.6046686,15.0709805 22.5930158,13.2575723 22.5975,11.31 C23.6262729,13.1011858 25.534396,14.205437 27.6,14.205 C28.6205528,14.2070721 29.6229449,13.9351052 30.5025,13.4175 L30.5025,13.3875 Z" id="Shape" fill="#FFF6E6" fill-rule="nonzero"></path>
                <path d="M28.0425,14.1375 L28.0425,23.1375 C28.0393658,27.0712134 25.177735,30.4193215 21.2925,31.035 C21.6993398,31.1003647 22.1104678,31.135461 22.5225,31.14 C26.9333694,31.1275983 30.5025174,27.5483868 30.5025,23.1375 L30.5025,13.3875 C29.749921,13.8206675 28.9087357,14.0771264 28.0425,14.1375 Z" id="Shape" fill="#FFE3BA" fill-rule="nonzero"></path>
                <path d="M29.2875,33 L28.5,33 C28.5,36.2325 25.8825,38.1 22.65,38.1 L22.305,38.1 C19.0725,38.1 16.455,36.2325 16.455,33 L15.75,33 C14.8602887,32.9993871 13.9815766,33.196649 13.1775,33.5775 L13.1775,40.755 L31.9275,40.755 L31.9275,33.57 C31.1022548,33.1818341 30.199383,32.9868959 29.2875,33 Z" id="Shape" fill="#F6716F" fill-rule="nonzero"></path>
                <path d="M31.86,38.25 C30.566876,38.8297841 29.1671248,39.1337447 27.75,39.1425 L17.25,39.1425 C15.8328752,39.1337447 14.433124,38.8297841 13.14,38.25 L13.14,40.7175 L31.89,40.7175 L31.89,38.25 L31.86,38.25 Z" id="Shape" fill="#F0504D" fill-rule="nonzero"></path>
                <path d="M26.1,4.725 C25.7540088,5.0705176 25.5825899,5.55382535 25.6335503,6.0401332 C25.6845107,6.52644106 25.9523977,6.96371376 26.3625,7.23 L29.4,9.225 L30.6,8.025 L28.605,4.98 C28.3356832,4.57330169 27.8981489,4.30884395 27.4128709,4.25944439 C26.9275929,4.21004483 26.4457441,4.38091268 26.1,4.725 Z" id="Shape" fill="#F6716F" fill-rule="nonzero"></path>
                <path d="M33.8775,12.54 C34.2242307,12.195529 34.3969069,11.7129291 34.3474091,11.2266859 C34.2979113,10.7404427 34.031531,10.3025372 33.6225,10.035 L30.6225,8.04 L29.4225,9.24 L31.4175,12.2775 C31.6832715,12.6743084 32.11127,12.9328898 32.5861631,12.9835643 C33.0610562,13.0342389 33.5339815,12.8717927 33.8775,12.54 Z" id="Shape" fill="#F6716F" fill-rule="nonzero"></path>
                <rect id="Rectangle-path" fill="#FCFEFF" fill-rule="nonzero" transform="translate(29.979348, 8.639457) rotate(-45.000000) translate(-29.979348, -8.639457) " x="28.2580978" y="7.20695741" width="3.4425" height="2.865"></rect>
                <path d="M38.5575,39.9975 L36.1275,39.9975 L36.1275,39.4725 C36.121779,37.0080928 34.7734522,34.7426738 32.61,33.5625 C32.6078125,33.2722873 32.4383863,33.0093846 32.175,32.8875 C31.2714484,32.4641949 30.2852877,32.2464711 29.2875,32.25 L28.5,32.25 C28.2995656,32.2508321 28.1078036,32.3318583 27.9675,32.475 C27.2541922,32.186052 26.6522572,31.6761159 26.25,31.02 C26.7972347,30.753726 27.3171959,30.434716 27.8025,30.0675 L31.995,30.0675 C33.3353426,30.0633822 34.4208822,28.9778426 34.425,27.6375 L34.425,15.9525 C34.4236468,15.054167 34.3230364,14.1587338 34.125,13.2825 C34.215,13.215 34.305,13.1475 34.3875,13.0725 C34.8929549,12.5669641 35.144104,11.8608216 35.0713872,11.1496511 C34.9986704,10.4384806 34.6098072,9.79777907 34.0125,9.405 L32.895,8.655 C32.9779957,8.39093851 32.9088016,8.10263014 32.715,7.905 L30.75,5.88 C30.5523699,5.68619835 30.2640615,5.61700434 30,5.7 L29.25,4.575 C28.8600281,3.97691075 28.2212021,3.58650522 27.5110746,3.51229108 C26.8009471,3.43807693 26.0952053,3.6879641 25.59,4.1925 C25.5384332,4.24916524 25.4908211,4.30930689 25.4475,4.3725 C21.8718989,3.44988077 18.0705896,4.23690225 15.1552621,6.50340058 C12.2399346,8.7698989 10.539962,12.2598056 10.5525,15.9525 L10.5525,27.6375 C10.5566178,28.9778426 11.6421574,30.0633822 12.9825,30.0675 L17.175,30.0675 C17.6997102,30.4703567 18.2683288,30.8125342 18.87,31.0875 C18.4418112,31.7572103 17.7994092,32.2621435 17.0475,32.52 C16.9115401,32.3564394 16.7125285,32.2582967 16.5,32.25 L15.75,32.25 C14.7516444,32.2488171 13.7654571,32.4691083 12.8625,32.895 C12.5966593,33.0180293 12.4267752,33.2845718 12.4275,33.5775 L12.4275,33.675 C10.2781805,34.7566133 8.91865453,36.9538855 8.91,39.36 L8.91,40.005 L6.4425,40.005 C6.02828644,40.005 5.6925,40.3407864 5.6925,40.755 C5.6925,41.1692136 6.02828644,41.505 6.4425,41.505 L38.5575,41.505 C38.9717136,41.505 39.3075,41.1692136 39.3075,40.755 C39.3075,40.3407864 38.9717136,40.005 38.5575,40.005 L38.5575,39.9975 Z M12.39,39.9975 L10.29,39.9975 L10.29,39.3525 C10.2939687,37.7464681 11.076868,36.2421829 12.39,35.3175 L12.39,39.9975 Z M33.21,10.665 C33.4334352,10.803932 33.5780433,11.0403106 33.6,11.3025 C33.6177386,11.5608131 33.5233672,11.8142525 33.3410014,11.9980542 C33.1586357,12.1818558 32.9059443,12.2782121 32.6475,12.2625 C32.3854601,12.234118 32.1493654,12.091363 32.0025,11.8725 L31.1475,10.5675 L31.8975,9.8175 L33.21,10.665 Z M30.21,7.4775 L31.1775,8.445 L29.775,9.8175 L28.8075,8.85 L30.21,7.4775 Z M27.3675,5.0025 C27.6288727,5.032844 27.8642072,5.17513925 28.0125,5.3925 L28.8675,6.6975 L28.1175,7.4475 L26.775,6.6 C26.5612873,6.46892651 26.4180239,6.24852123 26.385,6 C26.3528391,5.73488521 26.4410881,5.46929961 26.62552,5.27615442 C26.8099519,5.08300924 27.0711839,4.98260291 27.3375,5.0025 L27.3675,5.0025 Z M12.9825,28.5675 C12.4688752,28.5675 12.0525,28.1511248 12.0525,27.6375 L12.0525,15.9525 C12.0771184,10.1915141 16.7390333,5.52625259 22.5,5.4975 C23.3057132,5.50169203 24.1083484,5.59730375 24.8925,5.7825 C24.884999,5.89237213 24.884999,6.00262787 24.8925,6.1125 C24.9620275,6.82314535 25.3512172,7.46351414 25.95,7.8525 L27.0525,8.6025 C26.9468986,8.87693222 27.0114097,9.18775852 27.2175,9.3975 L29.25,11.4075 C29.4491958,11.5986573 29.7373058,11.6649226 30,11.58 L30.75,12.69 C31.1381982,13.2895938 31.7789975,13.6790451 32.49,13.7475 C32.5648116,13.7550188 32.6401884,13.7550188 32.715,13.7475 C32.8717494,14.4719714 32.9497025,15.2112683 32.9475,15.9525 L32.9475,27.6375 C32.9475,28.1511248 32.5311248,28.5675 32.0175,28.5675 L29.355,28.5675 C30.5827433,27.0238228 31.2515651,25.1098823 31.2525,23.1375 L31.2525,13.755 C31.2493491,13.4871157 31.1035473,13.2412538 30.87,13.11 C30.6379492,12.9760254 30.3520508,12.9760254 30.12,13.11 C28.9637465,13.7805584 27.58748,13.9612828 26.2973031,13.6119773 C25.0071262,13.2626718 23.9100208,12.4123008 23.25,11.25 C23.0803576,10.9501212 22.7282239,10.8043955 22.3962816,10.8967003 C22.0643394,10.9890051 21.8379831,11.2955943 21.8475,11.64 C21.8472577,13.3358504 20.9904027,14.9168226 19.5696695,15.8427957 C18.1489364,16.7687687 16.3566032,16.914424 14.805,16.23 C14.5731788,16.1257913 14.3043543,16.1460817 14.0908014,16.2839066 C13.8772486,16.4217315 13.7480298,16.6583343 13.7475,16.9125 L13.7475,23.115 C13.7484349,25.0873823 14.4172567,27.0013228 15.645,28.545 L12.9825,28.5675 Z M15.2325,23.1375 L15.2325,18 C15.7502215,18.1284964 16.2815717,18.1939708 16.815,18.195 C19.718056,18.2030817 22.2756307,16.28796 23.085,13.5 C24.2967669,14.6596532 25.9077572,15.3094193 27.585,15.315 C28.3183087,15.3173601 29.0465144,15.1930323 29.7375,14.9475 L29.7375,23.1975 C29.7375,27.2029451 26.4904451,30.45 22.485,30.45 C18.4795549,30.45 15.2325,27.2029451 15.2325,23.1975 L15.2325,23.1375 Z M20.295,31.605 C21.0100538,31.7920075 21.7459,31.8877683 22.485,31.89 C23.2820074,31.8893914 24.0749013,31.7757602 24.84,31.5525 C25.4449468,32.6784969 26.4517666,33.5353648 27.66,33.9525 C27.1725,36.285 24.9075,37.3425 22.6575,37.3425 L22.3125,37.3425 C20.0625,37.3425 17.8125,36.3 17.325,34.005 C18.5962931,33.6275202 19.6683336,32.765578 20.31,31.605 L20.295,31.605 Z M31.095,39.9975 L13.845,39.9975 L13.845,34.0725 C14.4545804,33.8480731 15.1005168,33.7387217 15.75,33.75 C16.1175,36.75 18.705,38.85 22.305,38.85 L22.65,38.85 C26.25,38.8425 28.86,36.75 29.25,33.75 L29.31,33.75 C29.9322561,33.7511247 30.5493572,33.8628632 31.1325,34.08 L31.095,39.9975 Z M34.6125,39.9975 L32.61,39.9975 L32.61,35.3475 C33.8800522,36.339904 34.6238619,37.8607044 34.6275,39.4725 L34.6125,39.9975 Z" id="Shape" fill="#3D3D63" fill-rule="nonzero"></path>
                <path d="M25.83,25.7775 C25.9977565,25.3964235 25.8248264,24.9515065 25.44375,24.7837501 C25.0626735,24.6159936 24.6177565,24.7889236 24.45,25.17 C24.1150359,25.9493056 23.3482441,26.4543435 22.5,26.4543435 C21.6517559,26.4543435 20.8849641,25.9493056 20.55,25.17 C20.3822435,24.7889235 19.9373265,24.6159935 19.55625,24.78375 C19.1751735,24.9515065 19.0022435,25.3964235 19.17,25.7775 C19.7506198,27.0984154 21.0571082,27.9512697 22.5,27.9512697 C23.9428918,27.9512697 25.2493802,27.0984154 25.83,25.7775 Z" id="Shape" fill="#3D3D63" fill-rule="nonzero"></path>
                <path d="M19.92,19.9875 L19.92,19.1175 C19.92,18.7032864 19.5842136,18.3675 19.17,18.3675 C18.7557864,18.3675 18.42,18.7032864 18.42,19.1175 L18.42,19.9875 C18.42,20.4017136 18.7557864,20.7375 19.17,20.7375 C19.5842136,20.7375 19.92,20.4017136 19.92,19.9875 Z" id="Shape" fill="#3D3D63" fill-rule="nonzero"></path>
                <path d="M25.83,20.7375 C26.2442136,20.7375 26.58,20.4017136 26.58,19.9875 L26.58,19.1175 C26.58,18.7032864 26.2442136,18.3675 25.83,18.3675 C25.4157864,18.3675 25.08,18.7032864 25.08,19.1175 L25.08,19.9875 C25.08,20.4017136 25.4157864,20.7375 25.83,20.7375 Z" id="Shape" fill="#3D3D63" fill-rule="nonzero"></path>
            </g>
        </g>
    </g>
</svg>