<svg xmlns="http://www.w3.org/2000/svg" viewBox="0 0 60 60"><defs><style>.cls-1{fill:none;}.cls-2{fill:#fff6e6;}.cls-3{fill:#96ddff;}.cls-4{fill:#c7ecff;}.cls-5{fill:#69baf9;}.cls-6{fill:#f6716f;}.cls-7{fill:#f6a2a2;}.cls-8{fill:#f0504d;}.cls-9{fill:#edf4ff;}.cls-10{fill:#3d3d63;}</style></defs><title>Line Chart</title><g id="图层_2" data-name="图层 2"><g id="Graphics"><g id="Line_Chart" data-name="Line Chart"><path class="cls-1" d="M0,0V60H60V0Z"/><polygon class="cls-2" points="7.33 51.85 16.6 51.85 16.6 26.83 7.34 32.28 7.33 51.85"/><path class="cls-2" d="M55.72,13.82a1,1,0,0,0-1.09.22l-6.78,6.77a1,1,0,0,0-.29.71V51.85h8.77V14.75A1,1,0,0,0,55.72,13.82Z"/><polygon class="cls-3" points="48.56 22.28 48.56 51.85 32.58 51.85 32.58 25.9 40.57 29.51 47.8 22.28 48.56 22.28"/><polygon class="cls-4" points="47.8 22.28 40.57 29.51 32.58 25.9 32.58 27.9 40.57 31.51 47.8 24.28 48.56 24.28 48.56 22.28 47.8 22.28"/><polygon class="cls-5" points="40.57 45.26 32.58 41.65 32.58 51.85 48.56 51.85 48.56 38.03 47.8 38.03 40.57 45.26"/><polygon class="cls-6" points="32.58 25.9 32.58 51.85 16.6 51.85 16.6 26.83 24.08 22.05 32.58 25.9"/><polygon class="cls-7" points="24.08 22.05 16.6 26.83 16.6 28.83 24.08 24.05 32.58 27.9 32.58 25.9 24.08 22.05"/><polygon class="cls-8" points="16.6 43.44 16.6 51.85 32.58 51.85 32.58 42.51 24.08 38.66 16.6 43.44"/><circle class="cls-9" cx="24.08" cy="22.05" r="3.51"/><circle class="cls-9" cx="40.57" cy="29.56" r="3.51"/><path class="cls-10" d="M55.33,21.29a1,1,0,0,0,1-1V14.75a1,1,0,0,0-1-1H49.79a1,1,0,1,0,0,2h3.13l-5.07,5.08h0L43,25.74a4.46,4.46,0,0,0-6,1.09L33.06,25a1,1,0,0,0-.18-.08L28.5,23a4.52,4.52,0,1,0-8.68.52l-11.49,7V19.7l.45.44a1,1,0,1,0,1.41-1.41L8,16.58A1,1,0,0,0,7,16.36a1,1,0,0,0-.62.93V51.85a1,1,0,0,0,1,1h48A1,1,0,0,0,56,51.14L53.89,49a1,1,0,0,0-1.42,1.42l.45.44H49.56V22l4.77-4.78v3.12A1,1,0,0,0,55.33,21.29ZM40.57,27a2.52,2.52,0,1,1-2.52,2.52A2.52,2.52,0,0,1,40.57,27Zm-16.49-7.5a2.51,2.51,0,1,1-2.51,2.51A2.51,2.51,0,0,1,24.08,19.54Zm-1,6.9v3.69a1,1,0,0,0,2,0V26.44a4.48,4.48,0,0,0,2.57-1.66l3.92,1.78V50.85H25.08V47.51a1,1,0,0,0-2,0v3.34H17.6V27.18l3.25-2A4.49,4.49,0,0,0,23.08,26.44ZM8.33,32.85l7.27-4.44V50.85H8.33Zm39.23,18h-6V47.51a1,1,0,0,0-2,0v3.34h-6V27.47l2.58,1.17a4.63,4.63,0,0,0-.1.92A4.52,4.52,0,0,0,39.57,34v3.69a1,1,0,0,0,2,0V34a4.49,4.49,0,0,0,2.8-6.8L47.56,24Z"/><path class="cls-10" d="M24.08,42.72a1,1,0,0,0,1-1v-5.8a1,1,0,0,0-2,0v5.8A1,1,0,0,0,24.08,42.72Z"/></g></g></g></svg>