<?xml version="1.0" encoding="UTF-8"?>
<svg width="17px" height="22px" viewBox="0 0 17 22" version="1.1" xmlns="http://www.w3.org/2000/svg" xmlns:xlink="http://www.w3.org/1999/xlink">
    <!-- Generator: sketchtool 50.2 (55047) - http://www.bohemiancoding.com/sketch -->
    <title>650D1441-8AAD-4948-B2C7-9CB9F745BA5A</title>
    <desc>Created with sketchtool.</desc>
    <defs></defs>
    <g id="Contact-us" stroke="none" stroke-width="1" fill="none" fill-rule="evenodd">
        <g id="Contact" transform="translate(-187.000000, -852.000000)" fill="#2BC47D">
            <g id="Group-7" transform="translate(183.000000, 757.000000)">
                <g id="Group-5">
                    <path d="M12.2499984,101.187499 C11.1108112,101.187499 10.1874988,102.110811 10.1874988,103.249998 C10.1874988,104.389186 11.1108112,105.312498 12.2499984,105.312498 C13.3891857,105.312498 14.3124981,104.389186 14.3124981,103.249998 C14.3124981,102.110811 13.3891857,101.187499 12.2499984,101.187499 L12.2499984,101.187499 Z M12.2499984,106.687498 C10.3518113,106.687498 8.81249909,105.148873 8.81249909,103.249998 C8.81249909,101.351124 10.3518113,99.8124991 12.2499984,99.8124991 C14.1481856,99.8124991 15.6874978,101.351124 15.6874978,103.249998 C15.6874978,105.148873 14.1481856,106.687498 12.2499984,106.687498 L12.2499984,106.687498 Z M12.2499984,95 C7.6939368,95 4,98.6939368 4,103.249998 C4,106.699873 10.8784362,117.007558 12.2499984,116.999996 C13.6002482,117.007558 20.4999969,106.653123 20.4999969,103.249998 C20.4999969,98.6939368 16.8060601,95 12.2499984,95 L12.2499984,95 Z" id="location"></path>
                </g>
            </g>
        </g>
    </g>
</svg>