<svg xmlns="http://www.w3.org/2000/svg" viewBox="0 0 60 60"><defs><style>.cls-1{fill:none;}.cls-2{fill:#69baf9;}.cls-3{fill:#fcfeff;}.cls-4{fill:#ffa742;}.cls-5{fill:#ffc670;}.cls-6{fill:#ffb038;}.cls-7{fill:#d8e3f0;}.cls-8{fill:#96ddff;}.cls-9{fill:#f6716f;}.cls-10{fill:#3d3d63;}</style></defs><title>Mailbox</title><g id="图层_2" data-name="图层 2"><g id="Graphics"><g id="Mailbox"><rect class="cls-1" width="60" height="60"/><path class="cls-2" d="M18.36,12.57h2.86a8,8,0,0,1,8,8v14a0,0,0,0,1,0,0H10.36a0,0,0,0,1,0,0v-14a8,8,0,0,1,8-8Z"/><path class="cls-3" d="M50,38.57H10a2,2,0,0,1-2-2H8a2,2,0,0,1,2-2H50a2,2,0,0,1,2,2h0A2,2,0,0,1,50,38.57Z"/><path class="cls-4" d="M29.21,20.57a8.49,8.49,0,0,0-.05-.88l-9.52-1.51a1.33,1.33,0,0,0-1.52,1.11L17.69,22H29.21Z"/><path class="cls-5" d="M16.4,22a1.34,1.34,0,0,0-1.33,1.33V34.57H29.21V22Z"/><path class="cls-6" d="M20.91,31.75a29,29,0,0,1-5.84-.58v3.4H29.21V30.51A26.74,26.74,0,0,1,20.91,31.75Z"/><path class="cls-1" d="M16.4,22H33.93a0,0,0,0,1,0,0V34.57a0,0,0,0,1,0,0H15.07a0,0,0,0,1,0,0V23.33A1.33,1.33,0,0,1,16.4,22Z"/><path class="cls-7" d="M14,38.57v.48a2.67,2.67,0,0,0,2.67,2.67H27.25V54h5.5V41.72H43.33A2.67,2.67,0,0,0,46,39.05v-.48Z"/><path class="cls-8" d="M49.64,19.24V34.57H29.21v-14a8,8,0,0,0-8-8H43A6.67,6.67,0,0,1,49.64,19.24Z"/><rect class="cls-9" x="36.29" y="8.64" width="7.86" height="6.29"/><path class="cls-2" d="M36.29,25.33a2.85,2.85,0,1,0-2.85-2.84A2.84,2.84,0,0,0,36.29,25.33Z"/><rect class="cls-2" x="29.21" y="31.23" width="20.43" height="3.34"/><path class="cls-10" d="M50.64,33.65V19.24a7.66,7.66,0,0,0-5.5-7.34V8.64a1,1,0,0,0-1-1H36.29a1,1,0,0,0-1,1v2.93H18.36a9,9,0,0,0-9,9V33.65A3,3,0,0,0,10,39.57h3.05a3.67,3.67,0,0,0,3.62,3.15h9.58V54a1,1,0,1,0,2,0V42.72h3.5V54a1,1,0,1,0,2,0V42.72h9.58A3.67,3.67,0,0,0,47,39.57h3a3,3,0,0,0,.64-5.92Zm-13.35-24h5.85v4.29H37.29Zm-1,11a1.85,1.85,0,1,1-1.85,1.85A1.85,1.85,0,0,1,36.29,20.64Zm-1-7.07v5.22a3.84,3.84,0,1,0,2,0V15.93h6.85a1,1,0,0,0,1-1V14a5.68,5.68,0,0,1,3.5,5.23v11H30.21V20.57a9,9,0,0,0-3.35-7ZM48.64,32.23v1.34H30.21V32.23Zm-29.3-4.92,4.71,2.34a1.06,1.06,0,0,0,.9,0L28.21,28v5.54H16.07V23.33A.33.33,0,0,1,16.4,23H28.21v2.79L24.5,27.64l-4.27-2.12a1,1,0,0,0-1.34.45A1,1,0,0,0,19.34,27.31ZM18.86,21l.24-1.55a.35.35,0,0,1,.39-.28l8.72,1.38V21Zm-7.5-.43a7,7,0,0,1,7-7h2.85a7,7,0,0,1,6.68,4.91L19.8,17.19a2.34,2.34,0,0,0-2.67,1.94L16.83,21H16.4a2.34,2.34,0,0,0-2.33,2.33V33.57H11.36Zm32,20.15H16.67a1.67,1.67,0,0,1-1.58-1.15H44.91A1.67,1.67,0,0,1,43.33,40.72ZM50,37.57H10a1,1,0,0,1,0-2H50a1,1,0,0,1,0,2Z"/></g></g></g></svg>