<svg xmlns="http://www.w3.org/2000/svg" viewBox="0 0 60 60"><defs><style>.cls-1{fill:none;}.cls-2{fill:#fcfeff;}.cls-3{fill:#d8e3f0;}.cls-4{fill:#69baf9;}.cls-5{fill:#ffdead;}.cls-6{fill:#ffc670;}.cls-7{fill:#f6716f;}.cls-8{fill:#f0504d;}.cls-9{fill:#f6a2a2;}.cls-10{fill:#3d3d63;}</style></defs><title>Man</title><g id="图层_2" data-name="图层 2"><g id="Graphics"><g id="Man"><rect class="cls-1" width="60" height="60"/><path class="cls-2" d="M40.13,44.34h-.81a5.9,5.9,0,0,1-5.89-5.9V35.82H26.82v2.62a5.89,5.89,0,0,1-5.89,5.9H19.87a8.24,8.24,0,0,0-8.25,8.24v1.75H48.38V52.58A8.24,8.24,0,0,0,40.13,44.34Z"/><path class="cls-3" d="M35.41,54.33,34,49.56H34a1.55,1.55,0,0,0,1.53-1.28l.83-4.73a6,6,0,0,1-2.64-3.2H26.5a5.93,5.93,0,0,1-2.87,3.33l.81,4.6A1.55,1.55,0,0,0,26,49.56H26l-1.43,4.77Z"/><path class="cls-3" d="M48.38,51h0a13.64,13.64,0,0,1-5.48,1.15H17.1A13.64,13.64,0,0,1,11.62,51h0v3.29H48.38V51Z"/><path class="cls-1" d="M40.13,44.34h-.81a5.9,5.9,0,0,1-5.89-5.9V35.82H26.82v2.62a5.89,5.89,0,0,1-5.89,5.9H19.87a8.24,8.24,0,0,0-8.25,8.24v1.75H48.38V52.58A8.24,8.24,0,0,0,40.13,44.34Z"/><polygon class="cls-4" points="26.72 45.83 33.28 45.83 32.59 49.75 27.41 49.75 26.72 45.83"/><polygon class="cls-2" points="36.6 38.98 30 45.06 34.46 49.52 38.47 42.2 36.6 38.98"/><polygon class="cls-2" points="23.4 38.98 30 45.06 25.54 49.52 21.53 42.2 23.4 38.98"/><polygon class="cls-4" points="32.59 54.33 31.22 49.75 28.78 49.75 27.41 54.33 32.59 54.33"/><path class="cls-5" d="M41,19.16v11.2A10.89,10.89,0,0,1,30,41.14h0A10.89,10.89,0,0,1,19,30.36V19.16"/><path class="cls-6" d="M37.71,19.16v11.2A10.82,10.82,0,0,1,28.36,41a11.11,11.11,0,0,0,1.64.14A10.89,10.89,0,0,0,41,30.36V19.16Z"/><rect class="cls-7" x="14.35" y="15.56" width="31.31" height="4.28" rx="2.14" ry="2.14"/><path class="cls-8" d="M43.51,15.56H39.28a2.15,2.15,0,0,1,0,4.29h4.23a2.15,2.15,0,0,0,0-4.29Z"/><path class="cls-9" d="M16.49,15.56h4.23a2.15,2.15,0,0,0,0,4.29H16.49a2.15,2.15,0,0,1,0-4.29Z"/><path class="cls-7" d="M35.1,5.87,31.86,7a5.65,5.65,0,0,1-3.72,0L24.9,5.87A3.69,3.69,0,0,0,20,9.36v6.2H40V9.36A3.69,3.69,0,0,0,35.1,5.87Z"/><path class="cls-8" d="M35.1,5.87l-.63.21a3.7,3.7,0,0,1,2,3.28v6.2H40V9.36A3.69,3.69,0,0,0,35.1,5.87Z"/><path class="cls-9" d="M24.9,5.87l.63.21a3.7,3.7,0,0,0-2,3.28v6.2H20V9.36A3.69,3.69,0,0,1,24.9,5.87Z"/><rect class="cls-2" x="20.01" y="11.94" width="19.98" height="3.62"/><path class="cls-6" d="M19,29.8h0V22.94H16.83a1.87,1.87,0,0,0-1.94,1.79V26A4,4,0,0,0,19,29.8Z"/><path class="cls-6" d="M41,29.8h0V22.94h2.18a1.87,1.87,0,0,1,1.94,1.79V26A4,4,0,0,1,41,29.8Z"/><path class="cls-10" d="M52.06,53.33H49.38v-.75a9.25,9.25,0,0,0-9.25-9.24h-.81l-.32,0,.35-.63a1,1,0,0,0,0-1l-1.44-2.5A11.69,11.69,0,0,0,42,30.71,4.9,4.9,0,0,0,46.11,26V24.73a2.87,2.87,0,0,0-2.94-2.79H42V20.85h1.52a3.15,3.15,0,0,0,0-6.29H41V9.36a4.69,4.69,0,0,0-6.21-4.44L31.54,6a4.78,4.78,0,0,1-3.08,0L25.22,4.92A4.69,4.69,0,0,0,19,9.36v5.2H16.49a3.15,3.15,0,0,0,0,6.29H18v1.09H16.83a2.87,2.87,0,0,0-2.94,2.79V26A4.9,4.9,0,0,0,18,30.71a11.69,11.69,0,0,0,4.08,8.49l-1.44,2.5a1,1,0,0,0,0,1l.36.65H19.87a9.25,9.25,0,0,0-9.25,9.24v.75H7.94a1,1,0,1,0,0,2H52.06a1,1,0,0,0,0-2ZM18,28.64A2.85,2.85,0,0,1,15.89,26V24.73a.87.87,0,0,1,.94-.79H18ZM37.32,42.21l-3.09,5.66-2.79-2.78,4.92-4.53Zm5.85-18.27a.87.87,0,0,1,.94.79V26A2.85,2.85,0,0,1,42,28.64v-4.7ZM21,9.36a2.65,2.65,0,0,1,1.13-2.19,2.69,2.69,0,0,1,2.44-.36l3.23,1.11a6.84,6.84,0,0,0,4.38,0l3.23-1.11a2.69,2.69,0,0,1,2.44.36A2.65,2.65,0,0,1,39,9.36v1.58H21Zm0,3.58H39v1.62H21Zm-4.52,5.91a1.15,1.15,0,0,1,0-2.29h27a1.15,1.15,0,0,1,0,2.29ZM20,30.36V20.85H40v9.51a10,10,0,0,1-20,0ZM30,42.14A12.75,12.75,0,0,0,31.87,42L30,43.7,28.13,42A12.75,12.75,0,0,0,30,42.14Zm-1.44,3-2.79,2.78-3.09-5.66,1-1.65Zm-1.89,8.24H12.62v-.75a7.25,7.25,0,0,1,7.25-7.24h1.06a7,7,0,0,0,1.12-.1L24.66,50a1,1,0,0,0,.73.52h.15a1,1,0,0,0,.7-.3l.22-.21a1,1,0,0,0,.95.73h0Zm2.09,0,.77-2.58h.94l.77,2.58Zm3-4.58h-3.5l-.08-.45L30,46.48l1.83,1.82Zm15.63,4.58H33.33l-.77-2.58h0a1,1,0,0,0,.95-.73l.22.21a1,1,0,0,0,.7.3h.15a1,1,0,0,0,.73-.52L38,45.19a6.71,6.71,0,0,0,1.34.15h.81a7.25,7.25,0,0,1,7.25,7.24Z"/><path class="cls-10" d="M26.08,32.5a1,1,0,0,0-.52,1.32,4.84,4.84,0,0,0,8.88,0A1,1,0,0,0,32.6,33a2.83,2.83,0,0,1-5.2,0A1,1,0,0,0,26.08,32.5Z"/><path class="cls-10" d="M25.56,26.6a1,1,0,0,0,1-1V24.45a1,1,0,0,0-2,0V25.6A1,1,0,0,0,25.56,26.6Z"/><path class="cls-10" d="M34.44,26.6a1,1,0,0,0,1-1V24.45a1,1,0,0,0-2,0V25.6A1,1,0,0,0,34.44,26.6Z"/></g></g></g></svg>