<?xml version="1.0" encoding="UTF-8"?>
<svg width="48px" height="52px" viewBox="0 0 48 52" version="1.1" xmlns="http://www.w3.org/2000/svg" xmlns:xlink="http://www.w3.org/1999/xlink">
    <!-- Generator: sketchtool 50.2 (55047) - http://www.bohemiancoding.com/sketch -->
    <title>DAEACFA8-1639-46F3-BA7A-48B6985D29D3</title>
    <desc>Created with sketchtool.</desc>
    <defs></defs>
    <g id="Other-Services" stroke="none" stroke-width="1" fill="none" fill-rule="evenodd">
        <g transform="translate(-525.000000, -1343.000000)" id="Group-13">
            <g transform="translate(519.000000, 1339.000000)">
                <g id="Man">
                    <rect id="Rectangle-path" x="0" y="0" width="60" height="60"></rect>
                    <path d="M40.13,44.34 L39.32,44.34 C36.0654259,44.3344838 33.4299953,41.6945788 33.43,38.44 L33.43,35.82 L26.82,35.82 L26.82,38.44 C26.8226551,40.003857 26.2032756,41.5045719 25.0983985,42.6113249 C23.9935213,43.7180779 22.4938593,44.3400023 20.93,44.34 L19.87,44.34 C17.682884,44.3373457 15.5844378,45.2043142 14.0369746,46.7499017 C12.4895113,48.2954893 11.6199984,50.3928824 11.62,52.58 L11.62,54.33 L48.38,54.33 L48.38,52.58 C48.3800016,50.3928824 47.5104887,48.2954893 45.9630254,46.7499017 C44.4155622,45.2043142 42.317116,44.3373457 40.13,44.34 Z" id="Shape" fill="#FCFEFF" fill-rule="nonzero"></path>
                    <path d="M35.41,54.33 L34,49.56 C34.7532762,49.5617964 35.3987859,49.0217622 35.53,48.28 L36.36,43.55 C35.1275115,42.8311589 34.1915281,41.6966335 33.72,40.35 L26.5,40.35 C26.0053015,41.7867062 24.9779706,42.9786964 23.63,43.68 L24.44,48.28 C24.5730332,49.0330826 25.2354375,49.5765938 26,49.56 L24.57,54.33 L35.41,54.33 Z" id="Shape" fill="#D8E3F0" fill-rule="nonzero"></path>
                    <path d="M48.38,51 C46.6525167,51.7581761 44.786539,52.149759 42.9,52.15 L17.1,52.15 C15.213461,52.149759 13.3474833,51.7581761 11.62,51 L11.62,54.29 L48.38,54.29 L48.38,51 Z" id="Shape" fill="#D8E3F0" fill-rule="nonzero"></path>
                    <path d="M40.13,44.34 L39.32,44.34 C36.0654259,44.3344838 33.4299953,41.6945788 33.43,38.44 L33.43,35.82 L26.82,35.82 L26.82,38.44 C26.8226551,40.003857 26.2032756,41.5045719 25.0983985,42.6113249 C23.9935213,43.7180779 22.4938593,44.3400023 20.93,44.34 L19.87,44.34 C17.682884,44.3373457 15.5844378,45.2043142 14.0369746,46.7499017 C12.4895113,48.2954893 11.6199984,50.3928824 11.62,52.58 L11.62,54.33 L48.38,54.33 L48.38,52.58 C48.3800016,50.3928824 47.5104887,48.2954893 45.9630254,46.7499017 C44.4155622,45.2043142 42.317116,44.3373457 40.13,44.34 Z" id="Shape"></path>
                    <polygon id="Shape" fill="#69BAF9" fill-rule="nonzero" points="26.72 45.83 33.28 45.83 32.59 49.75 27.41 49.75"></polygon>
                    <polygon id="Shape" fill="#FCFEFF" fill-rule="nonzero" points="36.6 38.98 30 45.06 34.46 49.52 38.47 42.2"></polygon>
                    <polygon id="Shape" fill="#FCFEFF" fill-rule="nonzero" points="23.4 38.98 30 45.06 25.54 49.52 21.53 42.2"></polygon>
                    <polygon id="Shape" fill="#69BAF9" fill-rule="nonzero" points="32.59 54.33 31.22 49.75 28.78 49.75 27.41 54.33"></polygon>
                    <path d="M41,19.16 L41,30.36 C40.9709731,33.2482542 39.7957046,36.0066652 37.7327722,38.028339 C35.6698398,40.0500127 32.8882513,41.1693216 30,41.14 C27.1117487,41.1693216 24.3301602,40.0500127 22.2672278,38.028339 C20.2042954,36.0066652 19.0290269,33.2482542 19,30.36 L19,19.16" id="Shape" fill="#FFDEAD" fill-rule="nonzero"></path>
                    <path d="M37.71,19.16 L37.71,30.36 C37.6703803,35.737347 33.6876535,40.2695623 28.36,41 C28.9024531,41.087153 29.4506237,41.133948 30,41.14 C32.8882513,41.1693216 35.6698398,40.0500127 37.7327722,38.028339 C39.7957046,36.0066652 40.9709731,33.2482542 41,30.36 L41,19.16 L37.71,19.16 Z" id="Shape" fill="#FFC670" fill-rule="nonzero"></path>
                    <rect id="Rectangle-path" fill="#F6716F" fill-rule="nonzero" x="14.35" y="15.56" width="31.31" height="4.28" rx="2.14"></rect>
                    <path d="M43.51,15.56 L39.28,15.56 C40.4079061,15.637057 41.2834565,16.5744647 41.2834565,17.705 C41.2834565,18.8355353 40.4079061,19.772943 39.28,19.85 L43.51,19.85 C44.6379061,19.772943 45.5134565,18.8355353 45.5134565,17.705 C45.5134565,16.5744647 44.6379061,15.637057 43.51,15.56 Z" id="Shape" fill="#F0504D" fill-rule="nonzero"></path>
                    <path d="M16.49,15.56 L20.72,15.56 C19.5920939,15.637057 18.7165435,16.5744647 18.7165435,17.705 C18.7165435,18.8355353 19.5920939,19.772943 20.72,19.85 L16.49,19.85 C15.3620939,19.772943 14.4865435,18.8355353 14.4865435,17.705 C14.4865435,16.5744647 15.3620939,15.637057 16.49,15.56 Z" id="Shape" fill="#F6A2A2" fill-rule="nonzero"></path>
                    <path d="M35.1,5.87 L31.86,7 C30.6555502,7.41991565 29.3444498,7.41991565 28.14,7 L24.9,5.87 C23.7711942,5.47818451 22.5225392,5.65720614 21.5492924,6.35039623 C20.5760456,7.04358631 19.9986954,8.16512755 20,9.36 L19.9999978,15.56 L40.0000022,15.56 L40,9.36 C40.0013046,8.16512755 39.4239544,7.04358631 38.4507076,6.35039623 C37.4774608,5.65720614 36.2288058,5.47818451 35.1,5.87 Z" id="Shape" fill="#F6716F" fill-rule="nonzero"></path>
                    <path d="M35.1,5.87 L34.47,6.08 C35.6965022,6.71445909 36.4676345,7.97911606 36.47,9.36 L36.47,15.56 L40.0000022,15.56 L40,9.36 C40.0013046,8.16512755 39.4239544,7.04358631 38.4507076,6.35039623 C37.4774608,5.65720614 36.2288058,5.47818451 35.1,5.87 Z" id="Shape" fill="#F0504D" fill-rule="nonzero"></path>
                    <path d="M24.9,5.87 L25.53,6.08 C24.3034978,6.71445909 23.5323655,7.97911606 23.53,9.36 L23.53,15.56 L19.9999978,15.56 L20,9.36 C19.9986954,8.16512755 20.5760456,7.04358631 21.5492924,6.35039623 C22.5225392,5.65720614 23.7711942,5.47818451 24.9,5.87 Z" id="Shape" fill="#F6A2A2" fill-rule="nonzero"></path>
                    <rect id="Rectangle-path" fill="#FCFEFF" fill-rule="nonzero" x="20.01" y="11.94" width="19.98" height="3.62"></rect>
                    <path d="M19,29.8 L19,22.94 L16.83,22.94 C15.8007082,22.9005311 14.9333098,23.7008627 14.89,24.73 L14.89,26 C14.9979316,28.1739251 16.8242957,29.8625342 19,29.8 Z" id="Shape" fill="#FFC670" fill-rule="nonzero"></path>
                    <path d="M41,29.8 L41,22.94 L43.18,22.94 C44.2092918,22.9005311 45.0766902,23.7008627 45.12,24.73 L45.12,26 C45.0120332,28.1779304 43.1795415,29.8680926 41,29.8 Z" id="Shape" fill="#FFC670" fill-rule="nonzero"></path>
                    <path d="M52.06,53.33 L49.38,53.33 L49.38,52.58 C49.3744814,47.4752717 45.2347312,43.339997 40.13,43.34 L39.32,43.34 L39,43.34 L39.35,42.71 C39.5286328,42.4005989 39.5286328,42.0194011 39.35,41.71 L37.91,39.21 C40.4066867,37.0768913 41.8910489,33.9920309 42,30.71 C44.323595,30.331215 46.0493838,28.3534863 46.11,26 L46.11,24.73 C46.06639,23.1486795 44.7514363,21.9008153 43.17,21.94 L42,21.94 L42,20.85 L43.52,20.85 C45.1881222,20.7558999 46.4925881,19.3757742 46.4925881,17.705 C46.4925881,16.0342258 45.1881222,14.6541001 43.52,14.56 L41,14.56 L41,9.36 C41.0010154,7.84500648 40.2701502,6.42282776 39.0377513,5.54169237 C37.8053525,4.66055699 36.2232219,4.42899952 34.79,4.92 L31.54,6 C30.541454,6.33982689 29.458546,6.33982689 28.46,6 L25.22,4.92 C23.7855509,4.42496111 22.2002319,4.65454342 20.9651494,5.53617782 C19.730067,6.41781222 18.99787,7.84253393 19,9.36 L19,14.56 L16.49,14.56 C14.8218778,14.6541001 13.5174119,16.0342258 13.5174119,17.705 C13.5174119,19.3757742 14.8218778,20.7558999 16.49,20.85 L18,20.85 L18,21.94 L16.83,21.94 C15.2485637,21.9008153 13.93361,23.1486795 13.89,24.73 L13.89,26 C13.9506162,28.3534863 15.676405,30.331215 18,30.71 C18.1092002,33.9869431 19.5895602,37.0673981 22.08,39.2 L20.64,41.7 C20.4613672,42.0094011 20.4613672,42.3905989 20.64,42.7 L21,43.35 L19.87,43.35 C14.7652688,43.349997 10.6255186,47.4852717 10.62,52.59 L10.62,53.34 L7.94,53.34 C7.38771525,53.34 6.94,53.7877153 6.94,54.34 C6.94,54.8922847 7.38771525,55.34 7.94,55.34 L52.06,55.34 C52.6122847,55.34 53.06,54.8922847 53.06,54.34 C53.06,53.7877153 52.6122847,53.34 52.06,53.34 L52.06,53.33 Z M18,28.64 C16.7944897,28.3169232 15.9394201,27.2470731 15.89,26 L15.89,24.73 C15.9323485,24.252756 16.3525892,23.899575 16.83,23.94 L18,23.94 L18,28.64 Z M37.32,42.21 L34.23,47.87 L31.44,45.09 L36.36,40.56 L37.32,42.21 Z M43.17,23.94 C43.6474108,23.899575 44.0676515,24.252756 44.11,24.73 L44.11,26 C44.0605799,27.2470731 43.2055103,28.3169232 42,28.64 L42,23.94 L43.17,23.94 Z M21,9.36 C20.9936818,8.48861011 21.4161696,7.66980632 22.13,7.17 C22.8371612,6.66223665 23.7463306,6.52809691 24.57,6.81 L27.8,7.92 C29.2205327,8.40009259 30.7594673,8.40009259 32.18,7.92 L35.41,6.81 C36.2336694,6.52809691 37.1428388,6.66223665 37.85,7.17 C38.5714189,7.66534008 39.0017803,8.4848978 39,9.36 L39.0000055,10.94 L20.9999301,10.94 L21,9.36 Z M21,12.94 L39,12.94 L39,14.56 L21,14.56 L21,12.94 Z M16.48,18.85 C15.8889544,18.7947042 15.4371214,18.2986266 15.4371214,17.705 C15.4371214,17.1113734 15.8889544,16.6152958 16.48,16.56 L43.48,16.56 C44.0710456,16.6152958 44.5228786,17.1113734 44.5228786,17.705 C44.5228786,18.2986266 44.0710456,18.7947042 43.48,18.85 L16.48,18.85 Z M20,30.36 L20,20.85 L40,20.85 L40,30.36 C40,35.8828475 35.5228475,40.36 30,40.36 C24.4771525,40.36 20,35.8828475 20,30.36 Z M30,42.14 C30.6259248,42.1392978 31.2509481,42.0925046 31.87,42 L30,43.7 L28.13,42 C28.7490519,42.0925046 29.3740752,42.1392978 30,42.14 Z M28.56,45.14 L25.77,47.92 L22.68,42.26 L23.68,40.61 L28.56,45.14 Z M26.67,53.38 L12.62,53.38 L12.62,52.63 C12.6255175,48.6298414 15.8698376,45.3899962 19.87,45.39 L20.93,45.39 C21.3054109,45.3867546 21.6799523,45.3533134 22.05,45.29 L24.66,50 C24.8076848,50.2787804 25.0782643,50.4715219 25.39,50.52 L25.54,50.52 C25.8037693,50.516243 26.0553695,50.4084143 26.24,50.22 L26.46,50.01 C26.5797236,50.4370937 26.9664798,50.7342854 27.41,50.74 L26.67,53.38 Z M28.76,53.38 L29.53,50.8 L30.47,50.8 L31.24,53.38 L28.76,53.38 Z M31.76,48.8 L28.26,48.8 L28.18,48.35 L30,46.48 L31.83,48.3 L31.76,48.8 Z M47.39,53.38 L33.33,53.38 L32.56,50.8 C33.0035202,50.7942854 33.3902764,50.4970937 33.51,50.07 L33.73,50.28 C33.9146305,50.4684143 34.1662307,50.576243 34.43,50.58 L34.58,50.58 C34.8917357,50.5315219 35.1623152,50.3387804 35.31,50.06 L38,45.19 C38.4404972,45.2848657 38.8894299,45.3351193 39.34,45.34 L40.15,45.34 C44.1501624,45.3399962 47.3944825,48.5798414 47.4,52.58 L47.39,53.38 Z" id="Shape" fill="#3D3D63" fill-rule="nonzero"></path>
                    <path d="M26.08,32.5 C25.8354223,32.6054088 25.6429959,32.8040253 25.545381,33.0518168 C25.4477662,33.2996083 25.453028,33.5761019 25.56,33.82 C26.3275536,35.5888365 28.0718089,36.7333449 30,36.7333449 C31.9281911,36.7333449 33.6724464,35.5888365 34.44,33.82 C34.6664367,33.311898 34.438102,32.7164367 33.93,32.49 C33.421898,32.2635633 32.8264367,32.491898 32.6,33 C32.1533812,34.0390741 31.1309922,34.7124581 30,34.7124581 C28.8690078,34.7124581 27.8466188,34.0390741 27.4,33 C27.1727874,32.4982465 26.5826133,32.2746957 26.08,32.5 Z" id="Shape" fill="#3D3D63" fill-rule="nonzero"></path>
                    <path d="M25.56,26.6 C26.1122847,26.6 26.56,26.1522847 26.56,25.6 L26.56,24.45 C26.56,23.8977153 26.1122847,23.45 25.56,23.45 C25.0077153,23.45 24.56,23.8977153 24.56,24.45 L24.56,25.6 C24.56,26.1522847 25.0077153,26.6 25.56,26.6 Z" id="Shape" fill="#3D3D63" fill-rule="nonzero"></path>
                    <path d="M34.44,26.6 C34.9922847,26.6 35.44,26.1522847 35.44,25.6 L35.44,24.45 C35.44,23.8977153 34.9922847,23.45 34.44,23.45 C33.8877153,23.45 33.44,23.8977153 33.44,24.45 L33.44,25.6 C33.44,26.1522847 33.8877153,26.6 34.44,26.6 Z" id="Shape" fill="#3D3D63" fill-rule="nonzero"></path>
                </g>
            </g>
        </g>
    </g>
</svg>