<svg xmlns="http://www.w3.org/2000/svg" viewBox="0 0 60 60"><defs><style>.cls-1{fill:none;}.cls-2{fill:#ffc670;}.cls-3{fill:#fff6e6;}.cls-4{fill:#ffebcc;}.cls-5{fill:#f6716f;}.cls-6{fill:#f6a2a2;}.cls-7{fill:#f0504d;}.cls-8{fill:#3d3d63;}</style></defs><title>Mark</title><g id="图层_2" data-name="图层 2"><g id="Graphics"><g id="Mark"><rect class="cls-1" width="60" height="60"/><path class="cls-2" d="M38.81,30l1.41-1.41A5.48,5.48,0,0,1,44,27l.33-3.74L45.38,11A1.35,1.35,0,0,0,44.17,9.5L16.71,7.1a1.34,1.34,0,0,0-1.45,1.21l-.33,3.82v18.2H38.49Z"/><path class="cls-3" d="M39.36,11.13H11.79a2.34,2.34,0,0,0-2.33,2.33v37.4a2.34,2.34,0,0,0,2.33,2.33H27.4a1,1,0,0,0,1-.82A4.44,4.44,0,0,1,29.62,50h0l.82-.83a1,1,0,0,0,0-1.41L29.62,47a4.5,4.5,0,0,1,0-6.37L31,39.17a6.52,6.52,0,0,1,4.34-1.89A1,1,0,0,0,36,37l1.3-1.3a1.05,1.05,0,0,0,.29-.67,6.43,6.43,0,0,1,1.89-4.34l1.41-1.41a1.5,1.5,0,0,1,.24-.2l.15-.12a1,1,0,0,0,.37-.78V13.46A2.33,2.33,0,0,0,39.36,11.13Z"/><path class="cls-4" d="M28.54,51.76A4.36,4.36,0,0,1,29.62,50h0l.82-.83a1,1,0,0,0,0-1.41L29.62,47a4.5,4.5,0,0,1-1.19-4.21,23.8,23.8,0,0,1-9.26,1.71,34.23,34.23,0,0,1-8.71-1v7a1.33,1.33,0,0,0,1.33,1.33Z"/><path class="cls-5" d="M40.75,36.58H54.08a0,0,0,0,1,0,0v2a2,2,0,0,1-2,2H42.75a2,2,0,0,1-2-2v-2a0,0,0,0,1,0,0Z" transform="translate(41.17 -22.23) rotate(45)"/><path class="cls-6" d="M43,37l2.81-2.84-1.67-1.67L42.7,33.86a2,2,0,0,0,0,2.83Z"/><path class="cls-7" d="M44.8,38.79l4.5,4.5a2,2,0,0,0,2.83,0l1.41-1.41L47.63,36Z"/><path class="cls-5" d="M34.26,45.06h9.33a2,2,0,0,1,2,2v2a0,0,0,0,1,0,0H32.26a0,0,0,0,1,0,0v-2a2,2,0,0,1,2-2Z" transform="translate(44.68 -13.74) rotate(45)"/><path class="cls-6" d="M37.3,42.6,37,42.35a2,2,0,0,0-2.83,0L32.8,43.76l1.67,1.67Z"/><path class="cls-7" d="M39.14,44.45l-2.83,2.83,5.92,5.91,1.41-1.41a2,2,0,0,0,0-2.83Z"/><rect class="cls-5" x="38.5" y="38.82" width="9.33" height="8" transform="translate(42.92 -17.98) rotate(45)"/><rect class="cls-6" x="39.56" y="36.27" width="2.13" height="8" transform="translate(40.37 -16.93) rotate(45)"/><rect class="cls-7" x="41.08" y="42.76" width="8" height="3.94" transform="translate(-18.42 44.97) rotate(-45)"/><path class="cls-8" d="M28.21,18.55a1,1,0,0,0,0-2H22.94a1,1,0,0,0,0,2Z"/><path class="cls-8" d="M33.88,22.22H17.27a1,1,0,1,0,0,2H33.88a1,1,0,0,0,0-2Z"/><path class="cls-8" d="M33.88,27.26H17.27a1,1,0,0,0,0,2H33.88a1,1,0,0,0,0-2Z"/><path class="cls-8" d="M54.25,41.17l-9.43-9.43a1,1,0,0,0-1.41,0L42,33.16a3,3,0,0,0-.58,3.4l-4.5,4.5a3,3,0,0,0-3.4.58l-1.42,1.42a1,1,0,0,0,0,1.41l4,4-4,4a1,1,0,1,0,1.42,1.42l4-4,4,4a1,1,0,0,0,1.41,0l1.42-1.42a3,3,0,0,0,.58-3.4l4.5-4.5a3,3,0,0,0,3.4-.58l1.42-1.42A1,1,0,0,0,54.25,41.17Zm-11.32,9.9-.7.71-8-8,.71-.7a1,1,0,0,1,1.41,0l6.6,6.6A1,1,0,0,1,42.93,51.07Zm.71-3.54-5.18-5.18,4.24-4.24,5.18,5.18Zm7.78-5a1,1,0,0,1-1.41,0L43.41,36a1,1,0,0,1,0-1.41l.7-.71,8,8Z"/><path class="cls-8" d="M27.4,51.19H11.79a.33.33,0,0,1-.33-.33V13.46a.33.33,0,0,1,.33-.33H39.36a.33.33,0,0,1,.33.33V28.17a1,1,0,0,0,2,0V13.46a2.33,2.33,0,0,0-2.33-2.33H16l.24-2.73a.33.33,0,0,1,.36-.3l27.46,2.4a.33.33,0,0,1,.3.36l-1.4,16a1,1,0,1,0,2,.18l1.4-16a2.33,2.33,0,0,0-2.12-2.53L16.79,6.11a2.32,2.32,0,0,0-2.52,2.12L14,11.13H11.79a2.34,2.34,0,0,0-2.33,2.33v37.4a2.34,2.34,0,0,0,2.33,2.33H27.4a1,1,0,1,0,0-2Z"/></g></g></g></svg>