<svg xmlns="http://www.w3.org/2000/svg" viewBox="0 0 60 60"><defs><style>.cls-1{fill:none;}.cls-2{fill:#79deb4;}.cls-3{fill:#edf4ff;}.cls-4{fill:#d8e3f0;}.cls-5{fill:#ffc670;}.cls-6{fill:#ffa742;}.cls-7{fill:#ffdead;}.cls-8{fill:#ffefb0;}.cls-9{fill:#3d3d63;}</style></defs><title>Medal</title><g id="图层_2" data-name="图层 2"><g id="Graphics"><g id="Medal"><rect class="cls-1" width="60" height="60"/><polyline class="cls-1" points="49.63 31.18 50.01 27.07 55.54 23.97 49.72 21.46 48.48 15.24 45.83 18.26"/><path class="cls-2" d="M19.16,11H41.83a0,0,0,0,1,0,0v8.67A5.33,5.33,0,0,1,36.49,25h-12a5.33,5.33,0,0,1-5.33-5.33V11A0,0,0,0,1,19.16,11Z"/><path class="cls-3" d="M34.49,21.52V11h-8V21.52a16,16,0,1,0,8,0Z"/><path class="cls-4" d="M30.49,43a24.24,24.24,0,0,1-16-6h0a16,16,0,0,0,32,0h0A24.23,24.23,0,0,1,30.49,43Z"/><circle class="cls-1" cx="30.49" cy="37" r="16"/><path class="cls-5" d="M43.83,7H17.16a2,2,0,0,0,0,4H43.83a2,2,0,0,0,0-4Z"/><circle class="cls-5" cx="30.49" cy="37" r="12"/><path class="cls-6" d="M30.49,39.75a35.6,35.6,0,0,1-12-2.06,12,12,0,0,0,23.93,0A35.66,35.66,0,0,1,30.49,39.75Z"/><circle class="cls-1" cx="30.49" cy="37" r="12"/><polygon class="cls-7" points="29.06 30 26.06 34.67 29.06 34.67 29.06 44 33.06 44 33.06 30 29.06 30"/><path class="cls-8" d="M55.94,23.05l-5.34-2.3L49.46,15a1,1,0,0,0-.72-.77,1,1,0,0,0-1,.31l-2.65,3a1,1,0,0,0-.25.66v2a6.21,6.21,0,0,1-.62,2.7,1,1,0,0,0,.16,1.11,19.07,19.07,0,0,1,4.3,7.41,1,1,0,0,0,.95.71h.11a1,1,0,0,0,.89-.9L51,27.68,56,24.84a1,1,0,0,0,.51-.92A1,1,0,0,0,55.94,23.05Z"/><path class="cls-8" d="M11.49,37a19.17,19.17,0,0,1,.62-4.74,1,1,0,0,0-.34-1L9.54,29.42a1,1,0,0,0-1-.13,1,1,0,0,0-.58.88l-.12,4.62L3.91,37.31a1,1,0,0,0-.45,1,1,1,0,0,0,.66.82l4.36,1.55,1.2,4.46a1,1,0,0,0,.77.72l.2,0a1,1,0,0,0,.79-.39l1-1.27a1,1,0,0,0,.15-.94A19,19,0,0,1,11.49,37Z"/><polyline class="cls-1" points="11.15 32.01 8.91 30.2 8.77 35.34 4.46 38.15 9.31 39.87 10.65 44.84 11.62 43.57"/><path class="cls-9" d="M41.24,23.84a6.32,6.32,0,0,0,1.59-4.17V12h1a3,3,0,0,0,0-6H17.16a3,3,0,0,0,0,6h1v7.67a6.29,6.29,0,0,0,1.58,4.17,17,17,0,1,0,21.5,0ZM17.16,10a1,1,0,0,1,0-2H43.83a1,1,0,0,1,0,2Zm23.67,2v7.67a4.28,4.28,0,0,1-1.24,3,17.23,17.23,0,0,0-4.1-1.91V12Zm-7.34,0v8.28a17.34,17.34,0,0,0-3-.28,17.53,17.53,0,0,0-3,.28V12Zm-8,0v8.75a17,17,0,0,0-4.09,1.91,4.28,4.28,0,0,1-1.24-3V12Zm5,40a15,15,0,1,1,15-15A15,15,0,0,1,30.49,52Z"/><path class="cls-9" d="M30.49,24a13,13,0,1,0,13,13A13,13,0,0,0,30.49,24Zm0,24a11,11,0,1,1,11-11A11,11,0,0,1,30.49,48Z"/><path class="cls-9" d="M33.06,29h-4a1,1,0,0,0-.84.46l-3,4.67a1,1,0,0,0,.84,1.54h2V44a1,1,0,0,0,1,1h4a1,1,0,0,0,1-1V30A1,1,0,0,0,33.06,29Zm-1,14h-2V34.67a1,1,0,0,0-1-1H27.89L29.61,31h2.45Z"/><path class="cls-9" d="M55.94,23.05l-5.34-2.3L49.46,15a1,1,0,0,0-.72-.77h0a1,1,0,0,0-1,.31l-2.65,3a1,1,0,0,0,1.5,1.32l1.32-1.5.84,4.23a1,1,0,0,0,.58.73l4,1.71-3.77,2.1A1,1,0,0,0,49,27l-.38,4.11a1,1,0,0,0,.74,1.06.45.45,0,0,0,.16,0,1,1,0,0,0,1.09-.9L51,27.68,56,24.84a1,1,0,0,0,.51-.92A1,1,0,0,0,55.94,23.05Z"/><path class="cls-9" d="M11.11,42.71l-.83-3.1a1,1,0,0,0-.64-.68l-2.94-1,2.62-1.71a1,1,0,0,0,.45-.81l.08-3.12.67.54a1,1,0,0,0,1.25-1.56L9.54,29.42a1,1,0,0,0-1-.13h0a1,1,0,0,0-.58.88l-.12,4.62L3.91,37.31a1,1,0,0,0-.45,1,1,1,0,0,0,.66.82l4.36,1.55,1.2,4.46a1,1,0,0,0,.77.72.94.94,0,0,0,.6-.07,1,1,0,0,0,.39-.3l1-1.27a1,1,0,0,0-1.3-1.47Z"/></g></g></g></svg>