<?xml version="1.0" encoding="UTF-8"?>
<svg width="54px" height="48px" viewBox="0 0 54 48" version="1.1" xmlns="http://www.w3.org/2000/svg" xmlns:xlink="http://www.w3.org/1999/xlink">
    <!-- Generator: sketchtool 50.2 (55047) - http://www.bohemiancoding.com/sketch -->
    <title>974637F0-A27E-40D7-ABCB-B7E85FAD2EED</title>
    <desc>Created with sketchtool.</desc>
    <defs></defs>
    <g id="Home" stroke="none" stroke-width="1" fill="none" fill-rule="evenodd">
        <g transform="translate(-563.000000, -2581.000000)" id="Medal">
            <g transform="translate(560.000000, 2575.000000)">
                <rect id="Rectangle-path" x="0" y="0" width="60" height="60"></rect>
                <polyline id="Shape" points="49.63 31.18 50.01 27.07 55.54 23.97 49.72 21.46 48.48 15.24 45.83 18.26"></polyline>
                <path d="M19.16,11 L41.83,11 L41.83,19.67 C41.8300025,21.0853382 41.267078,22.4425622 40.2653453,23.4424191 C39.2636125,24.4422759 37.9053357,25.0026554 36.49,25 L24.49,25 C21.5463223,25 19.16,22.6136777 19.16,19.67 L19.16,11 Z" id="Shape" fill="#79DEB4" fill-rule="nonzero"></path>
                <path d="M34.49,21.52 L34.49,11 L26.49,11 L26.49,21.52 C18.6887731,23.5342681 13.6022991,31.0351469 14.6175249,39.0280021 C15.6327506,47.0208572 22.4329275,53.0119334 30.49,53.0119334 C38.5470725,53.0119334 45.3472494,47.0208572 46.3624751,39.0280021 C47.3777009,31.0351469 42.2912269,23.5342681 34.49,21.52 Z" id="Shape" fill="#EDF4FF" fill-rule="nonzero"></path>
                <path d="M30.49,43 C24.6051622,43.0084994 18.9181933,40.8758861 14.49,37 C14.49,45.836556 21.653444,53 30.49,53 C39.326556,53 46.49,45.836556 46.49,37 C42.0622839,40.8766841 36.375003,43.0094145 30.49,43 Z" id="Shape" fill="#D8E3F0" fill-rule="nonzero"></path>
                <circle id="Oval" cx="30.49" cy="37" r="16"></circle>
                <path d="M43.83,7 L17.16,7 C16.0554305,7 15.16,7.8954305 15.16,9 C15.16,10.1045695 16.0554305,11 17.16,11 L43.83,11 C44.9345695,11 45.83,10.1045695 45.83,9 C45.83,7.8954305 44.9345695,7 43.83,7 Z" id="Shape" fill="#FFC670" fill-rule="nonzero"></path>
                <circle id="Oval" fill="#FFC670" fill-rule="nonzero" cx="30.49" cy="37" r="12"></circle>
                <path d="M30.49,39.75 C26.4013837,39.7575219 22.3420274,39.0606657 18.49,37.69 C18.9686959,43.9438818 24.1828244,48.7741534 30.455,48.7741534 C36.7271756,48.7741534 41.9413041,43.9438818 42.42,37.69 C38.589814,39.0516196 34.5550129,39.7483246 30.49,39.75 Z" id="Shape" fill="#FFA742" fill-rule="nonzero"></path>
                <circle id="Oval" cx="30.49" cy="37" r="12"></circle>
                <polygon id="Shape" fill="#FFDEAD" fill-rule="nonzero" points="29.06 30 26.06 34.67 29.06 34.67 29.06 44 33.06 44 33.06 30"></polygon>
                <path d="M55.94,23.05 L50.6,20.75 L49.46,15 C49.3857573,14.6273999 49.1067847,14.3290543 48.74,14.23 C48.3748827,14.1366468 47.9882899,14.2564906 47.74,14.54 L45.09,17.54 C44.9292223,17.7223042 44.8403498,17.9569276 44.84,18.2 L44.84,20.2 C44.839275,21.1352035 44.6273354,22.0581663 44.22,22.9 C44.0413204,23.2679047 44.1046906,23.7075351 44.38,24.01 C46.3567913,26.1218985 47.8272277,28.6558367 48.68,31.42 C48.8070075,31.8391753 49.1920167,32.1269191 49.63,32.13 L49.74,32.13 C50.2129387,32.0798092 50.5850964,31.70347 50.63,31.23 L51,27.68 L56,24.84 C56.3305883,24.6547405 56.5280537,24.2985285 56.51,23.92 C56.4976254,23.5462317 56.2777312,23.2106037 55.94,23.05 Z" id="Shape" fill="#FFEFB0" fill-rule="nonzero"></path>
                <path d="M11.49,37 C11.4980851,35.40032 11.7063708,33.8079422 12.11,32.26 C12.1963051,31.8891201 12.0644842,31.5014116 11.77,31.26 L9.54,29.42 C9.25451559,29.1994667 8.87238114,29.1497892 8.54,29.29 C8.19523301,29.4493804 7.97052174,29.7903216 7.96,30.17 L7.84,34.79 L3.91,37.31 C3.57431464,37.5240387 3.39756823,37.9168085 3.46,38.31 C3.50670307,38.6863742 3.76230314,39.0039379 4.12,39.13 L8.48,40.68 L9.68,45.14 C9.77905427,45.5067847 10.0773999,45.7857573 10.45,45.86 L10.65,45.86 C10.9594966,45.8592561 11.2512074,45.715247 11.44,45.47 L12.44,44.2 C12.6454868,43.9320833 12.7018996,43.5785635 12.59,43.26 C11.874441,41.2498994 11.5025723,39.1336286 11.49,37 Z" id="Shape" fill="#FFEFB0" fill-rule="nonzero"></path>
                <polyline id="Shape" points="11.15 32.01 8.91 30.2 8.77 35.34 4.46 38.15 9.31 39.87 10.65 44.84 11.62 43.57"></polyline>
                <path d="M41.24,23.84 C42.2594666,22.6896057 42.8247367,21.2071049 42.83,19.67 L42.83,12 L43.83,12 C45.4868542,12 46.83,10.6568542 46.83,9 C46.83,7.34314575 45.4868542,6 43.83,6 L17.16,6 C15.5031458,6 14.16,7.34314575 14.16,9 C14.16,10.6568542 15.5031458,12 17.16,12 L18.16,12 L18.16,19.67 C18.1597393,21.206311 18.7217524,22.6895986 19.74,23.84 C14.170832,28.3859775 12.0632431,35.9436529 14.4762147,42.7155885 C16.8891862,49.4875241 23.3010123,54.0095672 30.49,54.0095672 C37.6789877,54.0095672 44.0908138,49.4875241 46.5037853,42.7155885 C48.9167569,35.9436529 46.809168,28.3859775 41.24,23.84 Z M17.16,10 C16.6077153,10 16.16,9.55228475 16.16,9 C16.16,8.44771525 16.6077153,8 17.16,8 L43.83,8 C44.3822847,8 44.83,8.44771525 44.83,9 C44.83,9.55228475 44.3822847,10 43.83,10 L17.16,10 Z M40.83,12 L40.83,19.67 C40.8266405,20.7940309 40.3812352,21.8716244 39.59,22.67 C38.3131999,21.8559375 36.9346582,21.2137389 35.49,20.76 L35.49,12 L40.83,12 Z M33.49,12 L33.49,20.28 C32.5000185,20.0997977 31.49623,20.0061108 30.49,20 C29.4838174,20.0070616 28.4801109,20.1007409 27.49,20.28 L27.49,12 L33.49,12 Z M25.49,12 L25.49,20.75 C24.0478252,21.2020288 22.6723694,21.8443566 21.4,22.66 C20.6087648,21.8616244 20.1633595,20.7840309 20.16,19.66 L20.16,12 L25.49,12 Z M30.49,52 C22.2057288,52 15.49,45.2842712 15.49,37 C15.49,28.7157288 22.2057288,22 30.49,22 C38.7742712,22 45.49,28.7157288 45.49,37 C45.49,40.9782473 43.9096474,44.793556 41.0966017,47.6066017 C38.283556,50.4196474 34.4682473,52 30.49,52 Z" id="Shape" fill="#3D3D63" fill-rule="nonzero"></path>
                <path d="M30.49,24 C23.3102983,24 17.49,29.8202983 17.49,37 C17.49,44.1797017 23.3102983,50 30.49,50 C37.6697017,50 43.49,44.1797017 43.49,37 C43.49,29.8202983 37.6697017,24 30.49,24 Z M30.49,48 C26.0409153,48 22.0299161,45.319936 20.3273251,41.2095178 C18.6247341,37.0990995 19.5658475,32.3678034 22.7118254,29.2218254 C25.8578034,26.0758475 30.5890995,25.1347341 34.6995178,26.8373251 C38.809936,28.5399161 41.49,32.5509153 41.49,37 C41.49,43.0751322 36.5651322,48 30.49,48 Z" id="Shape" fill="#3D3D63" fill-rule="nonzero"></path>
                <path d="M33.06,29 L29.06,29 C28.7200079,29.0005664 28.4035955,29.1738399 28.22,29.46 L25.22,34.13 C25.0227117,34.4375001 25.008821,34.8281163 25.1837686,35.1488535 C25.3587161,35.4695907 25.6946527,35.669392 26.06,35.67 L28.06,35.67 L28.06,44 C28.06,44.5522847 28.5077153,45 29.06,45 L33.06,45 C33.6122847,45 34.06,44.5522847 34.06,44 L34.06,30 C34.06,29.4477153 33.6122847,29 33.06,29 Z M32.06,43 L30.06,43 L30.06,34.67 C30.06,34.1177153 29.6122847,33.67 29.06,33.67 L27.89,33.67 L29.61,31 L32.06,31 L32.06,43 Z" id="Shape" fill="#3D3D63" fill-rule="nonzero"></path>
                <path d="M55.94,23.05 L50.6,20.75 L49.46,15 C49.3857573,14.6273999 49.1067847,14.3290543 48.74,14.23 C48.3748827,14.1366468 47.9882899,14.2564906 47.74,14.54 L45.09,17.54 C44.754198,17.956915 44.8062867,18.564335 45.2081682,18.9179907 C45.6100497,19.2716464 46.2191628,19.246084 46.59,18.86 L47.91,17.36 L48.75,21.59 C48.8111268,21.9140882 49.0281175,22.1871972 49.33,22.32 L53.33,24.03 L49.56,26.13 C49.2261566,26.2933931 49.0104787,26.6284641 49,27 L48.62,31.11 C48.574426,31.5967097 48.887405,32.045031 49.36,32.17 C49.4129051,32.1795576 49.4670949,32.1795576 49.52,32.17 C50.0694401,32.2221958 50.5572823,31.8193903 50.61,31.27 L51,27.68 L56,24.84 C56.3305883,24.6547405 56.5280537,24.2985285 56.51,23.92 C56.4976254,23.5462317 56.2777312,23.2106037 55.94,23.05 Z" id="Shape" fill="#3D3D63" fill-rule="nonzero"></path>
                <path d="M11.11,42.71 L10.28,39.61 C10.1920944,39.2915282 9.9525647,39.0370279 9.64,38.93 L6.7,37.93 L9.32,36.22 C9.59358912,36.0399783 9.76168905,35.7373984 9.77,35.41 L9.85,32.29 L10.52,32.83 C10.9518457,33.1544183 11.5632686,33.0772849 11.9010132,32.6557798 C12.2387577,32.2342746 12.1807536,31.6207413 11.77,31.27 L9.54,29.42 C9.25451559,29.1994667 8.87238114,29.1497892 8.54,29.29 C8.19523301,29.4493804 7.97052174,29.7903216 7.96,30.17 L7.84,34.79 L3.91,37.31 C3.57431464,37.5240387 3.39756823,37.9168085 3.46,38.31 C3.50670307,38.6863742 3.76230314,39.0039379 4.12,39.13 L8.48,40.68 L9.68,45.14 C9.77905427,45.5067847 10.0773999,45.7857573 10.45,45.86 C10.6522544,45.9033151 10.8631486,45.8787108 11.05,45.79 C11.2029569,45.7240423 11.3370147,45.6209208 11.44,45.49 L12.44,44.22 C12.7301026,43.8402883 12.7110265,43.3083906 12.3944683,42.9504362 C12.07791,42.5924819 11.5523367,42.5085069 11.14,42.75 L11.11,42.71 Z" id="Shape" fill="#3D3D63" fill-rule="nonzero"></path>
            </g>
        </g>
    </g>
</svg>