<svg xmlns="http://www.w3.org/2000/svg" viewBox="0 0 60 60"><defs><style>.cls-1{fill:none;}.cls-2{fill:#ffc670;}.cls-3{fill:#ffe88a;}.cls-4{fill:#ff9a42;}.cls-5{fill:#96ddff;}.cls-6{fill:#69baf9;}.cls-7{fill:#3d3d63;}</style></defs><title>Message</title><g id="图层_2" data-name="图层 2"><g id="Graphics"><g id="Message"><rect class="cls-1" width="60" height="60"/><path class="cls-2" d="M36.29,20.14a13.55,13.55,0,0,0-15-6.38l-.64-1.13a3.77,3.77,0,1,0-6.53,3.77l.65,1.12h0a13.57,13.57,0,0,0-2,16.18l9.55,16.53L45.83,36.66Z"/><path class="cls-3" d="M48,32.82h0a1.51,1.51,0,0,0-2.26-1.31L32.27,39.27l-5.8,3.35a5,5,0,0,1-6.79-1.82l-3.85-6.68A15,15,0,0,1,16,18.67a12.32,12.32,0,0,1,6.51-5.15,13.5,13.5,0,0,0-6.41,2.81,13.9,13.9,0,0,0-3,17.75l7.06,12.23L18.88,47a2.35,2.35,0,0,0-1,3A2.25,2.25,0,0,0,21,51l1.31-.75h0l1.43-.83L45.7,36.74A5,5,0,0,0,48,32.82Z"/><path class="cls-4" d="M45.7,31.51l-2.13,1.24L36.29,20.14a13.56,13.56,0,0,0-18.53-5c-.37.21-.72.44-1.06.68A13.57,13.57,0,0,1,32.5,22l4.08,7.07a6.67,6.67,0,0,1-2.44,9.11L27,42.33h0l-4.15,2.4L18.88,47a2.35,2.35,0,0,0-1,3A2.25,2.25,0,0,0,21,51l1.31-.75,5.9-3.41a6.79,6.79,0,0,0,11.69-6.75l5.9-3.41A4.74,4.74,0,0,0,48,33v-.15A1.51,1.51,0,0,0,45.7,31.51Z"/><circle class="cls-2" cx="36.42" cy="40.9" r="4.08"/><path class="cls-4" d="M32.27,39.27,44.88,32a2.26,2.26,0,0,1,3.08.83h0a2.26,2.26,0,0,1-.82,3.09L21,51a2.26,2.26,0,0,1-3.09-.83h0a2.26,2.26,0,0,1,.83-3.08l4.05-2.34"/><path class="cls-1" d="M32.27,39.27,44.88,32a2.26,2.26,0,0,1,3.08.83h0a2.26,2.26,0,0,1-.82,3.09L21,51a2.26,2.26,0,0,1-3.09-.83h0a2.26,2.26,0,0,1,.83-3.08l4.05-2.34"/><path class="cls-5" d="M31.42,8.72A1.44,1.44,0,0,0,30,10.16V23a.72.72,0,0,0,1.23.51l3.35-3.34h13A1.45,1.45,0,0,0,49,18.69V10.16a1.44,1.44,0,0,0-1.45-1.44Z"/><path class="cls-6" d="M31.2,23.48l3.35-3.34h13A1.45,1.45,0,0,0,49,18.69V10.16a1.44,1.44,0,0,0-1.45-1.44H46.8c0,2.86-.18,7.49-1.55,7.49h-13A3,3,0,0,0,30,19.1V23A.72.72,0,0,0,31.2,23.48Z"/><path class="cls-7" d="M47.58,7.72H31.42A2.45,2.45,0,0,0,29,10.16v2.89a14.39,14.39,0,0,0-7.18-.44l-.28-.48a4.77,4.77,0,0,0-8.26,4.77l.29.5a14.57,14.57,0,0,0-1.61,16.8L18.71,46l-.44.25a3.26,3.26,0,0,0,3.26,5.65L28,48.11a7.78,7.78,0,0,0,13.15-7.59l6.48-3.75a3.26,3.26,0,0,0-3.26-5.64l-.44.25L38,21.13h9.56A2.45,2.45,0,0,0,50,18.69V10.16A2.45,2.45,0,0,0,47.58,7.72ZM16,12.12a2.77,2.77,0,0,1,3.78,1l0,0a15.55,15.55,0,0,0-2.54,1.14A14.91,14.91,0,0,0,15,15.92v0A2.76,2.76,0,0,1,16,12.12ZM36.62,47.84a5.75,5.75,0,0,1-6.82-.76l9.57-5.53A5.74,5.74,0,0,1,36.62,47.84ZM42.2,32.38l-10.43,6a1,1,0,0,0-.37,1.36,1,1,0,0,0,1.37.37l12.61-7.28A1.26,1.26,0,1,1,46.64,35L20.53,50.12a1.26,1.26,0,0,1-1.26-2.19l4.05-2.34a1,1,0,1,0-1-1.73L20.44,45,13.66,33.2A12.58,12.58,0,0,1,18.26,16,12.42,12.42,0,0,1,29,15.18V23A1.71,1.71,0,0,0,30,24.56a1.68,1.68,0,0,0,1.88-.37L35,21.13h.75ZM48,18.69a.45.45,0,0,1-.45.44h-13a1,1,0,0,0-.71.3L31,22.3V10.16a.45.45,0,0,1,.45-.44H47.58a.45.45,0,0,1,.45.44Z"/><path class="cls-7" d="M34.66,13.64h3a1,1,0,0,0,0-2h-3a1,1,0,0,0,0,2Z"/><path class="cls-7" d="M43.26,15.21h-8.6a1,1,0,0,0,0,2h8.6a1,1,0,0,0,0-2Z"/><path class="cls-7" d="M26.47,41.47l-.87.5a1,1,0,1,0,1,1.73l.87-.5a1,1,0,0,0,.36-1.37A1,1,0,0,0,26.47,41.47Z"/></g></g></g></svg>