<?xml version="1.0" encoding="UTF-8"?>
<svg width="40px" height="46px" viewBox="0 0 40 46" version="1.1" xmlns="http://www.w3.org/2000/svg" xmlns:xlink="http://www.w3.org/1999/xlink">
    <!-- Generator: sketchtool 50.2 (55047) - http://www.bohemiancoding.com/sketch -->
    <title>3C84530D-BA8F-4DF6-9E11-18FB8E3A4CDB</title>
    <desc>Created with sketchtool.</desc>
    <defs></defs>
    <g id="Contact-us" stroke="none" stroke-width="1" fill="none" fill-rule="evenodd">
        <g id="Contact" transform="translate(-45.000000, -683.000000)">
            <g id="Message" transform="translate(35.000000, 676.000000)">
                <rect id="Rectangle-path" x="0" y="0" width="60" height="60"></rect>
                <path d="M36.29,20.14 C33.271209,14.9073956 27.1531712,12.3051902 21.29,13.76 L20.65,12.63 C19.9765544,11.4635278 18.7319595,10.744942 17.3850421,10.744927 C16.0381247,10.7449119 14.7935138,11.4634699 14.1200421,12.629927 C13.4465704,13.7963841 13.4465543,15.2335278 14.12,16.4 L14.77,17.52 C10.5767843,21.8672132 9.76153364,28.4625913 12.77,33.7 L22.32,50.23 L45.83,36.66 L36.29,20.14 Z" id="Shape" fill="#FFC670" fill-rule="nonzero"></path>
                <path d="M48,32.82 C47.999796,32.2816613 47.7129997,31.7841455 47.2472484,31.5141746 C46.781497,31.2442037 46.2072397,31.2426131 45.74,31.51 L32.27,39.27 L26.47,42.62 C24.0901816,43.9752647 21.0629449,43.1638404 19.68,40.8 L15.83,34.12 C13.0259105,29.3346388 13.0912932,23.3925019 16,18.67 C17.5089451,16.2519744 19.8096067,14.4319426 22.51,13.52 C20.1634629,13.8768886 17.9524929,14.8461281 16.1,16.33 C10.8863107,20.7125864 9.6161988,28.2274152 13.1,34.08 L20.16,46.31 L18.88,47 C17.8230685,47.5926269 17.3900309,48.8917396 17.88,50 C18.1470577,50.559813 18.6333642,50.9845531 19.2240176,51.1738651 C19.814671,51.3631771 20.4572754,51.3002674 21,51 L22.31,50.25 L23.74,49.42 L45.7,36.74 C47.0505533,35.8774123 47.9058178,34.4197442 48,32.82 Z" id="Shape" fill="#FFE88A" fill-rule="nonzero"></path>
                <path d="M45.7,31.51 L43.57,32.75 L36.29,20.14 C34.497956,17.0174329 31.5376947,14.7357039 28.0617561,13.797782 C24.5858174,12.8598601 20.8795722,13.3427476 17.76,15.14 C17.39,15.35 17.04,15.58 16.7,15.82 C22.7639632,13.928009 29.3289625,16.4958378 32.5,22 L36.58,29.07 C38.4211567,32.2595383 37.3288739,36.3376927 34.14,38.18 L27,42.33 L22.85,44.73 L18.88,47 C17.8230685,47.5926269 17.3900309,48.8917396 17.88,50 C18.1470577,50.559813 18.6333642,50.9845531 19.2240176,51.1738651 C19.814671,51.3631771 20.4572754,51.3002674 21,51 L22.31,50.25 L28.21,46.84 C30.2587708,49.6321068 34.080557,50.4349396 37.0796361,48.7032216 C40.0787151,46.9715036 41.2939654,43.2602023 39.9,40.09 L45.8,36.68 C47.0779075,35.8740486 47.895057,34.5071802 48,33 L48,32.85 C48.0198052,32.2937673 47.7320142,31.7717388 47.251096,31.4915517 C46.7701778,31.2113645 46.1741181,31.2184539 45.7,31.51 Z" id="Shape" fill="#FF9A42" fill-rule="nonzero"></path>
                <circle id="Oval" fill="#FFC670" fill-rule="nonzero" cx="36.42" cy="40.9" r="4.08"></circle>
                <path d="M32.27,39.27 L44.88,32 C45.9600552,31.3812895 47.3370756,31.7523697 47.96,32.83 C48.2611792,33.3484614 48.3439868,33.9653564 48.1901947,34.5448899 C48.0364027,35.1244234 47.6586176,35.6190899 47.14,35.92 L21,51 C20.4803257,51.3003474 19.8625191,51.381632 19.2828419,51.2259259 C18.7031648,51.0702197 18.2092377,50.6903141 17.91,50.17 C17.2912895,49.0899448 17.6623697,47.7129244 18.74,47.09 L22.79,44.75" id="Shape" fill="#FF9A42" fill-rule="nonzero"></path>
                <path d="M32.27,39.27 L44.88,32 C45.9600552,31.3812895 47.3370756,31.7523697 47.96,32.83 C48.2611792,33.3484614 48.3439868,33.9653564 48.1901947,34.5448899 C48.0364027,35.1244234 47.6586176,35.6190899 47.14,35.92 L21,51 C20.4803257,51.3003474 19.8625191,51.381632 19.2828419,51.2259259 C18.7031648,51.0702197 18.2092377,50.6903141 17.91,50.17 C17.2912895,49.0899448 17.6623697,47.7129244 18.74,47.09 L22.79,44.75" id="Shape"></path>
                <path d="M31.42,8.72 C30.6325314,8.73093812 29.999924,9.37245542 30,10.16 L30,23 C29.9992828,23.2917622 30.1747131,23.5551146 30.444227,23.6668643 C30.7137409,23.7786139 31.0240517,23.7166664 31.23,23.51 L34.58,20.17 L47.58,20.17 C47.9645908,20.1621253 48.3302917,20.0017527 48.5966108,19.7241807 C48.86293,19.4466086 49.0080393,19.0745874 49,18.69 L49,10.16 C49.0000093,9.77634931 48.8469235,9.40855602 48.5747044,9.13821433 C48.3024853,8.86787264 47.9336414,8.71733576 47.55,8.72 L31.42,8.72 Z" id="Shape" fill="#96DDFF" fill-rule="nonzero"></path>
                <path d="M31.2,23.48 L34.55,20.14 L47.55,20.14 C48.3508129,20.14 49,19.4908129 49,18.69 L49,10.16 C49.0000093,9.77634931 48.8469235,9.40855602 48.5747044,9.13821433 C48.3024853,8.86787264 47.9336414,8.71733576 47.55,8.72 L46.8,8.72 C46.8,11.58 46.62,16.21 45.25,16.21 L32.25,16.21 C30.930741,16.5506137 30.0066976,17.737496 30,19.1 L30,23 C30.0208878,23.2737317 30.1956192,23.5117641 30.4505116,23.613721 C30.705404,23.715678 30.9960939,23.6638141 31.2,23.48 Z" id="Shape" fill="#69BAF9" fill-rule="nonzero"></path>
                <path d="M47.58,7.72 L31.42,7.72 C30.0825185,7.73636781 29.0053594,8.82242904 29,10.16 L29,13.05 C26.6825119,12.2978457 24.2119881,12.1464487 21.82,12.61 L21.54,12.13 C20.1983652,9.90285913 17.3202491,9.16041678 15.0686879,10.4606524 C12.8171268,11.7608881 12.0216078,14.624788 13.28,16.9 L13.57,17.4 C9.51444423,22.0874451 8.86850988,28.8276296 11.96,34.2 L18.71,46 L18.27,46.25 C16.7097956,47.1502241 16.1747759,49.1447956 17.075,50.705 C17.9752241,52.2652044 19.9697956,52.8002241 21.53,51.9 L28,48.11 C30.4658547,50.7890445 34.4599855,51.399514 37.6135075,49.5793443 C40.7670294,47.7591746 42.2363385,43.9952823 41.15,40.52 L47.63,36.77 C49.1056297,35.8332927 49.5799785,33.8995203 48.705311,32.3862919 C47.8306435,30.8730634 45.9182204,30.318879 44.37,31.13 L43.93,31.38 L38,21.13 L47.56,21.13 C48.9052984,21.1245201 49.9945201,20.0352984 50,18.69 L50,10.16 C49.9946406,8.82242904 48.9174815,7.73636781 47.58,7.72 Z M16,12.12 C17.3203721,11.3553859 19.0104525,11.8024972 19.78,13.12 C18.9009501,13.4232888 18.0508772,13.8048176 17.24,14.26 C16.4431243,14.7421553 15.6931798,15.2979178 15,15.92 C14.6236487,15.2846767 14.5175778,14.5250368 14.7055028,13.8109218 C14.8934278,13.0968068 15.3596749,12.4877769 16,12.12 Z M36.62,47.84 C34.4280853,49.1196361 31.6564439,48.8107728 29.8,47.08 L39.37,41.55 C39.946255,44.0242024 38.827588,46.582899 36.62,47.84 Z M42.2,32.38 L31.77,38.38 C31.2938636,38.6546085 31.1286117,39.2620208 31.4,39.74 C31.5319512,39.9714397 31.750799,40.1406596 32.0079963,40.2101217 C32.2651937,40.2795837 32.5394763,40.243545 32.77,40.11 L45.38,32.83 C45.7694647,32.5529409 46.2821616,32.5200969 46.7037952,32.745196 C47.1254288,32.9702952 47.3833998,33.4145786 47.3698823,33.8923461 C47.3563648,34.3701136 47.0736864,34.7991004 46.64,35 L20.53,50.12 C19.9252482,50.4679394 19.1529394,50.2597518 18.805,49.655 C18.4570607,49.0502482 18.6652482,48.2779394 19.27,47.93 L23.32,45.59 C23.6454784,45.4197371 23.8514125,45.0847387 23.8563839,44.7174501 C23.8613553,44.3501615 23.6645637,44.009712 23.3438128,43.8307021 C23.023062,43.6516923 22.6299891,43.6629406 22.32,43.86 L20.44,45 L13.66,33.2 C11.9865167,30.3097449 11.5310145,26.872659 12.3938855,23.6462717 C13.2567565,20.4198844 15.3671723,17.6690324 18.26,16 C21.5290552,14.1077433 25.4815634,13.8059689 29,15.18 L29,23 C28.9982877,23.6711915 29.3893953,24.2813194 30,24.56 C30.6424684,24.8411437 31.3919824,24.693633 31.88,24.19 L35,21.13 L35.75,21.13 L42.2,32.38 Z M48,18.69 C47.9945628,18.9346143 47.7946747,19.1300604 47.55,19.13 L34.55,19.13 C34.2827541,19.1311094 34.0270714,19.2391444 33.84,19.43 L31,22.3 L31,10.16 C31.0054372,9.91538571 31.2053253,9.71993958 31.45,9.72 L47.58,9.72 C47.8246747,9.71993958 48.0245628,9.91538571 48.03,10.16 L48,18.69 Z" id="Shape" fill="#3D3D63" fill-rule="nonzero"></path>
                <path d="M34.66,13.64 L37.66,13.64 C38.2122847,13.64 38.66,13.1922847 38.66,12.64 C38.66,12.0877153 38.2122847,11.64 37.66,11.64 L34.66,11.64 C34.1077153,11.64 33.66,12.0877153 33.66,12.64 C33.66,13.1922847 34.1077153,13.64 34.66,13.64 Z" id="Shape" fill="#3D3D63" fill-rule="nonzero"></path>
                <path d="M43.26,15.21 L34.66,15.21 C34.1077153,15.21 33.66,15.6577153 33.66,16.21 C33.66,16.7622847 34.1077153,17.21 34.66,17.21 L43.26,17.21 C43.8122847,17.21 44.26,16.7622847 44.26,16.21 C44.26,15.6577153 43.8122847,15.21 43.26,15.21 Z" id="Shape" fill="#3D3D63" fill-rule="nonzero"></path>
                <path d="M26.47,41.47 L25.6,41.97 C25.2745216,42.1402629 25.0685875,42.4752613 25.0636161,42.8425499 C25.0586447,43.2098385 25.2554363,43.550288 25.5761872,43.7292979 C25.896938,43.9083077 26.2900109,43.8970594 26.6,43.7 L27.47,43.2 C27.6997442,43.066372 27.8668418,42.8467828 27.9343886,42.5897298 C28.0019353,42.3326768 27.9643739,42.0593087 27.83,41.83 C27.5519888,41.3574926 26.9453732,41.1969179 26.47,41.47 Z" id="Shape" fill="#3D3D63" fill-rule="nonzero"></path>
            </g>
        </g>
    </g>
</svg>