<svg xmlns="http://www.w3.org/2000/svg" viewBox="0 0 60 60"><defs><style>.cls-1{fill:none;}.cls-2{fill:#edf4ff;}.cls-3{fill:#f6716f;}.cls-4{fill:#ffc670;}.cls-5{fill:#ffa742;}.cls-6{fill:#3d3d63;}</style></defs><title>Music</title><g id="图层_2" data-name="图层 2"><g id="Graphics"><g id="Music"><rect class="cls-1" width="60" height="60"/><path class="cls-2" d="M30,7.67a22.33,22.33,0,0,0,0,44.66h.64A14.75,14.75,0,0,0,33,52.19a1,1,0,0,0,.76-1.4A7.94,7.94,0,0,1,33,47.5a8.1,8.1,0,0,1,7.61-8.08,1,1,0,0,0,.94-1V34.17a3.68,3.68,0,0,1,7.19-1.09,1,1,0,0,0,.79.69,6,6,0,0,1,1.18.31,1,1,0,0,0,.85-.09,1,1,0,0,0,.48-.7A21.18,21.18,0,0,0,52.33,30,22.35,22.35,0,0,0,30,7.67Z"/><path class="cls-3" d="M51.21,23a1,1,0,0,0-1-.69H9.74a1,1,0,0,0-1,.69,22.31,22.31,0,0,0,0,14,1,1,0,0,0,1,.69H40.58a1,1,0,0,0,1-1v-2.5a3.68,3.68,0,0,1,7.19-1.09,1,1,0,0,0,.79.69,6.32,6.32,0,0,1,1.19.31A1,1,0,0,0,51.6,34a1,1,0,0,0,.48-.71A22.22,22.22,0,0,0,52.33,30,22.5,22.5,0,0,0,51.21,23Z"/><circle class="cls-4" cx="30" cy="30" r="9.48"/><circle class="cls-4" cx="41.22" cy="47.33" r="4"/><path class="cls-5" d="M30,34.5a11,11,0,0,1-9.43-5.39,8.69,8.69,0,0,0-.05.89,9.48,9.48,0,0,0,19,0,8.69,8.69,0,0,0,0-.89A11,11,0,0,1,30,34.5Z"/><path class="cls-2" d="M33.41,29.42l-4.62-2.66a.66.66,0,0,0-1,.57v5.34a.66.66,0,0,0,1,.57l4.62-2.66A.67.67,0,0,0,33.41,29.42Z"/><path class="cls-6" d="M32.7,50.16a22.12,22.12,0,0,1-2.7.17A20.34,20.34,0,0,1,11.18,37.67h11.7a10.43,10.43,0,0,0,14.24,0h3.63a1,1,0,0,0,0-2h-2A10.4,10.4,0,0,0,40.48,30a10.27,10.27,0,0,0-.15-1.67h5.26a1,1,0,0,0,0-2H39.8a10.68,10.68,0,0,0-1-2H49.51A20,20,0,0,1,50.33,30a21,21,0,0,1-.24,3.17,1,1,0,0,0,.83,1.15,1,1,0,0,0,1.14-.84A22.27,22.27,0,1,0,33,52.14a1,1,0,0,0-.26-2ZM9.67,30a20,20,0,0,1,.82-5.67H21.2a10.68,10.68,0,0,0-1,2H17.15a1,1,0,0,0,0,2h2.52A10.27,10.27,0,0,0,19.52,30a10.4,10.4,0,0,0,1.68,5.67H10.49A20,20,0,0,1,9.67,30Zm11.85,0A8.48,8.48,0,1,1,30,38.48,8.5,8.5,0,0,1,21.52,30ZM30,9.67A20.34,20.34,0,0,1,48.82,22.33H37.12a10.43,10.43,0,0,0-14.24,0H11.18A20.34,20.34,0,0,1,30,9.67Z"/><path class="cls-6" d="M13.48,26.33H12.4a1,1,0,1,0,0,2h1.08a1,1,0,1,0,0-2Z"/><path class="cls-6" d="M33.91,28.56l-4.62-2.67a1.67,1.67,0,0,0-2.5,1.44v5.34a1.66,1.66,0,0,0,2.5,1.44l4.62-2.67a1.65,1.65,0,0,0,0-2.88Zm-5.12,3.53V27.91L32.41,30Z"/><path class="cls-6" d="M48.28,36.56a2.06,2.06,0,0,1-2.06-2.06,1,1,0,0,0-2,0v8.86a4.92,4.92,0,0,0-3-1,5,5,0,1,0,5,5V38a4,4,0,0,0,2.06.58,2.05,2.05,0,0,1,2,2,1,1,0,0,0,2,0A4.06,4.06,0,0,0,48.28,36.56ZM41.22,50.33a3,3,0,1,1,3-3A3,3,0,0,1,41.22,50.33Z"/></g></g></g></svg>