<?xml version="1.0" encoding="UTF-8"?>
<svg width="26px" height="22px" viewBox="0 0 26 22" version="1.1" xmlns="http://www.w3.org/2000/svg" xmlns:xlink="http://www.w3.org/1999/xlink">
    <!-- Generator: sketchtool 50.2 (55047) - http://www.bohemiancoding.com/sketch -->
    <title>E1469ACC-A55D-49D5-8DD2-437475AD1A9E</title>
    <desc>Created with sketchtool.</desc>
    <defs></defs>
    <g id="Apply" stroke="none" stroke-width="1" fill="none" fill-rule="evenodd">
        <g id="Apply-/-Step-3" transform="translate(-763.000000, -951.000000)" fill="#2BC47D" fill-rule="nonzero">
            <g id="Group-13" transform="translate(729.000000, 439.000000)">
                <path d="M58.8950952,518.056286 L49.4848571,526.681333 C49.4597143,526.706476 49.422,526.697571 49.3952857,526.718 C49.2643333,526.826429 49.111381,526.887714 48.951619,526.901857 C48.9385238,526.902381 48.9280476,526.90919 48.9149524,526.90919 C48.6928571,526.919143 48.4686667,526.844238 48.2994762,526.674524 L43.655381,522.816143 C43.3348095,522.496095 43.3348095,521.975952 43.655381,521.656429 C43.9759524,521.335333 44.4955714,521.335333 44.8166667,521.656429 L48.9128571,525.058571 L57.7751905,516.936381 C58.0847619,516.627333 58.5860476,516.627333 58.8950952,516.936381 C59.2046667,517.245952 59.2046667,517.746714 58.8950952,518.056286 Z M51.2857143,513.570905 L37.1428571,513.570905 C36.2749048,513.570905 35.5714286,514.275429 35.5714286,515.143381 L35.5714286,530.857143 C35.5714286,531.724571 36.2749048,532.428048 37.1428571,532.428048 L51.2857143,532.428048 C52.1531429,532.428048 52.8571429,531.724571 52.8571429,530.857143 L52.8571429,527.714286 L54.4285714,527.714286 L54.4285714,530.857143 C54.4285714,532.592524 53.0210952,534 51.2857143,534 L37.1428571,534 C35.4069524,534 34,532.593048 34,530.857143 L34,515.143381 C34,513.407476 35.4069524,512 37.1428571,512 L51.2857143,512 C53.0210952,512 54.4285714,513.407476 54.4285714,515.143381 L52.8571429,515.143381 C52.8571429,514.275429 52.1531429,513.570905 51.2857143,513.570905 Z" id="others-ico"></path>
            </g>
        </g>
    </g>
</svg>