<?xml version="1.0" encoding="UTF-8"?>
<svg width="720px" height="43px" viewBox="0 0 720 43" version="1.1" xmlns="http://www.w3.org/2000/svg" xmlns:xlink="http://www.w3.org/1999/xlink">
    <!-- Generator: sketchtool 50.2 (55047) - http://www.bohemiancoding.com/sketch -->
    <title>86D0AC6F-1DEA-48FB-8A99-FDB08121FF88</title>
    <desc>Created with sketchtool.</desc>
    <defs></defs>
    <g id="Home" stroke="none" stroke-width="1" fill="none" fill-rule="evenodd">
        <g transform="translate(-409.000000, -3603.000000)" id="payment-medthods">
            <g transform="translate(409.000000, 3603.000000)">
                <path d="M207.822385,33.1836929 L202.214914,33.1836929 L198.009994,17.1332469 C197.81041,16.3949263 197.386637,15.7422082 196.763281,15.4345747 C195.207625,14.6614782 193.493395,14.0462111 191.623327,13.7359024 L191.623327,13.1179603 L200.656523,13.1179603 C201.903236,13.1179603 202.83827,14.0462111 202.994109,15.124266 L205.175856,26.7019878 L210.780593,13.1179603 L216.232225,13.1179603 L207.822385,33.1836929 Z M219.349006,33.1836929 L214.053213,33.1836929 L218.413972,13.1179603 L223.709765,13.1179603 L219.349006,33.1836929 Z M230.561215,18.6767648 C230.717054,17.5960347 231.652088,16.9780926 232.742962,16.9780926 C234.457191,16.8229382 236.324526,17.1332469 237.882916,17.9036683 L238.81795,13.5834232 C237.25956,12.965481 235.545331,12.6551724 233.989674,12.6551724 C228.84972,12.6551724 225.109583,15.4345747 225.109583,19.2920319 C225.109583,22.2265884 227.758846,23.7674312 229.628915,24.695682 C231.652088,25.6212578 232.431284,26.2391999 232.275445,27.1647756 C232.275445,28.5531392 230.717054,29.1710814 229.161398,29.1710814 C227.291329,29.1710814 225.421261,28.7082935 223.709765,27.9351971 L222.774731,32.2581172 C224.6448,33.0285386 226.667973,33.3388472 228.538042,33.3388472 C234.301352,33.4913265 237.882916,30.7145993 237.882916,26.5468335 C237.882916,21.2983376 230.561215,20.9907041 230.561215,18.6767648 L230.561215,18.6767648 Z M256.416826,33.1836929 L252.211906,13.1179603 L247.695308,13.1179603 C246.760273,13.1179603 245.825239,13.7359024 245.513561,14.6614782 L237.727077,33.1836929 L243.17871,33.1836929 L244.266849,30.2518114 L250.965194,30.2518114 L251.58855,33.1836929 L256.416826,33.1836929 Z M248.474503,18.5216104 L250.030159,26.0840456 L245.6694,26.0840456 L248.474503,18.5216104 Z" id="visa-logo" fill="#5B6C94"></path>
                <path d="M343.639844,43 L336.52385,43 C325.763077,42.8260977 317.085035,33.9570795 317.085035,23.1751358 C316.737914,12.3931921 325.068834,3.35027154 335.656045,3.0024669 L343.639844,3.0024669 C354.747738,2.82856458 363.772902,11.8714851 363.946463,23.0012335 L363.946463,23.1751358 C363.599341,34.1309818 354.747738,43 343.639844,43 Z M337.044532,6.48051326 C328.019368,6.48051326 320.556252,13.9583129 320.556252,23.0012335 C320.556252,32.044154 328.019368,39.5219536 337.044532,39.5219536 C346.069696,39.5219536 353.532812,32.044154 353.532812,23.0012335 C353.532812,13.9583129 346.069696,6.48051326 337.044532,6.48051326 Z M339.647945,34.1309818 L339.647945,12.0453874 C345.722574,13.6105083 349.540913,19.6970894 347.978865,25.7836705 C346.9375,29.9573262 343.813405,33.0875679 339.647945,34.1309818 Z M334.44112,34.1309818 C328.36649,32.5658609 324.721712,26.3053775 326.28376,20.2187964 C327.325125,16.2190431 330.44922,13.0888013 334.44112,12.0453874 L334.44112,34.1309818 Z" id="dc-logo" fill="#5B6C94"></path>
                <path d="M492.831247,34.6931725 L488.594807,34.6931725 L488.594807,32.5585553 L492.292195,32.5585553 C492.292195,32.5585553 493.64034,32.7153802 493.64034,31.8243748 C493.64034,30.9893069 491.624796,31.0542345 491.624796,31.0542345 C491.624796,31.0542345 488.340169,31.3369189 488.340169,28.2933163 C488.340169,25.2656959 491.307525,25.438503 491.307525,25.438503 L495.864317,25.438503 L495.864317,27.6030868 L492.196705,27.6030868 C492.196705,27.6030868 490.926595,27.3503689 490.926595,28.2633498 C490.926595,29.0284957 492.656697,28.9196172 492.656697,28.9196172 C492.656697,28.9196172 496.290426,28.6539138 496.290426,31.4457974 C496.290426,34.4384568 493.949397,34.7051591 493.118742,34.7051591 C492.940085,34.7051591 492.831247,34.6931725 492.831247,34.6931725 L492.831247,34.6931725 Z M471.695248,34.7081558 L471.695248,25.4544852 L479.119801,25.4544852 L479.119801,27.6030868 L474.089669,27.6030868 L474.089669,29.0284957 L478.994535,29.0284957 L478.994535,31.1321475 L474.089669,31.1321475 L474.089669,32.7023947 L479.119801,32.7023947 L479.119801,34.7081558 L471.695248,34.7081558 Z M484.437427,34.6931725 L480.199959,34.6931725 L480.199959,32.5585553 L483.913776,32.5585553 C483.913776,32.5585553 485.246519,32.7153802 485.246519,31.8243748 C485.246519,30.9893069 483.230976,31.0542345 483.230976,31.0542345 C483.230976,31.0542345 479.946348,31.3369189 479.946348,28.2933163 C479.946348,25.2656959 482.913705,25.438503 482.913705,25.438503 L487.485898,25.438503 L487.485898,27.6030868 L483.803912,27.6030868 C483.803912,27.6030868 482.532774,27.3503689 482.532774,28.2633498 C482.532774,29.0284957 484.260823,28.9196172 484.260823,28.9196172 C484.260823,28.9196172 487.896605,28.6539138 487.896605,31.4457974 C487.896605,34.4384568 485.555576,34.7051591 484.724922,34.7051591 C484.545238,34.7051591 484.437427,34.6931725 484.437427,34.6931725 L484.437427,34.6931725 Z M452.334529,34.7091547 L450.256353,34.7091547 L447.732559,31.9622209 L445.194391,34.7091547 L443.74973,34.7091547 L436.339552,34.7091547 L436.339552,25.4235197 L443.74973,25.4235197 L445.003412,25.4235197 L447.732559,28.3722283 L450.478134,25.4395019 L452.303726,25.4395019 L452.303726,25.4235197 L458.079291,25.4235197 C458.079291,25.4235197 461.094905,25.0938877 461.094905,28.1504758 C461.094905,30.8804285 460.092781,31.7284818 457.016587,31.7284818 L454.683772,31.7284818 L454.683772,34.7091547 L452.334529,34.7091547 L452.334529,34.7091547 Z M449.351771,30.146248 L452.303726,33.3756432 L452.303726,26.9288394 L449.351771,30.146248 L449.351771,30.146248 Z M438.736027,32.7013958 L443.74973,32.7013958 L446.098973,30.146248 L443.74973,27.6040857 L438.736027,27.6040857 L438.736027,29.0294946 L443.623438,29.0294946 L443.623438,31.1331464 L438.736027,31.1331464 L438.736027,32.7013958 L438.736027,32.7013958 Z M454.683772,29.3111801 L457.142879,29.3111801 C457.857509,29.3111801 458.44482,28.9196172 458.44482,28.4331602 C458.44482,27.948701 457.857509,27.5551403 457.142879,27.5551403 L454.683772,27.5551403 L454.683772,29.3111801 L454.683772,29.3111801 Z M468.20424,34.7241379 L468.20424,32.9201516 C468.20424,32.9201516 468.106697,31.5087271 466.614805,31.5087271 L464.300472,31.5087271 L464.300472,34.7241379 L461.918373,34.7241379 L461.918373,25.4544852 L467.695991,25.4544852 C467.695991,25.4544852 470.710579,25.0938877 470.710579,28.1674568 C470.710579,29.7676706 469.377835,30.3320406 469.377835,30.3320406 C469.377835,30.3320406 470.520627,30.8654452 470.520627,32.4326958 L470.520627,34.7241379 L468.20424,34.7241379 L468.20424,34.7241379 Z M464.300472,29.3281612 L466.759579,29.3281612 C467.474209,29.3281612 468.060493,28.9365983 468.060493,28.4501413 C468.060493,27.9636843 467.474209,27.5721214 466.759579,27.5721214 L464.300472,27.5721214 L464.300472,29.3281612 L464.300472,29.3281612 Z M462.50671,22.0353018 L464.901131,22.0353018 L464.901131,12.7356825 L462.50671,12.7356825 L462.50671,22.0353018 Z M444.067001,22.0033375 L444.067001,12.7346837 L451.493607,12.7346837 L451.493607,14.8982686 L446.463475,14.8982686 L446.463475,16.3256752 L451.367315,16.3256752 L451.367315,18.4273292 L446.463475,18.4273292 L446.463475,19.9975765 L451.493607,19.9975765 L451.493607,22.0033375 L444.067001,22.0033375 Z M440.337783,22.0043364 L440.337783,15.6044802 L437.355025,22.0043364 L435.403141,22.0043364 L432.403954,15.6354457 L432.403954,22.0043364 L430.324751,22.0043364 L430.00748,22.0043364 L427.706495,22.0043364 L426.880974,20.0595073 L422.533643,20.0595073 L421.692721,22.0043364 L419.089866,22.0043364 L423.040866,12.7336848 L426.389153,12.7336848 L430.00748,21.2511771 L430.00748,12.7336848 L433.768528,12.7336848 L436.386784,18.490259 L438.988611,12.7336848 L442.749659,12.7336848 L442.749659,22.0043364 L440.337783,22.0043364 Z M423.549115,17.6901521 L425.865502,17.6901521 L424.707309,14.9302329 L423.549115,17.6901521 Z M487.101887,22.0043364 L483.327492,15.8082528 L483.327492,22.0043364 L481.280118,22.0043364 L480.897134,22.0043364 L478.661862,22.0043364 L477.82094,20.0595073 L473.472582,20.0595073 L472.646034,22.0043364 L470.45594,22.0043364 L470.059608,22.0043364 L468.916817,22.0043364 C468.916817,22.0043364 465.713303,21.5488449 465.713303,17.6282212 C465.713303,12.4829646 469.347032,12.6867372 469.472298,12.6557717 L472.407824,12.7336848 L472.407824,14.8203555 L469.998002,14.851321 C469.998002,14.851321 468.426022,14.851321 468.234017,16.875062 C468.213481,17.1088011 468.202187,17.3205647 468.20424,17.5193428 C468.213481,20.652845 470.954949,19.6809299 471.045305,19.6509634 L473.996233,12.7336848 L477.327065,12.7336848 L480.897134,21.1412998 L480.897134,12.7336848 L484.26185,12.7336848 L487.991068,18.8358732 L487.991068,12.7336848 L490.388569,12.7336848 L490.388569,22.0043364 L487.101887,22.0043364 L487.101887,22.0043364 Z M474.488055,17.6901521 L476.805468,17.6901521 L475.662676,14.9302329 L474.488055,17.6901521 L474.488055,17.6901521 Z M459.014675,22.0043364 L459.014675,20.2003501 C459.014675,20.2003501 458.920213,18.7889256 457.42832,18.7889256 L455.111934,18.7889256 L455.111934,22.0043364 L452.730861,22.0043364 L452.730861,12.7336848 L458.507452,12.7336848 C458.507452,12.7336848 461.52204,12.3730873 461.52204,15.4476553 C461.52204,17.0478691 460.189297,17.6122391 460.189297,17.6122391 C460.189297,17.6122391 461.34749,18.1456437 461.34749,19.7138931 L461.34749,22.0043364 L459.014675,22.0043364 Z M455.111934,16.6083597 L457.571041,16.6083597 C458.285671,16.6083597 458.871955,16.2157979 458.871955,15.7293409 C458.871955,15.2438828 458.285671,14.851321 457.571041,14.851321 L455.111934,14.851321 L455.111934,16.6083597 Z" id="amex-logo" fill="#5B6C94"></path>
                <path d="M608.199617,22.0021501 L607.450662,22.0021501 L607.450662,18.0004188 L608.199617,18.0004188 C609.847318,18.0004188 610.596273,18.7414801 610.596273,19.9271783 C610.596273,21.2610888 609.847318,22.0021501 608.199617,22.0021501 L608.199617,22.0021501 Z M613.292512,19.778966 C613.292512,17.2593574 611.64481,15.925447 608.64899,15.925447 L604.904215,15.925447 L604.904215,29.1163392 L607.450662,29.1163392 L607.450662,23.7806974 L607.750244,23.7806974 L611.195437,29.1163392 L614.341049,29.1163392 L610.296691,23.6324851 C612.094183,23.3360606 613.442303,21.7057256 613.292512,19.778966 L613.292512,19.778966 Z M596.066545,29.1163392 L603.256514,29.1163392 L603.256514,26.8931551 L598.612992,26.8931551 L598.612992,23.3360606 L603.106723,23.3360606 L603.106723,21.1128765 L598.612992,21.1128765 L598.612992,18.148631 L603.256514,18.148631 L603.256514,15.925447 L596.066545,15.925447 L596.066545,29.1163392 L596.066545,29.1163392 Z M588.576994,24.8181833 L585.131801,15.925447 L582.435563,15.925447 L587.97783,29.4127638 L589.325949,29.4127638 L594.868217,15.925447 L592.171979,15.925447 L588.576994,24.8181833 L588.576994,24.8181833 Z M558.169419,22.5949992 C558.169419,26.300306 561.165239,29.4127638 564.910014,29.4127638 C566.108342,29.4127638 567.15688,29.1163392 568.205417,28.6717024 L568.205417,25.707457 C567.456462,26.5967306 566.407924,27.1895797 565.209596,27.1895797 C562.81294,27.1895797 560.865657,25.4110324 560.865657,23.039636 L560.865657,22.7432115 C560.715866,20.3718151 562.663149,18.2968433 565.059805,18.148631 C566.258133,18.148631 567.456462,18.7414801 568.205417,19.6307538 L568.205417,16.6665083 C567.306671,16.0736592 566.108342,15.925447 565.059805,15.925447 C561.165239,15.6290224 558.169419,18.7414801 558.169419,22.5949992 L558.169419,22.5949992 Z M553.525897,20.9646642 C552.027987,20.3718151 551.578614,20.0753906 551.578614,19.3343292 C551.728405,18.4450556 552.47736,17.7039942 553.376106,17.8522065 C554.125061,17.8522065 554.874016,18.2968433 555.47318,18.8896924 L556.8213,17.1111451 C555.772763,16.2218715 554.424643,15.6290224 553.076524,15.6290224 C550.97945,15.4808101 549.181958,17.1111451 549.032167,19.186117 L549.032167,19.3343292 C549.032167,21.1128765 549.781122,22.1503624 552.177778,22.8914238 C552.776942,23.039636 553.376106,23.3360606 553.97527,23.6324851 C554.424643,23.9289097 554.724225,24.3735465 554.724225,24.9663956 C554.724225,26.0038815 553.825479,26.8931551 552.926733,26.8931551 L552.776942,26.8931551 C551.578614,26.8931551 550.530077,26.1520938 550.080704,25.1146079 L548.433003,26.7449429 C549.331749,28.3752779 551.129241,29.2645515 552.926733,29.2645515 C555.323389,29.4127638 557.270673,27.6342165 557.420464,25.2628201 L557.420464,24.8181833 C557.270673,23.039636 556.521718,22.1503624 553.525897,20.9646642 L553.525897,20.9646642 Z M544.838019,29.1163392 L547.384466,29.1163392 L547.384466,15.925447 L544.838019,15.925447 L544.838019,29.1163392 L544.838019,29.1163392 Z M539.745124,25.8556692 C538.846378,26.5967306 537.498259,27.0413674 536.299931,26.8931551 L535.550976,26.8931551 L535.550976,18.148631 L536.299931,18.148631 C537.498259,18.0004188 538.846378,18.4450556 539.745124,19.186117 C540.64387,20.0753906 541.093243,21.2610888 541.093243,22.446787 C541.093243,23.7806974 540.64387,24.9663956 539.745124,25.8556692 L539.745124,25.8556692 Z M536.749304,15.925447 L533.004529,15.925447 L533.004529,29.1163392 L536.749304,29.1163392 C538.397005,29.2645515 540.044706,28.6717024 541.392825,27.6342165 C542.890735,26.300306 543.789481,24.5217588 543.789481,22.5949992 C543.939272,19.0379047 541.093243,16.0736592 537.498259,15.925447 L536.749304,15.925447 L536.749304,15.925447 Z M575.844758,15.6196603 C572.099983,15.6196603 568.954372,18.5839058 568.954372,22.4374249 C568.954372,26.1427317 571.950192,29.2551894 575.844758,29.4034017 C579.739325,29.5516139 582.735145,26.4391562 582.884936,22.5856371 C582.735145,18.732118 579.739325,15.6196603 575.844758,15.6196603 L575.844758,15.6196603 Z" id="discover-logo" fill="#5B6C94"></path>
                <g id="mastercard-logo" transform="translate(656.932072, 3.267627)">
                    <path d="M31.4897856,4.89928383 C34.7713102,2.06265091 39.0279968,0.350234081 43.6793801,0.350234081 C54.0580761,0.350234081 62.4716715,8.87594909 62.4716715,19.3929515 C62.4716715,29.909954 54.0580761,38.435669 43.6793801,38.435669 C39.0279968,38.435669 34.7713102,36.7232521 31.4897856,33.8866192 C28.2082611,36.7232521 23.9515745,38.435669 19.3001912,38.435669 C8.92149523,38.435669 0.507899769,29.909954 0.507899769,19.3929515 C0.507899769,8.87594909 8.92149523,0.350234081 19.3001912,0.350234081 C23.9515745,0.350234081 28.2082611,2.06265091 31.4897856,4.89928383 Z" id="Combined-Shape" fill="#9BA8C6"></path>
                    <path d="M31.4897856,4.89928383 C27.449199,8.39206924 24.8870887,13.5893167 24.8870887,19.3929515 C24.8870887,25.1965864 27.449199,30.3938338 31.4897856,33.8866192 C28.2082611,36.7232521 23.9515745,38.435669 19.3001912,38.435669 C8.92149523,38.435669 0.507899769,29.909954 0.507899769,19.3929515 C0.507899769,8.87594909 8.92149523,0.350234081 19.3001912,0.350234081 C23.9515745,0.350234081 28.2082611,2.06265091 31.4897856,4.89928383 Z" id="Combined-Shape" fill="#32325C"></path>
                    <path d="M31.4897856,33.8866192 C35.5303723,30.3938338 38.0924826,25.1965864 38.0924826,19.3929515 C38.0924826,13.5893167 35.5303723,8.39206924 31.4897856,4.89928383 C34.7713102,2.06265091 39.0279968,0.350234081 43.6793801,0.350234081 C54.0580761,0.350234081 62.4716715,8.87594909 62.4716715,19.3929515 C62.4716715,29.909954 54.0580761,38.435669 43.6793801,38.435669 C39.0279968,38.435669 34.7713102,36.7232521 31.4897856,33.8866192 Z" id="Combined-Shape" fill="#5B6C94"></path>
                </g>
                <g id="Paypal" transform="translate(0.000000, 0.241379)">
                    <g>
                        <path d="M54.0797063,8.44474431 L46.0761536,8.44474431 C45.5284006,8.44474431 45.0625975,8.86696414 44.9770419,9.4408214 L41.7400218,31.2154004 C41.6757731,31.6452716 41.9894772,32.0323644 42.40021,32.0323644 L46.221041,32.0323644 C46.768794,32.0323644 47.234597,31.6104924 47.3201527,31.0355917 L48.1930828,25.1624235 C48.2773273,24.5875229 48.7441138,24.1653031 49.2908833,24.1653031 L51.8244457,24.1653031 C57.0964451,24.1653031 60.13908,21.4584358 60.9339938,16.0947833 C61.2919509,13.747881 60.9490726,11.9042341 59.9132262,10.6128814 C58.7757619,9.19493225 56.758156,8.44474431 54.0797063,8.44474431 Z M55.0027896,16.3977103 C54.5651773,19.4447185 52.3708874,19.4447185 50.2493691,19.4447185 L49.0414279,19.4447185 L49.8887896,13.7541412 C49.9392707,13.4101747 50.2198671,13.1569819 50.5476666,13.1569819 L51.10132,13.1569819 C52.546588,13.1569819 53.9099061,13.1569819 54.6143472,14.0309839 C55.0345862,14.5523245 55.1630836,15.3272057 55.0027896,16.3977103 Z" id="Fill-1" fill="#28356A"></path>
                        <path d="M78.0034973,16.2996329 L74.1708655,16.2996329 C73.8443772,16.2996329 73.5621419,16.5528257 73.5119885,16.8967923 L73.3421884,18.034073 L73.0743762,17.6219392 C72.2447157,16.3441503 70.3942875,15.9170614 68.5477929,15.9170614 C64.3122955,15.9170614 60.695028,19.3205566 59.9905869,24.0947013 C59.6244348,26.476035 60.1449804,28.7533788 61.4184815,30.3413984 C62.5864311,31.8014303 64.257553,32.4100668 66.245657,32.4100668 C69.6583776,32.4100668 71.5504363,30.0819453 71.5504363,30.0819453 L71.3796528,31.2119224 C71.3154041,31.6438804 71.6291082,32.031321 72.0375464,32.031321 L75.4896029,32.031321 C76.0386671,32.031321 76.5021756,31.6091012 76.5887147,31.0342006 L78.6600797,17.116597 C78.7256396,16.6881169 78.4129189,16.2996329 78.0034973,16.2996329 Z M72.661021,24.213994 C72.2912632,26.5368986 70.553598,28.0963992 68.3370178,28.0963992 C67.2241385,28.0963992 66.3348184,27.7176534 65.7634639,27.0001579 C65.1970264,26.2875316 64.9819899,25.2730215 65.1619518,24.1430444 C65.5074525,21.8399639 67.2742918,20.2293379 69.4571087,20.2293379 C70.545403,20.2293379 71.4301339,20.6133005 72.0129614,21.3367085 C72.5967723,22.0681156 72.8285266,23.088886 72.661021,24.213994 Z" id="Fill-2" fill="#28356A"></path>
                        <path d="M98.4155723,16.2996329 L94.5639282,16.2996329 C94.1964649,16.2996329 93.851292,16.4933532 93.6431394,16.8174956 L88.3311484,25.1189495 L86.0794936,17.1412902 C85.9378843,16.6422083 85.5038777,16.2996329 85.0121785,16.2996329 L81.2277332,16.2996329 C80.7675027,16.2996329 80.448226,16.7764561 80.5944246,17.2358897 L84.8368057,30.4443449 L80.8484692,36.418025 C80.5347651,36.888588 80.8507638,37.5354816 81.3926164,37.5354816 L85.2393435,37.5354816 C85.6045122,37.5354816 85.9460792,37.3466304 86.1532485,37.0290961 L98.9629975,17.4108292 C99.2698178,16.9416575 98.9548025,16.2996329 98.4155723,16.2996329" id="Fill-3" fill="#28356A"></path>
                        <path d="M111.166645,8.44474431 L103.162109,8.44474431 C102.615667,8.44474431 102.149864,8.86696414 102.064309,9.4408214 L98.8272885,31.2154004 C98.7630398,31.6452716 99.0767439,32.0323644 99.4851821,32.0323644 L103.592838,32.0323644 C103.974068,32.0323644 104.300557,31.7370888 104.360216,31.3346931 L105.279038,25.1624235 C105.363283,24.5875229 105.830397,24.1653031 106.376839,24.1653031 L108.909418,24.1653031 C114.182401,24.1653031 117.224052,21.4584358 118.019949,16.0947833 C118.379218,13.747881 118.034045,11.9042341 116.998198,10.6128814 C115.861717,9.19493225 113.845423,8.44474431 111.166645,8.44474431 Z M112.090056,16.3977103 C111.653427,19.4447185 109.459138,19.4447185 107.336308,19.4447185 L106.130006,19.4447185 L106.978351,13.7541412 C107.028504,13.4101747 107.307134,13.1569819 107.635917,13.1569819 L108.18957,13.1569819 C109.633527,13.1569819 110.998156,13.1569819 111.702597,14.0309839 C112.122836,14.5523245 112.25035,15.3272057 112.090056,16.3977103 Z" id="Fill-4" fill="#5B6C94"></path>
                        <path d="M135.089453,16.2996329 L131.259116,16.2996329 C130.930333,16.2996329 130.65072,16.5528257 130.60155,16.8967923 L130.43175,18.034073 L130.162626,17.6219392 C129.332966,16.3441503 127.483849,15.9170614 125.637026,15.9170614 C121.401857,15.9170614 117.7859,19.3205566 117.081459,24.0947013 C116.716291,26.476035 117.234542,28.7533788 118.507715,30.3413984 C119.678287,31.8014303 121.346786,32.4100668 123.335218,32.4100668 C126.747611,32.4100668 128.639998,30.0819453 128.639998,30.0819453 L128.469214,31.2119224 C128.404965,31.6438804 128.718342,32.031321 129.129402,32.031321 L132.580475,32.031321 C133.126917,32.031321 133.59272,31.6091012 133.678276,31.0342006 L135.750624,17.116597 C135.81389,16.6881169 135.500186,16.2996329 135.089453,16.2996329 Z M129.747304,24.213994 C129.379841,26.5368986 127.639554,28.0963992 125.422973,28.0963992 C124.312389,28.0963992 123.420774,27.7176534 122.849419,27.0001579 C122.28331,26.2875316 122.07024,25.2730215 122.247907,24.1430444 C122.595703,21.8399639 124.360247,20.2293379 126.543064,20.2293379 C127.631359,20.2293379 128.516089,20.6133005 129.098917,21.3367085 C129.685022,22.0681156 129.916777,23.088886 129.747304,24.213994 Z" id="Fill-5" fill="#5B6C94"></path>
                        <path d="M139.607841,9.04225144 L136.322962,31.2154004 C136.258714,31.6452716 136.57209,32.0323644 136.980528,32.0323644 L140.283108,32.0323644 C140.832172,32.0323644 141.297648,31.6104924 141.381892,31.0355917 L144.621207,9.26205616 C144.685783,8.83218491 144.372079,8.44370093 143.963641,8.44370093 L140.265735,8.44370093 C139.939246,8.44474431 139.658322,8.69828488 139.607841,9.04225144" id="Fill-6" fill="#5B6C94"></path>
                        <path d="M8.50311908,36.2639531 L9.11512075,32.1394844 L7.75180262,32.1057486 L1.24170451,32.1057486 L5.76599324,1.66940294 C5.78008862,1.57723798 5.82565275,1.49168108 5.89219605,1.43081743 C5.95906715,1.36995378 6.04429502,1.33656573 6.13345648,1.33656573 L17.1104784,1.33656573 C20.7549533,1.33656573 23.2698311,2.14100927 24.5826681,3.72902881 C25.1982755,4.47399987 25.5903237,5.25270678 25.7801196,6.10931916 C25.9790939,7.0083622 25.9823719,8.08234476 25.7883146,9.39247827 L25.7742192,9.48777335 L25.7742192,10.3273439 L26.3898267,10.6973949 C26.9080777,10.9891926 27.3201217,11.3230732 27.6361204,11.7052969 C28.1625664,12.3424524 28.5031501,13.1521128 28.6470541,14.1116717 C28.7958751,15.0987062 28.7467051,16.2735485 28.5031501,17.6035062 C28.2222259,19.1330966 27.7682236,20.4654888 27.1549108,21.5554698 C26.5910956,22.5598939 25.8725591,23.3932042 25.019297,24.0387067 C24.2047152,24.6522123 23.2370511,25.1179061 22.1428564,25.4159641 C21.082425,25.7088052 19.8735004,25.8566169 18.5475514,25.8566169 L17.6933059,25.8566169 C17.0826155,25.8566169 16.4892984,26.0899856 16.0234953,26.5083797 C15.556381,26.9354686 15.2475938,27.519064 15.1528598,28.1572629 L15.0882833,28.528705 L14.0068727,35.798607 L13.9580306,36.0653637 C13.9449186,36.1498772 13.9226283,36.1919601 13.8898483,36.220479 C13.8606741,36.2465635 13.8187158,36.2639531 13.7777409,36.2639531 L8.50311908,36.2639531" id="Fill-7" fill="#28356A"></path>
                        <path d="M26.9723264,9.5848074 C26.9398743,9.80704666 26.9021773,10.034155 26.860219,10.2675236 C25.4126564,18.1533658 20.4599337,20.8776227 14.1347145,20.8776227 L10.9140844,20.8776227 C10.1404776,20.8776227 9.48848439,21.4733908 9.36818197,22.2830513 L7.25223618,36.5234061 C7.1738921,37.0551805 7.56003992,37.5340905 8.06550675,37.5340905 L13.7777409,37.5340905 C14.4539912,37.5340905 15.0286238,37.0127498 15.1351586,36.3049926 L15.1912123,35.9971964 L16.2667225,28.7558134 L16.3358882,28.3586346 C16.4411118,27.6484428 17.0170556,27.1267543 17.6933059,27.1267543 L18.5475514,27.1267543 C24.0817904,27.1267543 28.4143164,24.7429861 29.6806059,17.8441784 C30.2093465,14.9623716 29.9356339,12.5559968 28.5359301,10.8636396 C28.1124131,10.3534283 27.5869505,9.92981734 26.9723264,9.5848074" id="Fill-8" fill="#5B6C94"></path>
                        <path d="M25.4582205,8.94417402 C25.2369559,8.87565894 25.0088074,8.81375192 24.7747586,8.75775736 C24.5393985,8.70315397 24.2984659,8.65481085 24.0503217,8.61238019 C23.1819808,8.46352509 22.2303788,8.39292326 21.2112502,8.39292326 L12.6074966,8.39292326 C12.3954104,8.39292326 12.1941415,8.44370093 12.0141795,8.53551809 C11.6172144,8.7379332 11.3225226,9.13650315 11.2510623,9.62445572 L9.42062989,21.9244774 L9.36818197,22.2830513 C9.48848439,21.4733908 10.1404776,20.8776227 10.9140844,20.8776227 L14.1347145,20.8776227 C20.4599337,20.8776227 25.4126564,18.1519746 26.860219,10.2675236 C26.9034885,10.034155 26.9398743,9.80704666 26.9723264,9.5848074 C26.6061744,9.37856658 26.209537,9.20223589 25.7824142,9.05198963 C25.6768628,9.01477585 25.5680334,8.97895325 25.4582205,8.94417402" id="Fill-9" fill="#32325C"></path>
                        <path d="M11.2510623,9.62445572 C11.3225226,9.13650315 11.6172144,8.7379332 12.0141795,8.53690926 C12.1954527,8.44474431 12.3954104,8.39396664 12.6074966,8.39396664 L21.2112502,8.39396664 C22.2303788,8.39396664 23.1819808,8.46491626 24.0503217,8.61377136 C24.2984659,8.65585422 24.5393985,8.70454514 24.7747586,8.75914853 C25.0088074,8.81479529 25.2369559,8.87705011 25.4582205,8.9452174 C25.5680334,8.97999663 25.6768628,9.01616702 25.7833976,9.05198963 C26.2105204,9.20223589 26.6074856,9.37995775 26.9736376,9.5848074 C27.4043662,6.6706559 26.9700318,4.68650095 25.4851001,2.88980604 C23.8477416,0.911563561 20.8929569,0.065037156 17.1117896,0.065037156 L6.13443988,0.065037156 C5.36214425,0.065037156 4.70326726,0.660805329 4.58394824,1.47185692 L0.0118007821,32.2212156 C-0.078344081,32.8295043 0.363857447,33.3783205 0.942095769,33.3783205 L7.71902267,33.3783205 L11.2510623,9.62445572" id="Fill-11" fill="#32325C"></path>
                    </g>
                </g>
            </g>
        </g>
    </g>
</svg>