<?xml version="1.0" encoding="UTF-8"?>
<svg width="24px" height="24px" viewBox="0 0 24 24" version="1.1" xmlns="http://www.w3.org/2000/svg" xmlns:xlink="http://www.w3.org/1999/xlink">
    <!-- Generator: sketchtool 50.2 (55047) - http://www.bohemiancoding.com/sketch -->
    <title>FAC73BF6-2E3D-40BB-8836-DA9949759C7F</title>
    <desc>Created with sketchtool.</desc>
    <defs></defs>
    <g id="Symbols" stroke="none" stroke-width="1" fill="none" fill-rule="evenodd">
        <g id="top-hotline" transform="translate(-909.000000, -17.000000)" fill="#D53A4D">
            <g id="Group-27">
                <g id="Group-26" transform="translate(909.000000, 15.000000)">
                    <g id="Group-25" transform="translate(0.000000, 2.000000)">
                        <path d="M23.2841069,2.6806859 L21.0622741,0.460159591 C20.4493015,-0.15338653 19.4541859,-0.15338653 18.8404413,0.460159591 L15.5076921,4.90121222 C14.9989403,5.65247739 14.8947195,6.50819241 15.5076921,7.12173853 L16.8679664,8.48113391 C15.8597268,9.83511337 14.6492216,11.3113378 13.2866313,12.6730543 C11.7457077,14.2127224 10.0318547,15.6123503 8.4909311,16.7620723 L7.17620516,15.4490991 C6.56323253,14.8355529 5.70707806,14.9392291 4.95437238,15.4490991 L0.510706803,18.7798885 C-0.234278826,19.2944007 -0.103037835,20.3868687 0.510706803,21.0004148 L2.73253959,23.2201675 C3.96002886,24.4472597 5.55576492,24.0542188 7.17620516,23.2201675 C7.17620516,23.2201675 12.0807582,20.4688812 16.2796979,16.2723186 C20.2292798,12.3248882 23.2841069,7.12173853 23.2841069,7.12173853 C23.9210117,5.37084967 24.5115961,3.90700444 23.2841069,2.6806859" id="phone-ico"></path>
                    </g>
                </g>
            </g>
        </g>
    </g>
</svg>