<?xml version="1.0" encoding="UTF-8"?>
<svg width="46px" height="48px" viewBox="0 0 46 48" version="1.1" xmlns="http://www.w3.org/2000/svg" xmlns:xlink="http://www.w3.org/1999/xlink">
    <!-- Generator: sketchtool 50.2 (55047) - http://www.bohemiancoding.com/sketch -->
    <title>2D88B681-9076-4F32-A5F9-A381EFA3FB00</title>
    <desc>Created with sketchtool.</desc>
    <defs></defs>
    <g id="Contact-us" stroke="none" stroke-width="1" fill="none" fill-rule="evenodd">
        <g id="Contact" transform="translate(-1013.000000, -682.000000)">
            <g id="Group-6" transform="translate(35.000000, 676.000000)">
                <g id="Proposal" transform="translate(971.000000, 0.000000)">
                    <rect id="Rectangle-path" x="0" y="0" width="60" height="60"></rect>
                    <path d="M45.59,9.47 L34.12,8.36 C33.8347485,8.33083024 33.5506993,8.42551328 33.34,8.62 C33.1263066,8.81783027 33.0094638,9.09898341 33.02,9.39 L33.58,24.33 C33.5933154,24.7312767 33.8453368,25.0856818 34.22,25.23 L41.43,28 C41.5459561,28.0393746 41.6675416,28.0596389 41.79,28.06 C41.9167923,28.061862 42.0426507,28.038051 42.16,27.99 L46.41,26.32 C46.7589426,26.1832491 47.0021267,25.8628637 47.04,25.49 L48.28,12.73 C48.430943,11.0889375 47.2298725,9.63336511 45.59,9.47 Z" id="Shape" fill="#FFC670" fill-rule="nonzero"></path>
                    <rect id="Rectangle-path" fill="#FFDEAD" fill-rule="nonzero" transform="translate(41.342203, 42.121543) rotate(-45.000000) translate(-41.342203, -42.121543) " x="32.237203" y="39.4565433" width="18.21" height="5.33"></rect>
                    <path d="M46.5455734,32.2271904 L51.8755734,32.2271904 L51.8755734,33.9571904 C51.8755734,34.5698405 51.6321991,35.157398 51.1989901,35.590607 C50.7657811,36.0238161 50.1782235,36.2671904 49.5655734,36.2671904 L48.8555734,36.2671904 C48.2429233,36.2671904 47.6553658,36.0238161 47.2221568,35.590607 C46.7889477,35.157398 46.5455734,34.5698405 46.5455734,33.9571904 L46.5455734,32.2271904 Z" id="Shape" fill="#F6716F" fill-rule="nonzero" transform="translate(49.210573, 34.247190) rotate(-135.000000) translate(-49.210573, -34.247190) "></path>
                    <polygon id="Shape" fill="#FFDEAD" fill-rule="nonzero" points="36.79 50.45 31.13 52.33 33.01 46.68 33.02 46.68"></polygon>
                    <path d="M40.46,15.33 L34.46,15.33 C34.277746,15.33 34.13,15.182254 34.13,15 L34.13,9 C34.1300057,8.38030906 33.883152,7.78614392 33.4440271,7.34889556 C33.0049021,6.9116472 32.4096852,6.66734038 31.79,6.67 L13.79,6.67 C12.1331458,6.67 10.79,8.01314575 10.79,9.67 L10.79,50.33 C10.79,51.9868542 12.1331458,53.33 13.79,53.33 L23.61,53.33 C24.036235,53.3268343 24.4136128,53.0538376 24.55,52.65 L26.25,47.58 L42.5,31.32 C42.6871865,31.1312812 42.7915368,30.875803 42.79,30.61 L42.79,17.67 C42.7926596,17.0503148 42.5483528,16.4550979 42.1111044,16.0159729 C41.6738561,15.576848 41.0796909,15.3299943 40.46,15.33 Z" id="Shape" fill="#FFF6E6" fill-rule="nonzero"></path>
                    <path d="M22.32,14.14 L11.8,14.14 L11.8,29.47 L22.32,29.47 C23.6068235,29.47 24.65,28.4268235 24.65,27.14 L24.65,16.47 C24.65,15.1831765 23.6068235,14.14 22.32,14.14 Z" id="Shape" fill="#FFDEAD" fill-rule="nonzero"></path>
                    <path d="M41.31,16.64 C41.0733842,16.4374364 40.7714673,16.3273256 40.46,16.33 L34.46,16.33 C34.1072621,16.33 33.7689714,16.1898754 33.519548,15.940452 C33.2701246,15.6910286 33.13,15.3527379 33.13,15 L33.13,9 C33.1308678,8.64713371 32.9904165,8.30861003 32.74,8.06 L41.31,16.64 Z" id="Shape" fill="#FFDEAD" fill-rule="nonzero"></path>
                    <rect id="Rectangle-path" fill="#79DEB4" fill-rule="nonzero" x="16.46" y="31.95" width="5.33" height="5.33" rx="0.53"></rect>
                    <rect id="Rectangle-path" fill="#79DEB4" fill-rule="nonzero" x="8.46" y="13.28" width="13.33" height="13.33" rx="1.33"></rect>
                    <path d="M23.61,51.33 L13.79,51.33 C13.2377153,51.33 12.79,50.8822847 12.79,50.33 L12.79,27.61 L20.46,27.61 C21.7468235,27.61 22.79,26.5668235 22.79,25.28 L22.79,14.61 C22.79,13.3231765 21.7468235,12.28 20.46,12.28 L12.79,12.28 L12.79,9.67 C12.79,9.11771525 13.2377153,8.67 13.79,8.67 L31.79,8.67 C31.9739399,8.66992042 32.12459,8.81613966 32.13,9 L32.13,15 C32.13,16.2868235 33.1731765,17.33 34.46,17.33 L40.46,17.33 C40.5492819,17.329959 40.6347705,17.3660961 40.6969532,17.4301631 C40.7591358,17.4942301 40.7927055,17.5807591 40.79,17.67 L40.79,30.67 C40.79,31.2222847 41.2377153,31.67 41.79,31.67 C42.3422847,31.67 42.79,31.2222847 42.79,30.67 L42.79,17.67 C42.7692188,17.0279703 42.4831739,16.423293 42,16 L36.69,10.69 L45.38,11.53 C45.6439475,11.5577136 45.8860524,11.6892149 46.0529866,11.8955381 C46.2199209,12.1018613 46.2979908,12.3660818 46.27,12.63 L45.05,25.31 C45.0221097,25.5754886 45.1015274,25.841108 45.2705699,26.0477155 C45.4396125,26.2543231 45.6842458,26.384766 45.95,26.41 C46.4994401,26.4621958 46.9872823,26.0593903 47.04,25.51 L48.28,12.75 C48.4426618,11.1015095 47.2384408,9.63316554 45.59,9.47 L34.48,8.39 L33.48,7.39 C33.0426678,6.95239835 32.448667,6.70759806 31.83,6.71 L13.83,6.71 C12.1731458,6.71 10.83,8.05314575 10.83,9.71 L10.83,12.32 L9.83,12.32 C8.54545239,12.3254779 7.50547789,13.3654524 7.5,14.65 L7.5,25.28 C7.5,26.5668235 8.54317653,27.61 9.83,27.61 L10.83,27.61 L10.83,50.33 C10.83,51.9868542 12.1731458,53.33 13.83,53.33 L23.65,53.33 C24.2022847,53.33 24.65,52.8822847 24.65,52.33 C24.65,51.7777153 24.2022847,51.33 23.65,51.33 L23.61,51.33 Z M34.13,10.86 L38.59,15.33 L34.46,15.33 C34.277746,15.33 34.13,15.182254 34.13,15 L34.13,10.86 Z M9.46,25.28 L9.46,14.61 C9.46,14.427746 9.60774603,14.28 9.79,14.28 L20.46,14.28 C20.642254,14.28 20.79,14.427746 20.79,14.61 L20.79,25.28 C20.79,25.462254 20.642254,25.61 20.46,25.61 L9.79,25.61 C9.60774603,25.61 9.46,25.462254 9.46,25.28 Z" id="Shape" fill="#3D3D63" fill-rule="nonzero"></path>
                    <path d="M17,31 C16.5924889,30.9973365 16.2007535,31.1573558 15.9116564,31.4445757 C15.6225593,31.7317955 15.4599913,32.1224802 15.46,32.53 L15.46,36.8 C15.492245,37.6269994 16.1723724,38.2806284 17,38.28 L21.26,38.28 C21.6657812,38.28 22.0549427,38.118804 22.3418734,37.8318734 C22.628804,37.5449427 22.79,37.1557812 22.79,36.75 L22.79,32.48 C22.7682304,31.6522885 22.0879778,30.9942664 21.26,31 L17,31 Z M20.79,36.33 L17.46,36.33 L17.46,33 L20.79,33 L20.79,36.33 Z" id="Shape" fill="#3D3D63" fill-rule="nonzero"></path>
                    <path d="M35.46,36.64 C35.46,36.0877153 35.0122847,35.64 34.46,35.64 L26.46,35.64 C25.9077153,35.64 25.46,36.0877153 25.46,36.64 C25.46,37.1922847 25.9077153,37.64 26.46,37.64 L34.46,37.64 C35.0122847,37.64 35.46,37.1922847 35.46,36.64 Z" id="Shape" fill="#3D3D63" fill-rule="nonzero"></path>
                    <path d="M26.46,31.59 C25.9077153,31.59 25.46,32.0377153 25.46,32.59 C25.46,33.1422847 25.9077153,33.59 26.46,33.59 L29.79,33.59 C30.3422847,33.59 30.79,33.1422847 30.79,32.59 C30.79,32.0377153 30.3422847,31.59 29.79,31.59 L26.46,31.59 Z" id="Shape" fill="#3D3D63" fill-rule="nonzero"></path>
                    <path d="M34.13,23.28 C34.13,22.7277153 33.6822847,22.28 33.13,22.28 L26.46,22.28 C25.9077153,22.28 25.46,22.7277153 25.46,23.28 C25.46,23.8322847 25.9077153,24.28 26.46,24.28 L33.13,24.28 C33.6822847,24.28 34.13,23.8322847 34.13,23.28 Z" id="Shape" fill="#3D3D63" fill-rule="nonzero"></path>
                    <path d="M26.46,20.22 L29.79,20.22 C30.3422847,20.22 30.79,19.7722847 30.79,19.22 C30.79,18.6677153 30.3422847,18.22 29.79,18.22 L26.46,18.22 C25.9077153,18.22 25.46,18.6677153 25.46,19.22 C25.46,19.7722847 25.9077153,20.22 26.46,20.22 Z" id="Shape" fill="#3D3D63" fill-rule="nonzero"></path>
                    <path d="M17,17.4 L14,20.4 L13.14,19.54 C12.7499625,19.1522764 12.1200375,19.1522764 11.73,19.54 C11.5406873,19.7277666 11.4342017,19.9833625 11.4342017,20.25 C11.4342017,20.5166375 11.5406873,20.7722334 11.73,20.96 L13.29,22.52 C13.4770714,22.7108556 13.7327541,22.8188906 14,22.82 C14.2672459,22.8188906 14.5229286,22.7108556 14.71,22.52 L18.39,18.85 C18.7904064,18.4661621 18.8038379,17.8304064 18.42,17.43 C18.0361621,17.0295936 17.4004064,17.0161621 17,17.4 Z" id="Shape" fill="#3D3D63" fill-rule="nonzero"></path>
                    <path d="M51.57,32.4 L51.06,31.89 C49.7674844,30.5980624 47.6725156,30.5980624 46.38,31.89 L32.31,46 C32.1969847,46.1065423 32.1141811,46.2410982 32.07,46.39 L30.18,52 C30.0638513,52.3576084 30.1581146,52.7501444 30.4239851,53.0160149 C30.6898556,53.2818854 31.0823916,53.3761487 31.44,53.26 L37.1,51.4 C37.2477761,51.3483417 37.3813602,51.2627109 37.49,51.15 L51.57,37.08 C52.8619376,35.7874844 52.8619376,33.6925156 51.57,32.4 Z M32.71,50.75 L33.45,48.53 L34.93,50 L32.71,50.75 Z M36.79,49 L34.43,46.65 L43.43,37.65 L45.79,40 L36.79,49 Z M47.21,38.61 L44.85,36.26 L45.85,35.26 L48.2,37.62 L47.21,38.61 Z M50.15,35.61 L49.67,36.1 L47.31,33.8 L47.8,33.31 C48.3112857,32.8001572 49.1387143,32.8001572 49.65,33.31 L50.15,33.81 C50.6598428,34.3212857 50.6598428,35.1487143 50.15,35.66 L50.15,35.61 Z" id="Shape" fill="#3D3D63" fill-rule="nonzero"></path>
                </g>
            </g>
        </g>
    </g>
</svg>