<svg xmlns="http://www.w3.org/2000/svg" viewBox="0 0 60 60"><defs><style>.cls-1{fill:none;}.cls-2{fill:#96ddff;}.cls-3{fill:#69baf9;}.cls-4{fill:#d8e3f0;}.cls-5{fill:#fcfeff;}.cls-6{fill:#ffe3ba;}.cls-7{fill:#3d3d63;}</style></defs><title>Research</title><g id="图层_2" data-name="图层 2"><g id="Graphics"><g id="Research"><rect class="cls-1" width="60" height="60"/><path class="cls-2" d="M22.75,17l2.15,7.32A10.38,10.38,0,0,0,31.77,43.9l2.13,7.32A18,18,0,0,1,22.75,17Z"/><path class="cls-3" d="M32.34,45.86a18,18,0,0,1-21.8-14.12A18,18,0,0,0,33.9,51.22Z"/><rect class="cls-4" x="28.2" y="42.18" width="13.04" height="4.97" transform="translate(68.88 -0.44) rotate(75)"/><rect class="cls-5" x="19.74" y="17.71" width="15.93" height="7.16" transform="translate(40.53 -11.21) rotate(74)"/><rect class="cls-4" x="24.2" y="13.86" width="3.25" height="15.93" transform="translate(-5.02 7.96) rotate(-16)"/><rect class="cls-4" x="28.44" y="29" width="4.02" height="3.76" transform="translate(9.16 68.67) rotate(-106)"/><path class="cls-4" d="M24.9,3.05h0a.76.76,0,0,1,.76.76v8.77a.76.76,0,0,1-.76.76h0a2.67,2.67,0,0,1-2.67-2.67V5.72A2.67,2.67,0,0,1,24.9,3.05Z" transform="translate(22.67 33.47) rotate(-106)"/><rect class="cls-4" x="22.49" y="9.76" width="4.95" height="3.94" transform="translate(-2.27 7.34) rotate(-16)"/><path class="cls-3" d="M12,49.42H44.76a0,0,0,0,1,0,0v1.33a3.33,3.33,0,0,1-3.33,3.33H15.33A3.33,3.33,0,0,1,12,50.76V49.42A0,0,0,0,1,12,49.42Z" transform="translate(56.75 103.51) rotate(-180)"/><rect class="cls-5" x="27.12" y="36.86" width="14.76" height="3.33" transform="translate(77.8 66.81) rotate(165)"/><circle class="cls-5" cx="18" cy="34.54" r="3.98"/><rect class="cls-6" x="37.62" y="9.02" width="14.01" height="17.13" rx="2" ry="2"/><path class="cls-7" d="M49.62,8h-10a3,3,0,0,0-3,3V24.16a3,3,0,0,0,3,3h10a3,3,0,0,0,3-3V11A3,3,0,0,0,49.62,8Zm1,16.14a1,1,0,0,1-1,1h-10a1,1,0,0,1-1-1V11a1,1,0,0,1,1-1h10a1,1,0,0,1,1,1Z"/><path class="cls-7" d="M47.65,12.76H44.21a1,1,0,0,0,0,2h3.44a1,1,0,0,0,0-2Z"/><path class="cls-7" d="M47.65,16.59H44.21a1,1,0,0,0,0,2h3.44a1,1,0,0,0,0-2Z"/><path class="cls-7" d="M47.65,20.42H44.21a1,1,0,1,0,0,2h3.44a1,1,0,0,0,0-2Z"/><path class="cls-7" d="M40.89,13.05l-.13.15-.09.17-.06.19a1.36,1.36,0,0,0,0,.2,1,1,0,0,0,.3.7,1,1,0,0,0,.7.3,1,1,0,0,0,.71-.3,1,1,0,0,0,0-1.41A1,1,0,0,0,40.89,13.05Z"/><path class="cls-7" d="M42.3,16.88a1,1,0,0,0-.9-.27.6.6,0,0,0-.19.06.56.56,0,0,0-.17.09l-.15.12a1,1,0,0,0,0,1.42,1,1,0,0,0,1.63-1.09A1.19,1.19,0,0,0,42.3,16.88Z"/><path class="cls-7" d="M40.89,20.72a1,1,0,0,0-.3.7,1,1,0,0,0,.08.39.87.87,0,0,0,.22.32,1,1,0,0,0,1.41,0,1,1,0,0,0,.22-.32,1,1,0,0,0,.07-.39,1,1,0,0,0-.29-.7A1,1,0,0,0,40.89,20.72Z"/><path class="cls-7" d="M48.38,53.09H45.76v-.33a4.35,4.35,0,0,0-4.34-4.34H39.34l-2.11-7.87,5.09-1.36A1,1,0,0,0,43,38l-.86-3.22a1,1,0,0,0-1.23-.7L26.68,37.86A1,1,0,0,0,26,39.08l.87,3.22a1,1,0,0,0,1.22.71l2.43-.65.22.79a9.17,9.17,0,0,1-10.37-4.24A5,5,0,0,0,20,30a9.38,9.38,0,0,1,4.24-4.25l1.32,4.59a1,1,0,0,0,1.24.68l.67-.19.83,2.91a1,1,0,0,0,1.24.68l3.61-1a1,1,0,0,0,.69-1.24L33,29.2l.67-.19a1,1,0,0,0,.68-1.24L29.92,12.46a1,1,0,0,0-1.23-.69l-.1,0-.58-2A3.66,3.66,0,0,0,29.6,5.67a1.75,1.75,0,0,0-2.17-1.2L19,6.88a1.76,1.76,0,0,0-1.2,2.18,3.67,3.67,0,0,0,3.53,2.64l.58,2-.11,0A1,1,0,0,0,21.12,15l.4,1.41a19,19,0,0,0-5.61,32h-.58A4.35,4.35,0,0,0,11,52.76v.33H8.38a1,1,0,0,0,0,2h40a1,1,0,0,0,0-2ZM37.27,48.42H34.19l-1.76-6.58,2.87-.77Zm-8.76-7.6-.35-1.29,12.33-3.3.35,1.29ZM21,34.54a3,3,0,1,1-3-3A3,3,0,0,1,21,34.54Zm8.93-2.36-.56-1.94L31,29.75l.56,1.95Zm2.22-4.82-5,1.42-.46-1.61,4.95-1.42ZM28.28,14l2.82,9.86-5,1.42-2.82-9.86Zm-5-2.68,2.84-.81.53,1.87-2.83.81ZM21.78,9.65a1.68,1.68,0,0,1-2-.92l7.93-2.27a1.66,1.66,0,0,1-1.19,1.82ZM11.38,34.09A17,17,0,0,1,22.07,18.31l1.57,5.45a11.41,11.41,0,0,0-5.7,5.81,5,5,0,0,0,.06,10c.12,0,.23,0,.35,0a11.41,11.41,0,0,0,10,6,11.11,11.11,0,0,0,2.85-.38l.89,3.32H19.24A16.88,16.88,0,0,1,11.38,34.09Zm32.38,19H13v-.33a2.34,2.34,0,0,1,2.34-2.34H41.42a2.34,2.34,0,0,1,2.34,2.34Z"/><path class="cls-7" d="M16.67,34.54A1.33,1.33,0,1,0,18,33.21,1.32,1.32,0,0,0,16.67,34.54Z"/></g></g></g></svg>