<?xml version="1.0" encoding="UTF-8"?>
<svg width="86px" height="76px" viewBox="0 0 86 76" version="1.1" xmlns="http://www.w3.org/2000/svg" xmlns:xlink="http://www.w3.org/1999/xlink">
    <!-- Generator: sketchtool 50.2 (55047) - http://www.bohemiancoding.com/sketch -->
    <title>78FA9CAC-02F2-45AD-9822-7FAE0F0F9B8C</title>
    <desc>Created with sketchtool.</desc>
    <defs></defs>
    <g id="Other-Services" stroke="none" stroke-width="1" fill="none" fill-rule="evenodd">
        <g transform="translate(-678.000000, -192.000000)" id="Share">
            <g transform="translate(670.000000, 180.000000)">
                <rect id="Rectangle-path" x="0" y="0" width="100" height="100"></rect>
                <circle id="Oval" fill="#EDF4FF" fill-rule="nonzero" cx="49.047619" cy="55.7142857" r="30"></circle>
                <path d="M78.1687035,48.7065457 C75.4900887,37.6536517 66.7906696,29.0557349 55.6900951,26.4902113 C44.5895205,23.9246876 32.9886187,27.8308695 25.7142857,36.5834752 C29.2257953,33.6136346 33.3772532,31.4934776 37.8448927,30.3883523 C50.5730232,27.1273752 63.9503189,32.478751 70.8977427,43.610623 C77.8451666,54.7424949 76.7586827,69.0847127 68.2132399,79.047619 C77.0671228,71.6624792 80.9306036,59.8878238 78.1687035,48.7065457 Z" id="Shape" fill="#FCFEFF" fill-rule="nonzero"></path>
                <path d="M74.2857143,72.6600765 C67.3721575,82.643323 55.1599146,87.5368409 43.2581107,85.0930207 C31.3563068,82.6492005 22.0653211,73.3403834 19.6525352,61.4421411 C17.2397494,49.5438988 22.1715063,37.355922 32.1826331,30.4761905 C23.8583546,42.4965336 25.3152558,58.7421645 35.6457233,69.0924584 C45.9761908,79.4427523 62.2318019,80.9436277 74.2857143,72.6600765 Z" id="Shape" fill="#D8E3F0" fill-rule="nonzero"></path>
                <circle id="Oval" fill="#D8E3F0" fill-rule="nonzero" cx="32.3809524" cy="65.7142857" r="5.71428571"></circle>
                <circle id="Oval" fill="#D8E3F0" fill-rule="nonzero" cx="60" cy="44.7619048" r="4.76190476"></circle>
                <circle id="Oval" fill="#D8E3F0" fill-rule="nonzero" cx="66.1904762" cy="53.8095238" r="2.38095238"></circle>
                <circle id="Oval" fill="#D8E3F0" fill-rule="nonzero" cx="33.8095238" cy="38.5714286" r="3.33333333"></circle>
                <circle id="Oval" fill="#69BAF9" fill-rule="nonzero" cx="24.2857143" cy="38.5714286" r="8.0952381"></circle>
                <path d="M28.5690097,45.7142857 C30.378903,42.4830989 29.8036527,38.4633392 27.1574174,35.8502989 C24.5111822,33.2372586 20.4300609,32.6590573 17.1428571,34.4314653 C18.2718378,32.5187558 20.1479461,31.1454062 22.3334987,30.6318096 C26.2886599,29.8688387 30.2388104,31.9701921 31.7582802,35.645491 C33.2777499,39.3207899 31.9410507,43.5408617 28.5690097,45.7142857 Z" id="Shape" fill="#96DDFF" fill-rule="nonzero"></path>
                <circle id="Oval" fill="#D8E3F0" fill-rule="nonzero" cx="56.6666667" cy="78.5714286" r="2.38095238"></circle>
                <path d="M90.7041917,23.2653424 L78.1945333,14.6144241 C77.6835723,14.2341585 76.9971122,14.1792943 76.4311691,14.4734902 C75.8652261,14.7676862 75.5210226,15.3583234 75.5469865,15.9907066 L75.5469865,20.2178598 C64.9131442,20.2221352 55.5217797,27.0834226 52.3809524,37.1428571 C59.1350134,32.3690453 67.2492998,29.8496782 75.5469865,29.9501429 L75.5469865,33.2270059 C75.5210226,33.859389 75.8652261,34.4500263 76.4311691,34.7442222 C76.9971122,35.0384181 77.6835723,34.983554 78.1945333,34.6032883 L90.737286,25.95237 C91.1769705,25.6405953 91.4350427,25.1357513 91.428448,24.6003106 C91.4218534,24.0648698 91.1514241,23.5664076 90.7041917,23.2653424 Z" id="Shape" fill="#FFC670" fill-rule="nonzero"></path>
                <rect id="Rectangle-path" x="0" y="0" width="100" height="100"></rect>
                <path d="M41.0036886,73.3594557 C40.2451619,73.3594557 39.5034913,73.502871 38.7786769,73.5566517 C37.8477375,73.586354 37.1157022,74.4130478 37.1436304,75.403124 C37.1715586,76.3932002 37.9488744,77.171737 38.8798138,77.1420347 L38.9978068,77.1420347 L41.3239554,76.9269118 C42.2548949,76.8328545 42.9378762,75.9539907 42.849437,74.9639146 C42.7609977,73.9738384 41.934628,73.2474715 41.0036886,73.3415287 L41.0036886,73.3594557 Z" id="Shape" fill="#3D3D63" fill-rule="nonzero"></path>
                <path d="M10.3636203,40.9509895 C11.3153509,40.9509895 12.086881,40.1735429 12.086881,39.214514 C12.084409,34.48162 14.7598182,30.161399 18.9799238,28.0837054 C19.5490103,27.8273879 19.9363661,27.2813664 19.9928828,26.655826 C20.0493995,26.0302856 19.7662656,25.4227535 19.2524706,25.0670929 C18.7386755,24.7114323 18.0743244,24.6630937 17.5151522,24.9406846 C12.0647409,27.5773259 8.59040112,33.1222352 8.57142912,39.214514 C8.57105358,39.687347 8.76204228,40.1398879 9.10028226,40.4676127 C9.43852225,40.7953375 9.89476097,40.969903 10.3636203,40.9509895 Z" id="Shape" fill="#3D3D63" fill-rule="nonzero"></path>
                <path d="M13.3323922,50.9024012 C13.3049456,49.5943109 12.227205,48.55346 10.9190491,48.5716638 C9.6108931,48.5898675 8.56252806,49.6603045 8.57148555,50.9686521 C8.58044303,52.2769997 9.6433664,53.3329798 10.951649,53.3332678 C11.5932396,53.3380416 12.2092149,53.081816 12.6581668,52.623412 C13.1071187,52.1650079 13.3504834,51.5438014 13.3323922,50.9024012 Z" id="Shape" fill="#3D3D63" fill-rule="nonzero"></path>
                <circle id="Oval" fill="#3D3D63" fill-rule="nonzero" cx="28.0952381" cy="23.3333333" r="2.38095238"></circle>
                <path d="M91.8681182,21.8126371 L79.2051054,13.0113823 C78.1785339,12.272194 76.8214393,12.1754077 75.6999402,12.7613982 C74.578441,13.3473888 73.8851822,14.515498 73.9093599,15.7784435 L73.9093599,18.4788285 C70.2440056,18.7072668 66.6685933,19.7070872 63.4181039,21.4125801 C57.9706664,19.1225574 52.0558026,18.1570092 46.1609902,18.5955118 C45.2383531,18.6645572 44.5465039,19.4668281 44.6157017,20.3874339 C44.6848995,21.3080397 45.4889404,21.9983658 46.4115775,21.9293204 C50.9662425,21.5887601 55.5433099,22.1553843 59.8764697,23.5962247 C59.1783814,24.1151048 58.5091559,24.6715649 57.8717711,25.2631291 C54.9828681,24.4317579 51.9909313,24.0108909 48.984274,24.0129508 C41.9551285,24.0169165 35.1287346,26.3636401 29.5888151,30.6805681 C25.0748613,28.2962369 19.4860001,29.6797994 16.6125137,33.8929441 C13.7390273,38.1060887 14.4999386,43.8013319 18.3792087,47.1162447 C18.0978012,48.0653571 17.8636334,49.027782 17.6775642,49.9999892 C11.4629986,55.1007164 8.58959725,60.6015007 9.7924164,65.4855303 C10.9952356,70.36956 16.1740403,73.9700733 24.0591881,75.4869563 C31.7625011,85.2912306 44.5107345,89.6786548 56.6336238,86.697754 C68.7565131,83.7168533 78.0019106,73.9214089 80.2575722,61.6683194 C86.455432,56.6676065 89.3956566,51.1168151 88.1594258,46.1494402 C87.6132847,44.1073724 86.4459585,42.2845289 84.8182615,40.9320297 C84.14177,40.5730468 83.3072583,40.7192691 82.7938182,41.2867507 C82.2803781,41.8542323 82.2196528,42.6974739 82.6465047,43.3323719 C83.7701047,44.2684491 84.5802971,45.5246813 84.9686139,46.9328852 C85.6869642,49.8332988 84.1333228,53.2504526 80.8255701,56.6342684 C80.8255701,56.3675637 80.8255701,56.08419 80.8255701,55.8008162 C80.801425,46.7125276 76.8939428,38.0658673 70.0837268,32.0307606 C71.3533692,31.8640702 72.6230117,31.7307178 73.9093599,31.6807107 L73.9093599,33.347615 C73.8916322,34.6075659 74.5873674,35.7698311 75.7075624,36.3516142 C76.8277573,36.9333973 78.1809775,36.8352752 79.2051054,36.0980071 L91.8681182,27.2967523 C92.7845598,26.676308 93.3333333,25.6430698 93.3333333,24.5380257 C93.3333333,23.4329816 92.7845598,22.3997434 91.8681182,21.779299 L91.8681182,21.8126371 Z M24.0424823,32.2474582 C27.7330305,32.2474582 30.7248109,35.2326521 30.7248109,38.9150755 C30.7248109,42.5974988 27.7330305,45.5826927 24.0424823,45.5826927 C20.3519341,45.5826927 17.3601536,42.5974988 17.3601536,38.9150755 C17.3601536,35.2326521 20.3519341,32.2474582 24.0424823,32.2474582 Z M13.0333458,64.6854163 C12.3317013,61.8350099 13.8352252,58.417856 17.1596838,54.9840331 C17.1596838,55.2674069 17.1596838,55.5341115 17.1596838,55.8008162 C17.1648703,61.2641603 18.5863616,66.6332626 21.2860217,71.3863716 C16.7086266,70.0028411 13.768402,67.6191679 13.0333458,64.6854163 Z M77.4844058,55.8008162 C77.4720172,57.1456169 77.365958,58.4879318 77.1669952,59.8180557 C74.5448125,61.7408306 71.748362,63.415007 68.8140843,64.8187686 C67.0974818,62.7071887 64.2336137,61.9041184 61.6659168,62.8143182 C59.0982198,63.7245181 57.38402,66.1504267 57.3873023,68.8693461 C57.3873023,69.0193675 57.3873023,69.1693889 57.3873023,69.3360793 C55.8169551,69.8194816 54.2131962,70.2695458 52.6094373,70.6696028 C51.0056784,71.0696598 49.5188603,71.3863716 47.9819247,71.6864144 C47.0592877,71.773872 46.3823973,72.5910688 46.4700479,73.5116747 C46.5576984,74.4322805 47.3766983,75.1076806 48.2993353,75.0202231 C48.3988901,75.0367001 48.5004853,75.0367001 48.6000401,75.0202231 C50.2706223,74.7201803 51.8242637,74.3701304 53.4113168,73.9700733 C54.9983698,73.5700163 56.7524811,73.069945 58.4230633,72.5532047 C60.039378,74.8104217 62.9236397,75.7798179 65.5792537,74.95839 C68.2348677,74.136962 70.0638362,71.7096811 70.1171384,68.9360223 C70.1094462,68.600572 70.0759359,68.2662072 70.0169035,67.9358797 C72.0130047,66.928906 73.9536561,65.8160445 75.8305294,64.6020711 C72.7961164,73.9005572 65.17127,80.9808735 55.6585291,83.3334835 C46.1457881,85.6860935 36.0895864,82.9785033 29.0542288,76.1703871 C30.440812,76.2870704 31.8775126,76.3704156 33.3643308,76.3870846 C34.2869678,76.3870846 35.0349129,75.6407861 35.0349129,74.7201803 C35.0349129,73.7995745 34.2869678,73.053276 33.3643308,73.053276 C30.8181671,73.0351052 28.2770934,72.8233509 25.7631819,72.4198523 C22.2155898,67.5817035 20.2971255,61.7456035 20.2836724,55.7508091 C20.3674476,53.2755615 20.7717414,50.8215222 21.4864916,48.4497682 C22.3290973,48.6861025 23.2006407,48.8039226 24.0758939,48.7998181 C27.8160104,48.7526347 31.2186481,46.6314876 32.9012411,43.298245 C34.5838342,39.9650025 34.2664245,35.9742657 32.0779825,32.947558 C38.7288351,28.020939 47.2038695,26.2371245 55.2823688,28.0635283 C53.1916288,30.66003 51.6154891,33.6299998 50.6381504,36.814776 C50.4853541,37.317861 50.5793474,37.8633869 50.8917556,38.2866704 C51.2041638,38.7099539 51.6983774,38.9613927 52.2252034,38.9650826 C52.5847739,38.9699069 52.9363068,38.8588332 53.2275527,38.6483708 C56.9988222,35.8961407 61.2803872,33.9187183 65.8237423,32.8308747 C73.1419968,38.2086369 77.4689292,46.7321127 77.4844058,55.8008162 Z M66.9597381,68.9526913 C66.9597199,70.2082161 66.2008345,71.33979 65.0376702,71.8186864 C63.8745059,72.2975829 62.5367076,72.0292527 61.6493602,71.1390729 C60.7620128,70.2488931 60.5003063,68.9126129 60.9865228,67.7546079 C61.4727392,66.5966028 62.6108844,65.8454992 63.8691611,65.8522493 C64.6917358,65.8522373 65.4803785,66.1794211 66.0604568,66.7613509 C66.640535,67.3432807 66.9641845,68.1319396 66.9597381,68.9526913 Z M89.9803604,24.5963673 L77.2505243,33.330946 L77.2505243,29.9971373 C77.2505243,29.0765315 76.5025792,28.330233 75.5799421,28.330233 C68.7284755,28.2871476 61.9691432,29.9060447 55.8837784,33.0475722 C59.9476997,26.0377183 67.4639801,21.7376169 75.5799421,21.779299 C76.5025792,21.779299 77.2505243,21.0330005 77.2505243,20.1123947 L77.2505243,15.7617744 L89.9803604,24.5463602 L89.9803604,24.5963673 Z" id="Shape" fill="#3D3D63" fill-rule="nonzero"></path>
            </g>
        </g>
    </g>
</svg>