<svg xmlns="http://www.w3.org/2000/svg" viewBox="0 0 60 60"><defs><style>.cls-1{fill:none;}.cls-2{fill:#edf4ff;}.cls-3{fill:#fcfeff;}.cls-4{fill:#d8e3f0;}.cls-5{fill:#69baf9;}.cls-6{fill:#96ddff;}.cls-7{fill:#ffc670;}.cls-8{fill:#3d3d63;}</style></defs><title>Share</title><g id="图层_2" data-name="图层 2"><g id="Graphics"><g id="Share"><rect class="cls-1" width="60" height="60"/><circle class="cls-2" cx="29.45" cy="33.48" r="18.06"/><path class="cls-3" d="M47,29.14a18,18,0,0,0-31.35-7.26,17.86,17.86,0,0,1,7.25-3.71A18,18,0,0,1,41.05,47.31,18.05,18.05,0,0,0,47,29.14Z"/><path class="cls-4" d="M44.3,43.78A18.07,18.07,0,1,1,19.2,18.61,18.07,18.07,0,0,0,44.3,43.78Z"/><circle class="cls-4" cx="19.49" cy="39.04" r="3.32"/><circle class="cls-4" cx="36.31" cy="27.17" r="2.88"/><circle class="cls-4" cx="40.02" cy="32.44" r="1.51"/><circle class="cls-4" cx="20.72" cy="23.34" r="2.08"/><circle class="cls-5" cx="14.53" cy="23.32" r="4.96"/><path class="cls-6" d="M17,27.59a5,5,0,0,0-6.78-6.8,4.87,4.87,0,0,1,3.08-2.29A5,5,0,0,1,17,27.59Z"/><circle class="cls-4" cx="34.08" cy="47.37" r="1.42"/><path class="cls-7" d="M54.56,13.91,47,8.63a1,1,0,0,0-1.6.84v2.58a14.66,14.66,0,0,0-14,10.33,23.6,23.6,0,0,1,14-4.39v2a1,1,0,0,0,1.6.84l7.58-5.28A1,1,0,0,0,54.56,13.91Z"/><rect class="cls-1" width="60" height="60"/><path class="cls-8" d="M24.57,43.68c-.45,0-.89.08-1.32.11a1,1,0,0,0,.06,2h.07l1.38-.12a1,1,0,1,0-.19-2Z"/><path class="cls-8" d="M6.42,24.32h0a1,1,0,0,0,1-1,7.13,7.13,0,0,1,4-6.41,1,1,0,1,0-.85-1.81,9.15,9.15,0,0,0-5.19,8.22A1,1,0,0,0,6.42,24.32Z"/><path class="cls-8" d="M7.85,30.54A1.43,1.43,0,1,0,6.42,32,1.42,1.42,0,0,0,7.85,30.54Z"/><circle class="cls-8" cx="16.68" cy="14.11" r="1.42"/><path class="cls-8" d="M55.13,13.09,47.55,7.81a2,2,0,0,0-3.17,1.66v1.62a15.58,15.58,0,0,0-6.28,1.76,22.33,22.33,0,0,0-10.33-1.69,1,1,0,0,0,.15,2,20.62,20.62,0,0,1,8.06,1,14.34,14.34,0,0,0-1.2,1,19.15,19.15,0,0,0-5.32-.75,18.88,18.88,0,0,0-11.61,4,6,6,0,0,0-6.71,9.86A18,18,0,0,0,10.72,30C7,33.06,5.28,36.36,6,39.29s3.82,5.09,8.54,6A19,19,0,0,0,48.18,37c3.71-3,5.47-6.33,4.73-9.31a6.13,6.13,0,0,0-2-3.13A1,1,0,0,0,49.61,26,4.3,4.3,0,0,1,51,28.16c.43,1.74-.5,3.79-2.48,5.82,0-.16,0-.33,0-.5a19.14,19.14,0,0,0-6.43-14.26c.76-.1,1.52-.18,2.29-.21v1a2,2,0,0,0,3.17,1.65l7.58-5.28a2,2,0,0,0,0-3.31Zm-40.6,6.26a4,4,0,1,1-4,4A4,4,0,0,1,14.53,19.35ZM7.94,38.81c-.42-1.71.48-3.76,2.47-5.82,0,.17,0,.33,0,.49a19,19,0,0,0,2.47,9.35C10.14,42,8.38,40.57,7.94,38.81Zm38.58-5.33a17.41,17.41,0,0,1-.19,2.41,31.28,31.28,0,0,1-5,3,3.85,3.85,0,0,0-6.84,2.43c0,.09,0,.18,0,.28-.94.29-1.9.56-2.86.8s-1.85.43-2.77.61a1,1,0,0,0,.19,2,.55.55,0,0,0,.18,0c1-.18,1.93-.39,2.88-.63s2-.54,3-.85a3.86,3.86,0,0,0,7-2.17,3.93,3.93,0,0,0-.06-.6,37.52,37.52,0,0,0,3.48-2,17,17,0,0,1-28,6.94c.83.07,1.69.12,2.58.13h0a1,1,0,0,0,1-1,1,1,0,0,0-1-1,30,30,0,0,1-4.55-.38,17,17,0,0,1-3.28-10A17.23,17.23,0,0,1,13,29.07a5.63,5.63,0,0,0,1.55.21,6,6,0,0,0,4.79-9.51,17,17,0,0,1,13.89-2.93,15.74,15.74,0,0,0-2.78,5.25,1,1,0,0,0,.95,1.29,1,1,0,0,0,.6-.19,21.12,21.12,0,0,1,7.54-3.49A17.15,17.15,0,0,1,46.52,33.48Zm-6.3,7.89a1.86,1.86,0,1,1-1.85-1.86A1.85,1.85,0,0,1,40.22,41.37ZM54,14.76,46.38,20V18a1,1,0,0,0-1-1,25.31,25.31,0,0,0-11.79,2.83,13.54,13.54,0,0,1,11.79-6.76,1,1,0,0,0,1-1l0-2.61L54,14.73Z"/></g></g></g></svg>