<?xml version="1.0" encoding="UTF-8"?>
<svg width="28px" height="32px" viewBox="0 0 28 32" version="1.1" xmlns="http://www.w3.org/2000/svg" xmlns:xlink="http://www.w3.org/1999/xlink">
    <!-- Generator: sketchtool 50.2 (55047) - http://www.bohemiancoding.com/sketch -->
    <title>48AF2E7D-2FE8-4CF6-B66C-B9A53C957F3B</title>
    <desc>Created with sketchtool.</desc>
    <defs></defs>
    <g id="Home" stroke="none" stroke-width="1" fill="none" fill-rule="evenodd">
        <g transform="translate(-534.000000, -1410.000000)" fill="#2BC47D" fill-rule="nonzero" id="Group-12">
            <g transform="translate(534.000000, 1410.000000)">
                <g id="shield-ico">
                    <path d="M26.0845452,6.43885544 C22.0763254,5.0175187 18.3146133,2.98151357 14.9348462,0.404144756 C14.206933,-0.134714919 13.2113343,-0.134714919 12.483421,0.404144756 C9.10704617,2.98095643 5.34880814,5.01695945 1.34400768,6.43885544 C0.53563259,6.7283736 -0.00261068193,7.49423401 9.52401581e-06,8.35121557 C9.52401581e-06,15.3985534 1.37143622,20.7148462 4.14171814,24.6011451 C6.40800075,27.7621841 9.28456824,29.5890183 11.8457076,31.2003271 L12.6034208,31.6792724 C13.2720674,32.1069092 14.129057,32.1069092 14.7977035,31.6792724 L15.5554168,31.196906 C18.1028419,29.5855972 20.9931236,27.7758682 23.2594062,24.5977241 C26.0571167,20.7148462 27.4285434,15.3985534 27.4285434,8.35805765 C27.4330463,7.49889064 26.8946462,6.73006617 26.0845452,6.43885544 Z M13.6937051,2.03940083 L13.7108479,2.03940083 L13.6868479,2.03940083 L13.6937051,2.03940083 Z M21.59998,23.4037819 C19.5668399,26.2398222 16.9748434,27.8784994 14.4685611,29.4624399 C14.2114186,29.6266497 13.9542761,29.7874384 13.7245622,29.9482272 L12.9599918,29.4624399 C10.4537095,27.8784994 7.86171305,26.2398222 5.82857297,23.4037819 C3.29829072,19.8766919 2.05714956,14.9538185 2.05714956,8.35121557 C6.24608824,6.86794747 10.1786838,4.74439277 13.7142765,2.05650601 C17.2469453,4.74890588 21.1802773,6.87285827 25.3714034,8.35121557 C25.3714034,14.9538185 24.1302622,19.880113 21.59998,23.4037819 Z" id="Shape"></path>
                    <polygon id="Shape" points="9.66433862 15.2283374 8.22857143 16.674992 12.562963 21.0285714 19.2 13.2098287 17.655873 11.8857143 12.4444444 18.0229337"></polygon>
                </g>
            </g>
        </g>
    </g>
</svg>