<svg xmlns="http://www.w3.org/2000/svg" viewBox="0 0 60 60"><defs><style>.cls-1{fill:none;}.cls-2{fill:#fff6e6;}.cls-3{fill:#ffebcc;}.cls-4{fill:#ffdead;}.cls-5{fill:#f6716f;}.cls-6{fill:#f0504d;}.cls-7{fill:#3d3d63;}</style></defs><title>Speech</title><g id="图层_2" data-name="图层 2"><g id="Graphics"><g id="Speech"><rect class="cls-1" width="60" height="60"/><path class="cls-2" d="M48.48,49.71a2.7,2.7,0,0,1-2.7-2.7V13a4.7,4.7,0,0,0-4.7-4.69H15.18a1,1,0,0,0-1,1V27.11a1,1,0,0,0,1,1,5.47,5.47,0,0,1,5.47,5.46v3a1,1,0,0,0,.35.76,1,1,0,0,0,.8.23,2.58,2.58,0,0,1,.39,0,2.5,2.5,0,0,1,2.5,2.5,9.5,9.5,0,0,1-5,8.34,1,1,0,0,0-.43,1.29,2.53,2.53,0,0,1,.22,1,1,1,0,0,0,1,1h28a1,1,0,0,0,0-2Z"/><path class="cls-3" d="M48.48,49.71a2.7,2.7,0,0,1-2.7-2.7V13a4.66,4.66,0,0,0-.39-1.86l-1,.17a3.65,3.65,0,0,0-3.26-2h-3.7v5.05h0a3.27,3.27,0,0,1,3.22,3.75c-1.14,7.64-5.18,24.65-18.85,28.84a9.37,9.37,0,0,1-2,1.46,1,1,0,0,0-.47,1.31,2.5,2.5,0,0,1,.22,1.05,1,1,0,0,0,1,1h28a1,1,0,0,0,0-2Z"/><path class="cls-1" d="M20.51,50.71h28a3.7,3.7,0,0,1-3.7-3.7V13a3.7,3.7,0,0,0-3.7-3.69H15.18V27.11"/><path class="cls-4" d="M44.78,41.83V47a3.7,3.7,0,0,0,7.4,0V41.83Z"/><path class="cls-4" d="M11.48,13v5.18h25.9V13a3.7,3.7,0,0,1,3.7-3.69H15.18A3.7,3.7,0,0,0,11.48,13Z"/><path class="cls-1" d="M41.08,9.28A3.7,3.7,0,0,0,37.38,13v5.18H11.48V13a3.7,3.7,0,0,1,3.7-3.69Z"/><line class="cls-1" x1="22.95" y1="25.06" x2="31.58" y2="25.06"/><line class="cls-1" x1="33.5" y1="41.49" x2="37.01" y2="41.49"/><line class="cls-1" x1="22.95" y1="30.54" x2="37.01" y2="30.54"/><line class="cls-1" x1="22.95" y1="36.02" x2="37.01" y2="36.02"/><rect class="cls-5" x="12.22" y="30.61" width="5.93" height="12.36" rx="2.97" ry="2.97"/><path class="cls-6" d="M15.18,39.66a3,3,0,0,1-3-3V40a3,3,0,0,0,5.93,0V36.7A3,3,0,0,1,15.18,39.66Z"/><rect class="cls-1" x="12.22" y="30.61" width="5.93" height="12.36" rx="2.97" ry="2.97"/><path class="cls-7" d="M19.15,40V33.57a4,4,0,0,0-7.93,0V40a4,4,0,0,0,7.93,0Zm-5.93,0V33.57a2,2,0,0,1,3.93,0V40a2,2,0,0,1-3.93,0Z"/><path class="cls-7" d="M17,49.71h-.83V48a8,8,0,0,0,7-7.93,1,1,0,0,0-2,0,6,6,0,0,1-12,0,1,1,0,0,0-2,0,8,8,0,0,0,7,7.93v1.72h-.82a1,1,0,1,0,0,2H17a1,1,0,0,0,0-2Z"/><path class="cls-7" d="M23,26.06h8.63a1,1,0,0,0,0-2H23a1,1,0,0,0,0,2Z"/><path class="cls-7" d="M37,40.49H33.5a1,1,0,0,0,0,2H37a1,1,0,0,0,0-2Z"/><path class="cls-7" d="M23,31.54H37a1,1,0,0,0,0-2H23a1,1,0,1,0,0,2Z"/><path class="cls-7" d="M23,37H37a1,1,0,0,0,0-2H23a1,1,0,1,0,0,2Z"/><path class="cls-7" d="M52.18,41h-6.4V13a4.71,4.71,0,0,0-4.7-4.7H15.18a4.71,4.71,0,0,0-4.7,4.7v5.18a1,1,0,0,0,1,1h2.7v8a1,1,0,0,0,2,0v-8h21.2a1,1,0,0,0,1-1V13a2.7,2.7,0,1,1,5.4,0V47a4.68,4.68,0,0,0,.85,2.7H20.51a1,1,0,1,0,0,2h28a4.71,4.71,0,0,0,4.7-4.7V42A1,1,0,0,0,52.18,41ZM36.38,13v4.18H12.48V13a2.71,2.71,0,0,1,2.7-2.7h22A4.75,4.75,0,0,0,36.38,13Zm12.1,36.74a2.7,2.7,0,0,1-2.7-2.7V43h5.4v4A2.7,2.7,0,0,1,48.48,49.71Z"/></g></g></g></svg>