<?xml version="1.0" encoding="UTF-8"?>
<svg width="46px" height="46px" viewBox="0 0 46 46" version="1.1" xmlns="http://www.w3.org/2000/svg" xmlns:xlink="http://www.w3.org/1999/xlink">
    <!-- Generator: sketchtool 50.2 (55047) - http://www.bohemiancoding.com/sketch -->
    <title>D085B7C0-016B-4888-A36A-03F0295A6DDB</title>
    <desc>Created with sketchtool.</desc>
    <defs></defs>
    <g id="Symbols" stroke="none" stroke-width="1" fill="none" fill-rule="evenodd">
        <g id="visa-steps-/-step-2">
            <g id="Wallet">
                <rect id="Rectangle-path" x="0" y="0" width="45" height="45"></rect>
                <path d="M36,15 L34.9807281,11.1414127 C34.7650739,10.3191621 33.9433332,9.83220013 33.1445396,10.0532911 L15,15 L36,15 Z" id="Shape" stroke="#F6716F" stroke-width="2" fill="#F6716F" fill-rule="nonzero" stroke-linecap="round" stroke-linejoin="round"></path>
                <rect id="Rectangle-path" fill="#96DDFF" fill-rule="nonzero" x="8" y="15" width="31" height="23" rx="2"></rect>
                <path d="M39,36.5181914 L39,24 C37.4795238,27.5810363 33.8111905,32.8985664 25.4042857,32.8985664 C19.4613947,32.8061353 13.5765307,31.6605288 8,29.5104739 L8,36.4564494 C8,37.3089286 8.66091299,37.9999995 9.47619048,37.9999995 L37.5238095,37.9999995 C38.3165733,38.0006629 38.9682897,37.3464664 39,36.5181914 Z" id="Shape" fill="#69BAF9" fill-rule="nonzero"></path>
                <path d="M37.5238095,15 L9.47619048,15 C8.66091299,15 8,15.7309637 8,16.6326531 L8,19 C8,18.0983106 8.66091299,17.3673469 9.47619048,17.3673469 L37.5238095,17.3673469 C38.339087,17.3673469 39,18.0983106 39,19 L39,16.6326531 C39,15.7309637 38.339087,15 37.5238095,15 Z" id="Shape" fill="#C7ECFF" fill-rule="nonzero"></path>
                <path d="M30.995047,23 L41,23 L41,31 L30.995047,31 C30.4626454,30.9980252 29.9529488,30.7845784 29.5785983,30.4068305 C29.2042479,30.0290826 28.9960646,29.5181344 29.0000564,28.9869036 L29.0000564,25.0130964 C28.9960646,24.4818656 29.2042479,23.9709174 29.5785983,23.5931695 C29.9529488,23.2154216 30.4626454,23.0019748 30.995047,23 Z" id="Shape" fill="#69BAF9" fill-rule="nonzero"></path>
                <path d="M40.7826359,25 C40.7826359,25 41.2473454,29.142487 35.7457839,29.142487 C33.457924,29.1808592 31.179366,28.8317082 29,28.1088083 L29,28.9326425 C29,30.0744125 29.892634,31 30.9937539,31 L41,31 L41,25.365285 L40.7826359,25 Z" id="Shape" fill="#599ED4" fill-rule="nonzero"></path>
                <circle id="Oval" fill="#FFC670" fill-rule="nonzero" cx="10.5" cy="31.5" r="6.5"></circle>
                <path d="M13.8147307,26 C15.3116358,28.5285205 14.9054193,31.7499071 12.8276632,33.8276632 C10.7499071,35.9054193 7.52852046,36.3116358 5,34.8147307 C6.36404437,37.1424843 9.03415894,38.3736143 11.6901284,37.8993988 C14.3460979,37.4251834 16.4251834,35.3460979 16.8993988,32.6901284 C17.3736143,30.0341589 16.1424843,27.3640444 13.8147307,26 Z" id="Shape" fill="#FFA742" fill-rule="nonzero"></path>
                <path d="M41.2449839,21.8720864 L40.4899679,21.8720864 L40.4899679,16.5880231 C40.4899679,15.3373199 39.4758713,14.3234246 38.2249197,14.3234246 L36.5261336,14.3234246 L35.650315,11.0473054 C35.3260589,9.84121581 34.0863937,9.12525711 32.8794061,9.4469891 L32.0488884,9.67344895 L30.9239145,7.31071781 C30.6699377,6.76396221 30.2083983,6.34101734 29.6415308,6.13556868 C29.0746634,5.93012002 28.4492593,5.9591261 27.9038502,6.21616185 L10.4856298,14.3234246 L9.53430962,14.3234246 C8.28335806,14.3234246 7.26926145,15.3373199 7.26926145,16.5880231 L7.26926145,25.072719 C4.1474963,26.4953174 2.43941058,29.9008372 3.16631615,33.2530236 C3.89322171,36.60521 6.85858195,38.9977177 10.2893257,39 L38.2249197,39 C39.4758713,39 40.4899679,37.9861047 40.4899679,36.7354015 L40.4899679,31.4513382 L41.2449839,31.4513382 C41.6619678,31.4513382 42,31.1133731 42,30.696472 L42,22.6269526 C42,22.2100515 41.6619678,21.8720864 41.2449839,21.8720864 Z M28.5607142,7.529629 C28.9380883,7.35252491 29.3876142,7.51472765 29.5648856,7.89196477 L30.5615068,10.0357847 L23.6908607,11.8776582 C23.4292116,11.947777 23.2248533,12.1521298 23.1547656,12.4137389 C23.0846778,12.6753481 23.1595085,12.9544688 23.3510697,13.1459591 C23.542631,13.3374495 23.82182,13.4122174 24.083469,13.3420986 L33.2720144,10.8812348 C33.6720062,10.7752398 34.0828042,11.0108968 34.193134,11.4096412 L34.94815,14.29323 L14.0568558,14.29323 L28.5607142,7.529629 Z M4.49835253,31.6853467 C4.49529788,29.3428972 5.90428483,27.2294018 8.06797961,26.3308681 C10.2316744,25.4323345 12.7237126,25.9258223 14.3814851,27.5811048 C16.0392577,29.2363874 16.5360942,31.7272849 15.6402058,33.8917206 C14.7443173,36.0561563 12.6322423,37.4676197 10.2893257,37.4676217 C7.09572479,37.463475 4.50666651,34.8783055 4.49835253,31.6853467 Z M38.9799358,33.9499453 L25.2159931,33.9499453 C24.7990092,33.9499453 24.460977,34.2879104 24.460977,34.7048114 C24.460977,35.1217125 24.7990092,35.4596776 25.2159931,35.4596776 L38.9799358,35.4596776 L38.9799358,36.7127555 C38.9799358,37.1296566 38.6419036,37.4676217 38.2249197,37.4676217 L14.7137198,37.4676217 C15.4370502,36.9186827 16.049416,36.2372728 16.5182081,35.4596776 L18.5945023,35.4596776 C19.0114861,35.4596776 19.3495183,35.1217125 19.3495183,34.7048114 C19.3495183,34.2879104 19.0114861,33.9499453 18.5945023,33.9499453 L17.2203731,33.9499453 C17.9489675,31.7285172 17.5680827,29.2925111 16.1961516,27.399383 C14.8242205,25.5062548 12.6276054,24.385568 10.2893257,24.3857908 C9.78174824,24.3842602 9.27548299,24.4374075 8.77929356,24.5443127 L8.77929356,16.5880231 C8.77929356,16.1711221 9.11732576,15.833157 9.53430962,15.833157 L38.2249197,15.833157 C38.6419036,15.833157 38.9799358,16.1711221 38.9799358,16.5880231 L38.9799358,21.8720864 L31.1730698,21.8720864 C29.6469089,21.8720864 28.409711,23.1090387 28.409711,24.6348966 L28.409711,28.665882 C28.409711,30.19174 29.6469089,31.4286922 31.1730698,31.4286922 L38.9799358,31.4286922 L38.9799358,33.9499453 Z M40.4899679,29.9189599 L31.1730698,29.9189599 C30.4808766,29.9189599 29.9197431,29.3579378 29.9197431,28.665882 L29.9197431,24.6575426 C29.9136642,24.3212995 30.0430223,23.9967254 30.2787287,23.7568068 C30.5144351,23.5168883 30.8367049,23.3817638 31.1730698,23.3818188 L40.4899679,23.3818187 L40.4899679,29.9189599 Z" id="Shape" fill="#3D3D63" fill-rule="nonzero"></path>
                <path d="M31.8571429,27 L33.1428571,27 C33.6162441,27 34,26.7761424 34,26.5 C34,26.2238576 33.6162441,26 33.1428571,26 L31.8571429,26 C31.3837559,26 31,26.2238576 31,26.5 C31,26.7761424 31.3837559,27 31.8571429,27 Z" id="Shape" fill="#3D3D63" fill-rule="nonzero"></path>
                <path d="M21.3993994,34 L20.6006006,34 C20.268898,34 20,34.4477153 20,35 C20,35.5522847 20.268898,36 20.6006006,36 L21.3993994,36 C21.731102,36 22,35.5522847 22,35 C22,34.4477153 21.731102,34 21.3993994,34 Z" id="Shape" fill="#3D3D63" fill-rule="nonzero"></path>
                <path d="M10.8713216,34.2812567 L10.9485032,34.5109582 C11.0489446,34.8043443 11.3126387,34.9998673 11.6080546,35 C11.6894144,34.9998989 11.7701376,34.9848553 11.8466158,34.9555417 C12.2107629,34.8162734 12.3991923,34.3917629 12.2676061,34.0070969 L12.169375,33.710708 C12.4504747,33.5111364 12.6777299,33.237955 12.8289265,32.9178675 C13.032658,32.4516088 13.0553271,31.919621 12.892075,31.4359226 C12.721363,30.9385796 12.3697963,30.5337255 11.9153534,30.3111582 C11.4609106,30.0885908 10.9411588,30.0667092 10.4713808,30.2503667 L10.0223245,30.3985612 C9.81596986,30.4121887 9.62540757,30.2818359 9.55281008,30.0773933 C9.48021259,29.8729506 9.54262407,29.6424163 9.70658179,29.5093942 L10.5906614,29.1685469 C10.6707071,29.4246811 10.8762252,29.6146504 11.1272304,29.6645212 C11.3782356,29.7143919 11.635076,29.6162859 11.7977925,29.4083848 C11.960509,29.2004836 12.0033967,28.9156301 11.9097643,28.6646857 C11.7883753,28.2995443 11.5365491,27.9990331 11.2081138,27.8273868 C10.870965,27.6603539 10.4847717,27.6416947 10.1345886,27.7755187 L10.0223245,27.5087687 C9.94227878,27.2526345 9.73676077,27.0626652 9.48575552,27.0127944 C9.23475028,26.9629236 8.97790987,27.0610297 8.8151934,27.2689308 C8.65247692,27.476832 8.60958919,27.7616855 8.70322159,28.0126299 L8.80846916,28.3164286 C8.03429581,28.8790885 7.77703628,29.9618723 8.20797741,30.8438481 C8.63891855,31.7258238 9.62362384,32.1318502 10.5064633,31.7915893 L10.9414867,31.6211657 C11.058716,31.5758285 11.1882075,31.5815963 11.3014054,31.6371971 C11.4146033,31.6927979 11.50221,31.7936649 11.5449061,31.9175547 C11.5936548,32.0382601 11.5936548,32.1747452 11.5449061,32.2954506 C11.4959163,32.4143569 11.4016228,32.5058608 11.2852954,32.5473812 L10.4012158,32.8882286 C10.3303579,32.6191451 10.1222443,32.414998 9.86291447,32.3601871 C9.60358464,32.3053762 9.33710206,32.4092145 9.17363749,32.6287726 C9.01017292,32.8483307 8.97750108,33.1463027 9.08912936,33.3994995 C9.29145603,33.9808076 9.81475443,34.3679407 10.4012158,34.3701734 C10.5662915,34.3708369 10.7301835,34.3407365 10.8853546,34.2812567 L10.8713216,34.2812567 Z" id="Shape" fill="#3D3D63" fill-rule="nonzero"></path>
            </g>
        </g>
    </g>
</svg>