<?xml version="1.0" encoding="UTF-8"?>
<svg width="46px" height="46px" viewBox="0 0 46 46" version="1.1" xmlns="http://www.w3.org/2000/svg" xmlns:xlink="http://www.w3.org/1999/xlink">
    <!-- Generator: sketchtool 50.2 (55047) - http://www.bohemiancoding.com/sketch -->
    <title>81C97A53-DBF9-40BA-97D1-641C09758743</title>
    <desc>Created with sketchtool.</desc>
    <defs></defs>
    <g id="Symbols" stroke="none" stroke-width="1" fill="none" fill-rule="evenodd">
        <g id="visa-steps-/-step1">
            <g id="Comment" transform="translate(1.000000, 1.000000)">
                <rect id="Rectangle-path" x="0" y="0" width="45" height="45"></rect>
                <path d="M5.11363641,12.4915012 L5.11363641,31.7075346 C5.11362433,32.3901657 5.67767217,32.9446763 6.37614069,32.9486918 L17.4473321,32.9486918 L17.4473321,36.8181818 L24.4770157,32.9486918 L35.5482071,32.9486918 C35.8850253,32.9486918 36.2080484,32.8179274 36.4462148,32.5851653 C36.6843813,32.3524032 36.8181818,32.03671 36.8181818,31.7075346 L36.8181818,12.4915012 C36.8181818,12.1623259 36.6843813,11.8466327 36.4462148,11.6138706 C36.2080484,11.3811085 35.8850253,11.2503441 35.5482071,11.2503441 L6.41349289,11.2503441 C6.07152749,11.2424782 5.74077425,11.3697618 5.4961053,11.603382 C5.25143634,11.8370021 5.11354171,12.157203 5.11363641,12.4915012 Z" id="Shape" fill="#FFDEAD" fill-rule="nonzero"></path>
                <path d="M35.5467091,11.25 L6.3776298,11.25 C5.67833741,11.2541666 5.11362426,11.829551 5.11363636,12.5378788 L5.11363636,14.3181818 C5.11362426,13.609854 5.67833741,13.0344697 6.3776298,13.030303 L35.5467091,13.030303 C35.8839247,13.030303 36.2073287,13.1659899 36.4457761,13.407514 C36.6842235,13.6490381 36.8181818,13.9766151 36.8181818,14.3181818 L36.8181818,12.5378788 C36.8181818,12.1963121 36.6842235,11.8687351 36.4457761,11.627211 C36.2073287,11.3856868 35.8839247,11.25 35.5467091,11.25 Z" id="Shape" fill="#FFF3DB" fill-rule="nonzero"></path>
                <path d="M24.4770157,32.9145623 L35.5482071,32.9145623 C35.8850253,32.9145623 36.2080484,32.7826445 36.4462148,32.5478294 C36.6843813,32.3130143 36.8181818,31.9945366 36.8181818,31.6624579 L36.8181818,15.3409091 C36.8181818,15.3409091 34.203528,32.2811448 5.11363636,28.9225589 L5.11363636,31.6624579 C5.11362428,32.3511099 5.67767212,32.9105114 6.37614065,32.9145623 L17.4548025,32.9145623 L17.4548025,36.8181818 L24.4770157,32.9145623 Z" id="Shape" fill="#F2C182" fill-rule="nonzero"></path>
                <polygon id="Shape" fill="#69BAF9" fill-rule="nonzero" points="31.7045455 25.9979782 25.5681818 22.5 26.9591969 27.6136364"></polygon>
                <path d="M39.5107183,6.47218031 C38.8674018,6.14048227 38.1016872,6.05002316 37.3830257,6.22082143 C36.6643643,6.3916197 36.0520149,6.8095918 35.6814895,7.3822412 L34.7727273,8.76112135 L39.6272263,11.25 L40.5359885,9.87111986 C41.3051663,8.68062732 40.8471563,7.16224872 39.5107183,6.47218031 Z" id="Shape" fill="#69BAF9" fill-rule="nonzero"></path>
                <rect id="Rectangle-path" fill="#F7FBFF" fill-rule="nonzero" transform="translate(33.238636, 17.386364) rotate(30.000000) translate(-33.238636, -17.386364) " x="29.6590909" y="9.20454545" width="7.15909091" height="16.3636364"></rect>
                <path d="M33.9499316,8.18181818 L33.7115516,8.58390111 L36.3798701,10.0730971 C37.1139356,10.4848072 37.3650979,11.3943184 36.9412167,12.1058497 L30.6356801,22.6791415 C30.4327476,23.0238006 30.0961738,23.2758022 29.7006208,23.3792448 C29.3050678,23.4826874 28.8832388,23.4290188 28.5287081,23.2301441 L25.8680793,21.740948 L25.5681818,22.2398287 L29.5668148,24.4736227 L31.5046138,25.5681818 L39.8863636,11.4952793 L33.9499316,8.18181818 Z" id="Shape" fill="#D8E3F0" fill-rule="nonzero"></path>
                <path d="M39.4868098,6.20220445 C39.4400586,6.20220445 39.3855155,6.16562622 39.3387642,6.13636364 C39.7526753,6.91418716 39.7322772,7.83345719 39.2842211,8.5944206 L38.3725721,10.0575497 L35.0064834,8.23595396 L34.7727273,8.60905189 L39.6426473,11.25 L40.5542963,9.78687085 C41.3036347,8.5190902 40.8278138,6.92126258 39.4868098,6.20220445 Z" id="Shape" fill="#599ED4" fill-rule="nonzero"></path>
                <path d="M11.9819453,18.4090909 L21.7680547,18.4090909 C22.1722969,18.4090909 22.5,17.9512003 22.5,17.3863636 C22.5,16.821527 22.1722969,16.3636364 21.7680547,16.3636364 L11.9819453,16.3636364 C11.5777031,16.3636364 11.25,16.821527 11.25,17.3863636 C11.25,17.9512003 11.5777031,18.4090909 11.9819453,18.4090909 Z" id="Shape" fill="#3D3D63" fill-rule="nonzero"></path>
                <path d="M11.9819453,23.5227273 L21.7680547,23.5227273 C22.1722969,23.5227273 22.5,23.0648367 22.5,22.5 C22.5,21.9351633 22.1722969,21.4772727 21.7680547,21.4772727 L11.9819453,21.4772727 C11.5777031,21.4772727 11.25,21.9351633 11.25,22.5 C11.25,23.0648367 11.5777031,23.5227273 11.9819453,23.5227273 Z" id="Shape" fill="#3D3D63" fill-rule="nonzero"></path>
                <path d="M42.3613903,15.1641523 C43.4459696,13.3128982 43.0089345,10.9567945 41.3305103,9.60656561 C41.8793875,7.94116362 41.0708697,6.1344262 39.4552041,5.41595211 C37.8395385,4.69747801 35.9359215,5.29814987 35.0398846,6.80917259 L34.5206822,7.68707785 C34.1785532,7.55601151 33.7906982,7.68803066 33.6026723,7.9995526 L32.2482313,10.298474 L6.1225705,10.298474 C5.0022286,10.302554 4.09503562,11.1995237 4.09090909,12.3072402 L4.09090909,31.8889913 C4.09503562,32.9967079 5.0022286,33.8936775 6.1225705,33.8977576 L16.499093,33.8977576 L16.499093,37.0969038 C16.4980215,37.3637608 16.6415846,37.6107455 16.8753266,37.744173 C16.9900048,37.8084389 17.1197458,37.8417914 17.2515602,37.8408913 C17.3808253,37.8405003 17.5078087,37.8071904 17.6202692,37.744173 L24.5279179,33.8977576 L35.5064142,33.8977576 C36.0452443,33.8977576 36.5620054,33.6861203 36.9430158,33.3094036 C37.3240262,32.9326868 37.5380757,32.4217493 37.5380757,31.8889913 L37.5380757,17.4779534 L40.7059625,12.0542845 C40.8813657,11.7380344 40.8020805,11.34294 40.5178457,11.1168602 L40.5930924,10.9755026 C41.520777,11.8862069 41.7122849,13.3002221 41.0596221,14.4201647 L38.7194491,18.4228175 C38.0264108,19.6104251 38.4372237,21.1286185 39.6374591,21.8154005 C39.9947685,22.0002083 40.4359067,21.8736724 40.6377086,21.5284894 C40.8395105,21.1833064 40.7302315,20.7421956 40.3899263,20.5283021 C39.9080044,20.2528928 39.7429643,19.6434647 40.0212174,19.166805 L42.3613903,15.1641523 Z M36.06324,31.8889913 C36.06324,32.0271137 36.0077457,32.159579 35.9089652,32.2572463 C35.8101847,32.3549137 35.6762096,32.4097826 35.5365129,32.4097826 L24.3548505,32.4097826 C24.2255855,32.4101737 24.0986021,32.4434835 23.9861416,32.5065009 L18.0040274,35.8246852 L18.0040274,33.1537701 C18.0040274,32.7428771 17.6671364,32.4097826 17.2515602,32.4097826 L6.1225705,32.4097826 C5.83335947,32.4057827 5.59988897,32.1749432 5.59584347,31.8889913 L5.59584347,12.3072402 C5.59988897,12.0212884 5.83335947,11.7904489 6.1225705,11.786449 L31.3753694,11.786449 L25.3556319,22.0460367 C25.2655341,22.2095292 25.2362458,22.3990744 25.2728605,22.5817077 L26.1682964,26.4058034 L11.5553836,26.4058034 C11.1398075,26.4058034 10.8029164,26.738898 10.8029164,27.1497909 C10.8029164,27.5606839 11.1398075,27.8937784 11.5553836,27.8937784 L27.1239298,27.8937784 L27.2217505,27.8937784 C27.2693355,27.8974232 27.3171343,27.8974232 27.3647193,27.8937784 L32.0676392,26.4727623 C32.247989,26.4182494 32.4010608,26.2987651 32.4965455,26.1379679 L36.06324,20.0521501 L36.06324,31.8889913 Z M27.6958048,26.2049268 L27.1615531,23.9134453 L29.9757804,25.5204583 L27.6958048,26.2049268 Z M31.5710108,24.7169518 L27.0562077,22.142755 L34.5583056,9.38336935 L39.0731087,11.9575661 L31.5710108,24.7169518 Z M39.7277552,9.49496748 L39.2236022,10.3505531 L35.8224505,8.40874573 L36.3266035,7.5531601 C36.6718425,6.94139772 37.3235923,6.56092727 38.0321199,6.55753479 C38.7406474,6.55414231 39.3960935,6.92835381 39.7473089,7.53678152 C40.0985242,8.14520922 40.0910519,8.89351472 39.7277552,9.49496748 Z" id="Shape" fill="#3D3D63" fill-rule="nonzero"></path>
            </g>
        </g>
    </g>
</svg>