<?xml version="1.0" encoding="UTF-8"?>
<svg width="46px" height="46px" viewBox="0 0 46 46" version="1.1" xmlns="http://www.w3.org/2000/svg" xmlns:xlink="http://www.w3.org/1999/xlink">
    <!-- Generator: sketchtool 50.2 (55047) - http://www.bohemiancoding.com/sketch -->
    <title>691FBC27-94B0-4D02-A8D3-EE8A1AE2910F</title>
    <desc>Created with sketchtool.</desc>
    <defs></defs>
    <g id="Symbols" stroke="none" stroke-width="1" fill="none" fill-rule="evenodd">
        <g id="visa-steps-/-step-3">
            <g id="Awards" transform="translate(1.000000, 1.000000)">
                <rect id="Rectangle-path" x="0" y="0" width="45" height="45"></rect>
                <rect id="Rectangle-path" fill="#D8E3F0" fill-rule="nonzero" x="7.5" y="6.42857143" width="26.7857143" height="32.1428571" rx="1.33"></rect>
                <rect id="Rectangle-path" fill="#EDF4FF" fill-rule="nonzero" x="10.7142857" y="9.64285714" width="20.3571429" height="24.6428571"></rect>
                <polygon id="Shape" fill="#F65855" fill-rule="nonzero" points="34.8065536 28.9285714 31.603478 30.8213238 28.4077321 28.9285714 22.5 39.4480519 25.3292613 39.0860913 26.4287151 41.7857143 31.603478 32.5708002 36.7782409 41.7857143 37.8850244 39.0860913 40.7142857 39.4480519"></polygon>
                <circle id="Oval" fill="#FFC670" fill-rule="nonzero" cx="31.0714286" cy="28.9285714" r="6.42857143"></circle>
                <path d="M31.6885654,22.5 C33.8667488,23.4667465 35.1389748,25.7614678 34.8049403,28.1210234 C34.4709059,30.4805789 32.6117247,32.3319974 30.2507921,32.6561563 C27.8898596,32.9803152 25.6004815,31.6984991 24.6428571,29.5162899 C24.9606736,32.9036593 27.8575951,35.4600349 31.2581873,35.3539585 C34.6587795,35.2478822 37.3907394,32.5159223 37.4968157,29.1153301 C37.602892,25.714738 35.0465165,22.8178165 31.659147,22.5 L31.6885654,22.5 Z" id="Shape" fill="#FFB75E" fill-rule="nonzero"></path>
                <circle id="Oval" cx="31.0714286" cy="28.9285714" r="6.42857143"></circle>
                <polygon id="Shape" fill="#FFDEAD" fill-rule="nonzero" points="31.0714286 25.7142857 32.3370086 27.4366292 34.2857143 28.1693806 33.1208054 29.9672654 33.063279 32.1428571 31.0714286 31.530972 29.0867689 32.1428571 29.0220518 29.9672654 27.8571429 28.1693806 29.8058485 27.4366292"></polygon>
                <path d="M18.2142857,13.9285714 L24.6428571,13.9285714" id="Shape"></path>
                <path d="M15,27.8571429 L19.2857143,27.8571429" id="Shape"></path>
                <path d="M15,31.0714286 L21.4285714,31.0714286" id="Shape"></path>
                <path d="M40.5656249,39.3574417 L36.9851812,33.0275584 C38.8672183,29.6602895 37.8939681,25.3796359 34.7520562,23.205588 L34.7520562,7.13742255 C34.7520562,6.15420122 33.972209,5.35714286 33.0102187,5.35714286 L8.16298118,5.35714286 C7.70169873,5.35713851 7.25941706,5.5449456 6.93394031,5.87903332 C6.60846356,6.21312103 6.42660767,6.66596398 6.42858743,7.13742255 L6.42858743,37.4554335 C6.42858743,38.434453 7.20510196,39.2281052 8.16298118,39.2281052 L20.8545749,39.2281052 L20.7801374,39.3574417 C20.6292751,39.604148 20.6292751,39.9171869 20.7801374,40.1638932 C20.9414284,40.4163911 21.2334055,40.5476963 21.5245124,40.4986466 L23.8395187,40.1943253 L24.7402124,42.3930468 C24.8499928,42.6594949 25.0980461,42.8393227 25.3803749,42.8571368 L25.4250374,42.8571368 C25.6920334,42.8582202 25.9391467,42.7130667 26.0726437,42.4767352 L29.3627812,36.6641981 C29.7974466,36.7463899 30.2382993,36.7896662 30.6803249,36.7935346 C31.1247955,36.7892677 31.5680866,36.7459966 32.0053124,36.6641981 L35.3177812,42.4767352 C35.4512781,42.7130667 35.6983915,42.8582202 35.9653874,42.8571368 L36.0100499,42.8571368 C36.2923788,42.8393227 36.540432,42.6594949 36.6502124,42.3930468 L37.5509062,40.1943253 L39.8659124,40.4986466 C40.1492996,40.5395138 40.4305158,40.4107062 40.5892677,40.1673229 C40.7480196,39.9239396 40.7561914,39.609085 40.6102874,39.3574417 L40.5656249,39.3574417 Z M8.16298118,37.7064986 C8.02731588,37.7064986 7.91733743,37.5940929 7.91733743,37.4554335 L7.91733743,7.13742255 C7.91727819,6.99748047 8.02612014,6.88286536 8.16298118,6.87874943 L32.9953312,6.87874943 C33.1351076,6.87874943 33.2484187,6.99456133 33.2484187,7.13742255 L33.2484187,22.4295686 C32.597091,22.173445 31.9123192,22.0170605 31.2162749,21.9654786 L31.2162749,9.71654569 C31.2162749,9.29636563 30.8830069,8.9557424 30.4718999,8.9557424 L10.6864124,8.9557424 C10.2753055,8.9557424 9.94203743,9.29636563 9.94203743,9.71654569 L9.94203743,34.8687023 C9.94203743,35.2888824 10.2753055,35.6295056 10.6864124,35.6295056 L22.8867187,35.6295056 L21.7106062,37.7064986 L8.16298118,37.7064986 Z M23.4077812,29.3604865 C23.4086335,30.646642 23.7369971,31.9104255 24.3605812,33.0275584 L23.7427499,34.107899 L11.4307874,34.107899 L11.4307874,10.477349 L29.7275249,10.477349 L29.7275249,22.0035188 C26.1168118,22.494568 23.4169263,25.6375706 23.4077812,29.3604865 Z M25.5218062,40.3921342 L24.9858562,39.0759445 C24.8592074,38.776354 24.5597171,38.592694 24.2414812,38.6194625 L22.8569437,38.7944473 L25.3580437,34.3665722 C26.0567099,35.1607592 26.914931,35.7913816 27.8740312,36.2153241 L25.5218062,40.3921342 Z M24.8965312,29.3604865 C24.900641,26.100883 27.488618,23.4614638 30.6778373,23.4642632 C33.8670566,23.4670627 36.450594,26.1110214 36.4492259,29.3706273 C36.4478577,32.6302333 33.8621016,35.2719254 30.6728812,35.2719281 C27.4814874,35.2677301 24.8965285,32.6223167 24.8965312,29.3604865 Z M37.1414999,38.6194625 C36.8102658,38.5751317 36.4907032,38.761769 36.3599062,39.0759445 L35.8239562,40.3921342 L33.4642874,36.2153241 C34.4527893,35.8019512 35.3398431,35.1706867 36.0621562,34.3665722 L38.5632562,38.7944473 L37.1414999,38.6194625 Z" id="Shape" fill="#3D3D63" fill-rule="nonzero"></path>
                <path d="M34.8326481,28.0407323 L32.9212068,27.41566 L31.6705106,25.978712 C31.5211264,25.8113826 31.2972764,25.7142857 31.0608945,25.7142857 C30.8245126,25.7142857 30.6006627,25.8113826 30.4512785,25.978712 L29.2005823,27.41566 L27.304873,28.0407323 C27.0771693,28.1160955 26.9001692,28.2830664 26.8250462,28.4933709 C26.7492983,28.7038757 26.7841291,28.9345285 26.9194383,29.1184433 L28.0678763,30.6559776 L28.0914744,32.5168252 C28.0982153,32.7391538 28.2173072,32.946096 28.4139809,33.0772349 C28.6114471,33.2081653 28.8642565,33.247978 29.0983241,33.185006 L31.0490955,32.66052 L33.0077329,33.185006 C33.0806561,33.1959957 33.1550581,33.1959957 33.2279813,33.185006 C33.391916,33.1840389 33.5514236,33.136312 33.6842101,33.048496 C33.8838581,32.9188668 34.0059962,32.7116844 34.0145827,32.4880863 L34.0696448,30.6272387 L35.2180827,29.0897043 C35.3560573,28.9069637 35.3938039,28.6762304 35.3203409,28.464632 C35.235535,28.2637196 35.0565438,28.1081416 34.8326481,28.0407323 Z M32.6458963,30.0237205 C32.5599776,30.1357525 32.510857,30.2678586 32.504308,30.4045117 L32.504308,31.5468854 L31.2378798,31.2235721 C31.0940442,31.1852535 30.9412188,31.1852535 30.7973831,31.2235721 L29.6646771,31.5468854 L29.625347,30.4045117 C29.618798,30.2678586 29.5696775,30.1357525 29.4837588,30.0237205 L28.7836836,29.0753349 L29.9557196,28.6945436 C30.097089,28.6459994 30.2219114,28.5642085 30.3175562,28.4574472 L31.1041576,27.55217 L31.890759,28.4574472 C31.9864038,28.5642085 32.1112262,28.6459994 32.2525956,28.6945436 L33.4246316,29.0753349 L32.6458963,30.0237205 Z" id="Shape" fill="#3D3D63" fill-rule="nonzero"></path>
                <path d="M24.9350649,12.8571429 L17.9220779,12.8571429 C17.4917262,12.8571429 17.1428571,13.0969903 17.1428571,13.3928571 C17.1428571,13.688724 17.4917262,13.9285714 17.9220779,13.9285714 L24.9350649,13.9285714 C25.3654167,13.9285714 25.7142857,13.688724 25.7142857,13.3928571 C25.7142857,13.0969903 25.3654167,12.8571429 24.9350649,12.8571429 Z" id="Shape" fill="#3D3D63" fill-rule="nonzero"></path>
                <path d="M14.6820374,27.8571429 L18.5322483,27.8571429 C18.9483761,27.8571429 19.2857143,27.6172954 19.2857143,27.3214286 C19.2857143,27.0255617 18.9483761,26.7857143 18.5322483,26.7857143 L14.6820374,26.7857143 C14.2659096,26.7857143 13.9285714,27.0255617 13.9285714,27.3214286 C13.9285714,27.6172954 14.2659096,27.8571429 14.6820374,27.8571429 Z" id="Shape" fill="#3D3D63" fill-rule="nonzero"></path>
                <path d="M21.7353766,30 L14.6931949,30 C14.270905,30 13.9285714,30.2398475 13.9285714,30.5357143 C13.9285714,30.8315811 14.270905,31.0714286 14.6931949,31.0714286 L21.7353766,31.0714286 C22.1576664,31.0714286 22.5,30.8315811 22.5,30.5357143 C22.5,30.2398475 22.1576664,30 21.7353766,30 Z" id="Shape" fill="#3D3D63" fill-rule="nonzero"></path>
            </g>
        </g>
    </g>
</svg>