<?xml version="1.0" encoding="UTF-8"?>
<svg width="46px" height="46px" viewBox="0 0 46 46" version="1.1" xmlns="http://www.w3.org/2000/svg" xmlns:xlink="http://www.w3.org/1999/xlink">
    <!-- Generator: sketchtool 50.2 (55047) - http://www.bohemiancoding.com/sketch -->
    <title>691FBC27-94B0-4D02-A8D3-EE8A1AE2910F</title>
    <desc>Created with sketchtool.</desc>
    <defs></defs>
    <g id="Symbols" stroke="none" stroke-width="1" fill="none" fill-rule="evenodd">
        <g id="visa-steps-/-step-3">
            <g id="Stopwatch" transform="translate(1.000000, 0.000000)">
                <rect id="Rectangle-path" x="0" y="0" width="45" height="45"></rect>
                <rect id="Rectangle-path" x="0" y="0" width="45" height="45"></rect>
                <path d="M37.3275,11.0325 C36.6206623,10.334824 35.4843377,10.334824 34.7775,11.0325 L30.96,14.85 L33.51,17.4 L37.3275,13.5825 C38.025176,12.8756623 38.025176,11.7393377 37.3275,11.0325 Z" id="Shape" fill="#D8E3F0" fill-rule="nonzero"></path>
                <path d="M37.83,10.5 C36.9515474,9.62263987 35.5284526,9.62263987 34.65,10.5 L34.4175,10.7325 L37.5975,13.9125 L37.83,13.68 C38.7073601,12.8015474 38.7073601,11.3784526 37.83,10.5 Z" id="Shape" fill="#FCFEFF" fill-rule="nonzero"></path>
                <rect id="Rectangle-path" fill="#D8E3F0" fill-rule="nonzero" x="20.6925" y="6.99" width="3.6" height="2.88"></rect>
                <rect id="Rectangle-path" fill="#FCFEFF" fill-rule="nonzero" x="18.5325" y="3.75" width="7.92" height="3.24" rx="0.72"></rect>
                <path d="M25.7325,3.75 L23.25,3.75 C23.6642136,3.75 24,4.08578644 24,4.5 L24,6.3 C24,6.71421356 23.6642136,7.05 23.25,7.05 L25.725,7.05 C26.1392136,7.05 26.475,6.71421356 26.475,6.3 L26.475,4.5 C26.4750206,4.08869778 26.1437817,3.75411302 25.7325,3.75 Z" id="Shape" fill="#D8E3F0" fill-rule="nonzero"></path>
                <circle id="Oval" fill="#FFC670" fill-rule="nonzero" cx="22.4925" cy="25.5075" r="15.7425"></circle>
                <path d="M22.5,30.975 C17.1521267,30.9804431 11.8584335,29.9038462 6.9375,27.81 C8.14216369,35.4696149 14.7424822,41.1130022 22.49625,41.1130022 C30.2500178,41.1130022 36.8503363,35.4696149 38.055,27.81 C33.1355292,29.9000861 27.8450585,30.9765463 22.5,30.975 Z" id="Shape" fill="#FFA742" fill-rule="nonzero"></path>
                <circle id="Oval" fill="#FCFEFF" fill-rule="nonzero" cx="22.4925" cy="25.5075" r="12.5925"></circle>
                <circle id="Oval" fill="#D8E3F0" fill-rule="nonzero" cx="22.4925" cy="25.5075" r="6.75"></circle>
                <path d="M24.2775,23.7225 L20.715,27.285 L15,19.8 C14.6345638,19.3005078 14.688738,18.6089905 15.1275,18.1725 C15.5650475,17.7295106 16.2615694,17.6751946 16.7625,18.045 L24.2775,23.7225 Z" id="Shape" fill="#F6716F" fill-rule="nonzero"></path>
                <circle id="Oval" fill="#D8E3F0" fill-rule="nonzero" cx="22.4925" cy="25.5075" r="3.24"></circle>
                <circle id="Oval" fill="#FCFEFF" fill-rule="nonzero" cx="22.4925" cy="25.5075" r="1.5975"></circle>
                <path d="M22.5,17.73 C22.9142136,17.73 23.25,17.3942136 23.25,16.98 L23.25,15.6675 C23.25,15.2532864 22.9142136,14.9175 22.5,14.9175 C22.0857864,14.9175 21.75,15.2532864 21.75,15.6675 L21.75,16.98 C21.75,17.3942136 22.0857864,17.73 22.5,17.73 Z" id="Shape" fill="#3D3D63" fill-rule="nonzero"></path>
                <path d="M16.995,32.0625 C17.2857927,31.7699719 17.2857927,31.2975281 16.995,31.005 C16.8541751,30.8630155 16.6624782,30.7831513 16.4625,30.7831513 C16.2625218,30.7831513 16.0708249,30.8630155 15.93,31.005 L15,31.935 C14.7059084,32.2290916 14.7059084,32.7059084 15,33 C15.2940916,33.2940916 15.7709084,33.2940916 16.065,33 L16.995,32.0625 Z" id="Shape" fill="#3D3D63" fill-rule="nonzero"></path>
                <path d="M14.715,25.5 C14.715,25.0857864 14.3792136,24.75 13.965,24.75 L12.6525,24.75 C12.2382864,24.75 11.9025,25.0857864 11.9025,25.5 C11.9025,25.9142136 12.2382864,26.25 12.6525,26.25 L13.965,26.25 C14.3792136,26.25 14.715,25.9142136 14.715,25.5 Z" id="Shape" fill="#3D3D63" fill-rule="nonzero"></path>
                <path d="M22.5,33.285 C22.0857864,33.285 21.75,33.6207864 21.75,34.035 L21.75,35.3475 C21.75,35.7617136 22.0857864,36.0975 22.5,36.0975 C22.9142136,36.0975 23.25,35.7617136 23.25,35.3475 L23.25,34.035 C23.25,33.6207864 22.9142136,33.285 22.5,33.285 Z" id="Shape" fill="#3D3D63" fill-rule="nonzero"></path>
                <path d="M29.055,31.005 C28.7624719,30.7142073 28.2900281,30.7142073 27.9975,31.005 C27.7067073,31.2975281 27.7067073,31.7699719 27.9975,32.0625 L28.92,33 C29.0613624,33.1466639 29.2563001,33.2295195 29.46,33.2295195 C29.6636999,33.2295195 29.8586376,33.1466639 30,33 C30.2907927,32.7074719 30.2907927,32.2350281 30,31.9425 L29.055,31.005 Z" id="Shape" fill="#3D3D63" fill-rule="nonzero"></path>
                <path d="M28.92,18 L27.9975,18.93 C27.7067073,19.2225281 27.7067073,19.6949719 27.9975,19.9875 C28.2900281,20.2782927 28.7624719,20.2782927 29.055,19.9875 L30,19.08 C30.2982337,18.7817662 30.2982337,18.2982338 30,18 C29.7017662,17.7017663 29.2182338,17.7017663 28.92,18 Z" id="Shape" fill="#3D3D63" fill-rule="nonzero"></path>
                <path d="M37.3275,14.64 C37.6040633,14.748872 37.9188254,14.6841545 38.13,14.475 L38.3625,14.235 C39.1828801,13.4916675 39.5272146,12.3569438 39.2582746,11.2830546 C38.9893345,10.2091654 38.1508346,9.37066548 37.0769454,9.10172542 C36.0030562,8.83278536 34.8683325,9.17711987 34.125,9.9975 L33.885,10.23 C33.6861729,10.4477107 33.6333492,10.7617183 33.75,11.0325 L32.4375,12.345 C30.2779655,10.7097153 27.7481191,9.63285607 25.0725,9.21 L25.0725,7.71 L25.7625,7.71 C26.5909271,7.71 27.2625,7.03842712 27.2625,6.21 L27.2625,4.5 C27.2625,3.67157288 26.5909271,3 25.7625,3 L19.2525,3 C18.4240729,3 17.7525,3.67157288 17.7525,4.5 L17.7525,6.3 C17.7525,7.12842712 18.4240729,7.8 19.2525,7.8 L19.9425,7.8 L19.9425,9.3 C12.6659896,10.4733484 7.05017256,16.3303373 6.18364696,23.6497282 C5.31712137,30.9691191 9.41007338,37.9755064 16.2114532,40.8155034 C23.012833,43.6555003 30.8728846,41.6402318 35.4687214,35.8780591 C40.0645582,30.1158864 40.281405,22.0044934 36,16.005 L37.3275,14.64 Z M37.3275,11.055 C37.8005419,11.5268121 37.9045128,12.2546087 37.5825,12.84 L35.52,10.8 C36.1053913,10.4779872 36.8331879,10.5819581 37.305,11.055 L37.3275,11.055 Z M34.755,12.1425 L36.255,13.6425 L35.07,14.8275 C34.6072221,14.2916141 34.1058859,13.7902779 33.57,13.3275 L34.755,12.1425 Z M19.2825,6.27 L19.2825,4.5 L25.7325,4.5 L25.7325,6.24 L19.2825,6.27 Z M23.5425,7.77 L23.5425,9.075 C23.1975,9.075 22.845,9.0375 22.4925,9.0375 C22.14,9.0375 21.795,9.0375 21.4425,9.075 L21.4425,7.74 L23.5425,7.77 Z M22.5,40.5 C14.2157288,40.5 7.5,33.7842712 7.5,25.5 C7.5,17.2157288 14.2157288,10.5 22.5,10.5 C30.7842712,10.5 37.5,17.2157288 37.5,25.5 C37.5,33.7842712 30.7842712,40.5 22.5,40.5 Z" id="Shape" fill="#3D3D63" fill-rule="nonzero"></path>
                <path d="M22.5,12.1575 C17.0990652,12.1544666 12.2283952,15.4059774 10.1601455,20.3952107 C8.09189575,25.384444 9.23358836,31.1283352 13.0526266,34.9473734 C16.8716648,38.7664116 22.615556,39.9081043 27.6047893,37.8398545 C32.5940226,35.7716048 35.8455334,30.9009348 35.8425,25.5 C35.8301136,18.1362775 29.8637225,12.1698864 22.5,12.1575 Z M22.5,37.35 C17.7064411,37.3530339 13.3831998,34.4677984 11.5466816,30.0399979 C9.7101634,25.6121974 10.722147,20.5140715 14.1106326,17.1234399 C17.4991181,13.7328084 22.5966023,12.7175973 27.0255647,14.5513118 C31.4545271,16.3850264 34.342499,20.7064401 34.3425,25.5 C34.3425013,32.0416465 29.0416452,37.3458597 22.5,37.35 Z" id="Shape" fill="#3D3D63" fill-rule="nonzero"></path>
                <path d="M26.4825,25.5 C26.4834796,23.3506898 24.7758308,21.5898846 22.6275,21.525 L17.25,17.4375 C16.4498277,16.8419639 15.3339623,16.9233321 14.6286472,17.6286472 C13.9233321,18.3339623 13.8419639,19.4498277 14.4375,20.25 L18.5175,25.6275 C18.5527082,27.826974 20.364276,29.5814581 22.56375,29.5462499 C24.763224,29.5110418 26.5177081,27.699474 26.4825,25.5 Z M15.6375,19.35 C15.4871076,19.1479365 15.5095545,18.8657469 15.69,18.69 C15.862211,18.5149267 16.1367431,18.492581 16.335,18.6375 L20.7075,21.9525 C19.9474835,22.3375722 19.3300722,22.9549835 18.945,23.715 L15.6375,19.35 Z M20.0025,25.5 C20.0066425,24.1267724 21.1217593,23.0161318 22.4949925,23.0175126 C23.8682256,23.0188934 24.9811066,24.1317744 24.9824874,25.5050075 C24.9838682,26.8782407 23.8732276,27.9933575 22.5,27.9975 C21.8370107,27.9995 21.2005991,27.7370136 20.7317928,27.2682072 C20.2629864,26.7994009 20.0005,26.1629893 20.0025,25.5 Z" id="Shape" fill="#3D3D63" fill-rule="nonzero"></path>
                <path d="M30.27,25.5 C30.27,25.9142136 30.6057864,26.25 31.02,26.25 L32.3325,26.25 C32.7467136,26.25 33.0825,25.9142136 33.0825,25.5 C33.0825,25.0857864 32.7467136,24.75 32.3325,24.75 L31.02,24.75 C30.6057864,24.75 30.27,25.0857864 30.27,25.5 Z" id="Shape" fill="#3D3D63" fill-rule="nonzero"></path>
            </g>
        </g>
    </g>
</svg>