<?xml version="1.0" encoding="UTF-8"?>
<svg width="45px" height="53px" viewBox="0 0 45 53" version="1.1" xmlns="http://www.w3.org/2000/svg" xmlns:xlink="http://www.w3.org/1999/xlink">
    <!-- Generator: sketchtool 50.2 (55047) - http://www.bohemiancoding.com/sketch -->
    <title>6F998DE8-DA6F-45A6-B6B8-3D1F9072680B</title>
    <desc>Created with sketchtool.</desc>
    <defs></defs>
    <g id="Home" stroke="none" stroke-width="1" fill="none" fill-rule="evenodd">
        <g transform="translate(-1046.000000, -2579.000000)" id="Group-14">
            <g transform="translate(32.000000, 2513.000000)">
                <g id="Stopwatch" transform="translate(1006.000000, 62.000000)">
                    <rect id="Rectangle-path" x="0" y="0" width="60" height="60"></rect>
                    <rect id="Rectangle-path" x="0" y="0" width="60" height="60"></rect>
                    <path d="M49.77,14.71 C48.8275497,13.7797653 47.3124503,13.7797653 46.37,14.71 L41.28,19.8 L44.68,23.2 L49.77,18.11 C50.7002347,17.1675497 50.7002347,15.6524503 49.77,14.71 Z" id="Shape" fill="#D8E3F0" fill-rule="nonzero"></path>
                    <path d="M50.44,14 C49.2687298,12.8301865 47.3712702,12.8301865 46.2,14 L45.89,14.31 L50.13,18.55 L50.44,18.24 C51.6098135,17.0687298 51.6098135,15.1712702 50.44,14 Z" id="Shape" fill="#FCFEFF" fill-rule="nonzero"></path>
                    <rect id="Rectangle-path" fill="#D8E3F0" fill-rule="nonzero" x="27.59" y="9.32" width="4.8" height="3.84"></rect>
                    <rect id="Rectangle-path" fill="#FCFEFF" fill-rule="nonzero" x="24.71" y="5" width="10.56" height="4.32" rx="0.96"></rect>
                    <path d="M34.31,5 L31,5 C31.5522847,5 32,5.44771525 32,6 L32,8.4 C32,8.95228475 31.5522847,9.4 31,9.4 L34.3,9.4 C34.8522847,9.4 35.3,8.95228475 35.3,8.4 L35.3,6 C35.3000274,5.45159704 34.8583755,5.00548403 34.31,5 Z" id="Shape" fill="#D8E3F0" fill-rule="nonzero"></path>
                    <circle id="Oval" fill="#FFC670" fill-rule="nonzero" cx="29.99" cy="34.01" r="20.99"></circle>
                    <path d="M30,41.3 C22.8695022,41.3072574 15.8112447,39.8717949 9.25,37.08 C10.8562183,47.2928199 19.6566429,54.8173362 29.995,54.8173362 C40.3333571,54.8173362 49.1337817,47.2928199 50.74,37.08 C44.1807056,39.8667814 37.1267446,41.3020618 30,41.3 Z" id="Shape" fill="#FFA742" fill-rule="nonzero"></path>
                    <circle id="Oval" fill="#FCFEFF" fill-rule="nonzero" cx="29.99" cy="34.01" r="16.79"></circle>
                    <circle id="Oval" fill="#D8E3F0" fill-rule="nonzero" cx="29.99" cy="34.01" r="9"></circle>
                    <path d="M32.37,31.63 L27.62,36.38 L20,26.4 C19.5127517,25.7340104 19.5849839,24.8119874 20.17,24.23 C20.7533967,23.6393474 21.6820925,23.5669262 22.35,24.06 L32.37,31.63 Z" id="Shape" fill="#F6716F" fill-rule="nonzero"></path>
                    <circle id="Oval" fill="#D8E3F0" fill-rule="nonzero" cx="29.99" cy="34.01" r="4.32"></circle>
                    <circle id="Oval" fill="#FCFEFF" fill-rule="nonzero" cx="29.99" cy="34.01" r="2.13"></circle>
                    <path d="M30,23.64 C30.5522847,23.64 31,23.1922847 31,22.64 L31,20.89 C31,20.3377153 30.5522847,19.89 30,19.89 C29.4477153,19.89 29,20.3377153 29,20.89 L29,22.64 C29,23.1922847 29.4477153,23.64 30,23.64 Z" id="Shape" fill="#3D3D63" fill-rule="nonzero"></path>
                    <path d="M22.66,42.75 C23.0477236,42.3599625 23.0477236,41.7300375 22.66,41.34 C22.4722334,41.1506873 22.2166375,41.0442017 21.95,41.0442017 C21.6833625,41.0442017 21.4277666,41.1506873 21.24,41.34 L20,42.58 C19.6078778,42.9721222 19.6078778,43.6078778 20,44 C20.3921222,44.3921222 21.0278778,44.3921222 21.42,44 L22.66,42.75 Z" id="Shape" fill="#3D3D63" fill-rule="nonzero"></path>
                    <path d="M19.62,34 C19.62,33.4477153 19.1722847,33 18.62,33 L16.87,33 C16.3177153,33 15.87,33.4477153 15.87,34 C15.87,34.5522847 16.3177153,35 16.87,35 L18.62,35 C19.1722847,35 19.62,34.5522847 19.62,34 Z" id="Shape" fill="#3D3D63" fill-rule="nonzero"></path>
                    <path d="M30,44.38 C29.4477153,44.38 29,44.8277153 29,45.38 L29,47.13 C29,47.6822847 29.4477153,48.13 30,48.13 C30.5522847,48.13 31,47.6822847 31,47.13 L31,45.38 C31,44.8277153 30.5522847,44.38 30,44.38 Z" id="Shape" fill="#3D3D63" fill-rule="nonzero"></path>
                    <path d="M38.74,41.34 C38.3499625,40.9522764 37.7200375,40.9522764 37.33,41.34 C36.9422764,41.7300375 36.9422764,42.3599625 37.33,42.75 L38.56,44 C38.7484832,44.1955519 39.0084002,44.3060259 39.28,44.3060259 C39.5515998,44.3060259 39.8115168,44.1955519 40,44 C40.3877236,43.6099625 40.3877236,42.9800375 40,42.59 L38.74,41.34 Z" id="Shape" fill="#3D3D63" fill-rule="nonzero"></path>
                    <path d="M38.56,24 L37.33,25.24 C36.9422764,25.6300375 36.9422764,26.2599625 37.33,26.65 C37.7200375,27.0377236 38.3499625,27.0377236 38.74,26.65 L40,25.44 C40.397645,25.042355 40.397645,24.397645 40,24 C39.602355,23.602355 38.957645,23.602355 38.56,24 Z" id="Shape" fill="#3D3D63" fill-rule="nonzero"></path>
                    <path d="M49.77,19.52 C50.138751,19.6651626 50.5584338,19.5788727 50.84,19.3 L51.15,18.98 C52.2438402,17.98889 52.7029529,16.475925 52.3443661,15.0440728 C51.9857794,13.6122205 50.8677795,12.4942206 49.4359272,12.1356339 C48.004075,11.7770471 46.49111,12.2361598 45.5,13.33 L45.18,13.64 C44.9148972,13.9302809 44.8444656,14.3489577 45,14.71 L43.25,16.46 C40.3706207,14.2796204 36.9974922,12.8438081 33.43,12.28 L33.43,10.28 L34.35,10.28 C35.4545695,10.28 36.35,9.3845695 36.35,8.28 L36.35,6 C36.35,4.8954305 35.4545695,4 34.35,4 L25.67,4 C24.5654305,4 23.67,4.8954305 23.67,6 L23.67,8.4 C23.67,9.5045695 24.5654305,10.4 25.67,10.4 L26.59,10.4 L26.59,12.4 C16.8879861,13.9644646 9.40023007,21.773783 8.24486262,31.5329709 C7.08949516,41.2921588 12.5467645,50.6340085 21.6152709,54.4206712 C30.6837773,58.2073338 41.1638461,55.5203091 47.2916285,47.8374122 C53.4194109,40.1545152 53.70854,29.3393245 48,21.34 L49.77,19.52 Z M49.77,14.74 C50.4007225,15.3690827 50.5393504,16.3394783 50.11,17.12 L47.36,14.4 C48.1405217,13.9706496 49.1109173,14.1092775 49.74,14.74 L49.77,14.74 Z M46.34,16.19 L48.34,18.19 L46.76,19.77 C46.1429628,19.0554854 45.4745146,18.3870372 44.76,17.77 L46.34,16.19 Z M25.71,8.36 L25.71,6 L34.31,6 L34.31,8.32 L25.71,8.36 Z M31.39,10.36 L31.39,12.1 C30.93,12.1 30.46,12.05 29.99,12.05 C29.52,12.05 29.06,12.05 28.59,12.1 L28.59,10.32 L31.39,10.36 Z M30,54 C18.954305,54 10,45.045695 10,34 C10,22.954305 18.954305,14 30,14 C41.045695,14 50,22.954305 50,34 C50,45.045695 41.045695,54 30,54 Z" id="Shape" fill="#3D3D63" fill-rule="nonzero"></path>
                    <path d="M30,16.21 C22.7987536,16.2059555 16.304527,20.5413032 13.5468607,27.1936143 C10.7891943,33.8459253 12.3114511,41.5044469 17.4035021,46.5964979 C22.4955531,51.6885489 30.1540747,53.2108057 36.8063857,50.4531393 C43.4586968,47.695473 47.7940445,41.2012464 47.79,34 C47.7734847,24.1817033 39.8182967,16.2265153 30,16.21 Z M30,49.8 C23.6085881,49.8040452 17.8442664,45.9570646 15.3955755,40.0533305 C12.9468845,34.1495965 14.296196,27.3520953 18.8141768,22.8312532 C23.3321575,18.3104112 30.1288031,16.9567964 36.0340863,19.4017491 C41.9393694,21.8467018 45.7899987,27.6085868 45.79,34 C45.7900017,42.7221953 38.7221935,49.7944796 30,49.8 Z" id="Shape" fill="#3D3D63" fill-rule="nonzero"></path>
                    <path d="M35.31,34 C35.3113061,31.1342531 33.0344411,28.7865128 30.17,28.7 L23,23.25 C21.9331037,22.4559519 20.4452831,22.5644427 19.5048629,23.5048629 C18.5644427,24.4452831 18.4559519,25.9331037 19.25,27 L24.69,34.17 C24.7369442,37.102632 27.152368,39.4419441 30.085,39.3949999 C33.017632,39.3480557 35.3569442,36.932632 35.31,34 Z M20.85,25.8 C20.6494768,25.530582 20.679406,25.1543292 20.92,24.92 C21.1496147,24.6865689 21.5156574,24.6567747 21.78,24.85 L27.61,29.27 C26.5966447,29.7834296 25.7734296,30.6066447 25.26,31.62 L20.85,25.8 Z M26.67,34 C26.6755233,32.1690299 28.1623457,30.6881757 29.9933233,30.6900168 C31.8243008,30.6918579 33.3081421,32.1756992 33.3099832,34.0066767 C33.3118243,35.8376543 31.8309701,37.3244767 30,37.33 C29.1160143,37.3326666 28.2674655,36.9826848 27.6423904,36.3576096 C27.0173152,35.7325345 26.6673334,34.8839857 26.67,34 Z" id="Shape" fill="#3D3D63" fill-rule="nonzero"></path>
                    <path d="M40.36,34 C40.36,34.5522847 40.8077153,35 41.36,35 L43.11,35 C43.6622847,35 44.11,34.5522847 44.11,34 C44.11,33.4477153 43.6622847,33 43.11,33 L41.36,33 C40.8077153,33 40.36,33.4477153 40.36,34 Z" id="Shape" fill="#3D3D63" fill-rule="nonzero"></path>
                </g>
            </g>
        </g>
    </g>
</svg>