<?xml version="1.0" encoding="UTF-8"?>
<svg width="50px" height="48px" viewBox="0 0 50 48" version="1.1" xmlns="http://www.w3.org/2000/svg" xmlns:xlink="http://www.w3.org/1999/xlink">
    <!-- Generator: sketchtool 50.2 (55047) - http://www.bohemiancoding.com/sketch -->
    <title>8AA0FAE1-4446-4983-B283-5D91A6A45543</title>
    <desc>Created with sketchtool.</desc>
    <defs></defs>
    <g id="Contact-us" stroke="none" stroke-width="1" fill="none" fill-rule="evenodd">
        <g id="Contact" transform="translate(-530.000000, -682.000000)">
            <g id="Group-6" transform="translate(35.000000, 676.000000)">
                <g id="Store" transform="translate(490.000000, 0.000000)">
                    <rect id="Rectangle-path" x="0" y="0" width="60" height="60"></rect>
                    <path d="M49.13,34.55 C48.115138,34.5500035 47.1419875,34.1461679 46.4253104,33.4276147 C45.7086333,32.7090615 45.3073433,31.7348585 45.31,30.72 C45.3127582,31.7384701 44.9054909,32.7151909 44.18,33.43 C43.4691993,34.1541455 42.4946693,34.5583949 41.48,34.55 C40.4634063,34.5526647 39.4876818,34.1500038 38.768839,33.431161 C38.0499962,32.7123182 37.6473353,31.7365937 37.65,30.72 C37.6520479,31.7363587 37.2489829,32.7116319 36.53,33.43 C35.8178928,34.1522084 34.8442211,34.5561018 33.83,34.55 C32.8134063,34.5526647 31.8376818,34.1500038 31.118839,33.431161 C30.3999962,32.7123182 29.9973353,31.7365937 30,30.72 C30.0020479,31.7363587 29.5989829,32.7116319 28.88,33.43 C28.1641719,34.1527768 27.1872382,34.556528 26.17,34.55 C25.155138,34.5500035 24.1819875,34.1461679 23.4653104,33.4276147 C22.7486333,32.7090615 22.3473433,31.7348585 22.35,30.72 C22.3520479,31.7363587 21.9489829,32.7116319 21.23,33.43 C20.5141719,34.1527768 19.5372382,34.556528 18.52,34.55 C16.4047494,34.55 14.69,32.8352506 14.69,30.72 C14.6913779,32.7817618 13.0603844,34.4746358 11,34.55 C10.5785011,34.5634332 10.1581387,34.4990228 9.76,34.36 L9.76,52.7 L50.22,52.7 L50.22,34.38 C49.866437,34.4875036 49.4995078,34.5447311 49.13,34.55 Z" id="Shape" fill="#EDF4FF" fill-rule="nonzero"></path>
                    <path d="M30,48.81 C23.2472486,48.8262791 16.4981927,48.4924979 9.78,47.81 L9.78,52.7 L50.22,52.7 L50.22,47.77 C43.5025011,48.4658571 36.7534435,48.8129896 30,48.81 Z" id="Shape" fill="#D8E3F0" fill-rule="nonzero"></path>
                    <rect id="Rectangle-path" fill="#FCFEFF" fill-rule="nonzero" x="19.41" y="14.08" width="3.52" height="4.75"></rect>
                    <rect id="Rectangle-path" fill="#FCFEFF" fill-rule="nonzero" transform="translate(38.840000, 16.455000) rotate(-180.000000) translate(-38.840000, -16.455000) " x="37.08" y="14.08" width="3.52" height="4.75"></rect>
                    <rect id="Rectangle-path" fill="#96DDFF" fill-rule="nonzero" x="16.42" y="38.51" width="12.28" height="7.63"></rect>
                    <polygon id="Shape" fill="#69BAF9" fill-rule="nonzero" points="23.17 38.51 20.76 46.14 18 46.14 20.41 38.51"></polygon>
                    <polygon id="Shape" fill="#69BAF9" fill-rule="nonzero" points="29.33 38.51 28.92 46.14 24.16 46.14 26.57 38.51"></polygon>
                    <rect id="Rectangle-path" fill="#96DDFF" fill-rule="nonzero" x="35.1" y="38.51" width="8.48" height="14.19"></rect>
                    <path d="M35.1,49.74 L35.1,52.74 L43.58,52.74 L43.58,49.33 C40.79,49.52 38,49.67 35.1,49.74 Z" id="Shape" fill="#69BAF9" fill-rule="nonzero"></path>
                    <rect id="Rectangle-path" fill="#FFC670" fill-rule="nonzero" x="16.06" y="7.3" width="27.89" height="6.78"></rect>
                    <polygon id="Shape" fill="#FFA742" fill-rule="nonzero" points="43.94 7.3 43.94 14.08 29.09 14.08 30.91 7.3"></polygon>
                    <path d="M53,30.72 C53.0722822,32.1332049 52.3594621,33.4711192 51.1462204,34.1994168 C49.9329787,34.9277144 48.4170213,34.9277144 47.2037796,34.1994168 C45.9905379,33.4711192 45.2777178,32.1332049 45.35,30.72 L53,30.72 Z" id="Shape" fill="#D8E3F0" fill-rule="nonzero"></path>
                    <polygon id="Shape" fill="#FCFEFF" fill-rule="nonzero" points="52.96 30.72 45.31 30.72 43.12 18.83 49.68 18.83"></polygon>
                    <path d="M45.31,30.72 C45.3099999,32.8352505 43.5952505,34.5499998 41.48,34.5499998 C39.3647495,34.5499998 37.6500001,32.8352505 37.65,30.72 L45.31,30.72 Z" id="Shape" fill="#F0504D" fill-rule="nonzero"></path>
                    <polygon id="Shape" fill="#F6716F" fill-rule="nonzero" points="45.31 30.72 37.65 30.72 36.56 18.83 43.12 18.83"></polygon>
                    <path d="M37.65,30.72 C37.7222822,32.1332049 37.0094621,33.4711192 35.7962204,34.1994168 C34.5829787,34.9277144 33.0670213,34.9277144 31.8537796,34.1994168 C30.6405379,33.4711192 29.9277178,32.1332049 30,30.72 L37.65,30.72 Z" id="Shape" fill="#D8E3F0" fill-rule="nonzero"></path>
                    <polygon id="Shape" fill="#FCFEFF" fill-rule="nonzero" points="37.65 30.72 30 30.72 30 18.83 36.56 18.83"></polygon>
                    <path d="M30,30.72 C30.0722822,32.1332049 29.3594621,33.4711192 28.1462204,34.1994168 C26.9329787,34.9277144 25.4170213,34.9277144 24.2037796,34.1994168 C22.9905379,33.4711192 22.2777178,32.1332049 22.35,30.72 L30,30.72 Z" id="Shape" fill="#F0504D" fill-rule="nonzero"></path>
                    <polygon id="Shape" fill="#F6716F" fill-rule="nonzero" points="30 18.83 30 30.72 22.35 30.72 23.44 18.83"></polygon>
                    <path d="M22.35,30.72 C22.35,32.8352506 20.6352506,34.55 18.52,34.55 C16.4047494,34.55 14.69,32.8352506 14.69,30.72 L22.35,30.72 Z" id="Shape" fill="#D8E3F0" fill-rule="nonzero"></path>
                    <polygon id="Shape" fill="#FCFEFF" fill-rule="nonzero" points="23.44 18.83 22.35 30.72 14.69 30.72 16.88 18.83"></polygon>
                    <path d="M14.6900009,30.72 C14.6913779,32.7817618 13.0603844,34.4746358 11,34.55 C8.85558246,34.5519375 7.09113691,32.8624809 7,30.72 L14.6900009,30.72 Z" id="Shape" fill="#F0504D" fill-rule="nonzero"></path>
                    <path d="M16.88,18.83 L14.69,30.72 L7.05,30.72 C7.0450374,30.6601026 7.0450374,30.5998974 7.05,30.54 L10.33,18.83 L16.88,18.83 Z" id="Shape" fill="#F6716F" fill-rule="nonzero"></path>
                    <path d="M29.7,45.18 L29.7,38.51 C29.7,37.9577153 29.2522847,37.51 28.7,37.51 L16.42,37.51 C15.8677153,37.51 15.42,37.9577153 15.42,38.51 L15.42,45.18 C14.9428918,45.2722491 14.6011636,45.6941358 14.61,46.18 C14.61,46.7322847 15.0577153,47.18 15.61,47.18 L29.52,47.18 C30.0722847,47.18 30.52,46.7322847 30.52,46.18 C30.5279763,45.6909963 30.1810925,45.2679673 29.7,45.18 Z M21.56,45.18 L17.42,45.18 L17.42,39.51 L21.56,39.51 L21.56,45.18 Z M27.7,45.18 L23.56,45.18 L23.56,39.51 L27.7,39.51 L27.7,45.18 Z" id="Shape" fill="#3D3D63" fill-rule="nonzero"></path>
                    <path d="M38.52,46.14 C39.1993102,46.14 39.75,45.5893102 39.75,44.91 C39.75,44.2306898 39.1993102,43.68 38.52,43.68 C37.8406898,43.68 37.29,44.2306898 37.29,44.91 C37.29,45.5893102 37.8406898,46.14 38.52,46.14 Z" id="Shape" fill="#3D3D63" fill-rule="nonzero"></path>
                    <path d="M54,51.7 L51.22,51.7 L51.22,35.06 C52.9157461,34.2815737 54.0019294,32.5858775 54,30.72 C54.0103734,30.6336437 54.0103734,30.5463563 54,30.46 L50.72,18.56 C50.5954894,18.1147625 50.1820038,17.812918 49.72,17.83 L41.59,17.83 L41.59,15.08 L43.94,15.08 C44.4922847,15.08 44.94,14.6322847 44.94,14.08 L44.94,7.3 C44.94,6.74771525 44.4922847,6.3 43.94,6.3 L16.06,6.3 C15.5077153,6.3 15.06,6.74771525 15.06,7.3 L15.06,14.08 C15.06,14.6322847 15.5077153,15.08 16.06,15.08 L18.41,15.08 L18.41,17.83 L10.32,17.83 C9.85799617,17.812918 9.44451058,18.1147625 9.32,18.56 L6.08,30.28 C6.06962659,30.3663563 6.06962659,30.4536437 6.08,30.54 C6.08296771,31.9258332 6.64977353,33.250787 7.65,34.21 C7.98512678,34.5282555 8.36601568,34.7945407 8.78,35 L8.78,51.7 L6,51.7 C5.44771525,51.7 5,52.1477153 5,52.7 C5,53.2522847 5.44771525,53.7 6,53.7 L54,53.7 C54.5522847,53.7 55,53.2522847 55,52.7 C55,52.1477153 54.5522847,51.7 54,51.7 Z M38.07,17.63 L38.07,15.28 L39.59,15.28 L39.59,17.63 L38.07,17.63 Z M17.07,8.3 L42.94,8.3 L42.94,13.08 L17.06,13.08 L17.07,8.3 Z M21.94,15.3 L21.94,17.65 L20.41,17.65 L20.41,15.28 L21.94,15.3 Z M23.94,15.1 L36.07,15.1 L36.07,17.85 L23.93,17.85 L23.94,15.1 Z M42.58,51.7 L36.1,51.7 L36.1,39.51 L42.58,39.51 L42.58,51.7 Z M49.22,51.7 L44.58,51.7 L44.58,38.51 C44.58,37.9577153 44.1322847,37.51 43.58,37.51 L35.1,37.51 C34.5477153,37.51 34.1,37.9577153 34.1,38.51 L34.1,51.7 L10.78,51.7 L10.78,35.53 L11.06,35.53 C12.2706535,35.4865332 13.418951,34.9821408 14.27,34.12 C14.4232039,33.9720526 14.5636987,33.8114872 14.69,33.64 C15.6036435,34.8308881 17.0190142,35.5293347 18.52,35.53 C19.8004591,35.5398948 21.0304483,35.0313069 21.93,34.12 C22.0779545,33.9706274 22.2181391,33.8137541 22.35,33.65 C23.263548,34.8343459 24.6742583,35.5286222 26.17,35.53 C27.450237,35.5387543 28.6798002,35.0303426 29.58,34.12 C29.7304655,33.9694685 29.8707739,33.809116 30,33.64 C30.9136435,34.8308881 32.3290142,35.5293347 33.83,35.53 C35.106775,35.5360579 36.3322299,35.0278545 37.23,34.12 C37.3804655,33.9694685 37.5207739,33.809116 37.65,33.64 C38.5636435,34.8308881 39.9790142,35.5293347 41.48,35.53 C42.760237,35.5387543 43.9898002,35.0303426 44.89,34.12 C45.0379545,33.9706274 45.1781391,33.8137541 45.31,33.65 C46.2215603,34.8367736 47.6335472,35.5316782 49.13,35.53 L49.22,35.53 L49.22,51.7 Z M49.13,33.55 C47.5709408,33.5444909 46.3099903,32.2790689 46.31,30.72 C46.31,30.1677153 45.8622847,29.72 45.31,29.72 C44.7577153,29.72 44.31,30.1677153 44.31,30.72 C44.3078679,31.4720003 44.0054677,32.1920007 43.47,32.72 C42.9425465,33.2538825 42.2204256,33.549952 41.47,33.54 C39.9070342,33.54 38.64,32.2729658 38.64,30.71 C38.64,30.1577153 38.1922847,29.71 37.64,29.71 C37.0877153,29.71 36.64,30.1577153 36.64,30.71 C36.6400097,32.2690689 35.3790592,33.5344909 33.82,33.54 C32.2648349,33.5345144 31.0054856,32.2751651 31,30.72 C31,30.1677153 30.5522847,29.72 30,29.72 C29.4477153,29.72 29,30.1677153 29,30.72 C29.0624623,31.7693858 28.5380974,32.7669233 27.6382888,33.3104824 C26.7384802,33.8540415 25.6115198,33.8540415 24.7117112,33.3104824 C23.8119026,32.7669233 23.2875377,31.7693858 23.35,30.72 C23.35,30.1677153 22.9022847,29.72 22.35,29.72 C21.7977153,29.72 21.35,30.1677153 21.35,30.72 C21.35,32.2829658 20.0829658,33.55 18.52,33.55 C16.9570342,33.55 15.69,32.2829658 15.69,30.72 C15.69,30.1677153 15.2422847,29.72 14.69,29.72 C14.1377153,29.72 13.69,30.1677153 13.69,30.72 C13.6969681,32.2319219 12.5103313,33.4803168 11,33.55 C10.2553918,33.570541 9.53409539,33.2892354 9,32.77 C8.42347783,32.2193349 8.08294162,31.4665706 8.05,30.67 L11.05,19.83 L15.65,19.83 L14.46,26.32 C14.3626827,26.8607885 14.7199262,27.3787916 15.26,27.48 L15.44,27.48 C15.9290037,27.4879763 16.3520327,27.1410925 16.44,26.66 L17.7,19.81 L22.34,19.81 L21.73,26.38 C21.7050255,26.6454479 21.7870888,26.9098782 21.9579595,27.1145475 C22.1288302,27.3192169 22.3743585,27.4471764 22.64,27.47 L22.73,27.47 C23.2489652,27.4721057 23.683297,27.0768638 23.73,26.56 L24.35,19.8 L29,19.8 L29,26.5 C29,27.0522847 29.4477153,27.5 30,27.5 C30.5522847,27.5 31,27.0522847 31,26.5 L31,19.83 L35.64,19.83 L36.26,26.59 C36.306703,27.1068638 36.7410348,27.5021057 37.26,27.5 L37.35,27.5 C37.6156415,27.4771764 37.8611698,27.3492169 38.0320405,27.1445475 C38.2029112,26.9398782 38.2849745,26.6754479 38.26,26.41 L37.65,19.84 L42.29,19.84 L43.55,26.69 C43.6379673,27.1710925 44.0609963,27.5179763 44.55,27.51 L44.73,27.51 C45.2700738,27.4087916 45.6273173,26.8907885 45.53,26.35 L44.34,19.86 L48.94,19.86 L51.94,30.86 C51.9106304,31.5689859 51.6141157,32.2406095 51.11,32.74 C50.5857322,33.2652048 49.8720549,33.5571637 49.13,33.55 Z" id="Shape" fill="#3D3D63" fill-rule="nonzero"></path>
                </g>
            </g>
        </g>
    </g>
</svg>