<svg xmlns="http://www.w3.org/2000/svg" viewBox="0 0 60 60"><defs><style>.cls-1{fill:none;}.cls-2{fill:#edf4ff;}.cls-3{fill:#d8e3f0;}.cls-4{fill:#fcfeff;}.cls-5{fill:#96ddff;}.cls-6{fill:#69baf9;}.cls-7{fill:#ffc670;}.cls-8{fill:#ffa742;}.cls-9{fill:#f0504d;}.cls-10{fill:#f6716f;}.cls-11{fill:#3d3d63;}</style></defs><title>Store</title><g id="图层_2" data-name="图层 2"><g id="Graphics"><g id="Store"><rect class="cls-1" width="60" height="60"/><path class="cls-2" d="M49.13,34.55a3.82,3.82,0,0,1-3.82-3.83,3.79,3.79,0,0,1-1.13,2.71,3.74,3.74,0,0,1-2.7,1.12,3.82,3.82,0,0,1-3.83-3.83,3.82,3.82,0,0,1-1.12,2.71,3.76,3.76,0,0,1-2.7,1.12A3.82,3.82,0,0,1,30,30.72a3.82,3.82,0,0,1-1.12,2.71,3.78,3.78,0,0,1-2.71,1.12,3.82,3.82,0,0,1-3.82-3.83,3.82,3.82,0,0,1-1.12,2.71,3.78,3.78,0,0,1-2.71,1.12,3.83,3.83,0,0,1-3.83-3.83A3.83,3.83,0,0,1,11,34.55a3.43,3.43,0,0,1-1.24-.19V52.7H50.22V34.38A3.94,3.94,0,0,1,49.13,34.55Z"/><path class="cls-3" d="M30,48.81a195.4,195.4,0,0,1-20.22-1V52.7H50.22V47.77A195.4,195.4,0,0,1,30,48.81Z"/><rect class="cls-4" x="19.41" y="14.08" width="3.52" height="4.75"/><rect class="cls-4" x="37.07" y="14.08" width="3.52" height="4.75" transform="translate(77.67 32.91) rotate(-180)"/><rect class="cls-5" x="16.42" y="38.51" width="12.28" height="7.63"/><polygon class="cls-6" points="23.17 38.51 20.76 46.14 18 46.14 20.41 38.51 23.17 38.51"/><polygon class="cls-6" points="29.33 38.51 28.92 46.14 24.16 46.14 26.57 38.51 29.33 38.51"/><rect class="cls-5" x="35.1" y="38.51" width="8.48" height="14.19"/><path class="cls-6" d="M35.1,49.74v3h8.48V49.33C40.79,49.52,38,49.67,35.1,49.74Z"/><rect class="cls-7" x="16.06" y="7.3" width="27.89" height="6.78"/><polygon class="cls-8" points="43.94 7.3 43.94 14.08 29.09 14.08 30.91 7.3 43.94 7.3"/><path class="cls-3" d="M53,30.72a3.83,3.83,0,1,1-7.65,0Z"/><polygon class="cls-4" points="52.96 30.72 45.31 30.72 43.12 18.83 49.68 18.83 52.96 30.72"/><path class="cls-9" d="M45.31,30.72a3.83,3.83,0,0,1-7.66,0Z"/><polygon class="cls-10" points="45.31 30.72 37.65 30.72 36.56 18.83 43.12 18.83 45.31 30.72"/><path class="cls-3" d="M37.65,30.72a3.83,3.83,0,1,1-7.65,0Z"/><polygon class="cls-4" points="37.65 30.72 30 30.72 30 18.83 36.56 18.83 37.65 30.72"/><path class="cls-9" d="M30,30.72a3.83,3.83,0,1,1-7.65,0Z"/><polygon class="cls-10" points="30 18.83 30 30.72 22.35 30.72 23.44 18.83 30 18.83"/><path class="cls-3" d="M22.35,30.72a3.83,3.83,0,0,1-7.66,0Z"/><polygon class="cls-4" points="23.44 18.83 22.35 30.72 14.69 30.72 16.88 18.83 23.44 18.83"/><path class="cls-9" d="M14.69,30.72A3.83,3.83,0,0,1,11,34.55a4,4,0,0,1-4-3.83Z"/><path class="cls-10" d="M16.88,18.83,14.69,30.72H7.05a1.09,1.09,0,0,1,0-.18l3.28-11.71Z"/><path class="cls-11" d="M29.7,45.18V38.51a1,1,0,0,0-1-1H16.42a1,1,0,0,0-1,1v6.67a1,1,0,0,0-.81,1,1,1,0,0,0,1,1H29.52a1,1,0,0,0,1-1A1,1,0,0,0,29.7,45.18Zm-8.14,0H17.42V39.51h4.14Zm6.14,0H23.56V39.51H27.7Z"/><path class="cls-11" d="M38.52,46.14a1.23,1.23,0,1,0-1.23-1.23A1.23,1.23,0,0,0,38.52,46.14Z"/><path class="cls-11" d="M54,51.7H51.22V35.06A4.77,4.77,0,0,0,54,30.72a1.09,1.09,0,0,0,0-.26l-3.28-11.9a1,1,0,0,0-1-.73H41.59V15.08h2.35a1,1,0,0,0,1-1V7.3a1,1,0,0,0-1-1H16.06a1,1,0,0,0-1,1v6.78a1,1,0,0,0,1,1h2.35v2.75H10.32a1,1,0,0,0-1,.73L6.08,30.28a1.09,1.09,0,0,0,0,.26,5.1,5.1,0,0,0,1.57,3.67A4.63,4.63,0,0,0,8.78,35V51.7H6a1,1,0,0,0,0,2H54a1,1,0,0,0,0-2ZM38.07,17.63V15.28h1.52v2.35Zm-21-9.33H42.94v4.78H17.06Zm4.87,7v2.35H20.41V15.28Zm2-.2H36.07v2.75H23.93ZM42.58,51.7H36.1V39.51h6.48Zm6.64,0H44.58V38.51a1,1,0,0,0-1-1H35.1a1,1,0,0,0-1,1V51.7H10.78V35.53l.28,0a4.75,4.75,0,0,0,3.21-1.41,3.8,3.8,0,0,0,.42-.48,4.83,4.83,0,0,0,3.83,1.89,4.74,4.74,0,0,0,3.41-1.41,6.14,6.14,0,0,0,.42-.47,4.83,4.83,0,0,0,3.82,1.88,4.75,4.75,0,0,0,3.41-1.41,4.81,4.81,0,0,0,.42-.48,4.83,4.83,0,0,0,3.83,1.89,4.75,4.75,0,0,0,3.4-1.41,4.81,4.81,0,0,0,.42-.48,4.83,4.83,0,0,0,3.83,1.89,4.75,4.75,0,0,0,3.41-1.41,6.14,6.14,0,0,0,.42-.47,4.81,4.81,0,0,0,3.82,1.88h.09Zm-.09-18.15a2.83,2.83,0,0,1-2.82-2.83,1,1,0,0,0-2,0,2.82,2.82,0,0,1-.84,2,2.76,2.76,0,0,1-2,.82,2.83,2.83,0,0,1-2.83-2.83,1,1,0,0,0-2,0,2.83,2.83,0,0,1-2.82,2.83A2.83,2.83,0,0,1,31,30.72a1,1,0,0,0-2,0,2.83,2.83,0,1,1-5.65,0,1,1,0,0,0-2,0,2.83,2.83,0,1,1-5.66,0,1,1,0,0,0-2,0A2.82,2.82,0,0,1,11,33.55a2.76,2.76,0,0,1-2-.78,3.08,3.08,0,0,1-.95-2.1l3-10.84h4.6l-1.19,6.49a1,1,0,0,0,.8,1.16l.18,0a1,1,0,0,0,1-.82l1.26-6.85h4.64l-.61,6.57a1,1,0,0,0,.91,1.09h.09a1,1,0,0,0,1-.91l.62-6.76H29V26.5a1,1,0,0,0,2,0V19.83h4.64l.62,6.76a1,1,0,0,0,1,.91h.09a1,1,0,0,0,.91-1.09l-.61-6.57h4.64l1.26,6.85a1,1,0,0,0,1,.82l.18,0a1,1,0,0,0,.8-1.16l-1.19-6.49h4.6l3,11a2.81,2.81,0,0,1-.83,1.88A2.76,2.76,0,0,1,49.13,33.55Z"/></g></g></g></svg>