<svg xmlns="http://www.w3.org/2000/svg" viewBox="0 0 60 60"><defs><style>.cls-1{fill:none;}.cls-2{fill:#ffc670;}.cls-3{fill:#69baf9;}.cls-4{fill:#f6716f;}.cls-5{fill:#f0504d;}.cls-6{fill:#ffdead;}.cls-7{fill:#96ddff;}.cls-8{fill:#edf4ff;}.cls-9{fill:#3d3d63;}</style></defs><title>Team</title><g id="图层_2" data-name="图层 2"><g id="Graphics"><g id="Team"><rect class="cls-1" width="60" height="60"/><circle class="cls-2" cx="38.18" cy="28.59" r="4.47"/><path class="cls-3" d="M37.06,33.06H39.3a6.7,6.7,0,0,1,6.7,6.7v0a0,0,0,0,1,0,0H30.36a0,0,0,0,1,0,0v0A6.7,6.7,0,0,1,37.06,33.06Z"/><circle class="cls-2" cx="21.82" cy="28.59" r="4.47"/><path class="cls-3" d="M20.7,33.06h2.23a6.7,6.7,0,0,1,6.7,6.7v0a0,0,0,0,1,0,0H14a0,0,0,0,1,0,0v0A6.7,6.7,0,0,1,20.7,33.06Z"/><path class="cls-4" d="M48,43.64v4.12H12v-4a149.72,149.72,0,0,0,17.64,1A148.24,148.24,0,0,0,48,43.64Z"/><path class="cls-5" d="M55.33,42.43h-14v1.86c-3.77.29-7.67.46-11.69.46-3.76,0-7.42-.15-11-.4V42.43h-14l4.66,4.66L4.67,51.76h14v-4H41.33v4h14l-4.66-4.67Z"/><path class="cls-4" d="M48,38.43v5.21a148.24,148.24,0,0,1-18.36,1.11,149.72,149.72,0,0,1-17.64-1v-5.3Z"/><circle class="cls-6" cx="30" cy="25.28" r="5.95"/><path class="cls-2" d="M30,28.34a6.41,6.41,0,0,1-5.89-3.85,5.16,5.16,0,0,0-.06.79,5.95,5.95,0,1,0,11.9,0,5.16,5.16,0,0,0-.06-.79A6.41,6.41,0,0,1,30,28.34Z"/><path class="cls-7" d="M28.58,31.23h2.84A8.53,8.53,0,0,1,40,39.76v0a0,0,0,0,1,0,0H20a0,0,0,0,1,0,0v0A8.53,8.53,0,0,1,28.58,31.23Z"/><path class="cls-8" d="M30,38.43l5.18-6.32a8.49,8.49,0,0,0-3.76-.88H28.58a8.49,8.49,0,0,0-3.86.93Z"/><path class="cls-5" d="M29.64,7.24a1,1,0,0,0-1,1v2a1,1,0,1,0,2,0v-2A1,1,0,0,0,29.64,7.24Z"/><path class="cls-5" d="M20.63,9.66A1,1,0,0,0,20.26,11l1,1.73a1,1,0,1,0,1.73-1L22,10A1,1,0,0,0,20.63,9.66Z"/><path class="cls-5" d="M14,16.26a1,1,0,0,0,.37,1.36l1.73,1a1,1,0,0,0,1.37-.36,1,1,0,0,0-.37-1.37l-1.73-1A1,1,0,0,0,14,16.26Z"/><path class="cls-5" d="M38.66,9.66A1,1,0,0,1,39,11l-1,1.73a1,1,0,1,1-1.73-1l1-1.73A1,1,0,0,1,38.66,9.66Z"/><path class="cls-5" d="M45.27,16.26a1,1,0,0,1-.37,1.36l-1.73,1a1,1,0,1,1-1-1.73l1.73-1A1,1,0,0,1,45.27,16.26Z"/><path class="cls-4" d="M48,38.43v5.21a148.24,148.24,0,0,1-18.36,1.11,149.72,149.72,0,0,1-17.64-1v-5.3Z"/><path class="cls-9" d="M52.08,47.09l4-4a1,1,0,0,0-.71-1.7H49v-3a1,1,0,0,0-1-1H46.63A7.75,7.75,0,0,0,42,32.53a5.46,5.46,0,0,0-5.28-9.2,6.95,6.95,0,0,0-13.34,0,5.48,5.48,0,0,0-7,5.26,5.4,5.4,0,0,0,1.7,3.94,7.75,7.75,0,0,0-4.68,4.9H12a1,1,0,0,0-1,1v3H4.67A1,1,0,0,0,4,43.13l4,4-4,4a1,1,0,0,0,.71,1.71h14a1,1,0,0,0,1-1v-3H40.33v3a1,1,0,0,0,1,1h14A1,1,0,0,0,56,51.05Zm-7.6-9.66H40.65a9.55,9.55,0,0,0-1.58-3.38h.22A5.69,5.69,0,0,1,44.48,37.43ZM37,25.35a3.4,3.4,0,0,1,1.23-.23A3.47,3.47,0,1,1,35,30.06,7,7,0,0,0,37,25.35Zm-1.52,8a7.46,7.46,0,0,1,3.15,4.06H32.11ZM30,36.86l-3.63-4.3a7.79,7.79,0,0,1,2.22-.33h2.84a7.39,7.39,0,0,1,2.12.3Zm0-16.53a5,5,0,1,1-4.95,5A5,5,0,0,1,30,20.33Zm-2.15,17.1H21.42a7.45,7.45,0,0,1,3.06-4Zm-6-12.31a3.4,3.4,0,0,1,1.23.23A7,7,0,0,0,25,30.06a3.47,3.47,0,1,1-3.15-4.94Zm-1.11,8.94h.22a9.42,9.42,0,0,0-1.58,3.37H15.52A5.69,5.69,0,0,1,20.71,34.06ZM7.08,50.76l3-3a1,1,0,0,0,0-1.41l-3-3H11v4.33a1,1,0,0,0,.49.84l3.57,2.16ZM17.67,50l-2.06-1.23h2.06ZM13,46.76V39.43H47v7.33ZM42.33,50V48.76h2.06Zm2.61.77,3.57-2.16a1,1,0,0,0,.49-.84V43.43h3.92l-3,3a1,1,0,0,0,0,1.41l3,3Z"/><path class="cls-9" d="M39.33,42.09H20.67a1,1,0,0,0,0,2H39.33a1,1,0,0,0,0-2Z"/><path class="cls-9" d="M29.64,11.24a1,1,0,0,0,1-1v-2a1,1,0,0,0-2,0v2A1,1,0,0,0,29.64,11.24Z"/><path class="cls-9" d="M21.26,12.75a1,1,0,1,0,1.73-1L22,10a1,1,0,0,0-1.73,1Z"/><path class="cls-9" d="M14.39,17.62l1.73,1a1,1,0,0,0,1.37-.36,1,1,0,0,0-.37-1.37l-1.73-1a1,1,0,0,0-1.37.37A1,1,0,0,0,14.39,17.62Z"/><path class="cls-9" d="M36.66,13.12A1,1,0,0,0,38,12.75L39,11a1,1,0,0,0-1.73-1l-1,1.73A1,1,0,0,0,36.66,13.12Z"/><path class="cls-9" d="M43.17,18.62l1.73-1a1,1,0,0,0,.37-1.36,1,1,0,0,0-1.37-.37l-1.73,1a1,1,0,1,0,1,1.73Z"/></g></g></g></svg>