<?xml version="1.0" encoding="UTF-8"?>
<svg width="54px" height="46px" viewBox="0 0 54 46" version="1.1" xmlns="http://www.w3.org/2000/svg" xmlns:xlink="http://www.w3.org/1999/xlink">
    <!-- Generator: sketchtool 50.2 (55047) - http://www.bohemiancoding.com/sketch -->
    <title>7EE68C66-8634-4C4D-84F8-E406669649B6</title>
    <desc>Created with sketchtool.</desc>
    <defs></defs>
    <g id="Contact-us" stroke="none" stroke-width="1" fill="none" fill-rule="evenodd">
        <g id="Contact" transform="translate(-471.000000, -1222.000000)">
            <g id="Group-7" transform="translate(317.000000, 1215.000000)">
                <g id="Group-9" transform="translate(151.000000, 0.000000)">
                    <g id="Team">
                        <rect id="Rectangle-path" x="0" y="0" width="60" height="60"></rect>
                        <circle id="Oval" fill="#FFC670" fill-rule="nonzero" cx="38.18" cy="28.59" r="4.47"></circle>
                        <path d="M37.06,33.06 L39.3,33.06 C41.0769505,33.06 42.7811217,33.7658908 44.0376154,35.0223846 C45.2941092,36.2788783 46,37.9830495 46,39.76 L30.36,39.76 C30.36,37.9830495 31.0658908,36.2788783 32.3223846,35.0223846 C33.5788783,33.7658908 35.2830495,33.06 37.06,33.06 Z" id="Shape" fill="#69BAF9" fill-rule="nonzero"></path>
                        <circle id="Oval" fill="#FFC670" fill-rule="nonzero" cx="21.82" cy="28.59" r="4.47"></circle>
                        <path d="M20.7,33.06 L22.93,33.06 C24.7069505,33.06 26.4111217,33.7658908 27.6676154,35.0223846 C28.9241092,36.2788783 29.63,37.9830495 29.63,39.76 L14,39.76 C14,37.9830495 14.7058908,36.2788783 15.9623846,35.0223846 C17.2188783,33.7658908 18.9230495,33.06 20.7,33.06 Z" id="Shape" fill="#69BAF9" fill-rule="nonzero"></path>
                        <path d="M48,43.64 L48,47.76 L12,47.76 L12,43.76 C17.8551879,44.4402919 23.7454415,44.7742065 29.64,44.76 C35.777284,44.767088 41.9090852,44.3930348 48,43.64 Z" id="Shape" fill="#F6716F" fill-rule="nonzero"></path>
                        <path d="M55.33,42.43 L41.33,42.43 L41.33,44.29 C37.56,44.58 33.66,44.75 29.64,44.75 C25.88,44.75 22.22,44.6 18.64,44.35 L18.64,42.43 L4.64,42.43 L9.3,47.09 L4.67,51.76 L18.67,51.76 L18.67,47.76 L41.33,47.76 L41.33,51.76 L55.33,51.76 L50.67,47.09 L55.33,42.43 Z" id="Shape" fill="#F0504D" fill-rule="nonzero"></path>
                        <path d="M48,38.43 L48,43.64 C41.908877,44.3896922 35.7770766,44.7604056 29.64,44.75 C23.7454415,44.7642065 17.8551879,44.4302919 12,43.75 L12,38.45 L48,38.43 Z" id="Shape" fill="#F6716F" fill-rule="nonzero"></path>
                        <circle id="Oval" fill="#FFDEAD" fill-rule="nonzero" cx="30" cy="25.28" r="5.95"></circle>
                        <path d="M30,28.34 C27.4447972,28.3453367 25.1304833,26.8325848 24.11,24.49 C24.0697834,24.7514065 24.0497242,25.0155181 24.05,25.28 C24.05,28.5660943 26.7139057,31.23 30,31.23 C33.2860943,31.23 35.95,28.5660943 35.95,25.28 C35.9502758,25.0155181 35.9302166,24.7514065 35.89,24.49 C34.8695167,26.8325848 32.5552028,28.3453367 30,28.34 Z" id="Shape" fill="#FFC670" fill-rule="nonzero"></path>
                        <path d="M28.58,31.23 L31.42,31.23 C33.6909474,31.2166882 35.8734535,32.109502 37.4839692,33.7106324 C39.0944848,35.3117628 40.000039,37.4890136 40,39.76 L20,39.76 C19.999961,37.4890136 20.9055152,35.3117628 22.5160308,33.7106324 C24.1265465,32.109502 26.3090526,31.2166882 28.58,31.23 Z" id="Shape" fill="#96DDFF" fill-rule="nonzero"></path>
                        <path d="M30,38.43 L35.18,32.11 C34.0109012,31.5317427 32.7242903,31.230621 31.42,31.23 L28.58,31.23 C27.2379125,31.2305508 25.9150744,31.5492657 24.72,32.16 L30,38.43 Z" id="Shape" fill="#EDF4FF" fill-rule="nonzero"></path>
                        <path d="M29.64,7.24 C29.0877153,7.24 28.64,7.68771525 28.64,8.24 L28.64,10.24 C28.64,10.7922847 29.0877153,11.24 29.64,11.24 C30.1922847,11.24 30.64,10.7922847 30.64,10.24 L30.64,8.24 C30.64,7.68771525 30.1922847,7.24 29.64,7.24 Z" id="Shape" fill="#F0504D" fill-rule="nonzero"></path>
                        <path d="M20.63,9.66 C20.1656037,9.93389095 20.0019385,10.5266244 20.26,11 L21.26,12.73 C21.4302629,13.0554784 21.7652613,13.2614125 22.1325499,13.2663839 C22.4998385,13.2713553 22.840288,13.0745637 23.0192979,12.7538128 C23.1983077,12.433062 23.1870594,12.0399891 22.99,11.73 L22,10 C21.7149097,9.52869637 21.1023694,9.37667907 20.63,9.66 Z" id="Shape" fill="#F0504D" fill-rule="nonzero"></path>
                        <path d="M14,16.26 C13.7286117,16.7379792 13.8938636,17.3453915 14.37,17.62 L16.1,18.62 C16.3293087,18.7543739 16.6026768,18.7919353 16.8597298,18.7243886 C17.1167828,18.6568418 17.336372,18.4897442 17.47,18.26 C17.603545,18.0294763 17.6395837,17.7551937 17.5701217,17.4979963 C17.5006596,17.240799 17.3314397,17.0219512 17.1,16.89 L15.37,15.89 C15.1394763,15.756455 14.8651937,15.7204163 14.6079963,15.7898783 C14.350799,15.8593404 14.1319512,16.0285603 14,16.26 Z" id="Shape" fill="#F0504D" fill-rule="nonzero"></path>
                        <path d="M38.66,9.66 C39.1135476,9.94379453 39.2633771,10.5342992 39,11 L38,12.73 C37.8297371,13.0554784 37.4947387,13.2614125 37.1274501,13.2663839 C36.7601615,13.2713553 36.419712,13.0745637 36.2407021,12.7538128 C36.0616923,12.433062 36.0729406,12.0399891 36.27,11.73 L37.27,10 C37.4069969,9.76809022 37.6317548,9.60125195 37.8933931,9.53725411 C38.1550313,9.47325626 38.4314236,9.51751103 38.66,9.66 Z" id="Shape" fill="#F0504D" fill-rule="nonzero"></path>
                        <path d="M45.27,16.26 C45.5413883,16.7379792 45.3761364,17.3453915 44.9,17.62 L43.17,18.62 C42.8600109,18.8170594 42.466938,18.8283077 42.1461872,18.6492979 C41.8254363,18.470288 41.6286447,18.1298385 41.6336161,17.7625499 C41.6385875,17.3952613 41.8445216,17.0602629 42.17,16.89 L43.9,15.89 C44.1305237,15.756455 44.4048063,15.7204163 44.6620037,15.7898783 C44.919201,15.8593404 45.1380488,16.0285603 45.27,16.26 Z" id="Shape" fill="#F0504D" fill-rule="nonzero"></path>
                        <path d="M48,38.43 L48,43.64 C41.908877,44.3896922 35.7770766,44.7604056 29.64,44.75 C23.7454415,44.7642065 17.8551879,44.4302919 12,43.75 L12,38.45 L48,38.43 Z" id="Shape" fill="#F6716F" fill-rule="nonzero"></path>
                        <path d="M52.08,47.09 L56.08,43.09 C56.3613286,42.8029942 56.443505,42.3754545 56.288621,42.0046054 C56.1337369,41.6337563 55.7718897,41.3916616 55.37,41.39 L49,41.39 L49,38.39 C49,37.8377153 48.5522847,37.39 48,37.39 L46.63,37.39 C45.904677,35.1510128 44.2012212,33.362936 42,32.53 C43.8221693,30.7951997 44.2230241,28.0398623 42.9706955,25.8577747 C41.718367,23.6756871 39.137103,22.6318267 36.72,23.33 C35.8528113,20.3680898 33.1362483,18.3328441 30.05,18.3328441 C26.9637517,18.3328441 24.2471887,20.3680898 23.38,23.33 C21.7261853,22.8525427 19.9441347,23.1799122 18.5679936,24.2139839 C17.1918525,25.2480557 16.3815637,26.8686441 16.38,28.59 C16.3781204,30.0817706 16.9934387,31.5078613 18.08,32.53 C15.8507964,33.3587312 14.1255264,35.1651037 13.4,37.43 L12,37.43 C11.4477153,37.43 11,37.8777153 11,38.43 L11,41.43 L4.67,41.43 C4.27533996,41.4470753 3.92771828,41.6948811 3.78287367,42.0623973 C3.63802905,42.4299135 3.7231103,42.8482551 4,43.13 L8,47.13 L4,51.13 C3.71154005,51.4160905 3.62483814,51.8482668 3.78062905,52.2234815 C3.93641996,52.5986962 4.30373493,52.8423626 4.71,52.84 L18.71,52.84 C19.2622847,52.84 19.71,52.3922847 19.71,51.84 L19.71,48.84 L40.33,48.84 L40.33,51.84 C40.33,52.3922847 40.7777153,52.84 41.33,52.84 L55.33,52.84 C55.7680633,52.8659597 56.1718679,52.6032866 56.3257004,52.1923013 C56.4795329,51.781316 56.3474456,51.3180576 56,51.05 L52.08,47.09 Z M44.48,37.43 L40.65,37.43 C40.3506833,36.2104101 39.8137717,35.0618269 39.07,34.05 L39.29,34.05 C41.5353648,34.0539477 43.5684392,35.3779923 44.48,37.43 Z M37,25.35 C37.3922395,25.1978966 37.8093014,25.1199095 38.23,25.12 C39.9399577,25.1630172 41.3635038,26.4456939 41.5838272,28.1419438 C41.8041507,29.8381936 40.7555228,31.4419775 39.1132948,31.9204052 C37.4710667,32.398833 35.7251615,31.6091762 35,30.06 C36.2371797,28.7986606 36.9516259,27.11614 37,25.35 Z M35.48,33.35 C36.9776839,34.2875776 38.0939532,35.7263246 38.63,37.41 L32.11,37.41 L35.48,33.35 Z M30,36.86 L26.37,32.56 C27.0901913,32.3434164 27.8379503,32.232263 28.59,32.23 L31.43,32.23 C32.1474831,32.2265549 32.8616437,32.3276154 33.55,32.53 L30,36.86 Z M30,20.33 C32.0267381,20.3097316 33.865209,21.5150077 34.6548926,23.3816834 C35.4445763,25.248359 35.0292275,27.4070973 33.6032555,28.847473 C32.1772836,30.2878487 30.0228286,30.7248719 28.1483109,29.9539882 C26.2737932,29.1831044 25.0501013,27.3568395 25.05,25.33 C25.0498629,22.5879852 27.2581223,20.3574201 30,20.33 Z M27.85,37.43 L21.42,37.43 C21.9447408,35.7818777 23.0265926,34.3676923 24.48,33.43 L27.85,37.43 Z M21.85,25.12 C22.2706986,25.1199095 22.6877605,25.1978966 23.08,25.35 C23.1067909,27.1052048 23.7920695,28.7862789 25,30.06 C24.2710005,31.6187842 22.5097115,32.4078198 20.8612247,31.9141199 C19.2127378,31.42042 18.1751021,29.7931436 18.4229303,28.090255 C18.6707584,26.3873664 20.1291754,25.1233506 21.85,25.12 Z M20.74,34.06 L20.96,34.06 C20.2144422,35.0670703 19.6772922,36.2127637 19.38,37.43 L15.52,37.43 C16.4345491,35.3819015 18.466988,34.0621868 20.71,34.06 L20.74,34.06 Z M7.08,50.76 L10.08,47.76 C10.4677236,47.3699625 10.4677236,46.7400375 10.08,46.35 L7.08,43.35 L11,43.35 L11,47.68 C11.0070223,48.0259125 11.1923513,48.3436195 11.49,48.52 L15.06,50.68 L7.08,50.76 Z M17.67,50 L15.61,48.77 L17.67,48.77 L17.67,50 Z M13,46.76 L13,39.43 L47,39.43 L47,46.76 L13,46.76 Z M42.33,50 L42.33,48.76 L44.39,48.76 L42.33,50 Z M44.94,50.77 L48.51,48.61 C48.8076487,48.4336195 48.9929777,48.1159125 49,47.77 L49,43.43 L52.92,43.43 L49.92,46.43 C49.5322764,46.8200375 49.5322764,47.4499625 49.92,47.84 L52.92,50.84 L44.94,50.77 Z" id="Shape" fill="#3D3D63" fill-rule="nonzero"></path>
                        <path d="M39.33,42.09 L20.67,42.09 C20.1177153,42.09 19.67,42.5377153 19.67,43.09 C19.67,43.6422847 20.1177153,44.09 20.67,44.09 L39.33,44.09 C39.8822847,44.09 40.33,43.6422847 40.33,43.09 C40.33,42.5377153 39.8822847,42.09 39.33,42.09 Z" id="Shape" fill="#3D3D63" fill-rule="nonzero"></path>
                        <path d="M29.64,11.24 C30.1922847,11.24 30.64,10.7922847 30.64,10.24 L30.64,8.24 C30.64,7.68771525 30.1922847,7.24 29.64,7.24 C29.0877153,7.24 28.64,7.68771525 28.64,8.24 L28.64,10.24 C28.64,10.7922847 29.0877153,11.24 29.64,11.24 Z" id="Shape" fill="#3D3D63" fill-rule="nonzero"></path>
                        <path d="M21.26,12.75 C21.4302629,13.0754784 21.7652613,13.2814125 22.1325499,13.2863839 C22.4998385,13.2913553 22.840288,13.0945637 23.0192979,12.7738128 C23.1983077,12.453062 23.1870594,12.0599891 22.99,11.75 L22,10 C21.712504,9.5477474 21.1196032,9.4025198 20.6556398,9.67070677 C20.1916763,9.93889375 20.0215983,10.5251496 20.27,11 L21.26,12.75 Z" id="Shape" fill="#3D3D63" fill-rule="nonzero"></path>
                        <path d="M14.39,17.62 L16.12,18.62 C16.3493087,18.7543739 16.6226768,18.7919353 16.8797298,18.7243886 C17.1367828,18.6568418 17.356372,18.4897442 17.49,18.26 C17.623545,18.0294763 17.6595837,17.7551937 17.5901217,17.4979963 C17.5206596,17.240799 17.3514397,17.0219512 17.12,16.89 L15.39,15.89 C15.1594763,15.756455 14.8851937,15.7204163 14.6279963,15.7898783 C14.370799,15.8593404 14.1519512,16.0285603 14.02,16.26 C13.7486117,16.7379792 13.9138636,17.3453915 14.39,17.62 Z" id="Shape" fill="#3D3D63" fill-rule="nonzero"></path>
                        <path d="M36.66,13.12 C37.1333756,13.3780615 37.7261091,13.2143963 38,12.75 L39,11 C39.2484017,10.5251496 39.0783237,9.93889375 38.6143602,9.67070677 C38.1503968,9.4025198 37.557496,9.5477474 37.27,10 L36.27,11.73 C36.1315476,11.9647306 36.0948915,12.2457992 36.1685113,12.5081875 C36.242131,12.7705758 36.4196487,12.9915525 36.66,13.12 Z" id="Shape" fill="#3D3D63" fill-rule="nonzero"></path>
                        <path d="M43.17,18.62 L44.9,17.62 C45.3761364,17.3453915 45.5413883,16.7379792 45.27,16.26 C45.1380488,16.0285603 44.919201,15.8593404 44.6620037,15.7898783 C44.4048063,15.7204163 44.1305237,15.756455 43.9,15.89 L42.17,16.89 C41.8445216,17.0602629 41.6385875,17.3952613 41.6336161,17.7625499 C41.6286447,18.1298385 41.8254363,18.470288 42.1461872,18.6492979 C42.466938,18.8283077 42.8600109,18.8170594 43.17,18.62 Z" id="Shape" fill="#3D3D63" fill-rule="nonzero"></path>
                    </g>
                </g>
            </g>
        </g>
    </g>
</svg>