<svg xmlns="http://www.w3.org/2000/svg" viewBox="0 0 60 60"><defs><style>.cls-1{fill:none;}.cls-2{fill:#fff;}.cls-3{fill:#d8e3f0;}.cls-4{fill:#edf4ff;}.cls-5{fill:#96ddff;}.cls-6{fill:#69baf9;}.cls-7{fill:#ffc670;}.cls-8{fill:#3d3d63;}</style></defs><title>Terminal</title><g id="图层_2" data-name="图层 2"><g id="Graphics"><g id="Terminal"><rect class="cls-1" width="60" height="60"/><line class="cls-2" x1="12.67" y1="50.63" x2="46" y2="50.63"/><polygon class="cls-3" points="35.73 41.6 22.93 41.6 21.33 47.3 37.33 47.3 35.73 41.6"/><path class="cls-4" d="M50,12.93H20v24H6.67v3.33A1.33,1.33,0,0,0,8,41.6H41.33V32.78a1.34,1.34,0,0,1,1.34-1.34H52V14.93A2,2,0,0,0,50,12.93ZM44.17,24.1a3.34,3.34,0,1,1,3.33-3.34A3.35,3.35,0,0,1,44.17,24.1Z"/><path class="cls-3" d="M30.16,36.93H41.33V32.78a1.34,1.34,0,0,1,1.34-1.34H52V14.93a2,2,0,0,0-.8-1.59H36.48Zm14-19.5a3.34,3.34,0,1,1-3.34,3.33A3.33,3.33,0,0,1,44.17,17.43Z"/><path class="cls-3" d="M8.67,12.93H20a0,0,0,0,1,0,0v24a0,0,0,0,1,0,0H6.67a0,0,0,0,1,0,0v-22A2,2,0,0,1,8.67,12.93Z"/><path class="cls-5" d="M41.33,36.93H6.67v3.33A1.33,1.33,0,0,0,8,41.6H41.33Z"/><polygon class="cls-6" points="41.33 37.01 32.94 37.01 31.73 41.52 31.73 41.6 41.33 41.6 41.33 37.01"/><path class="cls-4" d="M42.67,50.63H16a3.33,3.33,0,0,1,3.33-3.33h20a3.34,3.34,0,0,1,3.34,3.33Z"/><rect class="cls-4" x="41.33" y="31.44" width="13.33" height="21.33" rx="1.33" ry="1.33"/><polygon class="cls-3" points="45.73 48.66 50.27 31.74 54.19 31.74 54.19 48.66 45.73 48.66"/><path class="cls-5" d="M41.33,49H54.67a0,0,0,0,1,0,0v2.4a1.33,1.33,0,0,1-1.33,1.33H42.67a1.33,1.33,0,0,1-1.33-1.33V49A0,0,0,0,1,41.33,49Z"/><path class="cls-6" d="M47,52.78h6.3a1.34,1.34,0,0,0,1.34-1.34V49H48Z"/><circle class="cls-7" cx="44.17" cy="20.76" r="3.33"/><path class="cls-8" d="M53.33,30.44H53V14.93a3,3,0,0,0-3-3H8.67a3,3,0,0,0-3,3V40.26A2.33,2.33,0,0,0,8,42.6H21.61l-1,3.7H19.33a4.32,4.32,0,0,0-4.2,3.33H12.67a1,1,0,0,0,0,2H40.35a2.33,2.33,0,0,0,2.32,2.15H53.33a2.34,2.34,0,0,0,2.34-2.34V32.78A2.34,2.34,0,0,0,53.33,30.44ZM21,13.93H50a1,1,0,0,1,1,1V30.44H42.67a2.34,2.34,0,0,0-2.34,2.34v3.15H21ZM40.33,46.42a4.64,4.64,0,0,0-1-.12H38.09l-1-3.7h3.28ZM7.67,14.93a1,1,0,0,1,1-1H19v22H7.67ZM8,40.6a.34.34,0,0,1-.33-.34V37.93H40.33V40.6Zm28,5.7H22.65l1-3.7H35Zm-16.68,2h20a2.26,2.26,0,0,1,1,.23v1.1H17.23A2.33,2.33,0,0,1,19.33,48.3Zm34.34,3.14a.34.34,0,0,1-.34.34H42.67a.34.34,0,0,1-.34-.34V50H53.67Zm0-3.4H42.33V32.78a.34.34,0,0,1,.34-.34H53.33a.34.34,0,0,1,.34.34Z"/><path class="cls-8" d="M50,33.78H46a1,1,0,0,0,0,2h4a1,1,0,0,0,0-2Z"/><path class="cls-8" d="M16.67,17.1H14a1,1,0,0,0,0,2h2.67a1,1,0,0,0,0-2Z"/><circle class="cls-8" cx="10.33" cy="18.1" r="1"/><path class="cls-8" d="M16.67,22.43H14a1,1,0,0,0,0,2h2.67a1,1,0,0,0,0-2Z"/><path class="cls-8" d="M16.67,25.76H14a1,1,0,0,0,0,2h2.67a1,1,0,0,0,0-2Z"/><circle class="cls-8" cx="10.33" cy="23.43" r="1"/><path class="cls-8" d="M44.17,25.1a4.34,4.34,0,1,0-4.34-4.34A4.34,4.34,0,0,0,44.17,25.1Zm0-6.67a2.34,2.34,0,1,1-2.34,2.33A2.34,2.34,0,0,1,44.17,18.43Z"/><path class="cls-8" d="M24.83,22.5h6a1,1,0,0,0,0-2h-6a1,1,0,0,0,0,2Z"/><path class="cls-8" d="M33.72,23.83H24.83a1,1,0,0,0,0,2h8.89a1,1,0,0,0,0-2Z"/><path class="cls-8" d="M36.72,17.1H24.83a1,1,0,0,0,0,2H36.72a1,1,0,0,0,0-2Z"/><path class="cls-8" d="M30.33,31.76h-5.5a1,1,0,0,0,0,2h5.5a1,1,0,1,0,0-2Z"/><path class="cls-8" d="M24.83,30.43h2.34a1,1,0,0,0,0-2H24.83a1,1,0,0,0,0,2Z"/></g></g></g></svg>