<?xml version="1.0" encoding="UTF-8"?>
<svg width="22px" height="22px" viewBox="0 0 22 22" version="1.1" xmlns="http://www.w3.org/2000/svg" xmlns:xlink="http://www.w3.org/1999/xlink">
    <!-- Generator: sketchtool 50.2 (55047) - http://www.bohemiancoding.com/sketch -->
    <title>F7294372-9AB6-46C9-A221-BABFBB3A09A3</title>
    <desc>Created with sketchtool.</desc>
    <defs></defs>
    <g id="Contact-us" stroke="none" stroke-width="1" fill="none" fill-rule="evenodd">
        <g id="Contact" transform="translate(-184.000000, -1058.000000)" fill="#2BC47D">
            <g id="Group-7" transform="translate(183.000000, 757.000000)">
                <g id="Group-5">
                    <path d="M18.875,311.3125 L20.25,311.3125 L20.25,312.6875 L18.875,312.6875 L18.875,311.3125 Z M17.12875,307.64125 L16.17725,306.687688 L17.12875,305.734812 L18.08025,306.687688 L17.12875,307.64125 L17.12875,307.64125 Z M16.9479375,317.632 L15.9758125,316.659875 L16.9479375,315.68775 L17.9200625,316.659875 L16.9479375,317.632 L16.9479375,317.632 Z M12.6875,312.0165 C12.6875,312.396 12.3801875,312.703313 12,312.703313 L5.8125,312.703313 C5.4323125,312.703313 5.125,312.396 5.125,312.0165 C5.125,311.637 5.4323125,311.328313 5.8125,311.328313 L11.3125,311.328313 L11.3125,304.4375 C11.3125,304.057313 11.6205,303.75 12,303.75 C12.3801875,303.75 12.6875,304.057313 12.6875,304.4375 L12.6875,312.0165 L12.6875,312.0165 Z M11.3125,318.875 L12.6875,318.875 L12.6875,320.25 L11.3125,320.25 L11.3125,318.875 Z M6.5804375,317.650562 L5.6289375,316.697 L6.5804375,315.743437 L7.5319375,316.697 L6.5804375,317.650562 L6.5804375,317.650562 Z M6.691125,305.749937 L7.66325,306.722062 L6.691125,307.694187 L5.719,306.722062 L6.691125,305.749937 L6.691125,305.749937 Z M12,301 C5.9245625,301 1,305.92525 1,312 C1,318.075438 5.9245625,323 12,323 C18.0754375,323 23,318.075438 23,312 C23,305.92525 18.0754375,301 12,301 L12,301 Z" id="time"></path>
                </g>
            </g>
        </g>
    </g>
</svg>