<?xml version="1.0" encoding="UTF-8"?>
<svg width="20px" height="22px" viewBox="0 0 20 22" version="1.1" xmlns="http://www.w3.org/2000/svg" xmlns:xlink="http://www.w3.org/1999/xlink">
    <!-- Generator: sketchtool 50.2 (55047) - http://www.bohemiancoding.com/sketch -->
    <title>9310A615-86E9-412B-B433-53EB71CF068B</title>
    <desc>Created with sketchtool.</desc>
    <defs></defs>
    <g id="Apply" stroke="none" stroke-width="1" fill="none" fill-rule="evenodd">
        <g id="Apply-/-Step-3" transform="translate(-761.000000, -836.000000)" fill="#2BC47D" fill-rule="nonzero">
            <g id="Group-13" transform="translate(729.000000, 439.000000)">
                <g id="Group-16" transform="translate(32.000000, 396.000000)">
                    <path d="M19.0658193,13.4670904 C19.0658193,18.7321897 14.798009,23 9.53290965,23 C4.26781032,23 0,18.7321897 0,13.4670904 C0,8.45375761 3.88356073,4.38882716 8.79960891,4.00751078 L8.79960891,2.46709035 L6.59970668,2.46709035 C6.1944358,2.46709035 5.86640594,2.13906049 5.86640594,1.73427848 C5.86640594,1.32949647 6.1944358,1.00097773 6.59970668,1.00097773 L9.52948758,1.00097773 C9.53046531,1.00097773 9.53144305,1 9.53290965,1 C9.53437625,1 9.53486512,1.00097773 9.53584285,1.00097773 L12.4661126,1.00097773 C12.8713835,1.00097773 13.1994134,1.32949647 13.1994134,1.73427848 C13.1994134,2.13906049 12.8713835,2.46709035 12.4661126,2.46709035 L10.2662104,2.46709035 L10.2662104,4.00751078 C15.1822586,4.38882716 19.0658193,8.45375761 19.0658193,13.4670904 Z M9.53290965,5.40127105 C5.07786321,5.40127105 1.46660148,9.01253278 1.46660148,13.4670904 C1.46660148,17.9216479 5.07835207,21.5333985 9.53290965,21.5333985 C13.9874672,21.5333985 17.5992178,17.9216479 17.5992178,13.4670904 C17.5992178,9.01253278 13.9874672,5.40127105 9.53290965,5.40127105 Z M13.1994134,18.9526688 L13.1994134,17.1335941 L13.1182614,17.1335941 C14.0710635,16.2018133 14.6660148,14.9048487 14.6660148,13.4670904 C14.6660148,10.6321497 12.3678503,8.33398516 9.53290965,8.33398516 L9.53290965,6.86787254 C13.1779032,6.86787254 16.1326163,9.8220968 16.1326163,13.4670904 C16.1326163,15.7549887 14.967157,17.7686325 13.1994134,18.9526688 Z M10.2662104,13.4670904 L10.2662104,19.3339852 C10.2662104,19.7387672 9.93769166,20.066797 9.53290965,20.066797 C9.12812764,20.066797 8.79960891,19.7387672 8.79960891,19.3339852 L8.79960891,13.4670904 C8.79960891,13.0623083 9.12763877,12.7337896 9.53290965,12.7337896 C9.93818053,12.7337896 10.2662104,13.0623083 10.2662104,13.4670904 Z M9.53290965,20.0672859 L9.53290965,20.0672859 L9.53682059,20.066797 C9.53535398,20.066797 9.53388738,20.0672859 9.53290965,20.0672859 Z" id="time-ico"></path>
                </g>
            </g>
        </g>
    </g>
</svg>