<svg xmlns="http://www.w3.org/2000/svg" viewBox="0 0 60 60"><defs><style>.cls-1{fill:none;}.cls-2{fill:#ffc670;}.cls-3{fill:#fcfeff;}.cls-4{fill:#f6716f;}.cls-5{fill:#3d3d63;}.cls-6{fill:#96ddff;}.cls-7{fill:#d8e3f0;}.cls-8{fill:#edf4ff;}</style></defs><title>Time</title><g id="图层_2" data-name="图层 2"><g id="Graphics"><g id="Time"><rect class="cls-1" width="60" height="60"/><path class="cls-2" d="M39.94,27.24h9.68a1.84,1.84,0,0,1,3.09-.18l.36-.55A23.32,23.32,0,1,0,35.44,52.69V52.4a1.85,1.85,0,0,1,.17-3.6,4.48,4.48,0,0,1,1.92-2.6,9,9,0,0,1,1.22-3.67,8.92,8.92,0,0,1-1.22-3.66,4.5,4.5,0,0,1-2.09-3.8V31.74A4.5,4.5,0,0,1,39.94,27.24Z"/><path class="cls-1" d="M35.57,52.66a23.33,23.33,0,1,1,17.5-26.15"/><path class="cls-3" d="M30.39,9.35a20.86,20.86,0,0,0-21,19.52A20.66,20.66,0,0,0,30,50.65a20.79,20.79,0,0,0,5.89-.87,1,1,0,0,0,.68-.7,3.66,3.66,0,0,1,.75-1.4,8,8,0,0,0,0-10.26,3.48,3.48,0,0,1-.91-2.35V31.74a3.5,3.5,0,0,1,3.5-3.5h9.48a1,1,0,0,0,1-1.14A20.54,20.54,0,0,0,30.39,9.35Z"/><path class="cls-4" d="M25.1,20.16h0A1.84,1.84,0,0,1,26.94,22V32.44a0,0,0,0,1,0,0H23.25a0,0,0,0,1,0,0V22a1.84,1.84,0,0,1,1.84-1.84Z" transform="translate(-11.01 30.52) rotate(-53)"/><circle class="cls-5" cx="30" cy="30" r="1.23"/><path class="cls-4" d="M40.37,19.63h0a1.85,1.85,0,0,0-2.61,0L28.7,28.7l2.6,2.6,9.07-9.06A1.85,1.85,0,0,0,40.37,19.63Z"/><circle class="cls-2" cx="30" cy="30" r="3.7"/><path class="cls-6" d="M40.94,50H52.33a1,1,0,0,1,1,1v2.34a0,0,0,0,1,0,0H39.94a0,0,0,0,1,0,0V51A1,1,0,0,1,40.94,50Z"/><path class="cls-6" d="M39.94,31.74H53.33a0,0,0,0,1,0,0v2.34a1,1,0,0,1-1,1H40.94a1,1,0,0,1-1-1V31.74A0,0,0,0,1,39.94,31.74Z"/><path class="cls-7" d="M42,35.07h9.33a0,0,0,0,1,0,0v2.8a4.67,4.67,0,0,1-4.67,4.67h0A4.67,4.67,0,0,1,42,37.87v-2.8A0,0,0,0,1,42,35.07Z"/><path class="cls-8" d="M46.64,42.53A4.66,4.66,0,0,1,42,37.87v-2.8h0a4.66,4.66,0,0,0,9.32,0h0v2.8A4.66,4.66,0,0,1,46.64,42.53Z"/><path class="cls-1" d="M42,35.07h9.33a0,0,0,0,1,0,0v2.8a4.67,4.67,0,0,1-4.67,4.67h0A4.67,4.67,0,0,1,42,37.87v-2.8A0,0,0,0,1,42,35.07Z"/><path class="cls-7" d="M46.64,42.53h0a4.67,4.67,0,0,1,4.67,4.67V50a0,0,0,0,1,0,0H42a0,0,0,0,1,0,0V47.2a4.67,4.67,0,0,1,4.67-4.67Z"/><path class="cls-8" d="M46.64,42.53A4.67,4.67,0,0,0,42,47.2V50h0a4.66,4.66,0,0,1,9.32,0h0V47.2A4.67,4.67,0,0,0,46.64,42.53Z"/><path class="cls-1" d="M46.64,42.53h0a4.67,4.67,0,0,1,4.67,4.67V50a0,0,0,0,1,0,0H42a0,0,0,0,1,0,0V47.2a4.67,4.67,0,0,1,4.67-4.67Z"/><path class="cls-1" d="M35.68,48.82A19.65,19.65,0,1,1,49.46,27.23"/><path class="cls-5" d="M35.33,51.69A22.33,22.33,0,1,1,30,7.67a22.44,22.44,0,0,1,22.08,19,1,1,0,0,0,1.14.84,1,1,0,0,0,.84-1.14A24.33,24.33,0,1,0,30,54.33a24.62,24.62,0,0,0,5.81-.69,1,1,0,0,0,.73-1.21A1,1,0,0,0,35.33,51.69Z"/><path class="cls-5" d="M31.84,42.91a1,1,0,1,0,0-2H28.16a1,1,0,1,0,0,2Z"/><path class="cls-5" d="M35.39,47.86a18.6,18.6,0,0,1-4.39.75V47.19a1,1,0,0,0-2,0V48.6a18.52,18.52,0,0,1-7.44-2l.71-1.22a1,1,0,1,0-1.73-1l-.71,1.22a18.8,18.8,0,0,1-5.44-5.44l1.22-.71a1,1,0,1,0-1-1.73l-1.22.71a18.52,18.52,0,0,1-2-7.44h1.41a1,1,0,1,0,0-2H11.4a18.52,18.52,0,0,1,2-7.44l1.22.71a1,1,0,1,0,1-1.73l-1.22-.71a18.8,18.8,0,0,1,5.44-5.44l.71,1.22a1,1,0,1,0,1.73-1l-.71-1.22a18.52,18.52,0,0,1,7.44-2v1.41a1,1,0,1,0,2,0V11.4a18.45,18.45,0,0,1,7.44,2l-.71,1.22a1,1,0,1,0,1.73,1l.71-1.22a18.71,18.71,0,0,1,5.45,5.44l-1.23.71a1,1,0,1,0,1,1.73l1.23-.71a18.33,18.33,0,0,1,1.7,4.93,1,1,0,1,0,2-.37A20.64,20.64,0,1,0,36,49.77a1,1,0,0,0,.67-1.24A1,1,0,0,0,35.39,47.86Z"/><path class="cls-5" d="M30,28.77A1.23,1.23,0,1,0,31.23,30,1.23,1.23,0,0,0,30,28.77Z"/><path class="cls-5" d="M33.15,33.46A4.69,4.69,0,0,0,34.7,30a4.36,4.36,0,0,0-.07-.62l6.45-6.44a2.84,2.84,0,1,0-4-4l-6.44,6.45A4.36,4.36,0,0,0,30,25.3a4.43,4.43,0,0,0-1.26.2l-5.37-4.05A2.84,2.84,0,1,0,20,26l5.36,4A4.7,4.7,0,0,0,30,34.7a4.46,4.46,0,0,0,1.42-.25l4.59,8a1,1,0,0,0,1.73-1Zm5.32-13.12a.84.84,0,0,1,1.19,1.19l-5.8,5.8a4.81,4.81,0,0,0-1.19-1.19ZM25.82,27.9l-4.66-3.51a.84.84,0,1,1,1-1.34l4.66,3.51A4.92,4.92,0,0,0,25.82,27.9ZM30,32.7A2.7,2.7,0,1,1,32.7,30,2.7,2.7,0,0,1,30,32.7Z"/><path class="cls-5" d="M52.3,37.87v-1.8h0a2,2,0,0,0,2-2V31.74a1,1,0,0,0-1-1H39.94a1,1,0,0,0-1,1v2.33a2,2,0,0,0,2,2h0v1.8a5.66,5.66,0,0,0,2.46,4.66A5.69,5.69,0,0,0,41,47.2V49h0a2,2,0,0,0-2,2v2.33a1,1,0,0,0,1,1H53.33a1,1,0,0,0,1-1V51a2,2,0,0,0-2-2h0V47.2a5.69,5.69,0,0,0-2.45-4.67A5.65,5.65,0,0,0,52.3,37.87Zm-11.36-3.8V32.74H52.33v1.33ZM52.33,51v1.33H40.94V51Zm-2-3.8V49H43V47.2a3.67,3.67,0,1,1,7.33,0Zm0-9.33a3.67,3.67,0,0,1-7.33,0v-1.8H50.3Z"/></g></g></g></svg>