<?xml version="1.0" encoding="UTF-8"?>
<svg width="49px" height="43px" viewBox="0 0 49 43" version="1.1" xmlns="http://www.w3.org/2000/svg" xmlns:xlink="http://www.w3.org/1999/xlink">
    <!-- Generator: sketchtool 50.2 (55047) - http://www.bohemiancoding.com/sketch -->
    <title>1F141424-3A2D-4EF0-A0A0-1DD0B1E43A4E</title>
    <desc>Created with sketchtool.</desc>
    <defs></defs>
    <g id="How-to-apply" stroke="none" stroke-width="1" fill="none" fill-rule="evenodd">
        <g transform="translate(-87.000000, -870.000000)" id="Transport">
            <g transform="translate(80.000000, 860.000000)">
                <rect id="Rectangle-path" x="0" y="0" width="60" height="60"></rect>
                <path d="M26,22.31 L31.5,26.69 C32.2304301,27.2634391 33.1313723,27.5766573 34.06,27.58 L46.39,27.58 C47.5026105,27.6071449 48.3903311,28.5170585 48.39,29.63 L48.39,46.31 C48.3957799,47.4268249 47.506508,48.342775 46.39,48.37 L10.5,48.37 C9.36229342,48.37 8.44,47.4477066 8.44,46.31 L8.44,23.47 C8.46722504,22.353492 9.38317509,21.4642201 10.5,21.47 L23.44,21.47 C24.3640715,21.4504391 25.2671585,21.7467645 26,22.31 Z" id="Shape" fill="#96DDFF" fill-rule="nonzero"></path>
                <path d="M10.5,21.42 L23.44,21.42 C24.3666602,21.416964 25.2664758,21.7310173 25.99,22.31 L31.49,26.69 C32.2204301,27.2634391 33.1213723,27.5766573 34.05,27.58 L45.24,27.58 L44.38,11.23 C44.3477612,10.6813739 43.8788369,10.261575 43.33,10.29 L9,12.09 C8.72588874,12.0896571 8.46365364,12.2018495 8.27461125,12.400344 C8.08556885,12.5988386 7.98629421,12.8662314 8,13.14 L8.52,22.93 C8.74796251,22.0270805 9.56894216,21.4009799 10.5,21.42 Z" id="Shape" fill="#FFDEAD" fill-rule="nonzero"></path>
                <path d="M23.44,21.42 C24.3666602,21.416964 25.2664758,21.7310173 25.99,22.31 L31.49,26.69 C32.2204301,27.2634391 33.1213723,27.5766573 34.05,27.58 L46,27.58 L46.7,19.58 L12.41,16.58 L12,21.42 L23.44,21.42 Z" id="Shape" fill="#FFF6E6" fill-rule="nonzero"></path>
                <path d="M34.05,27.58 L41.77,27.58 L42.16,23.14 L32.61,22.31 L32.19,27.12 C32.7653676,27.4170206 33.4025126,27.5745941 34.05,27.58 Z" id="Shape" fill="#F6716F" fill-rule="nonzero"></path>
                <path d="M20.7,42.68 C16.88,42.54 12,42.33 8.44,42 L8.44,46.28 C8.44,47.4177066 9.36229342,48.34 10.5,48.34 L46.39,48.34 C47.506508,48.312775 48.3957799,47.3968249 48.39,46.28 L48.390028,32.5 L31.61,40.44 C28.2021697,42.0405092 24.4627761,42.8082674 20.7,42.68 Z" id="Shape" fill="#69BAF9" fill-rule="nonzero"></path>
                <path d="M26,22.31 L31.5,26.69 C32.2304301,27.2634391 33.1313723,27.5766573 34.06,27.58 L46.39,27.58 C47.5026105,27.6071449 48.3903311,28.5170585 48.39,29.63 L48.39,46.31 C48.3957799,47.4268249 47.506508,48.342775 46.39,48.37 L10.5,48.37 C9.36229342,48.37 8.44,47.4477066 8.44,46.31 L8.44,23.47 C8.46722504,22.353492 9.38317509,21.4642201 10.5,21.47 L23.44,21.47 C24.3640715,21.4504391 25.2671585,21.7467645 26,22.31 Z" id="Shape"></path>
                <polygon id="Shape" fill="#EDF4FF" fill-rule="nonzero" points="54.22 34.27 34.44 43.37 50.93 49.42"></polygon>
                <polygon id="Shape" fill="#D8E3F0" fill-rule="nonzero" points="42.05 46.16 42.05 51.38 47.1 48.02"></polygon>
                <path d="M23.11,41.85 L14.11,41.85 C13.5577153,41.85 13.11,42.2977153 13.11,42.85 C13.11,43.4022847 13.5577153,43.85 14.11,43.85 L23.11,43.85 C23.6622847,43.85 24.11,43.4022847 24.11,42.85 C24.11,42.2977153 23.6622847,41.85 23.11,41.85 Z" id="Shape" fill="#3D3D63" fill-rule="nonzero"></path>
                <path d="M14.08,40.11 L19.2,40.11 C19.7522847,40.11 20.2,39.6622847 20.2,39.11 C20.2,38.5577153 19.7522847,38.11 19.2,38.11 L14.08,38.11 C13.5277153,38.11 13.08,38.5577153 13.08,39.11 C13.08,39.6622847 13.5277153,40.11 14.08,40.11 Z" id="Shape" fill="#3D3D63" fill-rule="nonzero"></path>
                <path d="M54.85,33.49 C54.5534625,33.2499001 54.1461394,33.1994696 53.8,33.36 L49.44,35.36 L49.44,29.63 C49.4456567,28.1898196 48.4462957,26.9406184 47.04,26.63 L47.65,19.69 C47.673172,19.4257944 47.5904384,19.1632051 47.42,18.96 C47.2486618,18.7578421 47.0040879,18.6319584 46.74,18.61 L44.74,18.43 L44.36,11.21 C44.3277612,10.6613739 43.8588369,10.241575 43.31,10.27 L9,12.09 C8.72588874,12.0896571 8.46365364,12.2018495 8.27461125,12.400344 C8.08556885,12.5988386 7.98629421,12.8662314 8,13.14 L8.28,18.4 C8.31223876,18.9486261 8.78116306,19.368425 9.33,19.34 C9.5953346,19.3270657 9.84461874,19.2090881 10.0228466,19.0120993 C10.2010745,18.8151106 10.2935975,18.5553014 10.28,18.29 L10.06,14 L42.44,12.3 L42.75,18.3 L12.46,15.63 C12.1945521,15.6050255 11.9301218,15.6870888 11.7254525,15.8579595 C11.5207831,16.0288302 11.3928236,16.2743585 11.37,16.54 L11,20.42 L10.5,20.42 C8.83316551,20.4196795 7.472683,21.7534859 7.44,23.42 L7.44,46.31 C7.44,47.1215625 7.76239193,47.8998854 8.33625325,48.4737468 C8.91011457,49.0476081 9.68843754,49.37 10.5,49.37 L41.05,49.37 L41.05,51.37 C41.05,51.9222847 41.4977153,52.37 42.05,52.37 C42.2494427,52.3704453 42.4444627,52.3112428 42.61,52.2 L47.24,49.12 L50.58,50.35 C50.8522447,50.4515329 51.155189,50.4296333 51.41,50.29 C51.660384,50.1504037 51.8388177,49.9100643 51.9,49.63 L55.2,34.47 C55.2758782,34.1035782 55.1408336,33.7254533 54.85,33.49 Z M41.81,45 L37.06,43.25 L49.39,37.58 L41.81,45 Z M13.28,17.71 L45.57,20.53 L45.04,26.53 L42.86,26.53 L43.15,23.18 C43.1961623,22.6307253 42.7891457,22.1476726 42.24,22.1 L32.7,21.26 C32.4345521,21.2350255 32.1701218,21.3170888 31.9654525,21.4879595 C31.7607831,21.6588302 31.6328236,21.9043585 31.61,22.17 L31.34,25.24 L26.62,21.48 C25.7162911,20.760552 24.5951167,20.3691986 23.44,20.37 L13,20.37 L13.28,17.71 Z M40.85,26.58 L34.05,26.58 C33.7792366,26.5751146 33.5102805,26.5347712 33.25,26.46 L33.52,23.39 L41.07,24.05 L40.85,26.58 Z M10.5,47.37 C9.91684009,47.3645749 9.44542509,46.8931599 9.44,46.31 L9.44,23.47 C9.47185416,22.9081325 9.93723103,22.4690978 10.5,22.47 L23.44,22.47 C24.1400324,22.4719512 24.8193381,22.7077724 25.37,23.14 L30.87,27.52 C31.776004,28.2352775 32.895682,28.6261085 34.05,28.63 L46.39,28.63 C46.6641113,28.6296571 46.9263464,28.7418495 47.1153888,28.940344 C47.3044311,29.1388386 47.4037058,29.4062314 47.39,29.68 L47.39,36.34 L34,42.46 C33.6281007,42.6268295 33.3946753,43.002684 33.41,43.41 C33.4305147,43.8125734 33.6907301,44.1634698 34.07,44.3 L41.02,46.86 L41.02,47.37 L10.5,47.37 Z M43.05,49.52 L43.05,47.6 L44.91,48.28 L43.05,49.52 Z M50.19,48.09 L43.89,45.77 L52.54,37.32 L50.19,48.09 Z" id="Shape" fill="#3D3D63" fill-rule="nonzero"></path>
            </g>
        </g>
    </g>
</svg>