<svg xmlns="http://www.w3.org/2000/svg" viewBox="0 0 60 60"><defs><style>.cls-1{fill:none;}.cls-2{fill:#96ddff;}.cls-3{fill:#ffdead;}.cls-4{fill:#fff6e6;}.cls-5{fill:#f6716f;}.cls-6{fill:#69baf9;}.cls-7{fill:#edf4ff;}.cls-8{fill:#d8e3f0;}.cls-9{fill:#3d3d63;}</style></defs><title>Transport</title><g id="图层_2" data-name="图层 2"><g id="Graphics"><g id="Transport"><rect class="cls-1" width="60" height="60"/><path class="cls-2" d="M26,22.31l5.5,4.38a4.17,4.17,0,0,0,2.56.89H46.39a2.05,2.05,0,0,1,2,2.05V46.31a2.05,2.05,0,0,1-2,2.06H10.5a2.06,2.06,0,0,1-2.06-2.06V23.47a2.05,2.05,0,0,1,2.06-2H23.44A4.06,4.06,0,0,1,26,22.31Z"/><path class="cls-3" d="M10.5,21.42H23.44a4.06,4.06,0,0,1,2.55.89l5.5,4.38a4.17,4.17,0,0,0,2.56.89H45.24l-.86-16.35a1,1,0,0,0-1.05-.94L9,12.09a1,1,0,0,0-1,1.05l.52,9.79A2,2,0,0,1,10.5,21.42Z"/><path class="cls-4" d="M23.44,21.42a4.06,4.06,0,0,1,2.55.89l5.5,4.38a4.17,4.17,0,0,0,2.56.89H46l.7-8-34.29-3L12,21.42Z"/><path class="cls-5" d="M34.05,27.58h7.72l.39-4.44-9.55-.83-.42,4.81A4.13,4.13,0,0,0,34.05,27.58Z"/><path class="cls-6" d="M20.7,42.68C16.88,42.54,12,42.33,8.44,42v4.28a2.06,2.06,0,0,0,2.06,2.06H46.39a2.05,2.05,0,0,0,2-2.06V32.5L31.61,40.44A23.76,23.76,0,0,1,20.7,42.68Z"/><path class="cls-1" d="M26,22.31l5.5,4.38a4.17,4.17,0,0,0,2.56.89H46.39a2.05,2.05,0,0,1,2,2.05V46.31a2.05,2.05,0,0,1-2,2.06H10.5a2.06,2.06,0,0,1-2.06-2.06V23.47a2.05,2.05,0,0,1,2.06-2H23.44A4.06,4.06,0,0,1,26,22.31Z"/><polygon class="cls-7" points="54.22 34.27 34.44 43.37 50.93 49.42 54.22 34.27"/><polygon class="cls-8" points="42.05 46.16 42.05 51.38 47.1 48.02 42.05 46.16"/><path class="cls-9" d="M23.11,41.85h-9a1,1,0,1,0,0,2h9a1,1,0,1,0,0-2Z"/><path class="cls-9" d="M14.08,40.11H19.2a1,1,0,1,0,0-2H14.08a1,1,0,1,0,0,2Z"/><path class="cls-9" d="M54.85,33.49a1,1,0,0,0-1.05-.13l-4.36,2V29.63a3.06,3.06,0,0,0-2.4-3l.61-6.94a1,1,0,0,0-.23-.73,1,1,0,0,0-.68-.35l-2-.18-.38-7.22a1,1,0,0,0-1.05-.94L9,12.09a1,1,0,0,0-1,1.05l.28,5.26a1,1,0,0,0,1.05.94,1,1,0,0,0,.95-1.05L10.06,14l32.38-1.7.31,6L12.46,15.63a1,1,0,0,0-1.09.91L11,20.42H10.5a3.06,3.06,0,0,0-3.06,3V46.31a3.06,3.06,0,0,0,3.06,3.06H41.05v2a1,1,0,0,0,1,1,1,1,0,0,0,.56-.17l4.63-3.08,3.34,1.23a1,1,0,0,0,.83-.06,1,1,0,0,0,.49-.66l3.3-15.16A1,1,0,0,0,54.85,33.49ZM41.81,45l-4.75-1.75,12.33-5.67ZM13.28,17.71l32.29,2.82-.53,6H42.86l.29-3.35a1,1,0,0,0-.91-1.08l-9.54-.84a1,1,0,0,0-1.09.91l-.27,3.07-4.72-3.76a5.1,5.1,0,0,0-3.18-1.11H13Zm27.57,8.87h-6.8a3.1,3.1,0,0,1-.8-.12l.27-3.07,7.55.66ZM10.5,47.37a1.07,1.07,0,0,1-1.06-1.06V23.47a1.06,1.06,0,0,1,1.06-1H23.44a3.14,3.14,0,0,1,1.93.67l5.5,4.38a5.16,5.16,0,0,0,3.18,1.11H46.39a1,1,0,0,1,1,1.05v6.66L34,42.46a1,1,0,0,0-.59.95,1,1,0,0,0,.66.89l6.95,2.56v.51Zm32.55,2.15V47.6l1.86.68Zm7.14-1.43-6.3-2.32,8.65-8.45Z"/></g></g></g></svg>