<svg xmlns="http://www.w3.org/2000/svg" viewBox="0 0 60 60"><defs><style>.cls-1{fill:none;}.cls-2{fill:#fcfeff;}.cls-3{fill:#d8e3f0;}.cls-4{fill:#f6716f;}.cls-5{fill:#f0504d;}.cls-6{fill:#fff;}.cls-7{fill:#3d3d63;}</style></defs><title>Treatment</title><g id="图层_2" data-name="图层 2"><g id="Graphics"><g id="Treatment"><rect class="cls-1" width="60" height="60"/><path class="cls-2" d="M19.39,32.37a2,2,0,0,0,0,2.83l3.13,3.13-3-3-1.61,1.62a2,2,0,0,0,0,2.83L21.11,43a2,2,0,0,0,2.83,0l1.61-1.62.1.1a2,2,0,0,0,2.83,0L47.27,22.67l-9.09-9.09Z"/><rect class="cls-2" x="45.74" y="7.62" width="3.57" height="11.43" rx="1.67" ry="1.67" transform="translate(4.49 37.51) rotate(-45)"/><path class="cls-3" d="M44.33,19.73l-20.2,20.2,1.52,1.53a2,2,0,0,0,2.83,0L47.27,22.67Z"/><rect class="cls-3" x="41.99" y="14.22" width="5" height="4.29" transform="translate(1.46 36.25) rotate(-45)"/><rect class="cls-3" x="33.47" y="36.62" width="20.67" height="14.67" rx="2" ry="2"/><path class="cls-1" d="M26.2,13.94H39.05a0,0,0,0,1,0,0V40.52a2,2,0,0,1-2,2H28.2a2,2,0,0,1-2-2V13.94a0,0,0,0,1,0,0Z" transform="translate(29.52 -14.8) rotate(45)"/><path class="cls-4" d="M38.48,31.47,23.7,28.07l-4.21,4.2a2.15,2.15,0,0,0,0,3l6.06,6.06a2.14,2.14,0,0,0,3,0Z"/><path class="cls-5" d="M33.61,30.35l-9.53,9.54,1.47,1.47a2.14,2.14,0,0,0,3,0l9.9-9.89Z"/><path class="cls-5" d="M6.54,36.84c.21.07.15,1.76.15,1.93a16.8,16.8,0,0,1-.35,3.16c-.19,1-.9,2.11-.11,3a3.07,3.07,0,0,0,2.93.87c2.11-.53,2.73-3,1.94-4.78A8.24,8.24,0,0,0,6.54,36.84Z"/><path class="cls-1" d="M38.48,31.47,23.7,28.07l-4.21,4.2a2.15,2.15,0,0,0,0,3l6.06,6.06a2.14,2.14,0,0,0,3,0Z"/><path class="cls-6" d="M48.14,36.62H43.8V36h-8v.67H31.47a2,2,0,0,0-2,2V49.28a2,2,0,0,0,2,2H48.14a2,2,0,0,0,2-2V38.62A2,2,0,0,0,48.14,36.62Z"/><path class="cls-7" d="M12,44.69a4.86,4.86,0,0,0,0-4.07A9.2,9.2,0,0,0,6.88,35.9h0a1,1,0,0,0-1.21,1.43,12.23,12.23,0,0,1,0,1.3v.14a14.07,14.07,0,0,1-.33,3c0,.18-.1.38-.16.57a3.14,3.14,0,0,0,.28,3.28,4,4,0,0,0,3,1.3,3.73,3.73,0,0,0,.94-.12A3.85,3.85,0,0,0,12,44.69Zm-5-.43c-.18-.21-.11-.57.13-1.34.08-.25.16-.5.22-.74a17.08,17.08,0,0,0,.37-3.5v-.13a7,7,0,0,1,2.49,2.87,2.93,2.93,0,0,1,0,2.39,1.85,1.85,0,0,1-1.26,1A2.1,2.1,0,0,1,7,44.26Z"/><path class="cls-7" d="M42.5,44.24H40.8v-1.7a1,1,0,0,0-2,0v1.7H37.11a1,1,0,0,0,0,2H38.8v1.7a1,1,0,0,0,2,0v-1.7h1.7a1,1,0,0,0,0-2Z"/><path class="cls-7" d="M52.14,35.62h-7.4A1,1,0,0,0,43.8,35H36.41L47.27,24.09l1.82,1.82a1,1,0,1,0,1.41-1.42l-4.84-4.85,2.12-2.12.55.56a2.79,2.79,0,0,0,3.94-3.94L46.72,8.58a2.79,2.79,0,0,0-3.94,3.94l.55.56L41.21,15.2l-4.85-4.85a1,1,0,0,0-1.41,0,1,1,0,0,0,0,1.42l1.82,1.81L18.68,31.67a3,3,0,0,0-.5,3.53l-1,1a3,3,0,0,0,0,4.24l.91.91L8.87,50.58A1,1,0,0,0,10.28,52l9.21-9.21.91.91a3,3,0,0,0,4.24,0l1-1a3,3,0,0,0,2.82,0v6.59a2.78,2.78,0,0,0,.19,1H27.47a1,1,0,0,0,0,2H52.14a3,3,0,0,0,3-3V38.62A3,3,0,0,0,52.14,35.62ZM36.8,37h6v1.33h-6ZM44.19,10a.78.78,0,0,1,1.11,0l5.56,5.55a.8.8,0,0,1,0,1.11.78.78,0,0,1-1.11,0l-5.56-5.55A.78.78,0,0,1,44.19,10Zm.56,4.49,1.61,1.62-2.12,2.12-1.62-1.62ZM26.56,26.61l.81.81a1,1,0,0,0,1.42,0,1,1,0,0,0,0-1.41L28,25.2l2.62-2.63,2.33,2.33a1,1,0,0,0,1.41,0,1,1,0,0,0,0-1.42L32,21.16l2.63-2.63.8.81a1,1,0,0,0,1.42,0,1,1,0,0,0,0-1.41l-.81-.81L38.18,15l7.68,7.67-7.7,7.7L25.68,27.5ZM23.23,42.27a1,1,0,0,1-1.41,0L18.58,39a1,1,0,0,1,0-1.42l.91-.9,4.65,4.64Zm4.55-1.51a1,1,0,0,1-1.42,0L20.1,34.49a1,1,0,0,1,0-1.41l2.42-2.43L24.85,33a1,1,0,0,0,1.41,0,1,1,0,0,0,0-1.42l-2.32-2.32.07-.08L36.49,32l-3.57,3.58H31.47a3,3,0,0,0-3,3v1.44Zm21.36,8.52a1,1,0,0,1-1,1H31.47a1,1,0,0,1-1-1V38.62a1,1,0,0,1,1-1H34.8v1.66a1,1,0,0,0,1,1h8a1,1,0,0,0,1-1V37.62h3.34a1,1,0,0,1,1,1Zm4,0a1,1,0,0,1-1,1H51a2.78,2.78,0,0,0,.19-1V38.62a2.74,2.74,0,0,0-.19-1h1.19a1,1,0,0,1,1,1Z"/></g></g></g></svg>