<svg xmlns="http://www.w3.org/2000/svg" viewBox="0 0 60 60"><defs><style>.cls-1{fill:none;}.cls-2{fill:#f6716f;stroke:#f6716f;stroke-linecap:round;stroke-linejoin:round;stroke-width:2px;}.cls-3{fill:#96ddff;}.cls-4{fill:#69baf9;}.cls-5{fill:#c7ecff;}.cls-6{fill:#599ed4;}.cls-7{fill:#ffc670;}.cls-8{fill:#ffa742;}.cls-9{fill:#3d3d63;}</style></defs><title>Wallet</title><g id="图层_2" data-name="图层 2"><g id="Graphics"><g id="Wallet"><rect class="cls-1" width="60" height="60"/><path class="cls-2" d="M47.66,20,46.3,15a2,2,0,0,0-2.45-1.41L19.64,20Z"/><rect class="cls-3" x="10.67" y="20.03" width="42" height="30.67" rx="2" ry="2"/><path class="cls-4" d="M52.67,48.69V32.47C50.61,37.11,45.64,44,34.25,44a71.22,71.22,0,0,1-23.58-4.39v9a2,2,0,0,0,2,2h38A2,2,0,0,0,52.67,48.69Z"/><path class="cls-5" d="M50.67,20h-38a2,2,0,0,0-2,2v2.9a2,2,0,0,1,2-2h38a2,2,0,0,1,2,2V22A2,2,0,0,0,50.67,20Z"/><path class="cls-4" d="M41.33,30H54.67a0,0,0,0,1,0,0V40.69a0,0,0,0,1,0,0H41.33A2.67,2.67,0,0,1,38.67,38V32.69A2.67,2.67,0,0,1,41.33,30Z"/><path class="cls-6" d="M54.38,32.94s.62,5.33-6.72,5.33a28.05,28.05,0,0,1-9-1.33V38a2.66,2.66,0,0,0,2.66,2.66H54.67V33.41Z"/><circle class="cls-7" cx="13.67" cy="42.03" r="8.67"/><path class="cls-8" d="M18.06,34.57A8.65,8.65,0,0,1,6.21,46.42,8.66,8.66,0,1,0,18.06,34.57Z"/><path class="cls-9" d="M54.67,29h-1V22a3,3,0,0,0-3-3H48.42l-1.16-4.34a3,3,0,0,0-3.67-2.12l-1.1.3L41,9.71a3,3,0,0,0-4-1.45L13.93,19H12.67a3,3,0,0,0-3,3V33.24a9.66,9.66,0,0,0,4,18.45h37a3,3,0,0,0,3-3v-7h1a1,1,0,0,0,1-1V30A1,1,0,0,0,54.67,29Zm-16.8-19a1,1,0,0,1,1.33.48l1.32,2.84-9.1,2.44a1,1,0,1,0,.52,1.94l12.17-3.26a1,1,0,0,1,1.22.7l1,3.82H18.66ZM6,42a7.67,7.67,0,1,1,7.67,7.66A7.68,7.68,0,0,1,6,42Zm45.67,3H33.44a1,1,0,0,0,0,2H51.67v1.66a1,1,0,0,1-1,1H19.53A9.49,9.49,0,0,0,21.92,47h2.75a1,1,0,0,0,0-2H22.85a9.66,9.66,0,0,0-9.18-12.67,9.36,9.36,0,0,0-2,.21V22a1,1,0,0,1,1-1h38a1,1,0,0,1,1,1v7H41.33a3.66,3.66,0,0,0-3.66,3.66V38a3.66,3.66,0,0,0,3.66,3.66H51.67Zm2-5.34H41.33A1.66,1.66,0,0,1,39.67,38V32.69A1.66,1.66,0,0,1,41.33,31H53.67Z"/><path class="cls-9" d="M42.67,36.36h1.5a1,1,0,0,0,0-2h-1.5a1,1,0,0,0,0,2Z"/><path class="cls-9" d="M29.33,45H28a1,1,0,0,0,0,2h1.33a1,1,0,0,0,0-2Z"/><path class="cls-9" d="M14.21,46.44l.11.31a1,1,0,0,0,.94.66,1,1,0,0,0,.34-.06,1,1,0,0,0,.6-1.28l-.14-.4A2.79,2.79,0,0,0,17,44.6a2.65,2.65,0,0,0,.09-2A2.68,2.68,0,0,0,13.64,41L13,41.2A.67.67,0,0,1,12.55,40l1.26-.46h0a1,1,0,1,0,1.88-.68,2,2,0,0,0-1-1.13,2,2,0,0,0-1.53-.07h0L13,37.3a1,1,0,1,0-1.88.68l.15.41a2.66,2.66,0,0,0,2.42,4.69l.62-.23a.67.67,0,0,1,.86.4.65.65,0,0,1,0,.51.62.62,0,0,1-.37.34l-1.26.46a1,1,0,1,0-1.87.69,2,2,0,0,0,1.87,1.31,2,2,0,0,0,.69-.12Z"/></g></g></g></svg>