<?xml version="1.0" encoding="UTF-8"?>
<svg width="52px" height="44px" viewBox="0 0 52 44" version="1.1" xmlns="http://www.w3.org/2000/svg" xmlns:xlink="http://www.w3.org/1999/xlink">
    <!-- Generator: sketchtool 50.2 (55047) - http://www.bohemiancoding.com/sketch -->
    <title>53B361CE-7D3F-405D-BACF-CF4391FB915C</title>
    <desc>Created with sketchtool.</desc>
    <defs></defs>
    <g id="How-to-apply" stroke="none" stroke-width="1" fill="none" fill-rule="evenodd">
        <g transform="translate(-85.000000, -1050.000000)" id="Wallet">
            <g transform="translate(81.000000, 1042.000000)">
                <rect id="Rectangle-path" x="0" y="0" width="60" height="60"></rect>
                <path d="M47.66,20 L46.3,15 C46.0122558,13.9345185 44.9158188,13.3035079 43.85,13.59 L19.64,20 L47.66,20 Z" id="Shape" stroke="#F6716F" stroke-width="2" fill="#F6716F" fill-rule="nonzero" stroke-linecap="round" stroke-linejoin="round"></path>
                <rect id="Rectangle-path" fill="#96DDFF" fill-rule="nonzero" x="10.67" y="20.03" width="42" height="30.67" rx="2"></rect>
                <path d="M52.67,48.69 L52.67,32.47 C50.61,37.11 45.64,44 34.25,44 C26.1983412,43.8802357 18.2252997,42.3958569 10.67,39.61 L10.67,48.61 C10.67,49.7145695 11.5654305,50.61 12.67,50.61 L50.67,50.61 C51.7440671,50.6108596 52.6270376,49.7632078 52.67,48.69 Z" id="Shape" fill="#69BAF9" fill-rule="nonzero"></path>
                <path d="M50.67,20 L12.67,20 C11.5654305,20 10.67,20.8954305 10.67,22 L10.67,24.9 C10.67,23.7954305 11.5654305,22.9 12.67,22.9 L50.67,22.9 C51.7745695,22.9 52.67,23.7954305 52.67,24.9 L52.67,22 C52.67,20.8954305 51.7745695,20 50.67,20 Z" id="Shape" fill="#C7ECFF" fill-rule="nonzero"></path>
                <path d="M41.33,30 L54.67,30 L54.67,40.69 L41.33,40.69 C40.6201279,40.6873612 39.9405292,40.4021429 39.4413929,39.8973773 C38.9422566,39.3926116 38.6646777,38.7098571 38.67,38 L38.67,32.69 C38.6646777,31.9801429 38.9422566,31.2973884 39.4413929,30.7926227 C39.9405292,30.2878571 40.6201279,30.0026388 41.33,30 Z" id="Shape" fill="#69BAF9" fill-rule="nonzero"></path>
                <path d="M54.38,32.94 C54.38,32.94 55,38.27 47.66,38.27 C44.6076136,38.3193722 41.5676375,37.8701312 38.66,36.94 L38.66,38 C38.66,39.4690774 39.8509226,40.66 41.32,40.66 L54.67,40.66 L54.67,33.41 L54.38,32.94 Z" id="Shape" fill="#599ED4" fill-rule="nonzero"></path>
                <circle id="Oval" fill="#FFC670" fill-rule="nonzero" cx="13.67" cy="42.03" r="8.67"></circle>
                <path d="M18.06,34.57 C20.0723503,37.9691926 19.526257,42.2998334 16.7330452,45.0930452 C13.9398334,47.886257 9.60919263,48.4323503 6.21,46.42 C8.04374018,49.5492937 11.6332835,51.2043516 15.2038111,50.5668446 C18.7743386,49.9293375 21.5693375,47.1343386 22.2068446,43.5638111 C22.8443516,39.9932835 21.1892937,36.4037402 18.06,34.57 Z" id="Shape" fill="#FFA742" fill-rule="nonzero"></path>
                <path d="M54.67,29 L53.67,29 L53.67,22 C53.67,20.3431458 52.3268542,19 50.67,19 L48.42,19 L47.26,14.66 C46.8305308,13.0622472 45.1886252,12.1137894 43.59,12.54 L42.49,12.84 L41,9.71 C40.663614,8.98569202 40.0523166,8.42540083 39.3015148,8.15323516 C38.5507129,7.88106949 37.7223807,7.91949494 37,8.26 L13.93,19 L12.67,19 C11.0131458,19 9.67,20.3431458 9.67,22 L9.67,33.24 C5.53529965,35.1245704 3.27298256,39.6359923 4.23575092,44.0767613 C5.19851928,48.5175304 9.1260652,51.6869765 13.67,51.69 L50.67,51.69 C52.3268542,51.69 53.67,50.3468542 53.67,48.69 L53.67,41.69 L54.67,41.69 C55.2222847,41.69 55.67,41.2422847 55.67,40.69 L55.67,30 C55.67,29.4477153 55.2222847,29 54.67,29 Z M37.87,10 C38.3698225,9.76538346 38.9652085,9.98025961 39.2,10.48 L40.52,13.32 L31.42,15.76 C31.0734524,15.8528891 30.8027849,16.123603 30.7099554,16.4701666 C30.6171258,16.8167302 30.7162373,17.1864921 30.9699554,17.4401666 C31.2236734,17.6938411 31.5934524,17.7928891 31.94,17.7 L44.11,14.44 C44.6397792,14.2995844 45.1838709,14.6117681 45.33,15.14 L46.33,18.96 L18.66,18.96 L37.87,10 Z M6,42 C5.99595419,38.8968678 7.86212239,36.0970398 10.7278824,34.9067181 C13.5936423,33.7163964 16.8942849,34.3701384 19.0899635,36.5629543 C21.2856421,38.7557702 21.9436896,42.0555571 20.7571077,44.9228676 C19.5705257,47.790178 16.7731349,49.6599974 13.67,49.66 C9.44015501,49.6545067 6.01101166,46.2298342 6,42 Z M51.67,45 L33.44,45 C32.8877153,45 32.44,45.4477153 32.44,46 C32.44,46.5522847 32.8877153,47 33.44,47 L51.67,47 L51.67,48.66 C51.67,49.2122847 51.2222847,49.66 50.67,49.66 L19.53,49.66 C20.4880332,48.9327996 21.2990964,48.03011 21.92,47 L24.67,47 C25.2222847,47 25.67,46.5522847 25.67,46 C25.67,45.4477153 25.2222847,45 24.67,45 L22.85,45 C23.8150052,42.0571896 23.3105327,38.8301194 21.4934441,36.3222204 C19.6763555,33.8143214 16.7669934,32.3297049 13.67,32.33 C12.9977263,32.3279724 12.3271906,32.3983787 11.67,32.54 L11.67,22 C11.67,21.4477153 12.1177153,21 12.67,21 L50.67,21 C51.2222847,21 51.67,21.4477153 51.67,22 L51.67,29 L41.33,29 C39.3086378,29 37.67,30.6386378 37.67,32.66 L37.67,38 C37.67,40.0213622 39.3086378,41.66 41.33,41.66 L51.67,41.66 L51.67,45 Z M53.67,39.66 L41.33,39.66 C40.4132073,39.66 39.67,38.9167927 39.67,38 L39.67,32.69 C39.6619487,32.2445659 39.8332802,31.8145902 40.1454675,31.496761 C40.4576548,31.1789317 40.8844932,30.9999272 41.33,31 L53.67,31 L53.67,39.66 Z" id="Shape" fill="#3D3D63" fill-rule="nonzero"></path>
                <path d="M42.67,36.36 L44.17,36.36 C44.7222847,36.36 45.17,35.9122847 45.17,35.36 C45.17,34.8077153 44.7222847,34.36 44.17,34.36 L42.67,34.36 C42.1177153,34.36 41.67,34.8077153 41.67,35.36 C41.67,35.9122847 42.1177153,36.36 42.67,36.36 Z" id="Shape" fill="#3D3D63" fill-rule="nonzero"></path>
                <path d="M29.33,45 L28,45 C27.4477153,45 27,45.4477153 27,46 C27,46.5522847 27.4477153,47 28,47 L29.33,47 C29.8822847,47 30.33,46.5522847 30.33,46 C30.33,45.4477153 29.8822847,45 29.33,45 Z" id="Shape" fill="#3D3D63" fill-rule="nonzero"></path>
                <path d="M14.21,46.44 L14.32,46.75 C14.4631502,47.1459474 14.8389699,47.4098209 15.26,47.41 C15.3759548,47.4098636 15.4910025,47.3895611 15.6,47.35 C16.1189865,47.1620467 16.3875381,46.5891367 16.2,46.07 L16.06,45.67 C16.4606263,45.4006626 16.784513,45.0319831 17,44.6 C17.2903604,43.9707477 17.3226686,43.2527886 17.09,42.6 C16.8466994,41.9287969 16.3456426,41.3824148 15.6979656,41.0820428 C15.0502887,40.7816709 14.3095328,40.7521399 13.64,41 L13,41.2 C12.7059011,41.2183914 12.4343096,41.0424702 12.3308429,40.7665589 C12.2273761,40.4906476 12.3163257,40.1795236 12.55,40 L13.81,39.54 C13.9240821,39.885673 14.2169886,40.1420514 14.574724,40.2093559 C14.9324595,40.2766603 15.2985112,40.1442586 15.5304165,39.8636798 C15.7623219,39.583101 15.8234459,39.198669 15.69,38.86 C15.516995,38.3672132 15.1580895,37.96165 14.69,37.73 C14.2094917,37.504576 13.6590848,37.479394 13.16,37.66 L13,37.3 C12.8859179,36.954327 12.5930114,36.6979486 12.235276,36.6306441 C11.8775405,36.5633397 11.5114888,36.6957414 11.2795835,36.9763202 C11.0476781,37.256899 10.9865541,37.641331 11.12,37.98 L11.27,38.39 C10.1666396,39.1493534 9.79999051,40.6106544 10.4141726,41.8009493 C11.0283546,42.9912443 12.4317674,43.5392085 13.69,43.08 L14.31,42.85 C14.4770765,42.7888139 14.6616293,42.796598 14.8229602,42.8716356 C14.9842911,42.9466732 15.109149,43.0828011 15.17,43.25 C15.2394772,43.4129014 15.2394772,43.5970986 15.17,43.76 C15.1001792,43.9204732 14.9657911,44.043965 14.8,44.1 L13.54,44.56 C13.4390126,44.1968509 13.1424068,43.9213386 12.7728071,43.847367 C12.4032073,43.7733954 12.0234134,43.9135333 11.7904419,44.209844 C11.5574704,44.5061547 11.5109062,44.9082912 11.67,45.25 C11.9583582,46.0345205 12.7041688,46.5569867 13.54,46.56 C13.7752678,46.5608953 14.0088484,46.5202726 14.23,46.44 L14.21,46.44 Z" id="Shape" fill="#3D3D63" fill-rule="nonzero"></path>
            </g>
        </g>
    </g>
</svg>