<svg xmlns="http://www.w3.org/2000/svg" viewBox="0 0 60 60"><defs><style>.cls-1{fill:none;}.cls-2{fill:#ffc670;}.cls-3{fill:#ffe3ba;}.cls-4{fill:#ffa742;}.cls-5{fill:#c7ecff;}.cls-6{opacity:0.5;}.cls-7{fill:#fff;}.cls-8{fill:#69baf9;}.cls-9{fill:#96ddff;}.cls-10{fill:#3d3d63;}</style></defs><title>World</title><g id="图层_2" data-name="图层 2"><g id="Graphics"><g id="World"><rect class="cls-1" width="60" height="60"/><rect class="cls-1" width="60" height="60"/><circle class="cls-2" cx="30" cy="30" r="24"/><path class="cls-3" d="M30,6A24,24,0,0,0,8.58,19.18,23.47,23.47,0,1,1,40.82,51.42,24,24,0,0,0,30,6Z"/><path class="cls-4" d="M42.05,46.19A28.2,28.2,0,0,1,14.53,11.66,24,24,0,1,0,48.34,45.47,28.34,28.34,0,0,1,42.05,46.19Z"/><circle class="cls-5" cx="30" cy="30" r="18.67"/><g class="cls-6"><path class="cls-7" d="M38.29,19c-1.12,2.32-3.85,1.32-5.65.91s-4.38-.73-4.46-3.24,3.42-3.33,5.7-2.9S39.42,16.7,38.29,19Z"/></g><path class="cls-8" d="M36.32,47.57A18.67,18.67,0,0,1,17.93,15.76c-1.62,4.2-.2,11.64,4,18.91S31.87,46.89,36.32,47.57Z"/><ellipse class="cls-9" cx="30" cy="30" rx="9.33" ry="18.67" transform="translate(-10.98 19.02) rotate(-30)"/><path class="cls-10" d="M30,5A25,25,0,1,0,55,30,25,25,0,0,0,30,5Zm0,48A23,23,0,1,1,53,30,23,23,0,0,1,30,53Z"/><path class="cls-10" d="M45.77,22a1,1,0,0,0,.9.55,1,1,0,0,0,.45-.1,1,1,0,0,0,.44-1.35,20.55,20.55,0,0,0-1.11-1.91,1,1,0,1,0-1.67,1.1A16.43,16.43,0,0,1,45.77,22Z"/><path class="cls-10" d="M48.68,30.77a1,1,0,0,0-1.09.9,16,16,0,0,1-.3,2,1,1,0,0,0,.78,1.18l.2,0a1,1,0,0,0,1-.8,19.58,19.58,0,0,0,.33-2.19A1,1,0,0,0,48.68,30.77Z"/><path class="cls-10" d="M42.25,17.27a1,1,0,0,0,.69.28,1,1,0,0,0,.72-.31,1,1,0,0,0,0-1.41A17.6,17.6,0,0,0,42,14.39,1,1,0,1,0,40.74,16C41.26,16.38,41.77,16.81,42.25,17.27Z"/><path class="cls-10" d="M47.15,25.75a16.33,16.33,0,0,1,.37,1.95,1,1,0,0,0,1,.87h.13a1,1,0,0,0,.86-1.12,19.74,19.74,0,0,0-.4-2.17,1,1,0,0,0-1.21-.73A1,1,0,0,0,47.15,25.75Z"/><path class="cls-10" d="M35.49,13.21a15.39,15.39,0,0,1,1.85.72,1.06,1.06,0,0,0,.42.09,1,1,0,0,0,.91-.58,1,1,0,0,0-.5-1.33,17.2,17.2,0,0,0-2.06-.8,1,1,0,0,0-1.26.63A1,1,0,0,0,35.49,13.21Z"/><path class="cls-10" d="M46.51,37.72a1,1,0,0,0-.9.56,17.3,17.3,0,0,1-2.5,3.55,14.64,14.64,0,0,0,.2-3.76,21.62,21.62,0,0,0-.51-3.53l3-1.71a1,1,0,1,0-1-1.74l-2.49,1.44a35,35,0,0,0-2.85-6.82l4.24-2.45a1,1,0,0,0-1-1.73L38.43,24A35.26,35.26,0,0,0,34,18.1l2.47-1.43a1,1,0,0,0-1-1.73l-3,1.7a24.18,24.18,0,0,0-2.8-2.21,15.29,15.29,0,0,0-3.39-1.69A17.52,17.52,0,0,1,30,12.33l.66,0a1,1,0,0,0,1-1,1,1,0,0,0-1-1l-.73,0A19.67,19.67,0,1,0,47.39,39.19a.94.94,0,0,0,.12-.47h0A1,1,0,0,0,46.51,37.72Zm-6-4.16L35,36.72l-3.66-6.35,6.33-3.66A33.35,33.35,0,0,1,40.51,33.56ZM29.63,31.37l3.67,6.35-5.47,3.15A33.77,33.77,0,0,1,23.3,35ZM22.3,33.29a33.54,33.54,0,0,1-2.8-6.85L25,23.28l3.66,6.35ZM36.7,25l-6.33,3.65L26.7,22.28l5.47-3.16A33.33,33.33,0,0,1,36.7,25ZM23.27,14.18a10,10,0,0,1,5.29,1.92,21,21,0,0,1,2.09,1.59L25.7,20.55l-3.6-6.23A4.93,4.93,0,0,1,23.27,14.18Zm-2.9,1.15L24,21.55,19,24.4C18.27,20.39,18.68,17,20.37,15.33Zm-3.49,2.88a18.56,18.56,0,0,0,.3,7.26l-4.75,2.74A17.52,17.52,0,0,1,16.88,18.21ZM12.36,30.56l5.34-3.08a35.74,35.74,0,0,0,2.87,6.81l-6.33,3.65A17.6,17.6,0,0,1,12.36,30.56Zm2.88,9.12L21.57,36A35.12,35.12,0,0,0,26,41.91L20.7,45A17.85,17.85,0,0,1,15.24,39.68Zm14.76,8a17.51,17.51,0,0,1-7.23-1.57l4.75-2.73a18.45,18.45,0,0,0,6.17,3.9A17.38,17.38,0,0,1,30,47.67Zm-.63-5.37,4.93-2.85,3.59,6.22C35.59,46.29,32.46,45,29.37,42.3Zm10.25,2.37L36,38.45,41,35.59a20.39,20.39,0,0,1,.34,2.6C41.49,41.11,40.88,43.39,39.62,44.67Z"/></g></g></g></svg>