<?xml version="1.0" encoding="UTF-8"?>
<svg width="84px" height="84px" viewBox="0 0 84 84" version="1.1" xmlns="http://www.w3.org/2000/svg" xmlns:xlink="http://www.w3.org/1999/xlink">
    <!-- Generator: sketchtool 50.2 (55047) - http://www.bohemiancoding.com/sketch -->
    <title>6AFA8675-3F32-49A0-92D4-E97E703009BD</title>
    <desc>Created with sketchtool.</desc>
    <defs></defs>
    <g id="Pricing" stroke="none" stroke-width="1" fill="none" fill-rule="evenodd">
        <g transform="translate(-678.000000, -729.000000)" id="World">
            <g transform="translate(670.000000, 721.000000)">
                <rect id="Rectangle-path" x="0" y="0" width="100" height="100"></rect>
                <rect id="Rectangle-path" x="0" y="0" width="100" height="100"></rect>
                <circle id="Oval" fill="#FFC670" fill-rule="nonzero" cx="50" cy="50" r="40"></circle>
                <path d="M50,10 C34.9090321,10.0016321 21.1035113,18.4963457 14.3,31.9666667 C22.7225298,18.0852202 38.8449253,10.8501612 54.8141704,13.7855962 C70.7834154,16.7210311 83.2789689,29.2165846 86.2144038,45.1858296 C89.1498388,61.1550747 81.9147798,77.2774702 68.0333333,85.7 C84.5601501,77.3477572 93.1937489,58.7439165 88.9025847,40.7305453 C84.6114206,22.7171741 68.5174408,10.003963 50,10 Z" id="Shape" fill="#FFE3BA" fill-rule="nonzero"></path>
                <path d="M70.0833333,76.9833333 C55.7520332,77.0034733 42.1946149,70.4838201 33.2625114,59.2764969 C24.3304078,48.0691736 20.9997298,33.3989299 24.2166667,19.4333333 C12.6186643,29.1521128 7.49765582,44.5835926 10.9840109,59.3081864 C14.470366,74.0327801 25.9672199,85.529634 40.6918136,89.0159891 C55.4164074,92.5023442 70.8478872,87.3813357 80.5666667,75.7833333 C77.1280101,76.5736274 73.6116292,76.9761384 70.0833333,76.9833333 Z" id="Shape" fill="#FFA742" fill-rule="nonzero"></path>
                <circle id="Oval" fill="#C7ECFF" fill-rule="nonzero" cx="50" cy="50" r="31.1166667"></circle>
                <g id="Group" opacity="0.5" transform="translate(46.666667, 21.666667)" fill="#FFFFFF" fill-rule="nonzero">
                    <path d="M17.15,10 C15.2833333,13.8666667 10.7333333,12.2 7.73333333,11.5166667 C4.73333333,10.8333333 0.433333333,10.3 0.3,6.11666667 C0.166666667,1.93333333 6,0.566666667 9.8,1.28333333 C13.6,2 19.0333333,6.16666667 17.15,10 Z" id="Shape"></path>
                </g>
                <path d="M60.5333333,79.2833333 C46.3727748,84.374784 30.5978521,78.6034175 23.0662987,65.575755 C15.5347454,52.5480925 18.4049537,35.9976012 29.8833333,26.2666667 C27.1833333,33.2666667 29.55,45.6666667 36.55,57.7833333 C43.55,69.9 53.1166667,78.15 60.5333333,79.2833333 Z" id="Shape" fill="#69BAF9" fill-rule="nonzero"></path>
                <ellipse id="Oval" fill="#96DDFF" fill-rule="nonzero" transform="translate(50.001270, 50.001270) rotate(-30.000000) translate(-50.001270, -50.001270) " cx="50.0012702" cy="50.0012702" rx="15.55" ry="31.1166667"></ellipse>
                <path d="M50,8.33333333 C26.9881354,8.33333333 8.33333333,26.9881354 8.33333333,50 C8.33333333,73.0118646 26.9881354,91.6666667 50,91.6666667 C73.0118646,91.6666667 91.6666667,73.0118646 91.6666667,50 C91.6666667,38.9493129 87.2767983,28.3512332 79.4627825,20.5372175 C71.6487668,12.7232017 61.0506871,8.33333333 50,8.33333333 Z M50,88.3333333 C28.8290846,88.3333333 11.6666667,71.1709154 11.6666667,50 C11.6666667,28.8290846 28.8290846,11.6666667 50,11.6666667 C71.1709154,11.6666667 88.3333333,28.8290846 88.3333333,50 C88.3333333,60.1666321 84.2946545,69.9168654 77.1057599,77.1057599 C69.9168654,84.2946545 60.1666321,88.3333333 50,88.3333333 Z" id="Shape" fill="#3D3D63" fill-rule="nonzero"></path>
                <path d="M76.2833333,36.6666667 C76.5684425,37.2325063 77.1497386,37.5877428 77.7833333,37.5833333 C78.0429014,37.5869444 78.2997245,37.5298726 78.5333333,37.4166667 C78.9302451,37.2168911 79.2309481,36.8668895 79.368645,36.4444102 C79.506342,36.0219309 79.4696309,35.5619573 79.2666667,35.1666667 C78.7075218,34.0731534 78.0899631,33.0105072 77.4166667,31.9833333 C77.0938872,31.475146 76.5221336,31.1805314 75.9209587,31.2126213 C75.3197838,31.2447112 74.7826421,31.5985172 74.5157953,32.138178 C74.2489486,32.6778389 74.293879,33.3194627 74.6333333,33.8166667 C75.2400115,34.7327044 75.7910076,35.684425 76.2833333,36.6666667 Z" id="Shape" fill="#3D3D63" fill-rule="nonzero"></path>
                <path d="M81.1333333,51.2833333 C80.2175998,51.1963404 79.4045295,51.8676829 79.3166667,52.7833333 C79.2204584,53.9038765 79.0534582,55.017211 78.8166667,56.1166667 C78.7281691,56.5498625 78.8154292,57.0004708 79.0592415,57.369315 C79.3030537,57.7381591 79.6834355,57.9950091 80.1166667,58.0833333 L80.45,58.0833333 C81.2546013,58.0995595 81.9558773,57.5385387 82.1166667,56.75 C82.3687178,55.5446846 82.5523448,54.3260691 82.6666667,53.1 C82.7081796,52.6549206 82.5691634,52.2118208 82.2808417,51.8702223 C81.99252,51.5286237 81.5790626,51.3171624 81.1333333,51.2833333 Z" id="Shape" fill="#3D3D63" fill-rule="nonzero"></path>
                <path d="M70.4166667,28.7833333 C70.7256292,29.0811345 71.1375508,29.2482911 71.5666667,29.25 C72.0203127,29.2482687 72.4536519,29.0616921 72.7666667,28.7333333 C73.4128727,28.0832709 73.4128727,27.0333958 72.7666667,26.3833333 C71.8953377,25.5264836 70.9713148,24.7249215 70,23.9833333 C69.5206687,23.6082045 68.8776194,23.5172913 68.3130826,23.74484 C67.7485458,23.9723887 67.348288,24.4838291 67.2630826,25.0865067 C67.1778771,25.6891842 67.4206687,26.2915378 67.9,26.6666667 C68.7666667,27.3 69.6166667,28.0166667 70.4166667,28.7833333 Z" id="Shape" fill="#3D3D63" fill-rule="nonzero"></path>
                <path d="M78.5833333,42.9166667 C78.8545953,43.9864945 79.0605311,45.071832 79.2,46.1666667 C79.3094465,47.0016534 80.0245679,47.623809 80.8666667,47.6166667 L81.0833333,47.6166667 C81.9938573,47.4957133 82.6348879,46.6608828 82.5166667,45.75 C82.3620501,44.5329575 82.1394803,43.3255161 81.85,42.1333333 C81.6284853,41.2409161 80.7260819,40.6964908 79.8333333,40.9166667 C79.4022118,41.0158725 79.028219,41.2824097 78.7937536,41.6575543 C78.5592882,42.032699 78.4835887,42.4856695 78.5833333,42.9166667 Z" id="Shape" fill="#3D3D63" fill-rule="nonzero"></path>
                <path d="M59.15,22.0166667 C60.2025318,22.3498938 61.2324517,22.7507274 62.2333333,23.2166667 C62.4539849,23.3139139 62.6922084,23.3649618 62.9333333,23.3666667 C63.584285,23.3682774 64.1766015,22.9907571 64.45,22.4 C64.63562,21.9958292 64.6519984,21.5342335 64.4954908,21.1179233 C64.3389832,20.7016131 64.0225735,20.3651256 63.6166667,20.1833333 C62.5019864,19.6657522 61.3551756,19.2203888 60.1833333,18.85 C59.3137609,18.5638817 58.3761822,19.0326711 58.0833333,19.9 C57.941477,20.3220764 57.9744138,20.7833669 58.1747992,21.1810067 C58.3751846,21.5786465 58.7263544,21.8795676 59.15,22.0166667 Z" id="Shape" fill="#3D3D63" fill-rule="nonzero"></path>
                <path d="M77.5166667,62.8666667 C76.8793415,62.8653912 76.297089,63.2276816 76.0166667,63.8 C74.8817651,65.939379 73.4818533,67.9272537 71.85,69.7166667 C72.2303923,67.6508341 72.3424298,65.5445288 72.1833333,63.45 C72.0625219,61.4688254 71.7782214,59.50102 71.3333333,57.5666667 L76.3333333,54.7166667 C76.8513685,54.4189454 77.1712202,53.8674711 77.1724036,53.2699788 C77.1735869,52.6724866 76.855922,52.1197497 76.3390702,51.8199788 C75.8222184,51.5202079 75.1847018,51.5189453 74.6666667,51.8166667 L70.5166667,54.2166667 C69.338975,50.2707403 67.7467651,46.4606098 65.7666667,42.85 L72.8333333,38.7666667 C73.5870877,38.2875067 73.8291337,37.2993387 73.3821554,36.5260663 C72.9351771,35.7527938 71.9580841,35.4693305 71.1666667,35.8833333 L64.05,40 C61.9395347,36.4730444 59.4648798,33.1772286 56.6666667,30.1666667 L60.7833333,27.7833333 C61.5370877,27.3041734 61.7791337,26.3160054 61.3321554,25.5427329 C60.8851771,24.7694605 59.9080841,24.4859971 59.1166667,24.9 L54.1166667,27.7333333 C52.6539184,26.3923342 51.0941197,25.1612073 49.45,24.05 C47.6906952,22.8805528 45.7928016,21.9344052 43.8,21.2333333 C45.8363407,20.7848408 47.9148631,20.5557563 50,20.55 L51.1,20.55 C52.0204746,20.55 52.7666667,19.8038079 52.7666667,18.8833333 C52.7666667,17.9628588 52.0204746,17.2166667 51.1,17.2166667 L49.8833333,17.2166667 C33.833662,17.2728805 20.1844905,28.9406583 17.6320474,44.7861669 C15.0796043,60.6316755 24.3744668,75.9953487 39.5946456,81.0886058 C54.8148243,86.181863 71.4846389,79.5069693 78.9833333,65.3166667 C79.117384,65.0775499 79.1863469,64.8074452 79.1833333,64.5333333 C79.1833333,63.6128588 78.4371412,62.8666667 77.5166667,62.8666667 Z M67.5166667,55.9333333 L58.3333333,61.2 L52.2333333,50.6166667 L62.7833333,44.5166667 C64.7806049,48.1344345 66.368194,51.9636547 67.5166667,55.9333333 Z M49.3833333,52.2833333 L55.5,62.8666667 L46.3833333,68.1166667 C43.5151978,65.1425642 40.9832734,61.8616821 38.8333333,58.3333333 L49.3833333,52.2833333 Z M37.1666667,55.4833333 C35.1947644,51.8615593 33.6296851,48.0327046 32.5,44.0666667 L41.6666667,38.8 L47.7666667,49.3833333 L37.1666667,55.4833333 Z M61.1666667,41.6666667 L50.6166667,47.75 L44.5,37.1333333 L53.6166667,31.8666667 C56.490363,34.8420383 59.0227291,38.129083 61.1666667,41.6666667 Z M38.7833333,23.6333333 C41.9679562,23.8340033 45.0280374,24.9446566 47.6,26.8333333 C48.8152588,27.6431318 49.978644,28.5281951 51.0833333,29.4833333 L42.8333333,34.25 L36.8333333,23.8666667 C37.4716673,23.7112092 38.1263424,23.632872 38.7833333,23.6333333 Z M33.95,25.55 L40,35.9166667 L31.6666667,40.6666667 C30.45,33.9833333 31.1333333,28.3333333 33.95,25.55 Z M28.1333333,30.35 C27.5011403,34.3768814 27.6710628,38.4890055 28.6333333,42.45 L20.7166667,47.0166667 C21.3455273,40.8116119 23.9446326,34.970926 28.1333333,30.35 Z M20.6,50.9333333 L29.5,45.8 C30.6979648,49.7384559 32.3009764,53.5421176 34.2833333,57.15 L23.7333333,63.2333333 C21.8037198,59.4111488 20.734241,55.2128756 20.6,50.9333333 Z M25.4,66.1333333 L35.95,60 C38.0580554,63.5337211 40.5328489,66.8353079 43.3333333,69.85 L34.5,75 C30.8635743,72.7342114 27.7594611,69.7096909 25.4,66.1333333 Z M50,79.4666667 C45.8428078,79.4626674 41.7344455,78.5705334 37.95,76.85 L45.8666667,72.3 C48.8273722,75.1298659 52.3235584,77.3397729 56.15,78.8 C54.1290684,79.2355058 52.0673215,79.453414 50,79.45 L50,79.4666667 Z M48.95,70.5166667 L57.1666667,65.7666667 L63.15,76.1333333 C59.3166667,77.15 54.1,75 48.95,70.5 L48.95,70.5166667 Z M66.0333333,74.4666667 L60,64.0833333 L68.3333333,59.3166667 C68.6149999,60.747457 68.8042801,62.1948936 68.9,63.65 C69.15,68.5166667 68.1333333,72.3166667 66.0333333,74.45 L66.0333333,74.4666667 Z" id="Shape" fill="#3D3D63" fill-rule="nonzero"></path>
            </g>
        </g>
    </g>
</svg>