<?xml version="1.0" ?><!DOCTYPE svg  PUBLIC '-//W3C//DTD SVG 1.1//EN'  'http://www.w3.org/Graphics/SVG/1.1/DTD/svg11.dtd'><svg enable-background="new 0 0 512 512" height="512px" id="Layer_1" version="1.1" viewBox="0 0 512 512" width="512px" xml:space="preserve" xmlns="http://www.w3.org/2000/svg" xmlns:xlink="http://www.w3.org/1999/xlink"><g><linearGradient gradientTransform="matrix(1 0 0 -1 -41.66 349.04)" gradientUnits="userSpaceOnUse" id="SVGID_1_" x1="-110.7461" x2="550.1028" y1="469.096" y2="-191.7529"><stop offset="0" style="stop-color:#DD272D"/><stop offset="0.5153" style="stop-color:#CA2429"/><stop offset="1" style="stop-color:#B22025"/></linearGradient><path d="M259.825,277.735c-8.073-5.706-23.481-19.584-23.481-27.747c0-9.558,2.727-14.274,17.118-25.515   c14.742-11.529,25.191-30.42,25.191-49.284c0-22.428-10.008-36.189-28.764-54.189h28.296l19.962-9c0,0-66.906,0-89.217,0   c-40.005,0-77.634,30.258-77.634,65.349c0,35.874,27.261,64.809,67.959,64.809c2.826,0,5.571-0.072,8.271-0.252   c-2.646,5.04-4.527,10.728-4.527,16.641c0,9.972,5.364,18.054,12.132,24.66c-5.103,0-10.062,0.144-15.453,0.144   C150.115,283.342,112,314.887,112,347.611C112,379.822,153.805,400,203.332,400c56.484,0,87.669-32.058,87.669-64.278   C291.01,309.883,283.378,294.421,259.825,277.735z M212.161,233.032c-22.995-0.684-44.829-25.713-48.798-55.881   c-3.96-30.195,11.448-53.298,34.416-52.614c22.986,0.702,44.829,24.912,48.807,55.098   C250.555,209.83,235.129,233.716,212.161,233.032z M203.152,385.735c-34.245,0-58.977-21.663-58.977-47.709   c0-25.506,30.672-46.755,64.926-46.386c7.992,0.09,15.435,1.368,22.185,3.555c18.594,12.942,31.932,20.25,35.712,34.965   c0.684,2.988,1.089,6.075,1.089,9.207C268.087,365.395,251.302,385.735,203.152,385.735z" fill="url(#SVGID_1_)"/><linearGradient gradientTransform="matrix(1 0 0 -1 -41.66 349.04)" gradientUnits="userSpaceOnUse" id="SVGID_2_" x1="-45.071" x2="615.7779" y1="534.771" y2="-126.0779"><stop offset="0" style="stop-color:#DD272D"/><stop offset="0.5153" style="stop-color:#CA2429"/><stop offset="1" style="stop-color:#B22025"/></linearGradient><polygon fill="url(#SVGID_2_)" points="355,238 355,193 337,193 337,238 292,238 292,256 337,256 337,301 355,301 355,256 400,256    400,238  "/></g></svg>