<svg xmlns="http://www.w3.org/2000/svg" width="24" height="22" viewBox="0 0 24 22">
  <path fill="#3E3E3E" fill-rule="evenodd" d="M22.8,9.6 L1.2,9.6 C0.5376,9.6 0,10.1376 0,10.8 C0,11.4636 0.5376,12 1.2,12 L22.8,12 C23.4624,12 24,11.4636 24,10.8 C24,10.1376 23.4624,9.6 22.8,9.6 L22.8,9.6 Z M22.8,19.2 L1.2,19.2 C0.5376,19.2 0,19.7376 0,20.4 C0,21.0636 0.5376,21.6 1.2,21.6 L22.8,21.6 C23.4624,21.6 24,21.0636 24,20.4 C24,19.7376 23.4624,19.2 22.8,19.2 L22.8,19.2 Z M1.2,2.4 L22.8,2.4 C23.4624,2.4 24,1.8636 24,1.2 C24,0.5376 23.4624,0 22.8,0 L1.2,0 C0.5376,0 0,0.5376 0,1.2 C0,1.8636 0.5376,2.4 1.2,2.4 L1.2,2.4 Z"/>
</svg>
