<svg xmlns="http://www.w3.org/2000/svg" width="851" height="815" viewBox="0 0 851 815">
  <g fill="none" fill-rule="evenodd" transform="translate(6 -90)">
    <g transform="translate(77 684)">
      <path fill="#FFF" d="M95.7373698,84.7507886 L95.7373698,87.8974763 C95.7373698,90.2050473 93.4279157,91.2539432 89.0189579,91.2539432 L15.3263772,91.2539432 C18.2656824,106.567823 31.4925559,119.154574 47.8686849,119.154574 C56.6866006,119.154574 64.4547643,115.588328 70.1234244,110.134069 C72.6428289,107.616719 74.952283,106.358044 78.5214393,106.358044 L81.2507941,106.358044 C86.7095038,106.358044 89.2289083,110.134069 85.8697023,114.539432 C77.0517867,125.867508 63.1950621,133 47.8686849,133 C21.6248884,133 0,110.553628 0,84.7507886 C0,58.5283912 21.6248884,36.9211356 47.8686849,36.9211356 C74.1124815,36.9211356 95.7373698,58.5283912 95.7373698,84.7507886 Z M47.8686849,50.7665615 C31.4925559,50.7665615 18.4756328,62.5141956 15.3263772,77.8280757 L80.4109927,77.8280757 C77.2617371,62.5141956 64.244814,50.7665615 47.8686849,50.7665615 Z M152.00407,130.692429 L148.015013,130.692429 C144.025956,130.692429 141.716501,129.014196 140.246849,125.44795 L107.494591,46.1514196 C105.605037,41.5362776 107.704541,38.3895899 112.74335,38.3895899 L114.003052,38.3895899 C117.992109,38.3895899 120.301563,40.0678233 121.771216,43.6340694 L150.114516,112.022082 L178.247866,43.6340694 C179.717519,40.0678233 182.026973,38.3895899 186.01603,38.3895899 L187.275732,38.3895899 C192.314541,38.3895899 194.414045,41.5362776 192.524492,46.1514196 L159.772233,125.44795 C158.302581,129.014196 155.993127,130.692429 152.00407,130.692429 Z M219.60809,19.7192429 C213.93943,19.7192429 209.530472,15.3138801 209.530472,9.64984227 C209.530472,4.61514196 213.93943,0 219.60809,0 C224.856849,0 229.475757,4.61514196 229.475757,9.64984227 C229.475757,15.3138801 224.856849,19.7192429 219.60809,19.7192429 Z M220.447891,130.692429 L219.188189,130.692429 C214.779231,130.692429 212.469777,128.384858 212.469777,123.979495 L212.469777,45.1025237 C212.469777,40.6971609 214.779231,38.3895899 219.188189,38.3895899 L220.447891,38.3895899 C224.856849,38.3895899 227.166303,40.6971609 227.166303,45.1025237 L227.166303,123.979495 C227.166303,128.384858 224.856849,130.692429 220.447891,130.692429 Z M310.516601,61.0457413 C306.737494,61.0457413 305.057891,59.1577287 302.748437,56.2208202 C299.599181,52.444795 293.720571,50.137224 285.952407,50.137224 C274.825038,50.137224 267.056874,55.3817035 267.056874,62.3044164 C267.056874,69.2271293 273.145435,73.2129338 288.261861,76.1498423 C311.986253,80.9747634 321.43402,89.1561514 321.43402,104.470032 C321.43402,120.623028 309.046948,132.160883 285.952407,132.160883 C268.316576,132.160883 255.719554,123.979495 251.730497,111.602524 C250.260844,107.197161 253.200149,104.470032 257.819057,104.470032 C261.598164,104.470032 263.277767,106.358044 265.377271,109.504732 C268.946427,114.958991 276.714591,118.944795 285.952407,118.944795 C299.599181,118.944795 308.627048,112.861199 308.627048,104.470032 C308.627048,95.659306 302.748437,92.7223975 285.952407,89.3659306 C263.907618,84.9605678 254.039951,76.988959 254.039951,62.3044164 C254.039951,48.2492114 264.95737,36.9211356 285.952407,36.9211356 C300.858884,36.9211356 311.566353,43.6340694 315.975311,53.70347 C317.864864,58.1088328 315.135509,61.0457413 310.516601,61.0457413 Z M385.048983,133 C358.805187,133 337.180298,110.553628 337.180298,84.7507886 C337.180298,58.5283912 358.805187,36.9211356 385.048983,36.9211356 C399.115658,36.9211356 411.50273,43.4242902 419.900745,53.4936909 L419.900745,45.1025237 C419.900745,40.6971609 422.210199,38.3895899 426.619157,38.3895899 L427.249008,38.3895899 C431.657966,38.3895899 433.96742,40.6971609 433.96742,45.1025237 L433.96742,124.399054 C433.96742,128.804416 431.657966,131.111987 427.249008,131.111987 L426.619157,131.111987 C422.210199,131.111987 419.900745,128.804416 419.900745,124.399054 L419.900745,116.007886 C411.50273,126.287066 399.115658,133 385.048983,133 Z M384.629082,119.154574 C402.894765,119.154574 419.060943,103.001577 419.060943,84.7507886 C419.060943,66.0804416 402.894765,50.7665615 384.629082,50.7665615 C365.943499,50.7665615 351.876824,66.0804416 351.876824,84.7507886 C351.876824,103.001577 365.943499,119.154574 384.629082,119.154574 Z"/>
      <g fill="#2BC47D" transform="translate(448.666 39.2)">
        <path d="M75.6368513,93.8 L71.6483478,93.8 C67.6598444,93.8 65.3507108,92.1212528 63.8812622,88.553915 L31.1335498,9.23310962 C29.2442587,4.61655481 31.3434711,1.4689038 36.3815807,1.4689038 L37.6411081,1.4689038 C41.6296115,1.4689038 43.9387451,3.14765101 45.4081937,6.71498881 L73.7475602,75.1239374 L101.877005,6.71498881 C103.346454,3.14765101 105.655588,1.4689038 109.644091,1.4689038 L110.903618,1.4689038 C115.941728,1.4689038 118.04094,4.61655481 116.151649,9.23310962 L83.4039369,88.553915 C81.9344883,92.1212528 79.6253547,93.8 75.6368513,93.8 Z M142.601725,93.8 L141.971961,93.8 C137.563615,93.8 135.254481,91.4917226 135.254481,87.0850112 L135.254481,8.18389262 C135.254481,3.77718121 137.563615,1.4689038 141.971961,1.4689038 L142.601725,1.4689038 C147.010071,1.4689038 149.319204,3.77718121 149.319204,8.18389262 L149.319204,12.590604 C156.666447,4.61655481 166.952588,0 179.547862,0 C205.997937,0 217.333684,11.7512304 217.333684,41.1293065 L217.333684,87.0850112 C217.333684,91.4917226 215.02455,93.8 210.616204,93.8 L209.98644,93.8 C205.578095,93.8 203.268961,91.4917226 203.268961,87.0850112 L203.268961,41.1293065 C203.268961,22.8729306 194.872112,13.8496644 179.547862,13.8496644 C160.864872,13.4299776 149.319204,23.9221477 149.319204,44.6966443 L149.319204,87.0850112 C149.319204,91.4917226 147.010071,93.8 142.601725,93.8 Z"/>
        <rect width="26.948" height="11.9" y="41.65" rx="5.95"/>
      </g>
    </g>
    <g transform="rotate(-30 559.808 150)">
      <circle cx="300.522" cy="300.522" r="135.652" fill="#2BC47D"/>
      <path stroke="#FFF" stroke-linecap="round" stroke-linejoin="round" stroke-width="37.565" d="M240.464075,96.146592 C259.815095,90.4679419 279.883311,87.6072564 300.050187,87.6527071 C393.781741,87.6759523 476.409584,149.159363 503.362834,238.937729 C530.316084,328.716095 495.217587,425.547801 417.000075,477.200158 C338.782563,528.852515 235.952348,523.104544 163.977818,463.0568 C92.0032868,403.009055 67.9136579,302.86887 104.703291,216.653584" transform="rotate(130 300 300)"/>
      <rect width="221.594" height="36.261" x="86.42" y="281.739" fill="#FFF" rx="18.13"/>
    </g>
  </g>
</svg>
