<svg xmlns="http://www.w3.org/2000/svg" width="2592" height="609" viewBox="0 0 2592 609">
  <g fill="none" fill-rule="evenodd">
    <g transform="rotate(-30 327.535 307.763)">
      <circle cx="300.522" cy="300.522" r="135.652" fill="#2BC47D"/>
      <path stroke="#2C3F60" stroke-linecap="round" stroke-linejoin="round" stroke-width="37.565" d="M240.464075,96.146592 C259.815095,90.4679419 279.883311,87.6072564 300.050187,87.6527071 C393.781741,87.6759523 476.409584,149.159363 503.362834,238.937729 C530.316084,328.716095 495.217587,425.547801 417.000075,477.200158 C338.782563,528.852515 235.952348,523.104544 163.977818,463.0568 C92.0032868,403.009055 67.9136579,302.86887 104.703291,216.653584" transform="rotate(130 300 300)"/>
      <rect width="229.565" height="37.565" x="82.435" y="281.739" fill="#2C3F60" rx="18.783"/>
    </g>
    <g transform="translate(597 102)">
      <path fill="#2C3F60" d="M273.555878,242.14511 L273.555878,251.135647 C273.555878,257.728707 266.956942,260.725552 254.358974,260.725552 L43.7929366,260.725552 C52.191582,304.479495 89.9854862,340.44164 136.777939,340.44164 C161.973875,340.44164 184.170295,330.252366 200.367683,314.66877 C207.566522,307.476341 214.165457,303.880126 224.363812,303.880126 L232.162554,303.880126 C247.760039,303.880126 254.958878,314.66877 245.360426,327.255521 C220.16449,359.621451 180.570876,380 136.777939,380 C61.7900339,380 0,315.867508 0,242.14511 C0,167.223975 61.7900339,105.488959 136.777939,105.488959 C211.765844,105.488959 273.555878,167.223975 273.555878,242.14511 Z M136.777939,145.047319 C89.9854862,145.047319 52.7914852,178.611987 43.7929366,222.365931 L229.762941,222.365931 C220.764393,178.611987 183.570392,145.047319 136.777939,145.047319 Z M434.329947,373.40694 L422.931785,373.40694 C411.533624,373.40694 404.934688,368.611987 400.735365,358.422713 L307.15046,131.861199 C301.75133,118.675079 307.750363,109.684543 322.148041,109.684543 L325.74746,109.684543 C337.145622,109.684543 343.744557,114.479495 347.94388,124.66877 L428.930818,320.063091 L509.317852,124.66877 C513.517175,114.479495 520.11611,109.684543 531.514272,109.684543 L535.113691,109.684543 C549.511369,109.684543 555.510402,118.675079 550.111272,131.861199 L456.526367,358.422713 C452.327044,368.611987 445.728108,373.40694 434.329947,373.40694 Z M627.498791,56.340694 C611.301403,56.340694 598.703435,43.7539432 598.703435,27.5709779 C598.703435,13.1861199 611.301403,0 627.498791,0 C642.496372,0 655.694243,13.1861199 655.694243,27.5709779 C655.694243,43.7539432 642.496372,56.340694 627.498791,56.340694 Z M629.898403,373.40694 L626.298984,373.40694 C613.701016,373.40694 607.10208,366.81388 607.10208,354.227129 L607.10208,128.864353 C607.10208,116.277603 613.701016,109.684543 626.298984,109.684543 L629.898403,109.684543 C642.496372,109.684543 649.095307,116.277603 649.095307,128.864353 L649.095307,354.227129 C649.095307,366.81388 642.496372,373.40694 629.898403,373.40694 Z M887.256894,174.416404 C876.458636,174.416404 871.65941,169.022082 865.060474,160.630915 C856.061925,149.842271 839.264635,143.249211 817.068215,143.249211 C785.273343,143.249211 763.076923,158.233438 763.076923,178.012618 C763.076923,197.791798 780.474117,209.179811 823.66715,217.570978 C891.456217,231.356467 918.451863,254.731861 918.451863,298.485804 C918.451863,344.637224 883.057571,377.602524 817.068215,377.602524 C766.676343,377.602524 730.682148,354.227129 719.283986,318.864353 C715.084664,306.277603 723.483309,298.485804 736.68118,298.485804 C747.479439,298.485804 752.278665,303.880126 758.277697,312.870662 C768.476052,328.454259 790.672472,339.842271 817.068215,339.842271 C856.061925,339.842271 881.857765,322.460568 881.857765,298.485804 C881.857765,273.312303 865.060474,264.921136 817.068215,255.33123 C754.078374,242.744479 725.882922,219.968454 725.882922,178.012618 C725.882922,137.85489 757.077891,105.488959 817.068215,105.488959 C859.661345,105.488959 890.25641,124.66877 902.854378,153.438486 C908.253507,166.025237 900.454765,174.416404 887.256894,174.416404 Z M1100.22254,380 C1025.23464,380 963.444606,315.867508 963.444606,242.14511 C963.444606,167.223975 1025.23464,105.488959 1100.22254,105.488959 C1140.41606,105.488959 1175.81035,124.069401 1199.80648,152.839117 L1199.80648,128.864353 C1199.80648,116.277603 1206.40542,109.684543 1219.00339,109.684543 L1220.8031,109.684543 C1233.40106,109.684543 1240,116.277603 1240,128.864353 L1240,355.425868 C1240,368.012618 1233.40106,374.605678 1220.8031,374.605678 L1219.00339,374.605678 C1206.40542,374.605678 1199.80648,368.012618 1199.80648,355.425868 L1199.80648,331.451104 C1175.81035,360.820189 1140.41606,380 1100.22254,380 Z M1099.02274,340.44164 C1151.21432,340.44164 1197.40687,294.290221 1197.40687,242.14511 C1197.40687,188.801262 1151.21432,145.047319 1099.02274,145.047319 C1045.63135,145.047319 1005.43783,188.801262 1005.43783,242.14511 C1005.43783,294.290221 1045.63135,340.44164 1099.02274,340.44164 Z"/>
      <g fill="#2BC47D" transform="translate(1282 112)">
        <path d="M216.121513,268 L204.724934,268 C193.328354,268 186.730334,263.203579 182.531595,253.011186 L88.9596777,26.3803132 C83.5612979,13.1901566 89.5594977,4.19686801 103.955177,4.19686801 L107.554097,4.19686801 C118.950677,4.19686801 125.548696,8.99328859 129.747436,19.1856823 L210.723134,214.639821 L291.099011,19.1856823 C295.297751,8.99328859 301.895771,4.19686801 313.29235,4.19686801 L316.89127,4.19686801 C331.28695,4.19686801 337.285149,13.1901566 331.88677,26.3803132 L238.314853,253.011186 C234.116113,263.203579 227.518093,268 216.121513,268 Z M407.464087,268 L405.664627,268 C393.068408,268 386.470388,261.404922 386.470388,248.814318 L386.470388,23.3825503 C386.470388,10.7919463 393.068408,4.19686801 405.664627,4.19686801 L407.464087,4.19686801 C420.060307,4.19686801 426.658326,10.7919463 426.658326,23.3825503 L426.658326,35.9731544 C447.652026,13.1901566 477.043205,0 513.032404,0 C588.609721,0 621,33.5749441 621,117.512304 L621,248.814318 C621,261.404922 614.40198,268 601.805761,268 L600.006301,268 C587.410081,268 580.812061,261.404922 580.812061,248.814318 L580.812061,117.512304 C580.812061,65.3512304 556.819262,39.5704698 513.032404,39.5704698 C459.648425,38.3713647 426.658326,68.3489933 426.658326,127.704698 L426.658326,248.814318 C426.658326,261.404922 420.060307,268 407.464087,268 Z"/>
        <rect width="77" height="34" y="119" rx="17"/>
      </g>
    </g>
  </g>
</svg>
